  0
SECTION
  2
HEADER
  9
$ACADVER
  1
AC1009
  9
$FILLMODE
 70
 0
  9
$SPLFRAME
 70
 1
  9
$EXTMIN
 10
0
 20
0
 30
0.0
  9
$EXTMAX
 10
1058.33
 20
1058.33
 30
0.0
  0
ENDSEC
  0
SECTION
  2
TABLES
  0
TABLE
  2
LAYER
 70
1
  0
LAYER
  2
0
 70
     0
 62
     7
  6
CONTINUOUS
  0
ENDTAB
  0
ENDSEC
  0
SECTION
  2
ENTITIES
  0
LINE
  8
0
 62
     0
 10
0.0950846
 20
103.621
 30
0.0
 11
146.308
 21
103.621
 31
0.0
  0
LINE
  8
0
 62
     0
 10
146.308
 20
103.621
 30
0.0
 11
146.308
 21
0.272852
 31
0.0
  0
LINE
  8
0
 62
     0
 10
146.308
 20
0.272852
 30
0.0
 11
0.0950846
 21
0.272852
 31
0.0
  0
LINE
  8
0
 62
     0
 10
0.0950846
 20
0.272852
 30
0.0
 11
0.0950846
 21
103.621
 31
0.0
  0
LINE
  8
0
 62
     0
 10
107.326
 20
20.2475
 30
0.0
 11
110.526
 21
20.2475
 31
0.0
  0
LINE
  8
0
 62
     0
 10
110.526
 20
20.2475
 30
0.0
 11
110.526
 21
6.14744
 31
0.0
  0
LINE
  8
0
 62
     0
 10
110.526
 20
6.14744
 30
0.0
 11
107.326
 21
6.14744
 31
0.0
  0
LINE
  8
0
 62
     0
 10
107.326
 20
6.14744
 30
0.0
 11
107.326
 21
20.2475
 31
0.0
  0
LINE
  8
0
 62
     0
 10
131.126
 20
20.2475
 30
0.0
 11
134.326
 21
20.2475
 31
0.0
  0
LINE
  8
0
 62
     0
 10
134.326
 20
20.2475
 30
0.0
 11
134.326
 21
6.14744
 31
0.0
  0
LINE
  8
0
 62
     0
 10
134.326
 20
6.14744
 30
0.0
 11
131.126
 21
6.14744
 31
0.0
  0
LINE
  8
0
 62
     0
 10
131.126
 20
6.14744
 30
0.0
 11
131.126
 21
20.2475
 31
0.0
  0
LINE
  8
0
 62
     0
 10
9.10057
 20
20.7987
 30
0.0
 11
23.0008
 21
20.7987
 31
0.0
  0
LINE
  8
0
 62
     0
 10
23.0008
 20
20.7987
 30
0.0
 11
23.0008
 21
6.89709
 31
0.0
  0
LINE
  8
0
 62
     0
 10
23.0008
 20
6.89709
 30
0.0
 11
9.10057
 21
6.89709
 31
0.0
  0
LINE
  8
0
 62
     0
 10
9.10057
 20
6.89709
 30
0.0
 11
9.10057
 21
20.7987
 31
0.0
  0
LINE
  8
0
 62
     0
 10
32.9131
 20
20.7987
 30
0.0
 11
46.8118
 21
20.7987
 31
0.0
  0
LINE
  8
0
 62
     0
 10
46.8118
 20
20.7987
 30
0.0
 11
46.8118
 21
6.89709
 31
0.0
  0
LINE
  8
0
 62
     0
 10
46.8118
 20
6.89709
 30
0.0
 11
32.9131
 21
6.89709
 31
0.0
  0
LINE
  8
0
 62
     0
 10
32.9131
 20
6.89709
 30
0.0
 11
32.9131
 21
20.7987
 31
0.0
  0
LINE
  8
0
 62
     0
 10
56.7256
 20
20.7987
 30
0.0
 11
70.6258
 21
20.7987
 31
0.0
  0
LINE
  8
0
 62
     0
 10
70.6258
 20
20.7987
 30
0.0
 11
70.6258
 21
6.89709
 31
0.0
  0
LINE
  8
0
 62
     0
 10
70.6258
 20
6.89709
 30
0.0
 11
56.7256
 21
6.89709
 31
0.0
  0
LINE
  8
0
 62
     0
 10
56.7256
 20
6.89709
 30
0.0
 11
56.7256
 21
20.7987
 31
0.0
  0
LINE
  8
0
 62
     0
 10
80.5381
 20
20.7987
 30
0.0
 11
94.4369
 21
20.7987
 31
0.0
  0
LINE
  8
0
 62
     0
 10
94.4369
 20
20.7987
 30
0.0
 11
94.4369
 21
6.89709
 31
0.0
  0
LINE
  8
0
 62
     0
 10
94.4369
 20
6.89709
 30
0.0
 11
80.5381
 21
6.89709
 31
0.0
  0
LINE
  8
0
 62
     0
 10
80.5381
 20
6.89709
 30
0.0
 11
80.5381
 21
20.7987
 31
0.0
  0
LINE
  8
0
 62
     0
 10
113.876
 20
20.7987
 30
0.0
 11
127.776
 21
20.7987
 31
0.0
  0
LINE
  8
0
 62
     0
 10
127.776
 20
20.7987
 30
0.0
 11
127.776
 21
6.89709
 31
0.0
  0
LINE
  8
0
 62
     0
 10
127.776
 20
6.89709
 30
0.0
 11
113.876
 21
6.89709
 31
0.0
  0
LINE
  8
0
 62
     0
 10
113.876
 20
6.89709
 30
0.0
 11
113.876
 21
20.7987
 31
0.0
  0
LINE
  8
0
 62
     0
 10
12.0758
 20
39.2977
 30
0.0
 11
15.2756
 21
39.2977
 31
0.0
  0
LINE
  8
0
 62
     0
 10
15.2756
 20
39.2977
 30
0.0
 11
15.2756
 21
25.1974
 31
0.0
  0
LINE
  8
0
 62
     0
 10
15.2756
 20
25.1974
 30
0.0
 11
12.0758
 21
25.1974
 31
0.0
  0
LINE
  8
0
 62
     0
 10
12.0758
 20
25.1974
 30
0.0
 11
12.0758
 21
39.2977
 31
0.0
  0
LINE
  8
0
 62
     0
 10
35.8757
 20
39.2977
 30
0.0
 11
39.0758
 21
39.2977
 31
0.0
  0
LINE
  8
0
 62
     0
 10
39.0758
 20
39.2977
 30
0.0
 11
39.0758
 21
25.1974
 31
0.0
  0
LINE
  8
0
 62
     0
 10
39.0758
 20
25.1974
 30
0.0
 11
35.8757
 21
25.1974
 31
0.0
  0
LINE
  8
0
 62
     0
 10
35.8757
 20
25.1974
 30
0.0
 11
35.8757
 21
39.2977
 31
0.0
  0
LINE
  8
0
 62
     0
 10
18.6256
 20
39.8487
 30
0.0
 11
32.5258
 21
39.8487
 31
0.0
  0
LINE
  8
0
 62
     0
 10
32.5258
 20
39.8487
 30
0.0
 11
32.5258
 21
25.9471
 31
0.0
  0
LINE
  8
0
 62
     0
 10
32.5258
 20
25.9471
 30
0.0
 11
18.6256
 21
25.9471
 31
0.0
  0
LINE
  8
0
 62
     0
 10
18.6256
 20
25.9471
 30
0.0
 11
18.6256
 21
39.8487
 31
0.0
  0
LINE
  8
0
 62
     0
 10
49.5819
 20
39.8487
 30
0.0
 11
63.482
 21
39.8487
 31
0.0
  0
LINE
  8
0
 62
     0
 10
63.482
 20
39.8487
 30
0.0
 11
63.482
 21
25.9471
 31
0.0
  0
LINE
  8
0
 62
     0
 10
63.482
 20
25.9471
 30
0.0
 11
49.5819
 21
25.9471
 31
0.0
  0
LINE
  8
0
 62
     0
 10
49.5819
 20
25.9471
 30
0.0
 11
49.5819
 21
39.8487
 31
0.0
  0
LINE
  8
0
 62
     0
 10
68.6319
 20
39.8487
 30
0.0
 11
82.532
 21
39.8487
 31
0.0
  0
LINE
  8
0
 62
     0
 10
82.532
 20
39.8487
 30
0.0
 11
82.532
 21
25.9471
 31
0.0
  0
LINE
  8
0
 62
     0
 10
82.532
 20
25.9471
 30
0.0
 11
68.6319
 21
25.9471
 31
0.0
  0
LINE
  8
0
 62
     0
 10
68.6319
 20
25.9471
 30
0.0
 11
68.6319
 21
39.8487
 31
0.0
  0
LINE
  8
0
 62
     0
 10
87.6819
 20
39.8487
 30
0.0
 11
101.582
 21
39.8487
 31
0.0
  0
LINE
  8
0
 62
     0
 10
101.582
 20
39.8487
 30
0.0
 11
101.582
 21
25.9471
 31
0.0
  0
LINE
  8
0
 62
     0
 10
101.582
 20
25.9471
 30
0.0
 11
87.6819
 21
25.9471
 31
0.0
  0
LINE
  8
0
 62
     0
 10
87.6819
 20
25.9471
 30
0.0
 11
87.6819
 21
39.8487
 31
0.0
  0
LINE
  8
0
 62
     0
 10
106.732
 20
39.8487
 30
0.0
 11
120.632
 21
39.8487
 31
0.0
  0
LINE
  8
0
 62
     0
 10
120.632
 20
39.8487
 30
0.0
 11
120.632
 21
25.9471
 31
0.0
  0
LINE
  8
0
 62
     0
 10
120.632
 20
25.9471
 30
0.0
 11
106.732
 21
25.9471
 31
0.0
  0
LINE
  8
0
 62
     0
 10
106.732
 20
25.9471
 30
0.0
 11
106.732
 21
39.8487
 31
0.0
  0
LINE
  8
0
 62
     0
 10
125.782
 20
39.8487
 30
0.0
 11
139.682
 21
39.8487
 31
0.0
  0
LINE
  8
0
 62
     0
 10
139.682
 20
39.8487
 30
0.0
 11
139.682
 21
25.9471
 31
0.0
  0
LINE
  8
0
 62
     0
 10
139.682
 20
25.9471
 30
0.0
 11
125.782
 21
25.9471
 31
0.0
  0
LINE
  8
0
 62
     0
 10
125.782
 20
25.9471
 30
0.0
 11
125.782
 21
39.8487
 31
0.0
  0
LINE
  8
0
 62
     0
 10
13.8631
 20
58.8987
 30
0.0
 11
27.762
 21
58.8987
 31
0.0
  0
LINE
  8
0
 62
     0
 10
27.762
 20
58.8987
 30
0.0
 11
27.762
 21
44.9972
 31
0.0
  0
LINE
  8
0
 62
     0
 10
27.762
 20
44.9972
 30
0.0
 11
13.8631
 21
44.9972
 31
0.0
  0
LINE
  8
0
 62
     0
 10
13.8631
 20
44.9972
 30
0.0
 11
13.8631
 21
58.8987
 31
0.0
  0
LINE
  8
0
 62
     0
 10
40.0569
 20
58.8987
 30
0.0
 11
53.957
 21
58.8987
 31
0.0
  0
LINE
  8
0
 62
     0
 10
53.957
 20
58.8987
 30
0.0
 11
53.957
 21
44.9972
 31
0.0
  0
LINE
  8
0
 62
     0
 10
53.957
 20
44.9972
 30
0.0
 11
40.0569
 21
44.9972
 31
0.0
  0
LINE
  8
0
 62
     0
 10
40.0569
 20
44.9972
 30
0.0
 11
40.0569
 21
58.8987
 31
0.0
  0
LINE
  8
0
 62
     0
 10
59.1069
 20
58.8987
 30
0.0
 11
73.007
 21
58.8987
 31
0.0
  0
LINE
  8
0
 62
     0
 10
73.007
 20
58.8987
 30
0.0
 11
73.007
 21
44.9972
 31
0.0
  0
LINE
  8
0
 62
     0
 10
73.007
 20
44.9972
 30
0.0
 11
59.1069
 21
44.9972
 31
0.0
  0
LINE
  8
0
 62
     0
 10
59.1069
 20
44.9972
 30
0.0
 11
59.1069
 21
58.8987
 31
0.0
  0
LINE
  8
0
 62
     0
 10
78.1569
 20
58.8987
 30
0.0
 11
92.057
 21
58.8987
 31
0.0
  0
LINE
  8
0
 62
     0
 10
92.057
 20
58.8987
 30
0.0
 11
92.057
 21
44.9972
 31
0.0
  0
LINE
  8
0
 62
     0
 10
92.057
 20
44.9972
 30
0.0
 11
78.1569
 21
44.9972
 31
0.0
  0
LINE
  8
0
 62
     0
 10
78.1569
 20
44.9972
 30
0.0
 11
78.1569
 21
58.8987
 31
0.0
  0
LINE
  8
0
 62
     0
 10
97.2069
 20
58.8987
 30
0.0
 11
111.107
 21
58.8987
 31
0.0
  0
LINE
  8
0
 62
     0
 10
111.107
 20
58.8987
 30
0.0
 11
111.107
 21
44.9972
 31
0.0
  0
LINE
  8
0
 62
     0
 10
111.107
 20
44.9972
 30
0.0
 11
97.2069
 21
44.9972
 31
0.0
  0
LINE
  8
0
 62
     0
 10
97.2069
 20
44.9972
 30
0.0
 11
97.2069
 21
58.8987
 31
0.0
  0
LINE
  8
0
 62
     0
 10
116.257
 20
58.8987
 30
0.0
 11
130.157
 21
58.8987
 31
0.0
  0
LINE
  8
0
 62
     0
 10
130.157
 20
58.8987
 30
0.0
 11
130.157
 21
44.9972
 31
0.0
  0
LINE
  8
0
 62
     0
 10
130.157
 20
44.9972
 30
0.0
 11
116.257
 21
44.9972
 31
0.0
  0
LINE
  8
0
 62
     0
 10
116.257
 20
44.9972
 30
0.0
 11
116.257
 21
58.8987
 31
0.0
  0
LINE
  8
0
 62
     0
 10
11.4818
 20
77.9473
 30
0.0
 11
25.3821
 21
77.9473
 31
0.0
  0
LINE
  8
0
 62
     0
 10
25.3821
 20
77.9473
 30
0.0
 11
25.3821
 21
64.0472
 31
0.0
  0
LINE
  8
0
 62
     0
 10
25.3821
 20
64.0472
 30
0.0
 11
11.4818
 21
64.0472
 31
0.0
  0
LINE
  8
0
 62
     0
 10
11.4818
 20
64.0472
 30
0.0
 11
11.4818
 21
77.9473
 31
0.0
  0
LINE
  8
0
 62
     0
 10
35.2944
 20
77.9473
 30
0.0
 11
49.1945
 21
77.9473
 31
0.0
  0
LINE
  8
0
 62
     0
 10
49.1945
 20
77.9473
 30
0.0
 11
49.1945
 21
64.0472
 31
0.0
  0
LINE
  8
0
 62
     0
 10
49.1945
 20
64.0472
 30
0.0
 11
35.2944
 21
64.0472
 31
0.0
  0
LINE
  8
0
 62
     0
 10
35.2944
 20
64.0472
 30
0.0
 11
35.2944
 21
77.9473
 31
0.0
  0
LINE
  8
0
 62
     0
 10
54.3444
 20
77.9473
 30
0.0
 11
68.2445
 21
77.9473
 31
0.0
  0
LINE
  8
0
 62
     0
 10
68.2445
 20
77.9473
 30
0.0
 11
68.2445
 21
64.0472
 31
0.0
  0
LINE
  8
0
 62
     0
 10
68.2445
 20
64.0472
 30
0.0
 11
54.3444
 21
64.0472
 31
0.0
  0
LINE
  8
0
 62
     0
 10
54.3444
 20
64.0472
 30
0.0
 11
54.3444
 21
77.9473
 31
0.0
  0
LINE
  8
0
 62
     0
 10
73.3944
 20
77.9473
 30
0.0
 11
87.2945
 21
77.9473
 31
0.0
  0
LINE
  8
0
 62
     0
 10
87.2945
 20
77.9473
 30
0.0
 11
87.2945
 21
64.0472
 31
0.0
  0
LINE
  8
0
 62
     0
 10
87.2945
 20
64.0472
 30
0.0
 11
73.3944
 21
64.0472
 31
0.0
  0
LINE
  8
0
 62
     0
 10
73.3944
 20
64.0472
 30
0.0
 11
73.3944
 21
77.9473
 31
0.0
  0
LINE
  8
0
 62
     0
 10
92.4444
 20
77.9473
 30
0.0
 11
106.345
 21
77.9473
 31
0.0
  0
LINE
  8
0
 62
     0
 10
106.345
 20
77.9473
 30
0.0
 11
106.345
 21
64.0472
 31
0.0
  0
LINE
  8
0
 62
     0
 10
106.345
 20
64.0472
 30
0.0
 11
92.4444
 21
64.0472
 31
0.0
  0
LINE
  8
0
 62
     0
 10
92.4444
 20
64.0472
 30
0.0
 11
92.4444
 21
77.9473
 31
0.0
  0
LINE
  8
0
 62
     0
 10
111.493
 20
77.9473
 30
0.0
 11
125.393
 21
77.9473
 31
0.0
  0
LINE
  8
0
 62
     0
 10
125.393
 20
77.9473
 30
0.0
 11
125.393
 21
64.0472
 31
0.0
  0
LINE
  8
0
 62
     0
 10
125.393
 20
64.0472
 30
0.0
 11
111.493
 21
64.0472
 31
0.0
  0
LINE
  8
0
 62
     0
 10
111.493
 20
64.0472
 30
0.0
 11
111.493
 21
77.9473
 31
0.0
  0
LINE
  8
0
 62
     0
 10
6.71932
 20
96.9973
 30
0.0
 11
20.6196
 21
96.9973
 31
0.0
  0
LINE
  8
0
 62
     0
 10
20.6196
 20
96.9973
 30
0.0
 11
20.6196
 21
83.0972
 31
0.0
  0
LINE
  8
0
 62
     0
 10
20.6196
 20
83.0972
 30
0.0
 11
6.71932
 21
83.0972
 31
0.0
  0
LINE
  8
0
 62
     0
 10
6.71932
 20
83.0972
 30
0.0
 11
6.71932
 21
96.9973
 31
0.0
  0
LINE
  8
0
 62
     0
 10
25.7693
 20
96.9973
 30
0.0
 11
39.6695
 21
96.9973
 31
0.0
  0
LINE
  8
0
 62
     0
 10
39.6695
 20
96.9973
 30
0.0
 11
39.6695
 21
83.0972
 31
0.0
  0
LINE
  8
0
 62
     0
 10
39.6695
 20
83.0972
 30
0.0
 11
25.7693
 21
83.0972
 31
0.0
  0
LINE
  8
0
 62
     0
 10
25.7693
 20
83.0972
 30
0.0
 11
25.7693
 21
96.9973
 31
0.0
  0
LINE
  8
0
 62
     0
 10
44.8179
 20
96.9973
 30
0.0
 11
58.7195
 21
96.9973
 31
0.0
  0
LINE
  8
0
 62
     0
 10
58.7195
 20
96.9973
 30
0.0
 11
58.7195
 21
83.0972
 31
0.0
  0
LINE
  8
0
 62
     0
 10
58.7195
 20
83.0972
 30
0.0
 11
44.8179
 21
83.0972
 31
0.0
  0
LINE
  8
0
 62
     0
 10
44.8179
 20
83.0972
 30
0.0
 11
44.8179
 21
96.9973
 31
0.0
  0
LINE
  8
0
 62
     0
 10
63.8679
 20
96.9973
 30
0.0
 11
77.7695
 21
96.9973
 31
0.0
  0
LINE
  8
0
 62
     0
 10
77.7695
 20
96.9973
 30
0.0
 11
77.7695
 21
83.0972
 31
0.0
  0
LINE
  8
0
 62
     0
 10
77.7695
 20
83.0972
 30
0.0
 11
63.8679
 21
83.0972
 31
0.0
  0
LINE
  8
0
 62
     0
 10
63.8679
 20
83.0972
 30
0.0
 11
63.8679
 21
96.9973
 31
0.0
  0
LINE
  8
0
 62
     0
 10
82.9179
 20
96.9973
 30
0.0
 11
96.8195
 21
96.9973
 31
0.0
  0
LINE
  8
0
 62
     0
 10
96.8195
 20
96.9973
 30
0.0
 11
96.8195
 21
83.0972
 31
0.0
  0
LINE
  8
0
 62
     0
 10
96.8195
 20
83.0972
 30
0.0
 11
82.9179
 21
83.0972
 31
0.0
  0
LINE
  8
0
 62
     0
 10
82.9179
 20
83.0972
 30
0.0
 11
82.9179
 21
96.9973
 31
0.0
  0
LINE
  8
0
 62
     0
 10
101.968
 20
96.9973
 30
0.0
 11
115.868
 21
96.9973
 31
0.0
  0
LINE
  8
0
 62
     0
 10
115.868
 20
96.9973
 30
0.0
 11
115.868
 21
83.0972
 31
0.0
  0
LINE
  8
0
 62
     0
 10
115.868
 20
83.0972
 30
0.0
 11
101.968
 21
83.0972
 31
0.0
  0
LINE
  8
0
 62
     0
 10
101.968
 20
83.0972
 30
0.0
 11
101.968
 21
96.9973
 31
0.0
  0
LINE
  8
0
 62
     0
 10
121.019
 20
96.9973
 30
0.0
 11
134.92
 21
96.9973
 31
0.0
  0
LINE
  8
0
 62
     0
 10
134.92
 20
96.9973
 30
0.0
 11
134.92
 21
83.0972
 31
0.0
  0
LINE
  8
0
 62
     0
 10
134.92
 20
83.0972
 30
0.0
 11
121.019
 21
83.0972
 31
0.0
  0
LINE
  8
0
 62
     0
 10
121.019
 20
83.0972
 30
0.0
 11
121.019
 21
96.9973
 31
0.0
  0
ENDSEC
  0
EOF
