  0
SECTION
  2
HEADER
  9
$ACADVER
  1
AC1009
  9
$FILLMODE
 70
 0
  9
$SPLFRAME
 70
 1
  9
$EXTMIN
 10
0
 20
0
 30
0.0
  9
$EXTMAX
 10
1058.33
 20
1058.33
 30
0.0
  0
ENDSEC
  0
SECTION
  2
TABLES
  0
TABLE
  2
LAYER
 70
1
  0
LAYER
  2
0
 70
     0
 62
     7
  6
CONTINUOUS
  0
ENDTAB
  0
ENDSEC
  0
SECTION
  2
ENTITIES
  0
LINE
  8
0
 62
     0
 10
0.0950846
 20
103.621
 30
0.0
 11
198.695
 21
103.621
 31
0.0
  0
LINE
  8
0
 62
     0
 10
198.695
 20
103.621
 30
0.0
 11
198.695
 21
0.272852
 31
0.0
  0
LINE
  8
0
 62
     0
 10
198.695
 20
0.272852
 30
0.0
 11
0.0950846
 21
0.272852
 31
0.0
  0
LINE
  8
0
 62
     0
 10
0.0950846
 20
0.272852
 30
0.0
 11
0.0950846
 21
103.621
 31
0.0
  0
LINE
  8
0
 62
     0
 10
40.6506
 20
20.2475
 30
0.0
 11
43.8506
 21
20.2475
 31
0.0
  0
LINE
  8
0
 62
     0
 10
43.8506
 20
20.2475
 30
0.0
 11
43.8506
 21
6.14744
 31
0.0
  0
LINE
  8
0
 62
     0
 10
43.8506
 20
6.14744
 30
0.0
 11
40.6506
 21
6.14744
 31
0.0
  0
LINE
  8
0
 62
     0
 10
40.6506
 20
6.14744
 30
0.0
 11
40.6506
 21
20.2475
 31
0.0
  0
LINE
  8
0
 62
     0
 10
64.4507
 20
20.2475
 30
0.0
 11
67.6508
 21
20.2475
 31
0.0
  0
LINE
  8
0
 62
     0
 10
67.6508
 20
20.2475
 30
0.0
 11
67.6508
 21
6.14744
 31
0.0
  0
LINE
  8
0
 62
     0
 10
67.6508
 20
6.14744
 30
0.0
 11
64.4507
 21
6.14744
 31
0.0
  0
LINE
  8
0
 62
     0
 10
64.4507
 20
6.14744
 30
0.0
 11
64.4507
 21
20.2475
 31
0.0
  0
LINE
  8
0
 62
     0
 10
11.4818
 20
20.7987
 30
0.0
 11
25.3821
 21
20.7987
 31
0.0
  0
LINE
  8
0
 62
     0
 10
25.3821
 20
20.7987
 30
0.0
 11
25.3821
 21
6.89709
 31
0.0
  0
LINE
  8
0
 62
     0
 10
25.3821
 20
6.89709
 30
0.0
 11
11.4818
 21
6.89709
 31
0.0
  0
LINE
  8
0
 62
     0
 10
11.4818
 20
6.89709
 30
0.0
 11
11.4818
 21
20.7987
 31
0.0
  0
LINE
  8
0
 62
     0
 10
47.2006
 20
20.7987
 30
0.0
 11
61.1008
 21
20.7987
 31
0.0
  0
LINE
  8
0
 62
     0
 10
61.1008
 20
20.7987
 30
0.0
 11
61.1008
 21
6.89709
 31
0.0
  0
LINE
  8
0
 62
     0
 10
61.1008
 20
6.89709
 30
0.0
 11
47.2006
 21
6.89709
 31
0.0
  0
LINE
  8
0
 62
     0
 10
47.2006
 20
6.89709
 30
0.0
 11
47.2006
 21
20.7987
 31
0.0
  0
LINE
  8
0
 62
     0
 10
82.9194
 20
20.7987
 30
0.0
 11
96.8195
 21
20.7987
 31
0.0
  0
LINE
  8
0
 62
     0
 10
96.8195
 20
20.7987
 30
0.0
 11
96.8195
 21
6.89709
 31
0.0
  0
LINE
  8
0
 62
     0
 10
96.8195
 20
6.89709
 30
0.0
 11
82.9194
 21
6.89709
 31
0.0
  0
LINE
  8
0
 62
     0
 10
82.9194
 20
6.89709
 30
0.0
 11
82.9194
 21
20.7987
 31
0.0
  0
LINE
  8
0
 62
     0
 10
101.969
 20
20.7987
 30
0.0
 11
115.87
 21
20.7987
 31
0.0
  0
LINE
  8
0
 62
     0
 10
115.87
 20
20.7987
 30
0.0
 11
115.87
 21
6.89709
 31
0.0
  0
LINE
  8
0
 62
     0
 10
115.87
 20
6.89709
 30
0.0
 11
101.969
 21
6.89709
 31
0.0
  0
LINE
  8
0
 62
     0
 10
101.969
 20
6.89709
 30
0.0
 11
101.969
 21
20.7987
 31
0.0
  0
LINE
  8
0
 62
     0
 10
121.019
 20
20.7987
 30
0.0
 11
134.92
 21
20.7987
 31
0.0
  0
LINE
  8
0
 62
     0
 10
134.92
 20
20.7987
 30
0.0
 11
134.92
 21
6.89709
 31
0.0
  0
LINE
  8
0
 62
     0
 10
134.92
 20
6.89709
 30
0.0
 11
121.019
 21
6.89709
 31
0.0
  0
LINE
  8
0
 62
     0
 10
121.019
 20
6.89709
 30
0.0
 11
121.019
 21
20.7987
 31
0.0
  0
LINE
  8
0
 62
     0
 10
140.069
 20
20.7987
 30
0.0
 11
153.97
 21
20.7987
 31
0.0
  0
LINE
  8
0
 62
     0
 10
153.97
 20
20.7987
 30
0.0
 11
153.97
 21
6.89709
 31
0.0
  0
LINE
  8
0
 62
     0
 10
153.97
 20
6.89709
 30
0.0
 11
140.069
 21
6.89709
 31
0.0
  0
LINE
  8
0
 62
     0
 10
140.069
 20
6.89709
 30
0.0
 11
140.069
 21
20.7987
 31
0.0
  0
LINE
  8
0
 62
     0
 10
159.119
 20
20.7987
 30
0.0
 11
173.02
 21
20.7987
 31
0.0
  0
LINE
  8
0
 62
     0
 10
173.02
 20
20.7987
 30
0.0
 11
173.02
 21
6.89709
 31
0.0
  0
LINE
  8
0
 62
     0
 10
173.02
 20
6.89709
 30
0.0
 11
159.119
 21
6.89709
 31
0.0
  0
LINE
  8
0
 62
     0
 10
159.119
 20
6.89709
 30
0.0
 11
159.119
 21
20.7987
 31
0.0
  0
LINE
  8
0
 62
     0
 10
178.169
 20
20.7987
 30
0.0
 11
192.07
 21
20.7987
 31
0.0
  0
LINE
  8
0
 62
     0
 10
192.07
 20
20.7987
 30
0.0
 11
192.07
 21
6.89709
 31
0.0
  0
LINE
  8
0
 62
     0
 10
192.07
 20
6.89709
 30
0.0
 11
178.169
 21
6.89709
 31
0.0
  0
LINE
  8
0
 62
     0
 10
178.169
 20
6.89709
 30
0.0
 11
178.169
 21
20.7987
 31
0.0
  0
LINE
  8
0
 62
     0
 10
11.4818
 20
39.8487
 30
0.0
 11
25.3821
 21
39.8487
 31
0.0
  0
LINE
  8
0
 62
     0
 10
25.3821
 20
39.8487
 30
0.0
 11
25.3821
 21
25.9471
 31
0.0
  0
LINE
  8
0
 62
     0
 10
25.3821
 20
25.9471
 30
0.0
 11
11.4818
 21
25.9471
 31
0.0
  0
LINE
  8
0
 62
     0
 10
11.4818
 20
25.9471
 30
0.0
 11
11.4818
 21
39.8487
 31
0.0
  0
LINE
  8
0
 62
     0
 10
30.5318
 20
39.8487
 30
0.0
 11
44.432
 21
39.8487
 31
0.0
  0
LINE
  8
0
 62
     0
 10
44.432
 20
39.8487
 30
0.0
 11
44.432
 21
25.9471
 31
0.0
  0
LINE
  8
0
 62
     0
 10
44.432
 20
25.9471
 30
0.0
 11
30.5318
 21
25.9471
 31
0.0
  0
LINE
  8
0
 62
     0
 10
30.5318
 20
25.9471
 30
0.0
 11
30.5318
 21
39.8487
 31
0.0
  0
LINE
  8
0
 62
     0
 10
49.5819
 20
39.8487
 30
0.0
 11
63.482
 21
39.8487
 31
0.0
  0
LINE
  8
0
 62
     0
 10
63.482
 20
39.8487
 30
0.0
 11
63.482
 21
25.9471
 31
0.0
  0
LINE
  8
0
 62
     0
 10
63.482
 20
25.9471
 30
0.0
 11
49.5819
 21
25.9471
 31
0.0
  0
LINE
  8
0
 62
     0
 10
49.5819
 20
25.9471
 30
0.0
 11
49.5819
 21
39.8487
 31
0.0
  0
LINE
  8
0
 62
     0
 10
68.6319
 20
39.8487
 30
0.0
 11
82.532
 21
39.8487
 31
0.0
  0
LINE
  8
0
 62
     0
 10
82.532
 20
39.8487
 30
0.0
 11
82.532
 21
25.9471
 31
0.0
  0
LINE
  8
0
 62
     0
 10
82.532
 20
25.9471
 30
0.0
 11
68.6319
 21
25.9471
 31
0.0
  0
LINE
  8
0
 62
     0
 10
68.6319
 20
25.9471
 30
0.0
 11
68.6319
 21
39.8487
 31
0.0
  0
LINE
  8
0
 62
     0
 10
87.6819
 20
39.8487
 30
0.0
 11
101.582
 21
39.8487
 31
0.0
  0
LINE
  8
0
 62
     0
 10
101.582
 20
39.8487
 30
0.0
 11
101.582
 21
25.9471
 31
0.0
  0
LINE
  8
0
 62
     0
 10
101.582
 20
25.9471
 30
0.0
 11
87.6819
 21
25.9471
 31
0.0
  0
LINE
  8
0
 62
     0
 10
87.6819
 20
25.9471
 30
0.0
 11
87.6819
 21
39.8487
 31
0.0
  0
LINE
  8
0
 62
     0
 10
106.732
 20
39.8487
 30
0.0
 11
120.632
 21
39.8487
 31
0.0
  0
LINE
  8
0
 62
     0
 10
120.632
 20
39.8487
 30
0.0
 11
120.632
 21
25.9471
 31
0.0
  0
LINE
  8
0
 62
     0
 10
120.632
 20
25.9471
 30
0.0
 11
106.732
 21
25.9471
 31
0.0
  0
LINE
  8
0
 62
     0
 10
106.732
 20
25.9471
 30
0.0
 11
106.732
 21
39.8487
 31
0.0
  0
LINE
  8
0
 62
     0
 10
132.926
 20
39.8487
 30
0.0
 11
146.826
 21
39.8487
 31
0.0
  0
LINE
  8
0
 62
     0
 10
146.826
 20
39.8487
 30
0.0
 11
146.826
 21
25.9471
 31
0.0
  0
LINE
  8
0
 62
     0
 10
146.826
 20
25.9471
 30
0.0
 11
132.926
 21
25.9471
 31
0.0
  0
LINE
  8
0
 62
     0
 10
132.926
 20
25.9471
 30
0.0
 11
132.926
 21
39.8487
 31
0.0
  0
LINE
  8
0
 62
     0
 10
159.119
 20
39.8487
 30
0.0
 11
173.018
 21
39.8487
 31
0.0
  0
LINE
  8
0
 62
     0
 10
173.018
 20
39.8487
 30
0.0
 11
173.018
 21
25.9471
 31
0.0
  0
LINE
  8
0
 62
     0
 10
173.018
 20
25.9471
 30
0.0
 11
159.119
 21
25.9471
 31
0.0
  0
LINE
  8
0
 62
     0
 10
159.119
 20
25.9471
 30
0.0
 11
159.119
 21
39.8487
 31
0.0
  0
LINE
  8
0
 62
     0
 10
178.169
 20
39.8487
 30
0.0
 11
192.07
 21
39.8487
 31
0.0
  0
LINE
  8
0
 62
     0
 10
192.07
 20
39.8487
 30
0.0
 11
192.07
 21
25.9471
 31
0.0
  0
LINE
  8
0
 62
     0
 10
192.07
 20
25.9471
 30
0.0
 11
178.169
 21
25.9471
 31
0.0
  0
LINE
  8
0
 62
     0
 10
178.169
 20
25.9471
 30
0.0
 11
178.169
 21
39.8487
 31
0.0
  0
LINE
  8
0
 62
     0
 10
140.662
 20
58.3477
 30
0.0
 11
143.863
 21
58.3477
 31
0.0
  0
LINE
  8
0
 62
     0
 10
143.863
 20
58.3477
 30
0.0
 11
143.863
 21
44.2475
 31
0.0
  0
LINE
  8
0
 62
     0
 10
143.863
 20
44.2475
 30
0.0
 11
140.662
 21
44.2475
 31
0.0
  0
LINE
  8
0
 62
     0
 10
140.662
 20
44.2475
 30
0.0
 11
140.662
 21
58.3477
 31
0.0
  0
LINE
  8
0
 62
     0
 10
164.462
 20
58.3477
 30
0.0
 11
167.663
 21
58.3477
 31
0.0
  0
LINE
  8
0
 62
     0
 10
167.663
 20
58.3477
 30
0.0
 11
167.663
 21
44.2475
 31
0.0
  0
LINE
  8
0
 62
     0
 10
167.663
 20
44.2475
 30
0.0
 11
164.462
 21
44.2475
 31
0.0
  0
LINE
  8
0
 62
     0
 10
164.462
 20
44.2475
 30
0.0
 11
164.462
 21
58.3477
 31
0.0
  0
LINE
  8
0
 62
     0
 10
21.0068
 20
58.8987
 30
0.0
 11
34.9071
 21
58.8987
 31
0.0
  0
LINE
  8
0
 62
     0
 10
34.9071
 20
58.8987
 30
0.0
 11
34.9071
 21
44.9972
 31
0.0
  0
LINE
  8
0
 62
     0
 10
34.9071
 20
44.9972
 30
0.0
 11
21.0068
 21
44.9972
 31
0.0
  0
LINE
  8
0
 62
     0
 10
21.0068
 20
44.9972
 30
0.0
 11
21.0068
 21
58.8987
 31
0.0
  0
LINE
  8
0
 62
     0
 10
40.0569
 20
58.8987
 30
0.0
 11
53.957
 21
58.8987
 31
0.0
  0
LINE
  8
0
 62
     0
 10
53.957
 20
58.8987
 30
0.0
 11
53.957
 21
44.9972
 31
0.0
  0
LINE
  8
0
 62
     0
 10
53.957
 20
44.9972
 30
0.0
 11
40.0569
 21
44.9972
 31
0.0
  0
LINE
  8
0
 62
     0
 10
40.0569
 20
44.9972
 30
0.0
 11
40.0569
 21
58.8987
 31
0.0
  0
LINE
  8
0
 62
     0
 10
59.1069
 20
58.8987
 30
0.0
 11
73.007
 21
58.8987
 31
0.0
  0
LINE
  8
0
 62
     0
 10
73.007
 20
58.8987
 30
0.0
 11
73.007
 21
44.9972
 31
0.0
  0
LINE
  8
0
 62
     0
 10
73.007
 20
44.9972
 30
0.0
 11
59.1069
 21
44.9972
 31
0.0
  0
LINE
  8
0
 62
     0
 10
59.1069
 20
44.9972
 30
0.0
 11
59.1069
 21
58.8987
 31
0.0
  0
LINE
  8
0
 62
     0
 10
78.1569
 20
58.8987
 30
0.0
 11
92.057
 21
58.8987
 31
0.0
  0
LINE
  8
0
 62
     0
 10
92.057
 20
58.8987
 30
0.0
 11
92.057
 21
44.9972
 31
0.0
  0
LINE
  8
0
 62
     0
 10
92.057
 20
44.9972
 30
0.0
 11
78.1569
 21
44.9972
 31
0.0
  0
LINE
  8
0
 62
     0
 10
78.1569
 20
44.9972
 30
0.0
 11
78.1569
 21
58.8987
 31
0.0
  0
LINE
  8
0
 62
     0
 10
97.2069
 20
58.8987
 30
0.0
 11
111.107
 21
58.8987
 31
0.0
  0
LINE
  8
0
 62
     0
 10
111.107
 20
58.8987
 30
0.0
 11
111.107
 21
44.9972
 31
0.0
  0
LINE
  8
0
 62
     0
 10
111.107
 20
44.9972
 30
0.0
 11
97.2069
 21
44.9972
 31
0.0
  0
LINE
  8
0
 62
     0
 10
97.2069
 20
44.9972
 30
0.0
 11
97.2069
 21
58.8987
 31
0.0
  0
LINE
  8
0
 62
     0
 10
116.257
 20
58.8987
 30
0.0
 11
130.157
 21
58.8987
 31
0.0
  0
LINE
  8
0
 62
     0
 10
130.157
 20
58.8987
 30
0.0
 11
130.157
 21
44.9972
 31
0.0
  0
LINE
  8
0
 62
     0
 10
130.157
 20
44.9972
 30
0.0
 11
116.257
 21
44.9972
 31
0.0
  0
LINE
  8
0
 62
     0
 10
116.257
 20
44.9972
 30
0.0
 11
116.257
 21
58.8987
 31
0.0
  0
LINE
  8
0
 62
     0
 10
147.213
 20
58.8987
 30
0.0
 11
161.112
 21
58.8987
 31
0.0
  0
LINE
  8
0
 62
     0
 10
161.112
 20
58.8987
 30
0.0
 11
161.112
 21
44.9972
 31
0.0
  0
LINE
  8
0
 62
     0
 10
161.112
 20
44.9972
 30
0.0
 11
147.213
 21
44.9972
 31
0.0
  0
LINE
  8
0
 62
     0
 10
147.213
 20
44.9972
 30
0.0
 11
147.213
 21
58.8987
 31
0.0
  0
LINE
  8
0
 62
     0
 10
178.169
 20
58.8987
 30
0.0
 11
192.07
 21
58.8987
 31
0.0
  0
LINE
  8
0
 62
     0
 10
192.07
 20
58.8987
 30
0.0
 11
192.07
 21
44.9972
 31
0.0
  0
LINE
  8
0
 62
     0
 10
192.07
 20
44.9972
 30
0.0
 11
178.169
 21
44.9972
 31
0.0
  0
LINE
  8
0
 62
     0
 10
178.169
 20
44.9972
 30
0.0
 11
178.169
 21
58.8987
 31
0.0
  0
LINE
  8
0
 62
     0
 10
16.2443
 20
77.9473
 30
0.0
 11
30.1446
 21
77.9473
 31
0.0
  0
LINE
  8
0
 62
     0
 10
30.1446
 20
77.9473
 30
0.0
 11
30.1446
 21
64.0472
 31
0.0
  0
LINE
  8
0
 62
     0
 10
30.1446
 20
64.0472
 30
0.0
 11
16.2443
 21
64.0472
 31
0.0
  0
LINE
  8
0
 62
     0
 10
16.2443
 20
64.0472
 30
0.0
 11
16.2443
 21
77.9473
 31
0.0
  0
LINE
  8
0
 62
     0
 10
35.2944
 20
77.9473
 30
0.0
 11
49.1945
 21
77.9473
 31
0.0
  0
LINE
  8
0
 62
     0
 10
49.1945
 20
77.9473
 30
0.0
 11
49.1945
 21
64.0472
 31
0.0
  0
LINE
  8
0
 62
     0
 10
49.1945
 20
64.0472
 30
0.0
 11
35.2944
 21
64.0472
 31
0.0
  0
LINE
  8
0
 62
     0
 10
35.2944
 20
64.0472
 30
0.0
 11
35.2944
 21
77.9473
 31
0.0
  0
LINE
  8
0
 62
     0
 10
54.3444
 20
77.9473
 30
0.0
 11
68.2445
 21
77.9473
 31
0.0
  0
LINE
  8
0
 62
     0
 10
68.2445
 20
77.9473
 30
0.0
 11
68.2445
 21
64.0472
 31
0.0
  0
LINE
  8
0
 62
     0
 10
68.2445
 20
64.0472
 30
0.0
 11
54.3444
 21
64.0472
 31
0.0
  0
LINE
  8
0
 62
     0
 10
54.3444
 20
64.0472
 30
0.0
 11
54.3444
 21
77.9473
 31
0.0
  0
LINE
  8
0
 62
     0
 10
73.3944
 20
77.9473
 30
0.0
 11
87.2945
 21
77.9473
 31
0.0
  0
LINE
  8
0
 62
     0
 10
87.2945
 20
77.9473
 30
0.0
 11
87.2945
 21
64.0472
 31
0.0
  0
LINE
  8
0
 62
     0
 10
87.2945
 20
64.0472
 30
0.0
 11
73.3944
 21
64.0472
 31
0.0
  0
LINE
  8
0
 62
     0
 10
73.3944
 20
64.0472
 30
0.0
 11
73.3944
 21
77.9473
 31
0.0
  0
LINE
  8
0
 62
     0
 10
92.4444
 20
77.9473
 30
0.0
 11
106.345
 21
77.9473
 31
0.0
  0
LINE
  8
0
 62
     0
 10
106.345
 20
77.9473
 30
0.0
 11
106.345
 21
64.0472
 31
0.0
  0
LINE
  8
0
 62
     0
 10
106.345
 20
64.0472
 30
0.0
 11
92.4444
 21
64.0472
 31
0.0
  0
LINE
  8
0
 62
     0
 10
92.4444
 20
64.0472
 30
0.0
 11
92.4444
 21
77.9473
 31
0.0
  0
LINE
  8
0
 62
     0
 10
111.493
 20
77.9473
 30
0.0
 11
125.393
 21
77.9473
 31
0.0
  0
LINE
  8
0
 62
     0
 10
125.393
 20
77.9473
 30
0.0
 11
125.393
 21
64.0472
 31
0.0
  0
LINE
  8
0
 62
     0
 10
125.393
 20
64.0472
 30
0.0
 11
111.493
 21
64.0472
 31
0.0
  0
LINE
  8
0
 62
     0
 10
111.493
 20
64.0472
 30
0.0
 11
111.493
 21
77.9473
 31
0.0
  0
LINE
  8
0
 62
     0
 10
130.544
 20
77.9473
 30
0.0
 11
144.445
 21
77.9473
 31
0.0
  0
LINE
  8
0
 62
     0
 10
144.445
 20
77.9473
 30
0.0
 11
144.445
 21
64.0472
 31
0.0
  0
LINE
  8
0
 62
     0
 10
144.445
 20
64.0472
 30
0.0
 11
130.544
 21
64.0472
 31
0.0
  0
LINE
  8
0
 62
     0
 10
130.544
 20
64.0472
 30
0.0
 11
130.544
 21
77.9473
 31
0.0
  0
LINE
  8
0
 62
     0
 10
154.357
 20
77.9473
 30
0.0
 11
168.257
 21
77.9473
 31
0.0
  0
LINE
  8
0
 62
     0
 10
168.257
 20
77.9473
 30
0.0
 11
168.257
 21
64.0472
 31
0.0
  0
LINE
  8
0
 62
     0
 10
168.257
 20
64.0472
 30
0.0
 11
154.357
 21
64.0472
 31
0.0
  0
LINE
  8
0
 62
     0
 10
154.357
 20
64.0472
 30
0.0
 11
154.357
 21
77.9473
 31
0.0
  0
LINE
  8
0
 62
     0
 10
178.169
 20
77.9473
 30
0.0
 11
192.07
 21
77.9473
 31
0.0
  0
LINE
  8
0
 62
     0
 10
192.07
 20
77.9473
 30
0.0
 11
192.07
 21
64.0472
 31
0.0
  0
LINE
  8
0
 62
     0
 10
192.07
 20
64.0472
 30
0.0
 11
178.169
 21
64.0472
 31
0.0
  0
LINE
  8
0
 62
     0
 10
178.169
 20
64.0472
 30
0.0
 11
178.169
 21
77.9473
 31
0.0
  0
LINE
  8
0
 62
     0
 10
143.044
 20
96.4477
 30
0.0
 11
146.243
 21
96.4477
 31
0.0
  0
LINE
  8
0
 62
     0
 10
146.243
 20
96.4477
 30
0.0
 11
146.243
 21
82.3475
 31
0.0
  0
LINE
  8
0
 62
     0
 10
146.243
 20
82.3475
 30
0.0
 11
143.044
 21
82.3475
 31
0.0
  0
LINE
  8
0
 62
     0
 10
143.044
 20
82.3475
 30
0.0
 11
143.044
 21
96.4477
 31
0.0
  0
LINE
  8
0
 62
     0
 10
166.844
 20
96.4477
 30
0.0
 11
170.045
 21
96.4477
 31
0.0
  0
LINE
  8
0
 62
     0
 10
170.045
 20
96.4477
 30
0.0
 11
170.045
 21
82.3475
 31
0.0
  0
LINE
  8
0
 62
     0
 10
170.045
 20
82.3475
 30
0.0
 11
166.844
 21
82.3475
 31
0.0
  0
LINE
  8
0
 62
     0
 10
166.844
 20
82.3475
 30
0.0
 11
166.844
 21
96.4477
 31
0.0
  0
LINE
  8
0
 62
     0
 10
6.71932
 20
96.9973
 30
0.0
 11
20.6196
 21
96.9973
 31
0.0
  0
LINE
  8
0
 62
     0
 10
20.6196
 20
96.9973
 30
0.0
 11
20.6196
 21
83.0972
 31
0.0
  0
LINE
  8
0
 62
     0
 10
20.6196
 20
83.0972
 30
0.0
 11
6.71932
 21
83.0972
 31
0.0
  0
LINE
  8
0
 62
     0
 10
6.71932
 20
83.0972
 30
0.0
 11
6.71932
 21
96.9973
 31
0.0
  0
LINE
  8
0
 62
     0
 10
25.7693
 20
96.9973
 30
0.0
 11
39.6695
 21
96.9973
 31
0.0
  0
LINE
  8
0
 62
     0
 10
39.6695
 20
96.9973
 30
0.0
 11
39.6695
 21
83.0972
 31
0.0
  0
LINE
  8
0
 62
     0
 10
39.6695
 20
83.0972
 30
0.0
 11
25.7693
 21
83.0972
 31
0.0
  0
LINE
  8
0
 62
     0
 10
25.7693
 20
83.0972
 30
0.0
 11
25.7693
 21
96.9973
 31
0.0
  0
LINE
  8
0
 62
     0
 10
44.8179
 20
96.9973
 30
0.0
 11
58.7195
 21
96.9973
 31
0.0
  0
LINE
  8
0
 62
     0
 10
58.7195
 20
96.9973
 30
0.0
 11
58.7195
 21
83.0972
 31
0.0
  0
LINE
  8
0
 62
     0
 10
58.7195
 20
83.0972
 30
0.0
 11
44.8179
 21
83.0972
 31
0.0
  0
LINE
  8
0
 62
     0
 10
44.8179
 20
83.0972
 30
0.0
 11
44.8179
 21
96.9973
 31
0.0
  0
LINE
  8
0
 62
     0
 10
63.8679
 20
96.9973
 30
0.0
 11
77.7695
 21
96.9973
 31
0.0
  0
LINE
  8
0
 62
     0
 10
77.7695
 20
96.9973
 30
0.0
 11
77.7695
 21
83.0972
 31
0.0
  0
LINE
  8
0
 62
     0
 10
77.7695
 20
83.0972
 30
0.0
 11
63.8679
 21
83.0972
 31
0.0
  0
LINE
  8
0
 62
     0
 10
63.8679
 20
83.0972
 30
0.0
 11
63.8679
 21
96.9973
 31
0.0
  0
LINE
  8
0
 62
     0
 10
82.9179
 20
96.9973
 30
0.0
 11
96.8195
 21
96.9973
 31
0.0
  0
LINE
  8
0
 62
     0
 10
96.8195
 20
96.9973
 30
0.0
 11
96.8195
 21
83.0972
 31
0.0
  0
LINE
  8
0
 62
     0
 10
96.8195
 20
83.0972
 30
0.0
 11
82.9179
 21
83.0972
 31
0.0
  0
LINE
  8
0
 62
     0
 10
82.9179
 20
83.0972
 30
0.0
 11
82.9179
 21
96.9973
 31
0.0
  0
LINE
  8
0
 62
     0
 10
101.968
 20
96.9973
 30
0.0
 11
115.868
 21
96.9973
 31
0.0
  0
LINE
  8
0
 62
     0
 10
115.868
 20
96.9973
 30
0.0
 11
115.868
 21
83.0972
 31
0.0
  0
LINE
  8
0
 62
     0
 10
115.868
 20
83.0972
 30
0.0
 11
101.968
 21
83.0972
 31
0.0
  0
LINE
  8
0
 62
     0
 10
101.968
 20
83.0972
 30
0.0
 11
101.968
 21
96.9973
 31
0.0
  0
LINE
  8
0
 62
     0
 10
121.019
 20
96.9973
 30
0.0
 11
134.92
 21
96.9973
 31
0.0
  0
LINE
  8
0
 62
     0
 10
134.92
 20
96.9973
 30
0.0
 11
134.92
 21
83.0972
 31
0.0
  0
LINE
  8
0
 62
     0
 10
134.92
 20
83.0972
 30
0.0
 11
121.019
 21
83.0972
 31
0.0
  0
LINE
  8
0
 62
     0
 10
121.019
 20
83.0972
 30
0.0
 11
121.019
 21
96.9973
 31
0.0
  0
LINE
  8
0
 62
     0
 10
149.594
 20
96.9973
 30
0.0
 11
163.493
 21
96.9973
 31
0.0
  0
LINE
  8
0
 62
     0
 10
163.493
 20
96.9973
 30
0.0
 11
163.493
 21
83.0972
 31
0.0
  0
LINE
  8
0
 62
     0
 10
163.493
 20
83.0972
 30
0.0
 11
149.594
 21
83.0972
 31
0.0
  0
LINE
  8
0
 62
     0
 10
149.594
 20
83.0972
 30
0.0
 11
149.594
 21
96.9973
 31
0.0
  0
LINE
  8
0
 62
     0
 10
178.169
 20
96.9973
 30
0.0
 11
192.068
 21
96.9973
 31
0.0
  0
LINE
  8
0
 62
     0
 10
192.068
 20
96.9973
 30
0.0
 11
192.068
 21
83.0972
 31
0.0
  0
LINE
  8
0
 62
     0
 10
192.068
 20
83.0972
 30
0.0
 11
178.169
 21
83.0972
 31
0.0
  0
LINE
  8
0
 62
     0
 10
178.169
 20
83.0972
 30
0.0
 11
178.169
 21
96.9973
 31
0.0
  0
ENDSEC
  0
EOF
