0
SECTION
2
ENTITIES
0
LINE
8
0
10
0.1190
20
0.4590
30
0.0
11
138.1815
21
0.4590
31
0.0
0
LINE
8
0
10
138.1815
20
0.4590
30
0.0
11
138.1815
21
95.6590
31
0.0
0
LINE
8
0
10
138.1815
20
95.6590
30
0.0
11
0.1190
21
95.6590
31
0.0
0
LINE
8
0
10
0.1190
20
95.6590
30
0.0
11
0.1190
21
0.4590
31
0.0
0
LINE
8
0
10
2.6190
20
79.1590
30
0.0
11
16.6190
21
79.1590
31
0.0
0
LINE
8
0
10
16.6190
20
79.1590
30
0.0
11
16.6190
21
93.1590
31
0.0
0
LINE
8
0
10
16.6190
20
93.1590
30
0.0
11
2.6190
21
93.1590
31
0.0
0
LINE
8
0
10
2.6190
20
93.1590
30
0.0
11
2.6190
21
79.1590
31
0.0
0
LINE
8
0
10
21.6690
20
79.1590
30
0.0
11
35.6690
21
79.1590
31
0.0
0
LINE
8
0
10
35.6690
20
79.1590
30
0.0
11
35.6690
21
93.1590
31
0.0
0
LINE
8
0
10
35.6690
20
93.1590
30
0.0
11
21.6690
21
93.1590
31
0.0
0
LINE
8
0
10
21.6690
20
93.1590
30
0.0
11
21.6690
21
79.1590
31
0.0
0
LINE
8
0
10
40.7190
20
79.1590
30
0.0
11
54.7190
21
79.1590
31
0.0
0
LINE
8
0
10
54.7190
20
79.1590
30
0.0
11
54.7190
21
93.1590
31
0.0
0
LINE
8
0
10
54.7190
20
93.1590
30
0.0
11
40.7190
21
93.1590
31
0.0
0
LINE
8
0
10
40.7190
20
93.1590
30
0.0
11
40.7190
21
79.1590
31
0.0
0
LINE
8
0
10
59.7690
20
79.1590
30
0.0
11
73.7690
21
79.1590
31
0.0
0
LINE
8
0
10
73.7690
20
79.1590
30
0.0
11
73.7690
21
93.1590
31
0.0
0
LINE
8
0
10
73.7690
20
93.1590
30
0.0
11
59.7690
21
93.1590
31
0.0
0
LINE
8
0
10
59.7690
20
93.1590
30
0.0
11
59.7690
21
79.1590
31
0.0
0
LINE
8
0
10
78.8190
20
79.1590
30
0.0
11
92.8190
21
79.1590
31
0.0
0
LINE
8
0
10
92.8190
20
79.1590
30
0.0
11
92.8190
21
93.1590
31
0.0
0
LINE
8
0
10
92.8190
20
93.1590
30
0.0
11
78.8190
21
93.1590
31
0.0
0
LINE
8
0
10
78.8190
20
93.1590
30
0.0
11
78.8190
21
79.1590
31
0.0
0
LINE
8
0
10
97.8690
20
79.1590
30
0.0
11
111.8690
21
79.1590
31
0.0
0
LINE
8
0
10
111.8690
20
79.1590
30
0.0
11
111.8690
21
93.1590
31
0.0
0
LINE
8
0
10
111.8690
20
93.1590
30
0.0
11
97.8690
21
93.1590
31
0.0
0
LINE
8
0
10
97.8690
20
93.1590
30
0.0
11
97.8690
21
79.1590
31
0.0
0
LINE
8
0
10
116.9190
20
79.1590
30
0.0
11
130.9190
21
79.1590
31
0.0
0
LINE
8
0
10
130.9190
20
79.1590
30
0.0
11
130.9190
21
93.1590
31
0.0
0
LINE
8
0
10
130.9190
20
93.1590
30
0.0
11
116.9190
21
93.1590
31
0.0
0
LINE
8
0
10
116.9190
20
93.1590
30
0.0
11
116.9190
21
79.1590
31
0.0
0
LINE
8
0
10
7.3815
20
60.1090
30
0.0
11
21.3815
21
60.1090
31
0.0
0
LINE
8
0
10
21.3815
20
60.1090
30
0.0
11
21.3815
21
74.1090
31
0.0
0
LINE
8
0
10
21.3815
20
74.1090
30
0.0
11
7.3815
21
74.1090
31
0.0
0
LINE
8
0
10
7.3815
20
74.1090
30
0.0
11
7.3815
21
60.1090
31
0.0
0
LINE
8
0
10
31.1940
20
60.1090
30
0.0
11
45.1940
21
60.1090
31
0.0
0
LINE
8
0
10
45.1940
20
60.1090
30
0.0
11
45.1940
21
74.1090
31
0.0
0
LINE
8
0
10
45.1940
20
74.1090
30
0.0
11
31.1940
21
74.1090
31
0.0
0
LINE
8
0
10
31.1940
20
74.1090
30
0.0
11
31.1940
21
60.1090
31
0.0
0
LINE
8
0
10
50.2440
20
60.1090
30
0.0
11
64.2440
21
60.1090
31
0.0
0
LINE
8
0
10
64.2440
20
60.1090
30
0.0
11
64.2440
21
74.1090
31
0.0
0
LINE
8
0
10
64.2440
20
74.1090
30
0.0
11
50.2440
21
74.1090
31
0.0
0
LINE
8
0
10
50.2440
20
74.1090
30
0.0
11
50.2440
21
60.1090
31
0.0
0
LINE
8
0
10
69.2940
20
60.1090
30
0.0
11
83.2940
21
60.1090
31
0.0
0
LINE
8
0
10
83.2940
20
60.1090
30
0.0
11
83.2940
21
74.1090
31
0.0
0
LINE
8
0
10
83.2940
20
74.1090
30
0.0
11
69.2940
21
74.1090
31
0.0
0
LINE
8
0
10
69.2940
20
74.1090
30
0.0
11
69.2940
21
60.1090
31
0.0
0
LINE
8
0
10
88.3440
20
60.1090
30
0.0
11
102.3440
21
60.1090
31
0.0
0
LINE
8
0
10
102.3440
20
60.1090
30
0.0
11
102.3440
21
74.1090
31
0.0
0
LINE
8
0
10
102.3440
20
74.1090
30
0.0
11
88.3440
21
74.1090
31
0.0
0
LINE
8
0
10
88.3440
20
74.1090
30
0.0
11
88.3440
21
60.1090
31
0.0
0
LINE
8
0
10
107.3940
20
60.1090
30
0.0
11
121.3940
21
60.1090
31
0.0
0
LINE
8
0
10
121.3940
20
60.1090
30
0.0
11
121.3940
21
74.1090
31
0.0
0
LINE
8
0
10
121.3940
20
74.1090
30
0.0
11
107.3940
21
74.1090
31
0.0
0
LINE
8
0
10
107.3940
20
74.1090
30
0.0
11
107.3940
21
60.1090
31
0.0
0
LINE
8
0
10
9.7628
20
41.0590
30
0.0
11
23.7628
21
41.0590
31
0.0
0
LINE
8
0
10
23.7628
20
41.0590
30
0.0
11
23.7628
21
55.0590
31
0.0
0
LINE
8
0
10
23.7628
20
55.0590
30
0.0
11
9.7628
21
55.0590
31
0.0
0
LINE
8
0
10
9.7628
20
55.0590
30
0.0
11
9.7628
21
41.0590
31
0.0
0
LINE
8
0
10
35.9565
20
41.0590
30
0.0
11
49.9565
21
41.0590
31
0.0
0
LINE
8
0
10
49.9565
20
41.0590
30
0.0
11
49.9565
21
55.0590
31
0.0
0
LINE
8
0
10
49.9565
20
55.0590
30
0.0
11
35.9565
21
55.0590
31
0.0
0
LINE
8
0
10
35.9565
20
55.0590
30
0.0
11
35.9565
21
41.0590
31
0.0
0
LINE
8
0
10
55.0065
20
41.0590
30
0.0
11
69.0065
21
41.0590
31
0.0
0
LINE
8
0
10
69.0065
20
41.0590
30
0.0
11
69.0065
21
55.0590
31
0.0
0
LINE
8
0
10
69.0065
20
55.0590
30
0.0
11
55.0065
21
55.0590
31
0.0
0
LINE
8
0
10
55.0065
20
55.0590
30
0.0
11
55.0065
21
41.0590
31
0.0
0
LINE
8
0
10
74.0565
20
41.0590
30
0.0
11
88.0565
21
41.0590
31
0.0
0
LINE
8
0
10
88.0565
20
41.0590
30
0.0
11
88.0565
21
55.0590
31
0.0
0
LINE
8
0
10
88.0565
20
55.0590
30
0.0
11
74.0565
21
55.0590
31
0.0
0
LINE
8
0
10
74.0565
20
55.0590
30
0.0
11
74.0565
21
41.0590
31
0.0
0
LINE
8
0
10
93.1065
20
41.0590
30
0.0
11
107.1065
21
41.0590
31
0.0
0
LINE
8
0
10
107.1065
20
41.0590
30
0.0
11
107.1065
21
55.0590
31
0.0
0
LINE
8
0
10
107.1065
20
55.0590
30
0.0
11
93.1065
21
55.0590
31
0.0
0
LINE
8
0
10
93.1065
20
55.0590
30
0.0
11
93.1065
21
41.0590
31
0.0
0
LINE
8
0
10
112.1565
20
41.0590
30
0.0
11
126.1565
21
41.0590
31
0.0
0
LINE
8
0
10
126.1565
20
41.0590
30
0.0
11
126.1565
21
55.0590
31
0.0
0
LINE
8
0
10
126.1565
20
55.0590
30
0.0
11
112.1565
21
55.0590
31
0.0
0
LINE
8
0
10
112.1565
20
55.0590
30
0.0
11
112.1565
21
41.0590
31
0.0
0
LINE
8
0
10
14.5253
20
22.0090
30
0.0
11
28.5253
21
22.0090
31
0.0
0
LINE
8
0
10
28.5253
20
22.0090
30
0.0
11
28.5253
21
36.0090
31
0.0
0
LINE
8
0
10
28.5253
20
36.0090
30
0.0
11
14.5253
21
36.0090
31
0.0
0
LINE
8
0
10
14.5253
20
36.0090
30
0.0
11
14.5253
21
22.0090
31
0.0
0
LINE
8
0
10
45.4815
20
22.0090
30
0.0
11
59.4815
21
22.0090
31
0.0
0
LINE
8
0
10
59.4815
20
22.0090
30
0.0
11
59.4815
21
36.0090
31
0.0
0
LINE
8
0
10
59.4815
20
36.0090
30
0.0
11
45.4815
21
36.0090
31
0.0
0
LINE
8
0
10
45.4815
20
36.0090
30
0.0
11
45.4815
21
22.0090
31
0.0
0
LINE
8
0
10
64.5315
20
22.0090
30
0.0
11
78.5315
21
22.0090
31
0.0
0
LINE
8
0
10
78.5315
20
22.0090
30
0.0
11
78.5315
21
36.0090
31
0.0
0
LINE
8
0
10
78.5315
20
36.0090
30
0.0
11
64.5315
21
36.0090
31
0.0
0
LINE
8
0
10
64.5315
20
36.0090
30
0.0
11
64.5315
21
22.0090
31
0.0
0
LINE
8
0
10
83.5815
20
22.0090
30
0.0
11
97.5815
21
22.0090
31
0.0
0
LINE
8
0
10
97.5815
20
22.0090
30
0.0
11
97.5815
21
36.0090
31
0.0
0
LINE
8
0
10
97.5815
20
36.0090
30
0.0
11
83.5815
21
36.0090
31
0.0
0
LINE
8
0
10
83.5815
20
36.0090
30
0.0
11
83.5815
21
22.0090
31
0.0
0
LINE
8
0
10
102.6315
20
22.0090
30
0.0
11
116.6315
21
22.0090
31
0.0
0
LINE
8
0
10
116.6315
20
22.0090
30
0.0
11
116.6315
21
36.0090
31
0.0
0
LINE
8
0
10
116.6315
20
36.0090
30
0.0
11
102.6315
21
36.0090
31
0.0
0
LINE
8
0
10
102.6315
20
36.0090
30
0.0
11
102.6315
21
22.0090
31
0.0
0
LINE
8
0
10
121.6815
20
22.0090
30
0.0
11
135.6815
21
22.0090
31
0.0
0
LINE
8
0
10
135.6815
20
22.0090
30
0.0
11
135.6815
21
36.0090
31
0.0
0
LINE
8
0
10
135.6815
20
36.0090
30
0.0
11
121.6815
21
36.0090
31
0.0
0
LINE
8
0
10
121.6815
20
36.0090
30
0.0
11
121.6815
21
22.0090
31
0.0
0
LINE
8
0
10
5.0002
20
2.9590
30
0.0
11
19.0003
21
2.9590
31
0.0
0
LINE
8
0
10
19.0003
20
2.9590
30
0.0
11
19.0003
21
16.9590
31
0.0
0
LINE
8
0
10
19.0003
20
16.9590
30
0.0
11
5.0002
21
16.9590
31
0.0
0
LINE
8
0
10
5.0002
20
16.9590
30
0.0
11
5.0002
21
2.9590
31
0.0
0
LINE
8
0
10
28.8128
20
2.9590
30
0.0
11
42.8128
21
2.9590
31
0.0
0
LINE
8
0
10
42.8128
20
2.9590
30
0.0
11
42.8128
21
16.9590
31
0.0
0
LINE
8
0
10
42.8128
20
16.9590
30
0.0
11
28.8128
21
16.9590
31
0.0
0
LINE
8
0
10
28.8128
20
16.9590
30
0.0
11
28.8128
21
2.9590
31
0.0
0
LINE
8
0
10
52.6253
20
2.9590
30
0.0
11
66.6252
21
2.9590
31
0.0
0
LINE
8
0
10
66.6252
20
2.9590
30
0.0
11
66.6252
21
16.9590
31
0.0
0
LINE
8
0
10
66.6252
20
16.9590
30
0.0
11
52.6253
21
16.9590
31
0.0
0
LINE
8
0
10
52.6253
20
16.9590
30
0.0
11
52.6253
21
2.9590
31
0.0
0
LINE
8
0
10
76.4377
20
2.9590
30
0.0
11
90.4377
21
2.9590
31
0.0
0
LINE
8
0
10
90.4377
20
2.9590
30
0.0
11
90.4377
21
16.9590
31
0.0
0
LINE
8
0
10
90.4377
20
16.9590
30
0.0
11
76.4377
21
16.9590
31
0.0
0
LINE
8
0
10
76.4377
20
16.9590
30
0.0
11
76.4377
21
2.9590
31
0.0
0
LINE
8
0
10
109.7752
20
2.9590
30
0.0
11
123.7752
21
2.9590
31
0.0
0
LINE
8
0
10
123.7752
20
2.9590
30
0.0
11
123.7752
21
16.9590
31
0.0
0
LINE
8
0
10
123.7752
20
16.9590
30
0.0
11
109.7752
21
16.9590
31
0.0
0
LINE
8
0
10
109.7752
20
16.9590
30
0.0
11
109.7752
21
2.9590
31
0.0
0
LINE
8
0
10
7.9753
20
21.2585
30
0.0
11
11.2753
21
21.2585
31
0.0
0
LINE
8
0
10
11.2753
20
21.2585
30
0.0
11
11.2753
21
35.4595
31
0.0
0
LINE
8
0
10
11.2753
20
35.4595
30
0.0
11
7.9753
21
35.4595
31
0.0
0
LINE
8
0
10
7.9753
20
35.4595
30
0.0
11
7.9753
21
21.2585
31
0.0
0
LINE
8
0
10
31.7753
20
21.2585
30
0.0
11
35.0753
21
21.2585
31
0.0
0
LINE
8
0
10
35.0753
20
21.2585
30
0.0
11
35.0753
21
35.4595
31
0.0
0
LINE
8
0
10
35.0753
20
35.4595
30
0.0
11
31.7753
21
35.4595
31
0.0
0
LINE
8
0
10
31.7753
20
35.4595
30
0.0
11
31.7753
21
21.2585
31
0.0
0
LINE
8
0
10
103.2252
20
2.2085
30
0.0
11
106.5252
21
2.2085
31
0.0
0
LINE
8
0
10
106.5252
20
2.2085
30
0.0
11
106.5252
21
16.4095
31
0.0
0
LINE
8
0
10
106.5252
20
16.4095
30
0.0
11
103.2252
21
16.4095
31
0.0
0
LINE
8
0
10
103.2252
20
16.4095
30
0.0
11
103.2252
21
2.2085
31
0.0
0
LINE
8
0
10
127.0252
20
2.2085
30
0.0
11
130.3253
21
2.2085
31
0.0
0
LINE
8
0
10
130.3253
20
2.2085
30
0.0
11
130.3253
21
16.4095
31
0.0
0
LINE
8
0
10
130.3253
20
16.4095
30
0.0
11
127.0252
21
16.4095
31
0.0
0
LINE
8
0
10
127.0252
20
16.4095
30
0.0
11
127.0252
21
2.2085
31
0.0
0
ENDSEC
0
EOF
