  0
SECTION
  2
HEADER
  9
$ACADVER
  1
AC1009
  9
$FILLMODE
 70
 0
  9
$SPLFRAME
 70
 1
  9
$EXTMIN
 10
0
 20
0
 30
0.0
  9
$EXTMAX
 10
1058.33
 20
1058.33
 30
0.0
  0
ENDSEC
  0
SECTION
  2
TABLES
  0
TABLE
  2
LAYER
 70
1
  0
LAYER
  2
0
 70
     0
 62
     7
  6
CONTINUOUS
  0
ENDTAB
  0
ENDSEC
  0
SECTION
  2
ENTITIES
  0
LINE
  8
0
 62
     0
 10
0.0950846
 20
119.496
 30
0.0
 11
138.208
 21
119.496
 31
0.0
  0
LINE
  8
0
 62
     0
 10
138.208
 20
119.496
 30
0.0
 11
138.208
 21
0.432703
 31
0.0
  0
LINE
  8
0
 62
     0
 10
138.208
 20
0.432703
 30
0.0
 11
0.0950846
 21
0.432703
 31
0.0
  0
LINE
  8
0
 62
     0
 10
0.0950846
 20
0.432703
 30
0.0
 11
0.0950846
 21
119.496
 31
0.0
  0
LINE
  8
0
 62
     0
 10
103.226
 20
16.4097
 30
0.0
 11
106.525
 21
16.4097
 31
0.0
  0
LINE
  8
0
 62
     0
 10
106.525
 20
16.4097
 30
0.0
 11
106.525
 21
2.209
 31
0.0
  0
LINE
  8
0
 62
     0
 10
106.525
 20
2.209
 30
0.0
 11
103.226
 21
2.209
 31
0.0
  0
LINE
  8
0
 62
     0
 10
103.226
 20
2.209
 30
0.0
 11
103.226
 21
16.4097
 31
0.0
  0
LINE
  8
0
 62
     0
 10
127.026
 20
16.4097
 30
0.0
 11
130.325
 21
16.4097
 31
0.0
  0
LINE
  8
0
 62
     0
 10
130.325
 20
16.4097
 30
0.0
 11
130.325
 21
2.209
 31
0.0
  0
LINE
  8
0
 62
     0
 10
130.325
 20
2.209
 30
0.0
 11
127.026
 21
2.209
 31
0.0
  0
LINE
  8
0
 62
     0
 10
127.026
 20
2.209
 30
0.0
 11
127.026
 21
16.4097
 31
0.0
  0
LINE
  8
0
 62
     0
 10
5.00091
 20
16.9595
 30
0.0
 11
19.0004
 21
16.9595
 31
0.0
  0
LINE
  8
0
 62
     0
 10
19.0004
 20
16.9595
 30
0.0
 11
19.0004
 21
2.95865
 31
0.0
  0
LINE
  8
0
 62
     0
 10
19.0004
 20
2.95865
 30
0.0
 11
5.00091
 21
2.95865
 31
0.0
  0
LINE
  8
0
 62
     0
 10
5.00091
 20
2.95865
 30
0.0
 11
5.00091
 21
16.9595
 31
0.0
  0
LINE
  8
0
 62
     0
 10
28.812
 20
16.9595
 30
0.0
 11
42.8128
 21
16.9595
 31
0.0
  0
LINE
  8
0
 62
     0
 10
42.8128
 20
16.9595
 30
0.0
 11
42.8128
 21
2.95865
 31
0.0
  0
LINE
  8
0
 62
     0
 10
42.8128
 20
2.95865
 30
0.0
 11
28.812
 21
2.95865
 31
0.0
  0
LINE
  8
0
 62
     0
 10
28.812
 20
2.95865
 30
0.0
 11
28.812
 21
16.9595
 31
0.0
  0
LINE
  8
0
 62
     0
 10
52.626
 20
16.9595
 30
0.0
 11
66.6253
 21
16.9595
 31
0.0
  0
LINE
  8
0
 62
     0
 10
66.6253
 20
16.9595
 30
0.0
 11
66.6253
 21
2.95865
 31
0.0
  0
LINE
  8
0
 62
     0
 10
66.6253
 20
2.95865
 30
0.0
 11
52.626
 21
2.95865
 31
0.0
  0
LINE
  8
0
 62
     0
 10
52.626
 20
2.95865
 30
0.0
 11
52.626
 21
16.9595
 31
0.0
  0
LINE
  8
0
 62
     0
 10
76.4371
 20
16.9595
 30
0.0
 11
90.4378
 21
16.9595
 31
0.0
  0
LINE
  8
0
 62
     0
 10
90.4378
 20
16.9595
 30
0.0
 11
90.4378
 21
2.95865
 31
0.0
  0
LINE
  8
0
 62
     0
 10
90.4378
 20
2.95865
 30
0.0
 11
76.4371
 21
2.95865
 31
0.0
  0
LINE
  8
0
 62
     0
 10
76.4371
 20
2.95865
 30
0.0
 11
76.4371
 21
16.9595
 31
0.0
  0
LINE
  8
0
 62
     0
 10
109.776
 20
16.9595
 30
0.0
 11
123.775
 21
16.9595
 31
0.0
  0
LINE
  8
0
 62
     0
 10
123.775
 20
16.9595
 30
0.0
 11
123.775
 21
2.95865
 31
0.0
  0
LINE
  8
0
 62
     0
 10
123.775
 20
2.95865
 30
0.0
 11
109.776
 21
2.95865
 31
0.0
  0
LINE
  8
0
 62
     0
 10
109.776
 20
2.95865
 30
0.0
 11
109.776
 21
16.9595
 31
0.0
  0
LINE
  8
0
 62
     0
 10
7.97609
 20
35.4598
 30
0.0
 11
11.2751
 21
35.4598
 31
0.0
  0
LINE
  8
0
 62
     0
 10
11.2751
 20
35.4598
 30
0.0
 11
11.2751
 21
21.259
 31
0.0
  0
LINE
  8
0
 62
     0
 10
11.2751
 20
21.259
 30
0.0
 11
7.97609
 21
21.259
 31
0.0
  0
LINE
  8
0
 62
     0
 10
7.97609
 20
21.259
 30
0.0
 11
7.97609
 21
35.4598
 31
0.0
  0
LINE
  8
0
 62
     0
 10
31.7748
 20
35.4598
 30
0.0
 11
35.0752
 21
35.4598
 31
0.0
  0
LINE
  8
0
 62
     0
 10
35.0752
 20
35.4598
 30
0.0
 11
35.0752
 21
21.259
 31
0.0
  0
LINE
  8
0
 62
     0
 10
35.0752
 20
21.259
 30
0.0
 11
31.7748
 21
21.259
 31
0.0
  0
LINE
  8
0
 62
     0
 10
31.7748
 20
21.259
 30
0.0
 11
31.7748
 21
35.4598
 31
0.0
  0
LINE
  8
0
 62
     0
 10
14.5259
 20
36.0094
 30
0.0
 11
28.5254
 21
36.0094
 31
0.0
  0
LINE
  8
0
 62
     0
 10
28.5254
 20
36.0094
 30
0.0
 11
28.5254
 21
22.0086
 31
0.0
  0
LINE
  8
0
 62
     0
 10
28.5254
 20
22.0086
 30
0.0
 11
14.5259
 21
22.0086
 31
0.0
  0
LINE
  8
0
 62
     0
 10
14.5259
 20
22.0086
 30
0.0
 11
14.5259
 21
36.0094
 31
0.0
  0
LINE
  8
0
 62
     0
 10
45.4822
 20
36.0094
 30
0.0
 11
59.4815
 21
36.0094
 31
0.0
  0
LINE
  8
0
 62
     0
 10
59.4815
 20
36.0094
 30
0.0
 11
59.4815
 21
22.0086
 31
0.0
  0
LINE
  8
0
 62
     0
 10
59.4815
 20
22.0086
 30
0.0
 11
45.4822
 21
22.0086
 31
0.0
  0
LINE
  8
0
 62
     0
 10
45.4822
 20
22.0086
 30
0.0
 11
45.4822
 21
36.0094
 31
0.0
  0
LINE
  8
0
 62
     0
 10
64.5322
 20
36.0094
 30
0.0
 11
78.5315
 21
36.0094
 31
0.0
  0
LINE
  8
0
 62
     0
 10
78.5315
 20
36.0094
 30
0.0
 11
78.5315
 21
22.0086
 31
0.0
  0
LINE
  8
0
 62
     0
 10
78.5315
 20
22.0086
 30
0.0
 11
64.5322
 21
22.0086
 31
0.0
  0
LINE
  8
0
 62
     0
 10
64.5322
 20
22.0086
 30
0.0
 11
64.5322
 21
36.0094
 31
0.0
  0
LINE
  8
0
 62
     0
 10
83.5822
 20
36.0094
 30
0.0
 11
97.5815
 21
36.0094
 31
0.0
  0
LINE
  8
0
 62
     0
 10
97.5815
 20
36.0094
 30
0.0
 11
97.5815
 21
22.0086
 31
0.0
  0
LINE
  8
0
 62
     0
 10
97.5815
 20
22.0086
 30
0.0
 11
83.5822
 21
22.0086
 31
0.0
  0
LINE
  8
0
 62
     0
 10
83.5822
 20
22.0086
 30
0.0
 11
83.5822
 21
36.0094
 31
0.0
  0
LINE
  8
0
 62
     0
 10
102.632
 20
36.0094
 30
0.0
 11
116.632
 21
36.0094
 31
0.0
  0
LINE
  8
0
 62
     0
 10
116.632
 20
36.0094
 30
0.0
 11
116.632
 21
22.0086
 31
0.0
  0
LINE
  8
0
 62
     0
 10
116.632
 20
22.0086
 30
0.0
 11
102.632
 21
22.0086
 31
0.0
  0
LINE
  8
0
 62
     0
 10
102.632
 20
22.0086
 30
0.0
 11
102.632
 21
36.0094
 31
0.0
  0
LINE
  8
0
 62
     0
 10
121.682
 20
36.0094
 30
0.0
 11
135.682
 21
36.0094
 31
0.0
  0
LINE
  8
0
 62
     0
 10
135.682
 20
36.0094
 30
0.0
 11
135.682
 21
22.0086
 31
0.0
  0
LINE
  8
0
 62
     0
 10
135.682
 20
22.0086
 30
0.0
 11
121.682
 21
22.0086
 31
0.0
  0
LINE
  8
0
 62
     0
 10
121.682
 20
22.0086
 30
0.0
 11
121.682
 21
36.0094
 31
0.0
  0
LINE
  8
0
 62
     0
 10
9.76203
 20
55.0594
 30
0.0
 11
23.7629
 21
55.0594
 31
0.0
  0
LINE
  8
0
 62
     0
 10
23.7629
 20
55.0594
 30
0.0
 11
23.7629
 21
41.0587
 31
0.0
  0
LINE
  8
0
 62
     0
 10
23.7629
 20
41.0587
 30
0.0
 11
9.76203
 21
41.0587
 31
0.0
  0
LINE
  8
0
 62
     0
 10
9.76203
 20
41.0587
 30
0.0
 11
9.76203
 21
55.0594
 31
0.0
  0
LINE
  8
0
 62
     0
 10
35.9572
 20
55.0594
 30
0.0
 11
49.9565
 21
55.0594
 31
0.0
  0
LINE
  8
0
 62
     0
 10
49.9565
 20
55.0594
 30
0.0
 11
49.9565
 21
41.0587
 31
0.0
  0
LINE
  8
0
 62
     0
 10
49.9565
 20
41.0587
 30
0.0
 11
35.9572
 21
41.0587
 31
0.0
  0
LINE
  8
0
 62
     0
 10
35.9572
 20
41.0587
 30
0.0
 11
35.9572
 21
55.0594
 31
0.0
  0
LINE
  8
0
 62
     0
 10
55.0072
 20
55.0594
 30
0.0
 11
69.0065
 21
55.0594
 31
0.0
  0
LINE
  8
0
 62
     0
 10
69.0065
 20
55.0594
 30
0.0
 11
69.0065
 21
41.0587
 31
0.0
  0
LINE
  8
0
 62
     0
 10
69.0065
 20
41.0587
 30
0.0
 11
55.0072
 21
41.0587
 31
0.0
  0
LINE
  8
0
 62
     0
 10
55.0072
 20
41.0587
 30
0.0
 11
55.0072
 21
55.0594
 31
0.0
  0
LINE
  8
0
 62
     0
 10
74.0572
 20
55.0594
 30
0.0
 11
88.0565
 21
55.0594
 31
0.0
  0
LINE
  8
0
 62
     0
 10
88.0565
 20
55.0594
 30
0.0
 11
88.0565
 21
41.0587
 31
0.0
  0
LINE
  8
0
 62
     0
 10
88.0565
 20
41.0587
 30
0.0
 11
74.0572
 21
41.0587
 31
0.0
  0
LINE
  8
0
 62
     0
 10
74.0572
 20
41.0587
 30
0.0
 11
74.0572
 21
55.0594
 31
0.0
  0
LINE
  8
0
 62
     0
 10
93.1072
 20
55.0594
 30
0.0
 11
107.107
 21
55.0594
 31
0.0
  0
LINE
  8
0
 62
     0
 10
107.107
 20
55.0594
 30
0.0
 11
107.107
 21
41.0587
 31
0.0
  0
LINE
  8
0
 62
     0
 10
107.107
 20
41.0587
 30
0.0
 11
93.1072
 21
41.0587
 31
0.0
  0
LINE
  8
0
 62
     0
 10
93.1072
 20
41.0587
 30
0.0
 11
93.1072
 21
55.0594
 31
0.0
  0
LINE
  8
0
 62
     0
 10
112.157
 20
55.0594
 30
0.0
 11
126.157
 21
55.0594
 31
0.0
  0
LINE
  8
0
 62
     0
 10
126.157
 20
55.0594
 30
0.0
 11
126.157
 21
41.0587
 31
0.0
  0
LINE
  8
0
 62
     0
 10
126.157
 20
41.0587
 30
0.0
 11
112.157
 21
41.0587
 31
0.0
  0
LINE
  8
0
 62
     0
 10
112.157
 20
41.0587
 30
0.0
 11
112.157
 21
55.0594
 31
0.0
  0
LINE
  8
0
 62
     0
 10
7.38216
 20
74.1094
 30
0.0
 11
21.3817
 21
74.1094
 31
0.0
  0
LINE
  8
0
 62
     0
 10
21.3817
 20
74.1094
 30
0.0
 11
21.3817
 21
60.1087
 31
0.0
  0
LINE
  8
0
 62
     0
 10
21.3817
 20
60.1087
 30
0.0
 11
7.38216
 21
60.1087
 31
0.0
  0
LINE
  8
0
 62
     0
 10
7.38216
 20
60.1087
 30
0.0
 11
7.38216
 21
74.1094
 31
0.0
  0
LINE
  8
0
 62
     0
 10
31.1947
 20
74.1094
 30
0.0
 11
45.194
 21
74.1094
 31
0.0
  0
LINE
  8
0
 62
     0
 10
45.194
 20
74.1094
 30
0.0
 11
45.194
 21
60.1087
 31
0.0
  0
LINE
  8
0
 62
     0
 10
45.194
 20
60.1087
 30
0.0
 11
31.1947
 21
60.1087
 31
0.0
  0
LINE
  8
0
 62
     0
 10
31.1947
 20
60.1087
 30
0.0
 11
31.1947
 21
74.1094
 31
0.0
  0
LINE
  8
0
 62
     0
 10
50.2447
 20
74.1094
 30
0.0
 11
64.244
 21
74.1094
 31
0.0
  0
LINE
  8
0
 62
     0
 10
64.244
 20
74.1094
 30
0.0
 11
64.244
 21
60.1087
 31
0.0
  0
LINE
  8
0
 62
     0
 10
64.244
 20
60.1087
 30
0.0
 11
50.2447
 21
60.1087
 31
0.0
  0
LINE
  8
0
 62
     0
 10
50.2447
 20
60.1087
 30
0.0
 11
50.2447
 21
74.1094
 31
0.0
  0
LINE
  8
0
 62
     0
 10
69.2947
 20
74.1094
 30
0.0
 11
83.294
 21
74.1094
 31
0.0
  0
LINE
  8
0
 62
     0
 10
83.294
 20
74.1094
 30
0.0
 11
83.294
 21
60.1087
 31
0.0
  0
LINE
  8
0
 62
     0
 10
83.294
 20
60.1087
 30
0.0
 11
69.2947
 21
60.1087
 31
0.0
  0
LINE
  8
0
 62
     0
 10
69.2947
 20
60.1087
 30
0.0
 11
69.2947
 21
74.1094
 31
0.0
  0
LINE
  8
0
 62
     0
 10
88.3447
 20
74.1094
 30
0.0
 11
102.344
 21
74.1094
 31
0.0
  0
LINE
  8
0
 62
     0
 10
102.344
 20
74.1094
 30
0.0
 11
102.344
 21
60.1087
 31
0.0
  0
LINE
  8
0
 62
     0
 10
102.344
 20
60.1087
 30
0.0
 11
88.3447
 21
60.1087
 31
0.0
  0
LINE
  8
0
 62
     0
 10
88.3447
 20
60.1087
 30
0.0
 11
88.3447
 21
74.1094
 31
0.0
  0
LINE
  8
0
 62
     0
 10
107.395
 20
74.1094
 30
0.0
 11
121.394
 21
74.1094
 31
0.0
  0
LINE
  8
0
 62
     0
 10
121.394
 20
74.1094
 30
0.0
 11
121.394
 21
60.1087
 31
0.0
  0
LINE
  8
0
 62
     0
 10
121.394
 20
60.1087
 30
0.0
 11
107.395
 21
60.1087
 31
0.0
  0
LINE
  8
0
 62
     0
 10
107.395
 20
60.1087
 30
0.0
 11
107.395
 21
74.1094
 31
0.0
  0
LINE
  8
0
 62
     0
 10
2.61965
 20
93.1594
 30
0.0
 11
16.6192
 21
93.1594
 31
0.0
  0
LINE
  8
0
 62
     0
 10
16.6192
 20
93.1594
 30
0.0
 11
16.6192
 21
79.1587
 31
0.0
  0
LINE
  8
0
 62
     0
 10
16.6192
 20
79.1587
 30
0.0
 11
2.61965
 21
79.1587
 31
0.0
  0
LINE
  8
0
 62
     0
 10
2.61965
 20
79.1587
 30
0.0
 11
2.61965
 21
93.1594
 31
0.0
  0
LINE
  8
0
 62
     0
 10
21.6697
 20
93.1594
 30
0.0
 11
35.669
 21
93.1594
 31
0.0
  0
LINE
  8
0
 62
     0
 10
35.669
 20
93.1594
 30
0.0
 11
35.669
 21
79.1587
 31
0.0
  0
LINE
  8
0
 62
     0
 10
35.669
 20
79.1587
 30
0.0
 11
21.6697
 21
79.1587
 31
0.0
  0
LINE
  8
0
 62
     0
 10
21.6697
 20
79.1587
 30
0.0
 11
21.6697
 21
93.1594
 31
0.0
  0
LINE
  8
0
 62
     0
 10
40.7197
 20
93.1594
 30
0.0
 11
54.719
 21
93.1594
 31
0.0
  0
LINE
  8
0
 62
     0
 10
54.719
 20
93.1594
 30
0.0
 11
54.719
 21
79.1587
 31
0.0
  0
LINE
  8
0
 62
     0
 10
54.719
 20
79.1587
 30
0.0
 11
40.7197
 21
79.1587
 31
0.0
  0
LINE
  8
0
 62
     0
 10
40.7197
 20
79.1587
 30
0.0
 11
40.7197
 21
93.1594
 31
0.0
  0
LINE
  8
0
 62
     0
 10
59.7697
 20
93.1594
 30
0.0
 11
73.769
 21
93.1594
 31
0.0
  0
LINE
  8
0
 62
     0
 10
73.769
 20
93.1594
 30
0.0
 11
73.769
 21
79.1587
 31
0.0
  0
LINE
  8
0
 62
     0
 10
73.769
 20
79.1587
 30
0.0
 11
59.7697
 21
79.1587
 31
0.0
  0
LINE
  8
0
 62
     0
 10
59.7697
 20
79.1587
 30
0.0
 11
59.7697
 21
93.1594
 31
0.0
  0
LINE
  8
0
 62
     0
 10
78.8197
 20
93.1594
 30
0.0
 11
92.819
 21
93.1594
 31
0.0
  0
LINE
  8
0
 62
     0
 10
92.819
 20
93.1594
 30
0.0
 11
92.819
 21
79.1587
 31
0.0
  0
LINE
  8
0
 62
     0
 10
92.819
 20
79.1587
 30
0.0
 11
78.8197
 21
79.1587
 31
0.0
  0
LINE
  8
0
 62
     0
 10
78.8197
 20
79.1587
 30
0.0
 11
78.8197
 21
93.1594
 31
0.0
  0
LINE
  8
0
 62
     0
 10
97.8683
 20
93.1594
 30
0.0
 11
111.869
 21
93.1594
 31
0.0
  0
LINE
  8
0
 62
     0
 10
111.869
 20
93.1594
 30
0.0
 11
111.869
 21
79.1587
 31
0.0
  0
LINE
  8
0
 62
     0
 10
111.869
 20
79.1587
 30
0.0
 11
97.8683
 21
79.1587
 31
0.0
  0
LINE
  8
0
 62
     0
 10
97.8683
 20
79.1587
 30
0.0
 11
97.8683
 21
93.1594
 31
0.0
  0
LINE
  8
0
 62
     0
 10
116.918
 20
93.1594
 30
0.0
 11
130.919
 21
93.1594
 31
0.0
  0
LINE
  8
0
 62
     0
 10
130.919
 20
93.1594
 30
0.0
 11
130.919
 21
79.1587
 31
0.0
  0
LINE
  8
0
 62
     0
 10
130.919
 20
79.1587
 30
0.0
 11
116.918
 21
79.1587
 31
0.0
  0
LINE
  8
0
 62
     0
 10
116.918
 20
79.1587
 30
0.0
 11
116.918
 21
93.1594
 31
0.0
  0
LINE
  8
0
 62
     0
 10
2.61965
 20
116.971
 30
0.0
 11
16.6192
 21
116.971
 31
0.0
  0
LINE
  8
0
 62
     0
 10
16.6192
 20
116.971
 30
0.0
 11
16.6192
 21
102.971
 31
0.0
  0
LINE
  8
0
 62
     0
 10
16.6192
 20
102.971
 30
0.0
 11
2.61965
 21
102.971
 31
0.0
  0
LINE
  8
0
 62
     0
 10
2.61965
 20
102.971
 30
0.0
 11
2.61965
 21
116.971
 31
0.0
  0
LINE
  8
0
 62
     0
 10
26.4322
 20
116.971
 30
0.0
 11
40.4315
 21
116.971
 31
0.0
  0
LINE
  8
0
 62
     0
 10
40.4315
 20
116.971
 30
0.0
 11
40.4315
 21
102.971
 31
0.0
  0
LINE
  8
0
 62
     0
 10
40.4315
 20
102.971
 30
0.0
 11
26.4322
 21
102.971
 31
0.0
  0
LINE
  8
0
 62
     0
 10
26.4322
 20
102.971
 30
0.0
 11
26.4322
 21
116.971
 31
0.0
  0
LINE
  8
0
 62
     0
 10
45.4822
 20
116.971
 30
0.0
 11
59.4815
 21
116.971
 31
0.0
  0
LINE
  8
0
 62
     0
 10
59.4815
 20
116.971
 30
0.0
 11
59.4815
 21
102.971
 31
0.0
  0
LINE
  8
0
 62
     0
 10
59.4815
 20
102.971
 30
0.0
 11
45.4822
 21
102.971
 31
0.0
  0
LINE
  8
0
 62
     0
 10
45.4822
 20
102.971
 30
0.0
 11
45.4822
 21
116.971
 31
0.0
  0
LINE
  8
0
 62
     0
 10
64.5322
 20
116.971
 30
0.0
 11
78.5315
 21
116.971
 31
0.0
  0
LINE
  8
0
 62
     0
 10
78.5315
 20
116.971
 30
0.0
 11
78.5315
 21
102.971
 31
0.0
  0
LINE
  8
0
 62
     0
 10
78.5315
 20
102.971
 30
0.0
 11
64.5322
 21
102.971
 31
0.0
  0
LINE
  8
0
 62
     0
 10
64.5322
 20
102.971
 30
0.0
 11
64.5322
 21
116.971
 31
0.0
  0
LINE
  8
0
 62
     0
 10
83.5822
 20
116.971
 30
0.0
 11
97.5815
 21
116.971
 31
0.0
  0
LINE
  8
0
 62
     0
 10
97.5815
 20
116.971
 30
0.0
 11
97.5815
 21
102.971
 31
0.0
  0
LINE
  8
0
 62
     0
 10
97.5815
 20
102.971
 30
0.0
 11
83.5822
 21
102.971
 31
0.0
  0
LINE
  8
0
 62
     0
 10
83.5822
 20
102.971
 30
0.0
 11
83.5822
 21
116.971
 31
0.0
  0
LINE
  8
0
 62
     0
 10
102.632
 20
116.971
 30
0.0
 11
116.632
 21
116.971
 31
0.0
  0
LINE
  8
0
 62
     0
 10
116.632
 20
116.971
 30
0.0
 11
116.632
 21
102.971
 31
0.0
  0
LINE
  8
0
 62
     0
 10
116.632
 20
102.971
 30
0.0
 11
102.632
 21
102.971
 31
0.0
  0
LINE
  8
0
 62
     0
 10
102.632
 20
102.971
 30
0.0
 11
102.632
 21
116.971
 31
0.0
  0
LINE
  8
0
 62
     0
 10
121.682
 20
116.971
 30
0.0
 11
135.682
 21
116.971
 31
0.0
  0
LINE
  8
0
 62
     0
 10
135.682
 20
116.971
 30
0.0
 11
135.682
 21
102.971
 31
0.0
  0
LINE
  8
0
 62
     0
 10
135.682
 20
102.971
 30
0.0
 11
121.682
 21
102.971
 31
0.0
  0
LINE
  8
0
 62
     0
 10
121.682
 20
102.971
 30
0.0
 11
121.682
 21
116.971
 31
0.0
  0
ENDSEC
  0
EOF
