  0
SECTION
  2
HEADER
  9
$ACADVER
  1
AC1009
  9
$FILLMODE
 70
 0
  9
$SPLFRAME
 70
 1
  9
$EXTMIN
 10
0
 20
0
 30
0.0
  9
$EXTMAX
 10
1058.33
 20
1058.33
 30
0.0
  0
ENDSEC
  0
SECTION
  2
TABLES
  0
TABLE
  2
LAYER
 70
1
  0
LAYER
  2
0
 70
     0
 62
     7
  6
CONTINUOUS
  0
ENDTAB
  0
ENDSEC
  0
SECTION
  2
ENTITIES
  0
LINE
  8
0
 62
     0
 10
143.309
 20
129.374
 30
0.0
 11
143.7
 21
129.359
 31
0.0
  0
LINE
  8
0
 62
     0
 10
143.7
 20
129.359
 30
0.0
 11
144.09
 21
129.312
 31
0.0
  0
LINE
  8
0
 62
     0
 10
144.09
 20
129.312
 30
0.0
 11
144.475
 21
129.237
 31
0.0
  0
LINE
  8
0
 62
     0
 10
144.475
 20
129.237
 30
0.0
 11
144.854
 21
129.13
 31
0.0
  0
LINE
  8
0
 62
     0
 10
144.854
 20
129.13
 30
0.0
 11
145.222
 21
128.994
 31
0.0
  0
LINE
  8
0
 62
     0
 10
145.222
 20
128.994
 30
0.0
 11
145.579
 21
128.83
 31
0.0
  0
LINE
  8
0
 62
     0
 10
145.579
 20
128.83
 30
0.0
 11
145.921
 21
128.639
 31
0.0
  0
LINE
  8
0
 62
     0
 10
145.921
 20
128.639
 30
0.0
 11
146.247
 21
128.419
 31
0.0
  0
LINE
  8
0
 62
     0
 10
146.247
 20
128.419
 30
0.0
 11
146.556
 21
128.177
 31
0.0
  0
LINE
  8
0
 62
     0
 10
146.556
 20
128.177
 30
0.0
 11
146.845
 21
127.909
 31
0.0
  0
LINE
  8
0
 62
     0
 10
146.845
 20
127.909
 30
0.0
 11
147.111
 21
127.622
 31
0.0
  0
LINE
  8
0
 62
     0
 10
147.111
 20
127.622
 30
0.0
 11
147.354
 21
127.313
 31
0.0
  0
LINE
  8
0
 62
     0
 10
147.354
 20
127.313
 30
0.0
 11
147.572
 21
126.988
 31
0.0
  0
LINE
  8
0
 62
     0
 10
147.572
 20
126.988
 30
0.0
 11
147.763
 21
126.644
 31
0.0
  0
LINE
  8
0
 62
     0
 10
147.763
 20
126.644
 30
0.0
 11
147.927
 21
126.287
 31
0.0
  0
LINE
  8
0
 62
     0
 10
147.927
 20
126.287
 30
0.0
 11
148.063
 21
125.92
 31
0.0
  0
LINE
  8
0
 62
     0
 10
148.063
 20
125.92
 30
0.0
 11
148.171
 21
125.542
 31
0.0
  0
LINE
  8
0
 62
     0
 10
148.171
 20
125.542
 30
0.0
 11
148.247
 21
125.157
 31
0.0
  0
LINE
  8
0
 62
     0
 10
148.247
 20
125.157
 30
0.0
 11
148.293
 21
124.768
 31
0.0
  0
LINE
  8
0
 62
     0
 10
148.293
 20
124.768
 30
0.0
 11
148.308
 21
124.374
 31
0.0
  0
LINE
  8
0
 62
     0
 10
148.308
 20
124.374
 30
0.0
 11
148.308
 21
5.21035
 31
0.0
  0
LINE
  8
0
 62
     0
 10
148.308
 20
5.21035
 30
0.0
 11
148.293
 21
4.81902
 31
0.0
  0
LINE
  8
0
 62
     0
 10
148.293
 20
4.81902
 30
0.0
 11
148.247
 21
4.42902
 31
0.0
  0
LINE
  8
0
 62
     0
 10
148.247
 20
4.42902
 30
0.0
 11
148.171
 21
4.04453
 31
0.0
  0
LINE
  8
0
 62
     0
 10
148.171
 20
4.04453
 30
0.0
 11
148.063
 21
3.66557
 31
0.0
  0
LINE
  8
0
 62
     0
 10
148.063
 20
3.66557
 30
0.0
 11
147.927
 21
3.29765
 31
0.0
  0
LINE
  8
0
 62
     0
 10
147.927
 20
3.29765
 30
0.0
 11
147.763
 21
2.94073
 31
0.0
  0
LINE
  8
0
 62
     0
 10
147.763
 20
2.94073
 30
0.0
 11
147.572
 21
2.59898
 31
0.0
  0
LINE
  8
0
 62
     0
 10
147.572
 20
2.59898
 30
0.0
 11
147.354
 21
2.27239
 31
0.0
  0
LINE
  8
0
 62
     0
 10
147.354
 20
2.27239
 30
0.0
 11
147.111
 21
1.96371
 31
0.0
  0
LINE
  8
0
 62
     0
 10
147.111
 20
1.96371
 30
0.0
 11
146.845
 21
1.67432
 31
0.0
  0
LINE
  8
0
 62
     0
 10
146.845
 20
1.67432
 30
0.0
 11
146.556
 21
1.40836
 31
0.0
  0
LINE
  8
0
 62
     0
 10
146.556
 20
1.40836
 30
0.0
 11
146.247
 21
1.16582
 31
0.0
  0
LINE
  8
0
 62
     0
 10
146.247
 20
1.16582
 30
0.0
 11
145.921
 21
0.94809
 31
0.0
  0
LINE
  8
0
 62
     0
 10
145.921
 20
0.94809
 30
0.0
 11
145.579
 21
0.756543
 31
0.0
  0
LINE
  8
0
 62
     0
 10
145.579
 20
0.756543
 30
0.0
 11
145.222
 21
0.592557
 31
0.0
  0
LINE
  8
0
 62
     0
 10
145.222
 20
0.592557
 30
0.0
 11
144.854
 21
0.456131
 31
0.0
  0
LINE
  8
0
 62
     0
 10
144.854
 20
0.456131
 30
0.0
 11
144.475
 21
0.348644
 31
0.0
  0
LINE
  8
0
 62
     0
 10
144.475
 20
0.348644
 30
0.0
 11
144.09
 21
0.272852
 31
0.0
  0
LINE
  8
0
 62
     0
 10
144.09
 20
0.272852
 30
0.0
 11
143.7
 21
0.225998
 31
0.0
  0
LINE
  8
0
 62
     0
 10
143.7
 20
0.225998
 30
0.0
 11
143.309
 21
0.21084
 31
0.0
  0
LINE
  8
0
 62
     0
 10
143.309
 20
0.21084
 30
0.0
 11
5.09598
 21
0.21084
 31
0.0
  0
LINE
  8
0
 62
     0
 10
5.09598
 20
0.21084
 30
0.0
 11
4.70186
 21
0.225998
 31
0.0
  0
LINE
  8
0
 62
     0
 10
4.70186
 20
0.225998
 30
0.0
 11
4.3119
 21
0.272852
 31
0.0
  0
LINE
  8
0
 62
     0
 10
4.3119
 20
0.272852
 30
0.0
 11
3.9274
 21
0.348644
 31
0.0
  0
LINE
  8
0
 62
     0
 10
3.9274
 20
0.348644
 30
0.0
 11
3.54983
 21
0.456131
 31
0.0
  0
LINE
  8
0
 62
     0
 10
3.54983
 20
0.456131
 30
0.0
 11
3.18189
 21
0.592557
 31
0.0
  0
LINE
  8
0
 62
     0
 10
3.18189
 20
0.592557
 30
0.0
 11
2.82498
 21
0.756543
 31
0.0
  0
LINE
  8
0
 62
     0
 10
2.82498
 20
0.756543
 30
0.0
 11
2.48185
 21
0.94809
 31
0.0
  0
LINE
  8
0
 62
     0
 10
2.48185
 20
0.94809
 30
0.0
 11
2.15663
 21
1.16582
 31
0.0
  0
LINE
  8
0
 62
     0
 10
2.15663
 20
1.16582
 30
0.0
 11
1.84795
 21
1.40836
 31
0.0
  0
LINE
  8
0
 62
     0
 10
1.84795
 20
1.40836
 30
0.0
 11
1.55994
 21
1.67432
 31
0.0
  0
LINE
  8
0
 62
     0
 10
1.55994
 20
1.67432
 30
0.0
 11
1.2926
 21
1.96371
 31
0.0
  0
LINE
  8
0
 62
     0
 10
1.2926
 20
1.96371
 30
0.0
 11
1.05006
 21
2.27239
 31
0.0
  0
LINE
  8
0
 62
     0
 10
1.05006
 20
2.27239
 30
0.0
 11
0.830957
 21
2.59898
 31
0.0
  0
LINE
  8
0
 62
     0
 10
0.830957
 20
2.59898
 30
0.0
 11
0.63941
 21
2.94073
 31
0.0
  0
LINE
  8
0
 62
     0
 10
0.63941
 20
2.94073
 30
0.0
 11
0.475424
 21
3.29765
 31
0.0
  0
LINE
  8
0
 62
     0
 10
0.475424
 20
3.29765
 30
0.0
 11
0.338998
 21
3.66557
 31
0.0
  0
LINE
  8
0
 62
     0
 10
0.338998
 20
3.66557
 30
0.0
 11
0.232888
 21
4.04453
 31
0.0
  0
LINE
  8
0
 62
     0
 10
0.232888
 20
4.04453
 30
0.0
 11
0.157097
 21
4.42902
 31
0.0
  0
LINE
  8
0
 62
     0
 10
0.157097
 20
4.42902
 30
0.0
 11
0.110243
 21
4.81902
 31
0.0
  0
LINE
  8
0
 62
     0
 10
0.110243
 20
4.81902
 30
0.0
 11
0.0950846
 21
5.21035
 31
0.0
  0
LINE
  8
0
 62
     0
 10
0.0950846
 20
5.21035
 30
0.0
 11
0.0950846
 21
124.374
 31
0.0
  0
LINE
  8
0
 62
     0
 10
0.0950846
 20
124.374
 30
0.0
 11
0.110243
 21
124.768
 31
0.0
  0
LINE
  8
0
 62
     0
 10
0.110243
 20
124.768
 30
0.0
 11
0.157097
 21
125.157
 31
0.0
  0
LINE
  8
0
 62
     0
 10
0.157097
 20
125.157
 30
0.0
 11
0.232888
 21
125.542
 31
0.0
  0
LINE
  8
0
 62
     0
 10
0.232888
 20
125.542
 30
0.0
 11
0.338998
 21
125.92
 31
0.0
  0
LINE
  8
0
 62
     0
 10
0.338998
 20
125.92
 30
0.0
 11
0.475424
 21
126.287
 31
0.0
  0
LINE
  8
0
 62
     0
 10
0.475424
 20
126.287
 30
0.0
 11
0.63941
 21
126.644
 31
0.0
  0
LINE
  8
0
 62
     0
 10
0.63941
 20
126.644
 30
0.0
 11
0.830957
 21
126.988
 31
0.0
  0
LINE
  8
0
 62
     0
 10
0.830957
 20
126.988
 30
0.0
 11
1.05006
 21
127.313
 31
0.0
  0
LINE
  8
0
 62
     0
 10
1.05006
 20
127.313
 30
0.0
 11
1.2926
 21
127.622
 31
0.0
  0
LINE
  8
0
 62
     0
 10
1.2926
 20
127.622
 30
0.0
 11
1.55994
 21
127.909
 31
0.0
  0
LINE
  8
0
 62
     0
 10
1.55994
 20
127.909
 30
0.0
 11
1.84795
 21
128.177
 31
0.0
  0
LINE
  8
0
 62
     0
 10
1.84795
 20
128.177
 30
0.0
 11
2.15663
 21
128.419
 31
0.0
  0
LINE
  8
0
 62
     0
 10
2.15663
 20
128.419
 30
0.0
 11
2.48185
 21
128.639
 31
0.0
  0
LINE
  8
0
 62
     0
 10
2.48185
 20
128.639
 30
0.0
 11
2.82498
 21
128.83
 31
0.0
  0
LINE
  8
0
 62
     0
 10
2.82498
 20
128.83
 30
0.0
 11
3.18189
 21
128.994
 31
0.0
  0
LINE
  8
0
 62
     0
 10
3.18189
 20
128.994
 30
0.0
 11
3.54983
 21
129.13
 31
0.0
  0
LINE
  8
0
 62
     0
 10
3.54983
 20
129.13
 30
0.0
 11
3.9274
 21
129.237
 31
0.0
  0
LINE
  8
0
 62
     0
 10
3.9274
 20
129.237
 30
0.0
 11
4.3119
 21
129.312
 31
0.0
  0
LINE
  8
0
 62
     0
 10
4.3119
 20
129.312
 30
0.0
 11
4.70186
 21
129.359
 31
0.0
  0
LINE
  8
0
 62
     0
 10
4.70186
 20
129.359
 30
0.0
 11
5.09598
 21
129.374
 31
0.0
  0
LINE
  8
0
 62
     0
 10
5.09598
 20
129.374
 30
0.0
 11
143.309
 21
129.374
 31
0.0
  0
LINE
  8
0
 62
     0
 10
114.876
 20
21.7372
 30
0.0
 11
114.876
 21
17.0367
 31
0.0
  0
LINE
  8
0
 62
     0
 10
114.876
 20
17.0367
 30
0.0
 11
113.251
 21
17.0367
 31
0.0
  0
LINE
  8
0
 62
     0
 10
113.251
 20
17.0367
 30
0.0
 11
113.251
 21
20.2668
 31
0.0
  0
LINE
  8
0
 62
     0
 10
113.251
 20
20.2668
 30
0.0
 11
111.526
 21
20.2668
 31
0.0
  0
LINE
  8
0
 62
     0
 10
111.526
 20
20.2668
 30
0.0
 11
111.526
 21
21.1873
 31
0.0
  0
LINE
  8
0
 62
     0
 10
111.526
 20
21.1873
 30
0.0
 11
108.326
 21
21.1873
 31
0.0
  0
LINE
  8
0
 62
     0
 10
108.326
 20
21.1873
 30
0.0
 11
108.326
 21
20.2668
 31
0.0
  0
LINE
  8
0
 62
     0
 10
108.326
 20
20.2668
 30
0.0
 11
106.601
 21
20.2668
 31
0.0
  0
LINE
  8
0
 62
     0
 10
106.601
 20
20.2668
 30
0.0
 11
106.601
 21
17.0367
 31
0.0
  0
LINE
  8
0
 62
     0
 10
106.601
 20
17.0367
 30
0.0
 11
105.777
 21
17.0367
 31
0.0
  0
LINE
  8
0
 62
     0
 10
105.777
 20
17.0367
 30
0.0
 11
105.777
 21
14.3371
 31
0.0
  0
LINE
  8
0
 62
     0
 10
105.777
 20
14.3371
 30
0.0
 11
106.601
 21
14.3371
 31
0.0
  0
LINE
  8
0
 62
     0
 10
106.601
 20
14.3371
 30
0.0
 11
106.601
 21
8.06704
 31
0.0
  0
LINE
  8
0
 62
     0
 10
106.601
 20
8.06704
 30
0.0
 11
108.326
 21
8.06704
 31
0.0
  0
LINE
  8
0
 62
     0
 10
108.326
 20
8.06704
 30
0.0
 11
108.326
 21
7.08723
 31
0.0
  0
LINE
  8
0
 62
     0
 10
108.326
 20
7.08723
 30
0.0
 11
111.526
 21
7.08723
 31
0.0
  0
LINE
  8
0
 62
     0
 10
111.526
 20
7.08723
 30
0.0
 11
111.526
 21
8.06704
 31
0.0
  0
LINE
  8
0
 62
     0
 10
111.526
 20
8.06704
 30
0.0
 11
113.251
 21
8.06704
 31
0.0
  0
LINE
  8
0
 62
     0
 10
113.251
 20
8.06704
 30
0.0
 11
113.251
 21
12.5374
 31
0.0
  0
LINE
  8
0
 62
     0
 10
113.251
 20
12.5374
 30
0.0
 11
114.876
 21
12.5374
 31
0.0
  0
LINE
  8
0
 62
     0
 10
114.876
 20
12.5374
 30
0.0
 11
114.876
 21
7.83689
 31
0.0
  0
LINE
  8
0
 62
     0
 10
114.876
 20
7.83689
 30
0.0
 11
128.776
 21
7.83689
 31
0.0
  0
LINE
  8
0
 62
     0
 10
128.776
 20
7.83689
 30
0.0
 11
128.776
 21
12.5374
 31
0.0
  0
LINE
  8
0
 62
     0
 10
128.776
 20
12.5374
 30
0.0
 11
130.401
 21
12.5374
 31
0.0
  0
LINE
  8
0
 62
     0
 10
130.401
 20
12.5374
 30
0.0
 11
130.401
 21
8.06704
 31
0.0
  0
LINE
  8
0
 62
     0
 10
130.401
 20
8.06704
 30
0.0
 11
132.126
 21
8.06704
 31
0.0
  0
LINE
  8
0
 62
     0
 10
132.126
 20
8.06704
 30
0.0
 11
132.126
 21
7.08723
 31
0.0
  0
LINE
  8
0
 62
     0
 10
132.126
 20
7.08723
 30
0.0
 11
135.326
 21
7.08723
 31
0.0
  0
LINE
  8
0
 62
     0
 10
135.326
 20
7.08723
 30
0.0
 11
135.326
 21
8.06704
 31
0.0
  0
LINE
  8
0
 62
     0
 10
135.326
 20
8.06704
 30
0.0
 11
137.051
 21
8.06704
 31
0.0
  0
LINE
  8
0
 62
     0
 10
137.051
 20
8.06704
 30
0.0
 11
137.051
 21
14.3371
 31
0.0
  0
LINE
  8
0
 62
     0
 10
137.051
 20
14.3371
 30
0.0
 11
137.877
 21
14.3371
 31
0.0
  0
LINE
  8
0
 62
     0
 10
137.877
 20
14.3371
 30
0.0
 11
137.877
 21
17.0367
 31
0.0
  0
LINE
  8
0
 62
     0
 10
137.877
 20
17.0367
 30
0.0
 11
137.051
 21
17.0367
 31
0.0
  0
LINE
  8
0
 62
     0
 10
137.051
 20
17.0367
 30
0.0
 11
137.051
 21
20.2668
 31
0.0
  0
LINE
  8
0
 62
     0
 10
137.051
 20
20.2668
 30
0.0
 11
135.326
 21
20.2668
 31
0.0
  0
LINE
  8
0
 62
     0
 10
135.326
 20
20.2668
 30
0.0
 11
135.326
 21
21.1873
 31
0.0
  0
LINE
  8
0
 62
     0
 10
135.326
 20
21.1873
 30
0.0
 11
132.126
 21
21.1873
 31
0.0
  0
LINE
  8
0
 62
     0
 10
132.126
 20
21.1873
 30
0.0
 11
132.126
 21
20.2668
 31
0.0
  0
LINE
  8
0
 62
     0
 10
132.126
 20
20.2668
 30
0.0
 11
130.401
 21
20.2668
 31
0.0
  0
LINE
  8
0
 62
     0
 10
130.401
 20
20.2668
 30
0.0
 11
130.401
 21
17.0367
 31
0.0
  0
LINE
  8
0
 62
     0
 10
130.401
 20
17.0367
 30
0.0
 11
128.776
 21
17.0367
 31
0.0
  0
LINE
  8
0
 62
     0
 10
128.776
 20
17.0367
 30
0.0
 11
128.776
 21
21.7372
 31
0.0
  0
LINE
  8
0
 62
     0
 10
128.776
 20
21.7372
 30
0.0
 11
114.876
 21
21.7372
 31
0.0
  0
LINE
  8
0
 62
     0
 10
10.101
 20
21.7372
 30
0.0
 11
24.0013
 21
21.7372
 31
0.0
  0
LINE
  8
0
 62
     0
 10
24.0013
 20
21.7372
 30
0.0
 11
24.0013
 21
7.83689
 31
0.0
  0
LINE
  8
0
 62
     0
 10
24.0013
 20
7.83689
 30
0.0
 11
10.101
 21
7.83689
 31
0.0
  0
LINE
  8
0
 62
     0
 10
10.101
 20
7.83689
 30
0.0
 11
10.101
 21
21.7372
 31
0.0
  0
LINE
  8
0
 62
     0
 10
33.9135
 20
21.7372
 30
0.0
 11
47.8137
 21
21.7372
 31
0.0
  0
LINE
  8
0
 62
     0
 10
47.8137
 20
21.7372
 30
0.0
 11
47.8137
 21
7.83689
 31
0.0
  0
LINE
  8
0
 62
     0
 10
47.8137
 20
7.83689
 30
0.0
 11
33.9135
 21
7.83689
 31
0.0
  0
LINE
  8
0
 62
     0
 10
33.9135
 20
7.83689
 30
0.0
 11
33.9135
 21
21.7372
 31
0.0
  0
LINE
  8
0
 62
     0
 10
57.7261
 20
21.7372
 30
0.0
 11
71.6262
 21
21.7372
 31
0.0
  0
LINE
  8
0
 62
     0
 10
71.6262
 20
21.7372
 30
0.0
 11
71.6262
 21
7.83689
 31
0.0
  0
LINE
  8
0
 62
     0
 10
71.6262
 20
7.83689
 30
0.0
 11
57.7261
 21
7.83689
 31
0.0
  0
LINE
  8
0
 62
     0
 10
57.7261
 20
7.83689
 30
0.0
 11
57.7261
 21
21.7372
 31
0.0
  0
LINE
  8
0
 62
     0
 10
81.5386
 20
21.7372
 30
0.0
 11
95.4387
 21
21.7372
 31
0.0
  0
LINE
  8
0
 62
     0
 10
95.4387
 20
21.7372
 30
0.0
 11
95.4387
 21
7.83689
 31
0.0
  0
LINE
  8
0
 62
     0
 10
95.4387
 20
7.83689
 30
0.0
 11
81.5386
 21
7.83689
 31
0.0
  0
LINE
  8
0
 62
     0
 10
81.5386
 20
7.83689
 30
0.0
 11
81.5386
 21
21.7372
 31
0.0
  0
LINE
  8
0
 62
     0
 10
19.626
 20
40.7871
 30
0.0
 11
19.626
 21
36.0867
 31
0.0
  0
LINE
  8
0
 62
     0
 10
19.626
 20
36.0867
 30
0.0
 11
18.0013
 21
36.0867
 31
0.0
  0
LINE
  8
0
 62
     0
 10
18.0013
 20
36.0867
 30
0.0
 11
18.0013
 21
39.3167
 31
0.0
  0
LINE
  8
0
 62
     0
 10
18.0013
 20
39.3167
 30
0.0
 11
16.276
 21
39.3167
 31
0.0
  0
LINE
  8
0
 62
     0
 10
16.276
 20
39.3167
 30
0.0
 11
16.276
 21
40.2375
 31
0.0
  0
LINE
  8
0
 62
     0
 10
16.276
 20
40.2375
 30
0.0
 11
13.0762
 21
40.2375
 31
0.0
  0
LINE
  8
0
 62
     0
 10
13.0762
 20
40.2375
 30
0.0
 11
13.0762
 21
39.3167
 31
0.0
  0
LINE
  8
0
 62
     0
 10
13.0762
 20
39.3167
 30
0.0
 11
11.3509
 21
39.3167
 31
0.0
  0
LINE
  8
0
 62
     0
 10
11.3509
 20
39.3167
 30
0.0
 11
11.3509
 21
36.0867
 31
0.0
  0
LINE
  8
0
 62
     0
 10
11.3509
 20
36.0867
 30
0.0
 11
10.5268
 21
36.0867
 31
0.0
  0
LINE
  8
0
 62
     0
 10
10.5268
 20
36.0867
 30
0.0
 11
10.5268
 21
33.3871
 31
0.0
  0
LINE
  8
0
 62
     0
 10
10.5268
 20
33.3871
 30
0.0
 11
11.3509
 21
33.3871
 31
0.0
  0
LINE
  8
0
 62
     0
 10
11.3509
 20
33.3871
 30
0.0
 11
11.3509
 21
27.117
 31
0.0
  0
LINE
  8
0
 62
     0
 10
11.3509
 20
27.117
 30
0.0
 11
13.0762
 21
27.117
 31
0.0
  0
LINE
  8
0
 62
     0
 10
13.0762
 20
27.117
 30
0.0
 11
13.0762
 21
26.1372
 31
0.0
  0
LINE
  8
0
 62
     0
 10
13.0762
 20
26.1372
 30
0.0
 11
16.276
 21
26.1372
 31
0.0
  0
LINE
  8
0
 62
     0
 10
16.276
 20
26.1372
 30
0.0
 11
16.276
 21
27.117
 31
0.0
  0
LINE
  8
0
 62
     0
 10
16.276
 20
27.117
 30
0.0
 11
18.0013
 21
27.117
 31
0.0
  0
LINE
  8
0
 62
     0
 10
18.0013
 20
27.117
 30
0.0
 11
18.0013
 21
31.5874
 31
0.0
  0
LINE
  8
0
 62
     0
 10
18.0013
 20
31.5874
 30
0.0
 11
19.626
 21
31.5874
 31
0.0
  0
LINE
  8
0
 62
     0
 10
19.626
 20
31.5874
 30
0.0
 11
19.626
 21
26.8869
 31
0.0
  0
LINE
  8
0
 62
     0
 10
19.626
 20
26.8869
 30
0.0
 11
33.5263
 21
26.8869
 31
0.0
  0
LINE
  8
0
 62
     0
 10
33.5263
 20
26.8869
 30
0.0
 11
33.5263
 21
31.5874
 31
0.0
  0
LINE
  8
0
 62
     0
 10
33.5263
 20
31.5874
 30
0.0
 11
35.151
 21
31.5874
 31
0.0
  0
LINE
  8
0
 62
     0
 10
35.151
 20
31.5874
 30
0.0
 11
35.151
 21
27.117
 31
0.0
  0
LINE
  8
0
 62
     0
 10
35.151
 20
27.117
 30
0.0
 11
36.8762
 21
27.117
 31
0.0
  0
LINE
  8
0
 62
     0
 10
36.8762
 20
27.117
 30
0.0
 11
36.8762
 21
26.1372
 31
0.0
  0
LINE
  8
0
 62
     0
 10
36.8762
 20
26.1372
 30
0.0
 11
40.0763
 21
26.1372
 31
0.0
  0
LINE
  8
0
 62
     0
 10
40.0763
 20
26.1372
 30
0.0
 11
40.0763
 21
27.117
 31
0.0
  0
LINE
  8
0
 62
     0
 10
40.0763
 20
27.117
 30
0.0
 11
41.8013
 21
27.117
 31
0.0
  0
LINE
  8
0
 62
     0
 10
41.8013
 20
27.117
 30
0.0
 11
41.8013
 21
33.3871
 31
0.0
  0
LINE
  8
0
 62
     0
 10
41.8013
 20
33.3871
 30
0.0
 11
42.6268
 21
33.3871
 31
0.0
  0
LINE
  8
0
 62
     0
 10
42.6268
 20
33.3871
 30
0.0
 11
42.6268
 21
36.0867
 31
0.0
  0
LINE
  8
0
 62
     0
 10
42.6268
 20
36.0867
 30
0.0
 11
41.8013
 21
36.0867
 31
0.0
  0
LINE
  8
0
 62
     0
 10
41.8013
 20
36.0867
 30
0.0
 11
41.8013
 21
39.3167
 31
0.0
  0
LINE
  8
0
 62
     0
 10
41.8013
 20
39.3167
 30
0.0
 11
40.0763
 21
39.3167
 31
0.0
  0
LINE
  8
0
 62
     0
 10
40.0763
 20
39.3167
 30
0.0
 11
40.0763
 21
40.2375
 31
0.0
  0
LINE
  8
0
 62
     0
 10
40.0763
 20
40.2375
 30
0.0
 11
36.8762
 21
40.2375
 31
0.0
  0
LINE
  8
0
 62
     0
 10
36.8762
 20
40.2375
 30
0.0
 11
36.8762
 21
39.3167
 31
0.0
  0
LINE
  8
0
 62
     0
 10
36.8762
 20
39.3167
 30
0.0
 11
35.151
 21
39.3167
 31
0.0
  0
LINE
  8
0
 62
     0
 10
35.151
 20
39.3167
 30
0.0
 11
35.151
 21
36.0867
 31
0.0
  0
LINE
  8
0
 62
     0
 10
35.151
 20
36.0867
 30
0.0
 11
33.5263
 21
36.0867
 31
0.0
  0
LINE
  8
0
 62
     0
 10
33.5263
 20
36.0867
 30
0.0
 11
33.5263
 21
40.7871
 31
0.0
  0
LINE
  8
0
 62
     0
 10
33.5263
 20
40.7871
 30
0.0
 11
19.626
 21
40.7871
 31
0.0
  0
LINE
  8
0
 62
     0
 10
50.5823
 20
40.7871
 30
0.0
 11
64.4825
 21
40.7871
 31
0.0
  0
LINE
  8
0
 62
     0
 10
64.4825
 20
40.7871
 30
0.0
 11
64.4825
 21
26.8869
 31
0.0
  0
LINE
  8
0
 62
     0
 10
64.4825
 20
26.8869
 30
0.0
 11
50.5823
 21
26.8869
 31
0.0
  0
LINE
  8
0
 62
     0
 10
50.5823
 20
26.8869
 30
0.0
 11
50.5823
 21
40.7871
 31
0.0
  0
LINE
  8
0
 62
     0
 10
69.6323
 20
40.7871
 30
0.0
 11
83.5325
 21
40.7871
 31
0.0
  0
LINE
  8
0
 62
     0
 10
83.5325
 20
40.7871
 30
0.0
 11
83.5325
 21
26.8869
 31
0.0
  0
LINE
  8
0
 62
     0
 10
83.5325
 20
26.8869
 30
0.0
 11
69.6323
 21
26.8869
 31
0.0
  0
LINE
  8
0
 62
     0
 10
69.6323
 20
26.8869
 30
0.0
 11
69.6323
 21
40.7871
 31
0.0
  0
LINE
  8
0
 62
     0
 10
88.6823
 20
40.7871
 30
0.0
 11
102.582
 21
40.7871
 31
0.0
  0
LINE
  8
0
 62
     0
 10
102.582
 20
40.7871
 30
0.0
 11
102.582
 21
26.8869
 31
0.0
  0
LINE
  8
0
 62
     0
 10
102.582
 20
26.8869
 30
0.0
 11
88.6823
 21
26.8869
 31
0.0
  0
LINE
  8
0
 62
     0
 10
88.6823
 20
26.8869
 30
0.0
 11
88.6823
 21
40.7871
 31
0.0
  0
LINE
  8
0
 62
     0
 10
107.732
 20
40.7871
 30
0.0
 11
121.632
 21
40.7871
 31
0.0
  0
LINE
  8
0
 62
     0
 10
121.632
 20
40.7871
 30
0.0
 11
121.632
 21
26.8869
 31
0.0
  0
LINE
  8
0
 62
     0
 10
121.632
 20
26.8869
 30
0.0
 11
107.732
 21
26.8869
 31
0.0
  0
LINE
  8
0
 62
     0
 10
107.732
 20
26.8869
 30
0.0
 11
107.732
 21
40.7871
 31
0.0
  0
LINE
  8
0
 62
     0
 10
126.782
 20
40.7871
 30
0.0
 11
140.682
 21
40.7871
 31
0.0
  0
LINE
  8
0
 62
     0
 10
140.682
 20
40.7871
 30
0.0
 11
140.682
 21
26.8869
 31
0.0
  0
LINE
  8
0
 62
     0
 10
140.682
 20
26.8869
 30
0.0
 11
126.782
 21
26.8869
 31
0.0
  0
LINE
  8
0
 62
     0
 10
126.782
 20
26.8869
 30
0.0
 11
126.782
 21
40.7871
 31
0.0
  0
LINE
  8
0
 62
     0
 10
14.8635
 20
59.8371
 30
0.0
 11
28.7638
 21
59.8371
 31
0.0
  0
LINE
  8
0
 62
     0
 10
28.7638
 20
59.8371
 30
0.0
 11
28.7638
 21
45.937
 31
0.0
  0
LINE
  8
0
 62
     0
 10
28.7638
 20
45.937
 30
0.0
 11
14.8635
 21
45.937
 31
0.0
  0
LINE
  8
0
 62
     0
 10
14.8635
 20
45.937
 30
0.0
 11
14.8635
 21
59.8371
 31
0.0
  0
LINE
  8
0
 62
     0
 10
41.0573
 20
59.8371
 30
0.0
 11
54.9575
 21
59.8371
 31
0.0
  0
LINE
  8
0
 62
     0
 10
54.9575
 20
59.8371
 30
0.0
 11
54.9575
 21
45.937
 31
0.0
  0
LINE
  8
0
 62
     0
 10
54.9575
 20
45.937
 30
0.0
 11
41.0573
 21
45.937
 31
0.0
  0
LINE
  8
0
 62
     0
 10
41.0573
 20
45.937
 30
0.0
 11
41.0573
 21
59.8371
 31
0.0
  0
LINE
  8
0
 62
     0
 10
60.1073
 20
59.8371
 30
0.0
 11
74.0075
 21
59.8371
 31
0.0
  0
LINE
  8
0
 62
     0
 10
74.0075
 20
59.8371
 30
0.0
 11
74.0075
 21
45.937
 31
0.0
  0
LINE
  8
0
 62
     0
 10
74.0075
 20
45.937
 30
0.0
 11
60.1073
 21
45.937
 31
0.0
  0
LINE
  8
0
 62
     0
 10
60.1073
 20
45.937
 30
0.0
 11
60.1073
 21
59.8371
 31
0.0
  0
LINE
  8
0
 62
     0
 10
79.1573
 20
59.8371
 30
0.0
 11
93.0575
 21
59.8371
 31
0.0
  0
LINE
  8
0
 62
     0
 10
93.0575
 20
59.8371
 30
0.0
 11
93.0575
 21
45.937
 31
0.0
  0
LINE
  8
0
 62
     0
 10
93.0575
 20
45.937
 30
0.0
 11
79.1573
 21
45.937
 31
0.0
  0
LINE
  8
0
 62
     0
 10
79.1573
 20
45.937
 30
0.0
 11
79.1573
 21
59.8371
 31
0.0
  0
LINE
  8
0
 62
     0
 10
98.2073
 20
59.8371
 30
0.0
 11
112.107
 21
59.8371
 31
0.0
  0
LINE
  8
0
 62
     0
 10
112.107
 20
59.8371
 30
0.0
 11
112.107
 21
45.937
 31
0.0
  0
LINE
  8
0
 62
     0
 10
112.107
 20
45.937
 30
0.0
 11
98.2073
 21
45.937
 31
0.0
  0
LINE
  8
0
 62
     0
 10
98.2073
 20
45.937
 30
0.0
 11
98.2073
 21
59.8371
 31
0.0
  0
LINE
  8
0
 62
     0
 10
117.257
 20
59.8371
 30
0.0
 11
131.157
 21
59.8371
 31
0.0
  0
LINE
  8
0
 62
     0
 10
131.157
 20
59.8371
 30
0.0
 11
131.157
 21
45.937
 31
0.0
  0
LINE
  8
0
 62
     0
 10
131.157
 20
45.937
 30
0.0
 11
117.257
 21
45.937
 31
0.0
  0
LINE
  8
0
 62
     0
 10
117.257
 20
45.937
 30
0.0
 11
117.257
 21
59.8371
 31
0.0
  0
LINE
  8
0
 62
     0
 10
12.4823
 20
78.8871
 30
0.0
 11
26.3826
 21
78.8871
 31
0.0
  0
LINE
  8
0
 62
     0
 10
26.3826
 20
78.8871
 30
0.0
 11
26.3826
 21
64.987
 31
0.0
  0
LINE
  8
0
 62
     0
 10
26.3826
 20
64.987
 30
0.0
 11
12.4823
 21
64.987
 31
0.0
  0
LINE
  8
0
 62
     0
 10
12.4823
 20
64.987
 30
0.0
 11
12.4823
 21
78.8871
 31
0.0
  0
LINE
  8
0
 62
     0
 10
36.2962
 20
78.8871
 30
0.0
 11
50.195
 21
78.8871
 31
0.0
  0
LINE
  8
0
 62
     0
 10
50.195
 20
78.8871
 30
0.0
 11
50.195
 21
64.987
 31
0.0
  0
LINE
  8
0
 62
     0
 10
50.195
 20
64.987
 30
0.0
 11
36.2962
 21
64.987
 31
0.0
  0
LINE
  8
0
 62
     0
 10
36.2962
 20
64.987
 30
0.0
 11
36.2962
 21
78.8871
 31
0.0
  0
LINE
  8
0
 62
     0
 10
55.3462
 20
78.8871
 30
0.0
 11
69.245
 21
78.8871
 31
0.0
  0
LINE
  8
0
 62
     0
 10
69.245
 20
78.8871
 30
0.0
 11
69.245
 21
64.987
 31
0.0
  0
LINE
  8
0
 62
     0
 10
69.245
 20
64.987
 30
0.0
 11
55.3462
 21
64.987
 31
0.0
  0
LINE
  8
0
 62
     0
 10
55.3462
 20
64.987
 30
0.0
 11
55.3462
 21
78.8871
 31
0.0
  0
LINE
  8
0
 62
     0
 10
74.3962
 20
78.8871
 30
0.0
 11
88.295
 21
78.8871
 31
0.0
  0
LINE
  8
0
 62
     0
 10
88.295
 20
78.8871
 30
0.0
 11
88.295
 21
64.987
 31
0.0
  0
LINE
  8
0
 62
     0
 10
88.295
 20
64.987
 30
0.0
 11
74.3962
 21
64.987
 31
0.0
  0
LINE
  8
0
 62
     0
 10
74.3962
 20
64.987
 30
0.0
 11
74.3962
 21
78.8871
 31
0.0
  0
LINE
  8
0
 62
     0
 10
93.4462
 20
78.8871
 30
0.0
 11
107.345
 21
78.8871
 31
0.0
  0
LINE
  8
0
 62
     0
 10
107.345
 20
78.8871
 30
0.0
 11
107.345
 21
64.987
 31
0.0
  0
LINE
  8
0
 62
     0
 10
107.345
 20
64.987
 30
0.0
 11
93.4462
 21
64.987
 31
0.0
  0
LINE
  8
0
 62
     0
 10
93.4462
 20
64.987
 30
0.0
 11
93.4462
 21
78.8871
 31
0.0
  0
LINE
  8
0
 62
     0
 10
112.495
 20
78.8871
 30
0.0
 11
126.395
 21
78.8871
 31
0.0
  0
LINE
  8
0
 62
     0
 10
126.395
 20
78.8871
 30
0.0
 11
126.395
 21
64.987
 31
0.0
  0
LINE
  8
0
 62
     0
 10
126.395
 20
64.987
 30
0.0
 11
112.495
 21
64.987
 31
0.0
  0
LINE
  8
0
 62
     0
 10
112.495
 20
64.987
 30
0.0
 11
112.495
 21
78.8871
 31
0.0
  0
LINE
  8
0
 62
     0
 10
7.72114
 20
97.9371
 30
0.0
 11
21.6201
 21
97.9371
 31
0.0
  0
LINE
  8
0
 62
     0
 10
21.6201
 20
97.9371
 30
0.0
 11
21.6201
 21
84.037
 31
0.0
  0
LINE
  8
0
 62
     0
 10
21.6201
 20
84.037
 30
0.0
 11
7.72114
 21
84.037
 31
0.0
  0
LINE
  8
0
 62
     0
 10
7.72114
 20
84.037
 30
0.0
 11
7.72114
 21
97.9371
 31
0.0
  0
LINE
  8
0
 62
     0
 10
26.7711
 20
97.9371
 30
0.0
 11
40.67
 21
97.9371
 31
0.0
  0
LINE
  8
0
 62
     0
 10
40.67
 20
97.9371
 30
0.0
 11
40.67
 21
84.037
 31
0.0
  0
LINE
  8
0
 62
     0
 10
40.67
 20
84.037
 30
0.0
 11
26.7711
 21
84.037
 31
0.0
  0
LINE
  8
0
 62
     0
 10
26.7711
 20
84.037
 30
0.0
 11
26.7711
 21
97.9371
 31
0.0
  0
LINE
  8
0
 62
     0
 10
45.8198
 20
97.9371
 30
0.0
 11
59.72
 21
97.9371
 31
0.0
  0
LINE
  8
0
 62
     0
 10
59.72
 20
97.9371
 30
0.0
 11
59.72
 21
84.037
 31
0.0
  0
LINE
  8
0
 62
     0
 10
59.72
 20
84.037
 30
0.0
 11
45.8198
 21
84.037
 31
0.0
  0
LINE
  8
0
 62
     0
 10
45.8198
 20
84.037
 30
0.0
 11
45.8198
 21
97.9371
 31
0.0
  0
LINE
  8
0
 62
     0
 10
64.8698
 20
97.9371
 30
0.0
 11
78.77
 21
97.9371
 31
0.0
  0
LINE
  8
0
 62
     0
 10
78.77
 20
97.9371
 30
0.0
 11
78.77
 21
84.037
 31
0.0
  0
LINE
  8
0
 62
     0
 10
78.77
 20
84.037
 30
0.0
 11
64.8698
 21
84.037
 31
0.0
  0
LINE
  8
0
 62
     0
 10
64.8698
 20
84.037
 30
0.0
 11
64.8698
 21
97.9371
 31
0.0
  0
LINE
  8
0
 62
     0
 10
83.9198
 20
97.9371
 30
0.0
 11
97.82
 21
97.9371
 31
0.0
  0
LINE
  8
0
 62
     0
 10
97.82
 20
97.9371
 30
0.0
 11
97.82
 21
84.037
 31
0.0
  0
LINE
  8
0
 62
     0
 10
97.82
 20
84.037
 30
0.0
 11
83.9198
 21
84.037
 31
0.0
  0
LINE
  8
0
 62
     0
 10
83.9198
 20
84.037
 30
0.0
 11
83.9198
 21
97.9371
 31
0.0
  0
LINE
  8
0
 62
     0
 10
102.97
 20
97.9371
 30
0.0
 11
116.87
 21
97.9371
 31
0.0
  0
LINE
  8
0
 62
     0
 10
116.87
 20
97.9371
 30
0.0
 11
116.87
 21
84.037
 31
0.0
  0
LINE
  8
0
 62
     0
 10
116.87
 20
84.037
 30
0.0
 11
102.97
 21
84.037
 31
0.0
  0
LINE
  8
0
 62
     0
 10
102.97
 20
84.037
 30
0.0
 11
102.97
 21
97.9371
 31
0.0
  0
LINE
  8
0
 62
     0
 10
122.021
 20
97.9371
 30
0.0
 11
135.92
 21
97.9371
 31
0.0
  0
LINE
  8
0
 62
     0
 10
135.92
 20
97.9371
 30
0.0
 11
135.92
 21
84.037
 31
0.0
  0
LINE
  8
0
 62
     0
 10
135.92
 20
84.037
 30
0.0
 11
122.021
 21
84.037
 31
0.0
  0
LINE
  8
0
 62
     0
 10
122.021
 20
84.037
 30
0.0
 11
122.021
 21
97.9371
 31
0.0
  0
LINE
  8
0
 62
     0
 10
7.72114
 20
121.748
 30
0.0
 11
21.6201
 21
121.748
 31
0.0
  0
LINE
  8
0
 62
     0
 10
21.6201
 20
121.748
 30
0.0
 11
21.6201
 21
107.849
 31
0.0
  0
LINE
  8
0
 62
     0
 10
21.6201
 20
107.849
 30
0.0
 11
7.72114
 21
107.849
 31
0.0
  0
LINE
  8
0
 62
     0
 10
7.72114
 20
107.849
 30
0.0
 11
7.72114
 21
121.748
 31
0.0
  0
LINE
  8
0
 62
     0
 10
31.5323
 20
121.748
 30
0.0
 11
45.4325
 21
121.748
 31
0.0
  0
LINE
  8
0
 62
     0
 10
45.4325
 20
121.748
 30
0.0
 11
45.4325
 21
107.849
 31
0.0
  0
LINE
  8
0
 62
     0
 10
45.4325
 20
107.849
 30
0.0
 11
31.5323
 21
107.849
 31
0.0
  0
LINE
  8
0
 62
     0
 10
31.5323
 20
107.849
 30
0.0
 11
31.5323
 21
121.748
 31
0.0
  0
LINE
  8
0
 62
     0
 10
50.5823
 20
121.748
 30
0.0
 11
64.4825
 21
121.748
 31
0.0
  0
LINE
  8
0
 62
     0
 10
64.4825
 20
121.748
 30
0.0
 11
64.4825
 21
107.849
 31
0.0
  0
LINE
  8
0
 62
     0
 10
64.4825
 20
107.849
 30
0.0
 11
50.5823
 21
107.849
 31
0.0
  0
LINE
  8
0
 62
     0
 10
50.5823
 20
107.849
 30
0.0
 11
50.5823
 21
121.748
 31
0.0
  0
LINE
  8
0
 62
     0
 10
69.6323
 20
121.748
 30
0.0
 11
83.5325
 21
121.748
 31
0.0
  0
LINE
  8
0
 62
     0
 10
83.5325
 20
121.748
 30
0.0
 11
83.5325
 21
107.849
 31
0.0
  0
LINE
  8
0
 62
     0
 10
83.5325
 20
107.849
 30
0.0
 11
69.6323
 21
107.849
 31
0.0
  0
LINE
  8
0
 62
     0
 10
69.6323
 20
107.849
 30
0.0
 11
69.6323
 21
121.748
 31
0.0
  0
LINE
  8
0
 62
     0
 10
88.6823
 20
121.748
 30
0.0
 11
102.582
 21
121.748
 31
0.0
  0
LINE
  8
0
 62
     0
 10
102.582
 20
121.748
 30
0.0
 11
102.582
 21
107.849
 31
0.0
  0
LINE
  8
0
 62
     0
 10
102.582
 20
107.849
 30
0.0
 11
88.6823
 21
107.849
 31
0.0
  0
LINE
  8
0
 62
     0
 10
88.6823
 20
107.849
 30
0.0
 11
88.6823
 21
121.748
 31
0.0
  0
LINE
  8
0
 62
     0
 10
107.732
 20
121.748
 30
0.0
 11
121.632
 21
121.748
 31
0.0
  0
LINE
  8
0
 62
     0
 10
121.632
 20
121.748
 30
0.0
 11
121.632
 21
107.849
 31
0.0
  0
LINE
  8
0
 62
     0
 10
121.632
 20
107.849
 30
0.0
 11
107.732
 21
107.849
 31
0.0
  0
LINE
  8
0
 62
     0
 10
107.732
 20
107.849
 30
0.0
 11
107.732
 21
121.748
 31
0.0
  0
LINE
  8
0
 62
     0
 10
126.782
 20
121.748
 30
0.0
 11
140.682
 21
121.748
 31
0.0
  0
LINE
  8
0
 62
     0
 10
140.682
 20
121.748
 30
0.0
 11
140.682
 21
107.849
 31
0.0
  0
LINE
  8
0
 62
     0
 10
140.682
 20
107.849
 30
0.0
 11
126.782
 21
107.849
 31
0.0
  0
LINE
  8
0
 62
     0
 10
126.782
 20
107.849
 30
0.0
 11
126.782
 21
121.748
 31
0.0
  0
ENDSEC
  0
EOF
