  0
SECTION
  2
HEADER
  9
$ACADVER
  1
AC1009
  9
$FILLMODE
 70
 0
  9
$SPLFRAME
 70
 1
  9
$EXTMIN
 10
0
 20
0
 30
0.0
  9
$EXTMAX
 10
1058.33
 20
1058.33
 30
0.0
  0
ENDSEC
  0
SECTION
  2
TABLES
  0
TABLE
  2
LAYER
 70
1
  0
LAYER
  2
0
 70
     0
 62
     7
  6
CONTINUOUS
  0
ENDTAB
  0
ENDSEC
  0
SECTION
  2
ENTITIES
  0
LINE
  8
0
 62
     0
 10
149.208
 20
111.383
 30
0.0
 11
149.6
 21
111.368
 31
0.0
  0
LINE
  8
0
 62
     0
 10
149.6
 20
111.368
 30
0.0
 11
149.99
 21
111.321
 31
0.0
  0
LINE
  8
0
 62
     0
 10
149.99
 20
111.321
 30
0.0
 11
150.376
 21
111.245
 31
0.0
  0
LINE
  8
0
 62
     0
 10
150.376
 20
111.245
 30
0.0
 11
150.753
 21
111.139
 31
0.0
  0
LINE
  8
0
 62
     0
 10
150.753
 20
111.139
 30
0.0
 11
151.121
 21
111.002
 31
0.0
  0
LINE
  8
0
 62
     0
 10
151.121
 20
111.002
 30
0.0
 11
151.478
 21
110.839
 31
0.0
  0
LINE
  8
0
 62
     0
 10
151.478
 20
110.839
 30
0.0
 11
151.82
 21
110.647
 31
0.0
  0
LINE
  8
0
 62
     0
 10
151.82
 20
110.647
 30
0.0
 11
152.148
 21
110.428
 31
0.0
  0
LINE
  8
0
 62
     0
 10
152.148
 20
110.428
 30
0.0
 11
152.455
 21
110.185
 31
0.0
  0
LINE
  8
0
 62
     0
 10
152.455
 20
110.185
 30
0.0
 11
152.745
 21
109.918
 31
0.0
  0
LINE
  8
0
 62
     0
 10
152.745
 20
109.918
 30
0.0
 11
153.01
 21
109.63
 31
0.0
  0
LINE
  8
0
 62
     0
 10
153.01
 20
109.63
 30
0.0
 11
153.253
 21
109.321
 31
0.0
  0
LINE
  8
0
 62
     0
 10
153.253
 20
109.321
 30
0.0
 11
153.472
 21
108.996
 31
0.0
  0
LINE
  8
0
 62
     0
 10
153.472
 20
108.996
 30
0.0
 11
153.664
 21
108.653
 31
0.0
  0
LINE
  8
0
 62
     0
 10
153.664
 20
108.653
 30
0.0
 11
153.828
 21
108.296
 31
0.0
  0
LINE
  8
0
 62
     0
 10
153.828
 20
108.296
 30
0.0
 11
153.964
 21
107.928
 31
0.0
  0
LINE
  8
0
 62
     0
 10
153.964
 20
107.928
 30
0.0
 11
154.07
 21
107.55
 31
0.0
  0
LINE
  8
0
 62
     0
 10
154.07
 20
107.55
 30
0.0
 11
154.146
 21
107.166
 31
0.0
  0
LINE
  8
0
 62
     0
 10
154.146
 20
107.166
 30
0.0
 11
154.193
 21
106.776
 31
0.0
  0
LINE
  8
0
 62
     0
 10
154.193
 20
106.776
 30
0.0
 11
154.208
 21
106.382
 31
0.0
  0
LINE
  8
0
 62
     0
 10
154.208
 20
106.382
 30
0.0
 11
154.208
 21
5.13182
 31
0.0
  0
LINE
  8
0
 62
     0
 10
154.208
 20
5.13182
 30
0.0
 11
154.193
 21
4.73908
 31
0.0
  0
LINE
  8
0
 62
     0
 10
154.193
 20
4.73908
 30
0.0
 11
154.146
 21
4.34908
 31
0.0
  0
LINE
  8
0
 62
     0
 10
154.146
 20
4.34908
 30
0.0
 11
154.07
 21
3.96462
 31
0.0
  0
LINE
  8
0
 62
     0
 10
154.07
 20
3.96462
 30
0.0
 11
153.964
 21
3.58567
 31
0.0
  0
LINE
  8
0
 62
     0
 10
153.964
 20
3.58567
 30
0.0
 11
153.828
 21
3.21772
 31
0.0
  0
LINE
  8
0
 62
     0
 10
153.828
 20
3.21772
 30
0.0
 11
153.664
 21
2.86219
 31
0.0
  0
LINE
  8
0
 62
     0
 10
153.664
 20
2.86219
 30
0.0
 11
153.472
 21
2.51906
 31
0.0
  0
LINE
  8
0
 62
     0
 10
153.472
 20
2.51906
 30
0.0
 11
153.253
 21
2.19384
 31
0.0
  0
LINE
  8
0
 62
     0
 10
153.253
 20
2.19384
 30
0.0
 11
153.01
 21
1.88378
 31
0.0
  0
LINE
  8
0
 62
     0
 10
153.01
 20
1.88378
 30
0.0
 11
152.745
 21
1.59577
 31
0.0
  0
LINE
  8
0
 62
     0
 10
152.745
 20
1.59577
 30
0.0
 11
152.455
 21
1.32981
 31
0.0
  0
LINE
  8
0
 62
     0
 10
152.455
 20
1.32981
 30
0.0
 11
152.148
 21
1.0859
 31
0.0
  0
LINE
  8
0
 62
     0
 10
152.148
 20
1.0859
 30
0.0
 11
151.82
 21
0.868165
 31
0.0
  0
LINE
  8
0
 62
     0
 10
151.82
 20
0.868165
 30
0.0
 11
151.478
 21
0.676617
 31
0.0
  0
LINE
  8
0
 62
     0
 10
151.478
 20
0.676617
 30
0.0
 11
151.121
 21
0.512632
 31
0.0
  0
LINE
  8
0
 62
     0
 10
151.121
 20
0.512632
 30
0.0
 11
150.753
 21
0.376206
 31
0.0
  0
LINE
  8
0
 62
     0
 10
150.753
 20
0.376206
 30
0.0
 11
150.376
 21
0.270095
 31
0.0
  0
LINE
  8
0
 62
     0
 10
150.376
 20
0.270095
 30
0.0
 11
149.99
 21
0.192925
 31
0.0
  0
LINE
  8
0
 62
     0
 10
149.99
 20
0.192925
 30
0.0
 11
149.6
 21
0.14745
 31
0.0
  0
LINE
  8
0
 62
     0
 10
149.6
 20
0.14745
 30
0.0
 11
149.208
 21
0.130914
 31
0.0
  0
LINE
  8
0
 62
     0
 10
149.208
 20
0.130914
 30
0.0
 11
5.09598
 21
0.132292
 31
0.0
  0
LINE
  8
0
 62
     0
 10
5.09598
 20
0.132292
 30
0.0
 11
4.70186
 21
0.14745
 31
0.0
  0
LINE
  8
0
 62
     0
 10
4.70186
 20
0.14745
 30
0.0
 11
4.3119
 21
0.192925
 31
0.0
  0
LINE
  8
0
 62
     0
 10
4.3119
 20
0.192925
 30
0.0
 11
3.9274
 21
0.270095
 31
0.0
  0
LINE
  8
0
 62
     0
 10
3.9274
 20
0.270095
 30
0.0
 11
3.54983
 21
0.376206
 31
0.0
  0
LINE
  8
0
 62
     0
 10
3.54983
 20
0.376206
 30
0.0
 11
3.18189
 21
0.512632
 31
0.0
  0
LINE
  8
0
 62
     0
 10
3.18189
 20
0.512632
 30
0.0
 11
2.82498
 21
0.676617
 31
0.0
  0
LINE
  8
0
 62
     0
 10
2.82498
 20
0.676617
 30
0.0
 11
2.48185
 21
0.868165
 31
0.0
  0
LINE
  8
0
 62
     0
 10
2.48185
 20
0.868165
 30
0.0
 11
2.15663
 21
1.0859
 31
0.0
  0
LINE
  8
0
 62
     0
 10
2.15663
 20
1.0859
 30
0.0
 11
1.84795
 21
1.32981
 31
0.0
  0
LINE
  8
0
 62
     0
 10
1.84795
 20
1.32981
 30
0.0
 11
1.55994
 21
1.59577
 31
0.0
  0
LINE
  8
0
 62
     0
 10
1.55994
 20
1.59577
 30
0.0
 11
1.2926
 21
1.88378
 31
0.0
  0
LINE
  8
0
 62
     0
 10
1.2926
 20
1.88378
 30
0.0
 11
1.05006
 21
2.19384
 31
0.0
  0
LINE
  8
0
 62
     0
 10
1.05006
 20
2.19384
 30
0.0
 11
0.830957
 21
2.51906
 31
0.0
  0
LINE
  8
0
 62
     0
 10
0.830957
 20
2.51906
 30
0.0
 11
0.63941
 21
2.86219
 31
0.0
  0
LINE
  8
0
 62
     0
 10
0.63941
 20
2.86219
 30
0.0
 11
0.475424
 21
3.21772
 31
0.0
  0
LINE
  8
0
 62
     0
 10
0.475424
 20
3.21772
 30
0.0
 11
0.338998
 21
3.58567
 31
0.0
  0
LINE
  8
0
 62
     0
 10
0.338998
 20
3.58567
 30
0.0
 11
0.232888
 21
3.96462
 31
0.0
  0
LINE
  8
0
 62
     0
 10
0.232888
 20
3.96462
 30
0.0
 11
0.157097
 21
4.34908
 31
0.0
  0
LINE
  8
0
 62
     0
 10
0.157097
 20
4.34908
 30
0.0
 11
0.110243
 21
4.73908
 31
0.0
  0
LINE
  8
0
 62
     0
 10
0.110243
 20
4.73908
 30
0.0
 11
0.0950846
 21
5.13182
 31
0.0
  0
LINE
  8
0
 62
     0
 10
0.0950846
 20
5.13182
 30
0.0
 11
0.0950846
 21
106.382
 31
0.0
  0
LINE
  8
0
 62
     0
 10
0.0950846
 20
106.382
 30
0.0
 11
0.110243
 21
106.776
 31
0.0
  0
LINE
  8
0
 62
     0
 10
0.110243
 20
106.776
 30
0.0
 11
0.157097
 21
107.166
 31
0.0
  0
LINE
  8
0
 62
     0
 10
0.157097
 20
107.166
 30
0.0
 11
0.232888
 21
107.55
 31
0.0
  0
LINE
  8
0
 62
     0
 10
0.232888
 20
107.55
 30
0.0
 11
0.338998
 21
107.928
 31
0.0
  0
LINE
  8
0
 62
     0
 10
0.338998
 20
107.928
 30
0.0
 11
0.475424
 21
108.296
 31
0.0
  0
LINE
  8
0
 62
     0
 10
0.475424
 20
108.296
 30
0.0
 11
0.63941
 21
108.653
 31
0.0
  0
LINE
  8
0
 62
     0
 10
0.63941
 20
108.653
 30
0.0
 11
0.830957
 21
108.996
 31
0.0
  0
LINE
  8
0
 62
     0
 10
0.830957
 20
108.996
 30
0.0
 11
1.05006
 21
109.321
 31
0.0
  0
LINE
  8
0
 62
     0
 10
1.05006
 20
109.321
 30
0.0
 11
1.2926
 21
109.63
 31
0.0
  0
LINE
  8
0
 62
     0
 10
1.2926
 20
109.63
 30
0.0
 11
1.55994
 21
109.918
 31
0.0
  0
LINE
  8
0
 62
     0
 10
1.55994
 20
109.918
 30
0.0
 11
1.84795
 21
110.185
 31
0.0
  0
LINE
  8
0
 62
     0
 10
1.84795
 20
110.185
 30
0.0
 11
2.15663
 21
110.428
 31
0.0
  0
LINE
  8
0
 62
     0
 10
2.15663
 20
110.428
 30
0.0
 11
2.48185
 21
110.647
 31
0.0
  0
LINE
  8
0
 62
     0
 10
2.48185
 20
110.647
 30
0.0
 11
2.82498
 21
110.839
 31
0.0
  0
LINE
  8
0
 62
     0
 10
2.82498
 20
110.839
 30
0.0
 11
3.18189
 21
111.002
 31
0.0
  0
LINE
  8
0
 62
     0
 10
3.18189
 20
111.002
 30
0.0
 11
3.54983
 21
111.139
 31
0.0
  0
LINE
  8
0
 62
     0
 10
3.54983
 20
111.139
 30
0.0
 11
3.9274
 21
111.245
 31
0.0
  0
LINE
  8
0
 62
     0
 10
3.9274
 20
111.245
 30
0.0
 11
4.3119
 21
111.321
 31
0.0
  0
LINE
  8
0
 62
     0
 10
4.3119
 20
111.321
 30
0.0
 11
4.70186
 21
111.368
 31
0.0
  0
LINE
  8
0
 62
     0
 10
4.70186
 20
111.368
 30
0.0
 11
5.09598
 21
111.383
 31
0.0
  0
LINE
  8
0
 62
     0
 10
5.09598
 20
111.383
 30
0.0
 11
149.208
 21
111.383
 31
0.0
  0
LINE
  8
0
 62
     0
 10
111.227
 20
24.1088
 30
0.0
 11
114.526
 21
24.1088
 31
0.0
  0
LINE
  8
0
 62
     0
 10
114.526
 20
24.1088
 30
0.0
 11
114.526
 21
9.90671
 31
0.0
  0
LINE
  8
0
 62
     0
 10
114.526
 20
9.90671
 30
0.0
 11
111.227
 21
9.90671
 31
0.0
  0
LINE
  8
0
 62
     0
 10
111.227
 20
9.90671
 30
0.0
 11
111.227
 21
24.1088
 31
0.0
  0
LINE
  8
0
 62
     0
 10
135.027
 20
24.1088
 30
0.0
 11
138.326
 21
24.1088
 31
0.0
  0
LINE
  8
0
 62
     0
 10
138.326
 20
24.1088
 30
0.0
 11
138.326
 21
9.90671
 31
0.0
  0
LINE
  8
0
 62
     0
 10
138.326
 20
9.90671
 30
0.0
 11
135.027
 21
9.90671
 31
0.0
  0
LINE
  8
0
 62
     0
 10
135.027
 20
9.90671
 30
0.0
 11
135.027
 21
24.1088
 31
0.0
  0
LINE
  8
0
 62
     0
 10
13.0018
 20
24.6572
 30
0.0
 11
27.0013
 21
24.6572
 31
0.0
  0
LINE
  8
0
 62
     0
 10
27.0013
 20
24.6572
 30
0.0
 11
27.0013
 21
10.6577
 31
0.0
  0
LINE
  8
0
 62
     0
 10
27.0013
 20
10.6577
 30
0.0
 11
13.0018
 21
10.6577
 31
0.0
  0
LINE
  8
0
 62
     0
 10
13.0018
 20
10.6577
 30
0.0
 11
13.0018
 21
24.6572
 31
0.0
  0
LINE
  8
0
 62
     0
 10
36.8131
 20
24.6572
 30
0.0
 11
50.8138
 21
24.6572
 31
0.0
  0
LINE
  8
0
 62
     0
 10
50.8138
 20
24.6572
 30
0.0
 11
50.8138
 21
10.6577
 31
0.0
  0
LINE
  8
0
 62
     0
 10
50.8138
 20
10.6577
 30
0.0
 11
36.8131
 21
10.6577
 31
0.0
  0
LINE
  8
0
 62
     0
 10
36.8131
 20
10.6577
 30
0.0
 11
36.8131
 21
24.6572
 31
0.0
  0
LINE
  8
0
 62
     0
 10
60.6266
 20
24.6572
 30
0.0
 11
74.6263
 21
24.6572
 31
0.0
  0
LINE
  8
0
 62
     0
 10
74.6263
 20
24.6572
 30
0.0
 11
74.6263
 21
10.6577
 31
0.0
  0
LINE
  8
0
 62
     0
 10
74.6263
 20
10.6577
 30
0.0
 11
60.6266
 21
10.6577
 31
0.0
  0
LINE
  8
0
 62
     0
 10
60.6266
 20
10.6577
 30
0.0
 11
60.6266
 21
24.6572
 31
0.0
  0
LINE
  8
0
 62
     0
 10
84.4381
 20
24.6572
 30
0.0
 11
98.4388
 21
24.6572
 31
0.0
  0
LINE
  8
0
 62
     0
 10
98.4388
 20
24.6572
 30
0.0
 11
98.4388
 21
10.6577
 31
0.0
  0
LINE
  8
0
 62
     0
 10
98.4388
 20
10.6577
 30
0.0
 11
84.4381
 21
10.6577
 31
0.0
  0
LINE
  8
0
 62
     0
 10
84.4381
 20
10.6577
 30
0.0
 11
84.4381
 21
24.6572
 31
0.0
  0
LINE
  8
0
 62
     0
 10
117.777
 20
24.6572
 30
0.0
 11
131.776
 21
24.6572
 31
0.0
  0
LINE
  8
0
 62
     0
 10
131.776
 20
24.6572
 30
0.0
 11
131.776
 21
10.6577
 31
0.0
  0
LINE
  8
0
 62
     0
 10
131.776
 20
10.6577
 30
0.0
 11
117.777
 21
10.6577
 31
0.0
  0
LINE
  8
0
 62
     0
 10
117.777
 20
10.6577
 30
0.0
 11
117.777
 21
24.6572
 31
0.0
  0
LINE
  8
0
 62
     0
 10
15.977
 20
43.1574
 30
0.0
 11
19.276
 21
43.1574
 31
0.0
  0
LINE
  8
0
 62
     0
 10
19.276
 20
43.1574
 30
0.0
 11
19.276
 21
28.9567
 31
0.0
  0
LINE
  8
0
 62
     0
 10
19.276
 20
28.9567
 30
0.0
 11
15.977
 21
28.9567
 31
0.0
  0
LINE
  8
0
 62
     0
 10
15.977
 20
28.9567
 30
0.0
 11
15.977
 21
43.1574
 31
0.0
  0
LINE
  8
0
 62
     0
 10
39.7771
 20
43.1574
 30
0.0
 11
43.0759
 21
43.1574
 31
0.0
  0
LINE
  8
0
 62
     0
 10
43.0759
 20
43.1574
 30
0.0
 11
43.0759
 21
28.9567
 31
0.0
  0
LINE
  8
0
 62
     0
 10
43.0759
 20
28.9567
 30
0.0
 11
39.7771
 21
28.9567
 31
0.0
  0
LINE
  8
0
 62
     0
 10
39.7771
 20
28.9567
 30
0.0
 11
39.7771
 21
43.1574
 31
0.0
  0
LINE
  8
0
 62
     0
 10
22.5268
 20
43.7074
 30
0.0
 11
36.5263
 21
43.7074
 31
0.0
  0
LINE
  8
0
 62
     0
 10
36.5263
 20
43.7074
 30
0.0
 11
36.5263
 21
29.7077
 31
0.0
  0
LINE
  8
0
 62
     0
 10
36.5263
 20
29.7077
 30
0.0
 11
22.5268
 21
29.7077
 31
0.0
  0
LINE
  8
0
 62
     0
 10
22.5268
 20
29.7077
 30
0.0
 11
22.5268
 21
43.7074
 31
0.0
  0
LINE
  8
0
 62
     0
 10
53.4829
 20
43.7074
 30
0.0
 11
67.4825
 21
43.7074
 31
0.0
  0
LINE
  8
0
 62
     0
 10
67.4825
 20
43.7074
 30
0.0
 11
67.4825
 21
29.7077
 31
0.0
  0
LINE
  8
0
 62
     0
 10
67.4825
 20
29.7077
 30
0.0
 11
53.4829
 21
29.7077
 31
0.0
  0
LINE
  8
0
 62
     0
 10
53.4829
 20
29.7077
 30
0.0
 11
53.4829
 21
43.7074
 31
0.0
  0
LINE
  8
0
 62
     0
 10
72.5329
 20
43.7074
 30
0.0
 11
86.5325
 21
43.7074
 31
0.0
  0
LINE
  8
0
 62
     0
 10
86.5325
 20
43.7074
 30
0.0
 11
86.5325
 21
29.7077
 31
0.0
  0
LINE
  8
0
 62
     0
 10
86.5325
 20
29.7077
 30
0.0
 11
72.5329
 21
29.7077
 31
0.0
  0
LINE
  8
0
 62
     0
 10
72.5329
 20
29.7077
 30
0.0
 11
72.5329
 21
43.7074
 31
0.0
  0
LINE
  8
0
 62
     0
 10
91.5829
 20
43.7074
 30
0.0
 11
105.583
 21
43.7074
 31
0.0
  0
LINE
  8
0
 62
     0
 10
105.583
 20
43.7074
 30
0.0
 11
105.583
 21
29.7077
 31
0.0
  0
LINE
  8
0
 62
     0
 10
105.583
 20
29.7077
 30
0.0
 11
91.5829
 21
29.7077
 31
0.0
  0
LINE
  8
0
 62
     0
 10
91.5829
 20
29.7077
 30
0.0
 11
91.5829
 21
43.7074
 31
0.0
  0
LINE
  8
0
 62
     0
 10
110.633
 20
43.7074
 30
0.0
 11
124.633
 21
43.7074
 31
0.0
  0
LINE
  8
0
 62
     0
 10
124.633
 20
43.7074
 30
0.0
 11
124.633
 21
29.7077
 31
0.0
  0
LINE
  8
0
 62
     0
 10
124.633
 20
29.7077
 30
0.0
 11
110.633
 21
29.7077
 31
0.0
  0
LINE
  8
0
 62
     0
 10
110.633
 20
29.7077
 30
0.0
 11
110.633
 21
43.7074
 31
0.0
  0
LINE
  8
0
 62
     0
 10
129.683
 20
43.7074
 30
0.0
 11
143.683
 21
43.7074
 31
0.0
  0
LINE
  8
0
 62
     0
 10
143.683
 20
43.7074
 30
0.0
 11
143.683
 21
29.7077
 31
0.0
  0
LINE
  8
0
 62
     0
 10
143.683
 20
29.7077
 30
0.0
 11
129.683
 21
29.7077
 31
0.0
  0
LINE
  8
0
 62
     0
 10
129.683
 20
29.7077
 30
0.0
 11
129.683
 21
43.7074
 31
0.0
  0
LINE
  8
0
 62
     0
 10
17.7629
 20
62.7574
 30
0.0
 11
31.7638
 21
62.7574
 31
0.0
  0
LINE
  8
0
 62
     0
 10
31.7638
 20
62.7574
 30
0.0
 11
31.7638
 21
48.7578
 31
0.0
  0
LINE
  8
0
 62
     0
 10
31.7638
 20
48.7578
 30
0.0
 11
17.7629
 21
48.7578
 31
0.0
  0
LINE
  8
0
 62
     0
 10
17.7629
 20
48.7578
 30
0.0
 11
17.7629
 21
62.7574
 31
0.0
  0
LINE
  8
0
 62
     0
 10
43.9579
 20
62.7574
 30
0.0
 11
57.9575
 21
62.7574
 31
0.0
  0
LINE
  8
0
 62
     0
 10
57.9575
 20
62.7574
 30
0.0
 11
57.9575
 21
48.7578
 31
0.0
  0
LINE
  8
0
 62
     0
 10
57.9575
 20
48.7578
 30
0.0
 11
43.9579
 21
48.7578
 31
0.0
  0
LINE
  8
0
 62
     0
 10
43.9579
 20
48.7578
 30
0.0
 11
43.9579
 21
62.7574
 31
0.0
  0
LINE
  8
0
 62
     0
 10
63.0079
 20
62.7574
 30
0.0
 11
77.0075
 21
62.7574
 31
0.0
  0
LINE
  8
0
 62
     0
 10
77.0075
 20
62.7574
 30
0.0
 11
77.0075
 21
48.7578
 31
0.0
  0
LINE
  8
0
 62
     0
 10
77.0075
 20
48.7578
 30
0.0
 11
63.0079
 21
48.7578
 31
0.0
  0
LINE
  8
0
 62
     0
 10
63.0079
 20
48.7578
 30
0.0
 11
63.0079
 21
62.7574
 31
0.0
  0
LINE
  8
0
 62
     0
 10
82.0579
 20
62.7574
 30
0.0
 11
96.0575
 21
62.7574
 31
0.0
  0
LINE
  8
0
 62
     0
 10
96.0575
 20
62.7574
 30
0.0
 11
96.0575
 21
48.7578
 31
0.0
  0
LINE
  8
0
 62
     0
 10
96.0575
 20
48.7578
 30
0.0
 11
82.0579
 21
48.7578
 31
0.0
  0
LINE
  8
0
 62
     0
 10
82.0579
 20
48.7578
 30
0.0
 11
82.0579
 21
62.7574
 31
0.0
  0
LINE
  8
0
 62
     0
 10
101.108
 20
62.7574
 30
0.0
 11
115.108
 21
62.7574
 31
0.0
  0
LINE
  8
0
 62
     0
 10
115.108
 20
62.7574
 30
0.0
 11
115.108
 21
48.7578
 31
0.0
  0
LINE
  8
0
 62
     0
 10
115.108
 20
48.7578
 30
0.0
 11
101.108
 21
48.7578
 31
0.0
  0
LINE
  8
0
 62
     0
 10
101.108
 20
48.7578
 30
0.0
 11
101.108
 21
62.7574
 31
0.0
  0
LINE
  8
0
 62
     0
 10
120.158
 20
62.7574
 30
0.0
 11
134.158
 21
62.7574
 31
0.0
  0
LINE
  8
0
 62
     0
 10
134.158
 20
62.7574
 30
0.0
 11
134.158
 21
48.7578
 31
0.0
  0
LINE
  8
0
 62
     0
 10
134.158
 20
48.7578
 30
0.0
 11
120.158
 21
48.7578
 31
0.0
  0
LINE
  8
0
 62
     0
 10
120.158
 20
48.7578
 30
0.0
 11
120.158
 21
62.7574
 31
0.0
  0
LINE
  8
0
 62
     0
 10
15.3831
 20
81.8074
 30
0.0
 11
29.3825
 21
81.8074
 31
0.0
  0
LINE
  8
0
 62
     0
 10
29.3825
 20
81.8074
 30
0.0
 11
29.3825
 21
67.8078
 31
0.0
  0
LINE
  8
0
 62
     0
 10
29.3825
 20
67.8078
 30
0.0
 11
15.3831
 21
67.8078
 31
0.0
  0
LINE
  8
0
 62
     0
 10
15.3831
 20
67.8078
 30
0.0
 11
15.3831
 21
81.8074
 31
0.0
  0
LINE
  8
0
 62
     0
 10
39.1954
 20
81.8074
 30
0.0
 11
53.195
 21
81.8074
 31
0.0
  0
LINE
  8
0
 62
     0
 10
53.195
 20
81.8074
 30
0.0
 11
53.195
 21
67.8078
 31
0.0
  0
LINE
  8
0
 62
     0
 10
53.195
 20
67.8078
 30
0.0
 11
39.1954
 21
67.8078
 31
0.0
  0
LINE
  8
0
 62
     0
 10
39.1954
 20
67.8078
 30
0.0
 11
39.1954
 21
81.8074
 31
0.0
  0
LINE
  8
0
 62
     0
 10
58.2454
 20
81.8074
 30
0.0
 11
72.245
 21
81.8074
 31
0.0
  0
LINE
  8
0
 62
     0
 10
72.245
 20
81.8074
 30
0.0
 11
72.245
 21
67.8078
 31
0.0
  0
LINE
  8
0
 62
     0
 10
72.245
 20
67.8078
 30
0.0
 11
58.2454
 21
67.8078
 31
0.0
  0
LINE
  8
0
 62
     0
 10
58.2454
 20
67.8078
 30
0.0
 11
58.2454
 21
81.8074
 31
0.0
  0
LINE
  8
0
 62
     0
 10
77.2954
 20
81.8074
 30
0.0
 11
91.295
 21
81.8074
 31
0.0
  0
LINE
  8
0
 62
     0
 10
91.295
 20
81.8074
 30
0.0
 11
91.295
 21
67.8078
 31
0.0
  0
LINE
  8
0
 62
     0
 10
91.295
 20
67.8078
 30
0.0
 11
77.2954
 21
67.8078
 31
0.0
  0
LINE
  8
0
 62
     0
 10
77.2954
 20
67.8078
 30
0.0
 11
77.2954
 21
81.8074
 31
0.0
  0
LINE
  8
0
 62
     0
 10
96.3454
 20
81.8074
 30
0.0
 11
110.345
 21
81.8074
 31
0.0
  0
LINE
  8
0
 62
     0
 10
110.345
 20
81.8074
 30
0.0
 11
110.345
 21
67.8078
 31
0.0
  0
LINE
  8
0
 62
     0
 10
110.345
 20
67.8078
 30
0.0
 11
96.3454
 21
67.8078
 31
0.0
  0
LINE
  8
0
 62
     0
 10
96.3454
 20
67.8078
 30
0.0
 11
96.3454
 21
81.8074
 31
0.0
  0
LINE
  8
0
 62
     0
 10
115.395
 20
81.8074
 30
0.0
 11
129.395
 21
81.8074
 31
0.0
  0
LINE
  8
0
 62
     0
 10
129.395
 20
81.8074
 30
0.0
 11
129.395
 21
67.8078
 31
0.0
  0
LINE
  8
0
 62
     0
 10
129.395
 20
67.8078
 30
0.0
 11
115.395
 21
67.8078
 31
0.0
  0
LINE
  8
0
 62
     0
 10
115.395
 20
67.8078
 30
0.0
 11
115.395
 21
81.8074
 31
0.0
  0
LINE
  8
0
 62
     0
 10
10.6192
 20
100.858
 30
0.0
 11
24.62
 21
100.858
 31
0.0
  0
LINE
  8
0
 62
     0
 10
24.62
 20
100.858
 30
0.0
 11
24.62
 21
86.8578
 31
0.0
  0
LINE
  8
0
 62
     0
 10
24.62
 20
86.8578
 30
0.0
 11
10.6192
 21
86.8578
 31
0.0
  0
LINE
  8
0
 62
     0
 10
10.6192
 20
86.8578
 30
0.0
 11
10.6192
 21
100.858
 31
0.0
  0
LINE
  8
0
 62
     0
 10
29.6706
 20
100.858
 30
0.0
 11
43.67
 21
100.858
 31
0.0
  0
LINE
  8
0
 62
     0
 10
43.67
 20
100.858
 30
0.0
 11
43.67
 21
86.8578
 31
0.0
  0
LINE
  8
0
 62
     0
 10
43.67
 20
86.8578
 30
0.0
 11
29.6706
 21
86.8578
 31
0.0
  0
LINE
  8
0
 62
     0
 10
29.6706
 20
86.8578
 30
0.0
 11
29.6706
 21
100.858
 31
0.0
  0
LINE
  8
0
 62
     0
 10
48.7204
 20
100.858
 30
0.0
 11
62.72
 21
100.858
 31
0.0
  0
LINE
  8
0
 62
     0
 10
62.72
 20
100.858
 30
0.0
 11
62.72
 21
86.8578
 31
0.0
  0
LINE
  8
0
 62
     0
 10
62.72
 20
86.8578
 30
0.0
 11
48.7204
 21
86.8578
 31
0.0
  0
LINE
  8
0
 62
     0
 10
48.7204
 20
86.8578
 30
0.0
 11
48.7204
 21
100.858
 31
0.0
  0
LINE
  8
0
 62
     0
 10
67.7704
 20
100.858
 30
0.0
 11
81.77
 21
100.858
 31
0.0
  0
LINE
  8
0
 62
     0
 10
81.77
 20
100.858
 30
0.0
 11
81.77
 21
86.8578
 31
0.0
  0
LINE
  8
0
 62
     0
 10
81.77
 20
86.8578
 30
0.0
 11
67.7704
 21
86.8578
 31
0.0
  0
LINE
  8
0
 62
     0
 10
67.7704
 20
86.8578
 30
0.0
 11
67.7704
 21
100.858
 31
0.0
  0
LINE
  8
0
 62
     0
 10
86.8204
 20
100.858
 30
0.0
 11
100.82
 21
100.858
 31
0.0
  0
LINE
  8
0
 62
     0
 10
100.82
 20
100.858
 30
0.0
 11
100.82
 21
86.8578
 31
0.0
  0
LINE
  8
0
 62
     0
 10
100.82
 20
86.8578
 30
0.0
 11
86.8204
 21
86.8578
 31
0.0
  0
LINE
  8
0
 62
     0
 10
86.8204
 20
86.8578
 30
0.0
 11
86.8204
 21
100.858
 31
0.0
  0
LINE
  8
0
 62
     0
 10
105.869
 20
100.858
 30
0.0
 11
119.87
 21
100.858
 31
0.0
  0
LINE
  8
0
 62
     0
 10
119.87
 20
100.858
 30
0.0
 11
119.87
 21
86.8578
 31
0.0
  0
LINE
  8
0
 62
     0
 10
119.87
 20
86.8578
 30
0.0
 11
105.869
 21
86.8578
 31
0.0
  0
LINE
  8
0
 62
     0
 10
105.869
 20
86.8578
 30
0.0
 11
105.869
 21
100.858
 31
0.0
  0
LINE
  8
0
 62
     0
 10
124.919
 20
100.858
 30
0.0
 11
138.92
 21
100.858
 31
0.0
  0
LINE
  8
0
 62
     0
 10
138.92
 20
100.858
 30
0.0
 11
138.92
 21
86.8578
 31
0.0
  0
LINE
  8
0
 62
     0
 10
138.92
 20
86.8578
 30
0.0
 11
124.919
 21
86.8578
 31
0.0
  0
LINE
  8
0
 62
     0
 10
124.919
 20
86.8578
 30
0.0
 11
124.919
 21
100.858
 31
0.0
  0
ENDSEC
  0
EOF
