0
SECTION
2
ENTITIES
0
LINE
8
0
10
0.1190
20
0.4590
30
0.0
11
185.8065
21
0.4590
31
0.0
0
LINE
8
0
10
185.8065
20
0.4590
30
0.0
11
185.8065
21
95.6590
31
0.0
0
LINE
8
0
10
185.8065
20
95.6590
30
0.0
11
0.1190
21
95.6590
31
0.0
0
LINE
8
0
10
0.1190
20
95.6590
30
0.0
11
0.1190
21
0.4590
31
0.0
0
LINE
8
0
10
16.9065
20
79.1590
30
0.0
11
30.9065
21
79.1590
31
0.0
0
LINE
8
0
10
30.9065
20
79.1590
30
0.0
11
30.9065
21
93.1590
31
0.0
0
LINE
8
0
10
30.9065
20
93.1590
30
0.0
11
16.9065
21
93.1590
31
0.0
0
LINE
8
0
10
16.9065
20
93.1590
30
0.0
11
16.9065
21
79.1590
31
0.0
0
LINE
8
0
10
35.9565
20
79.1590
30
0.0
11
49.9565
21
79.1590
31
0.0
0
LINE
8
0
10
49.9565
20
79.1590
30
0.0
11
49.9565
21
93.1590
31
0.0
0
LINE
8
0
10
49.9565
20
93.1590
30
0.0
11
35.9565
21
93.1590
31
0.0
0
LINE
8
0
10
35.9565
20
93.1590
30
0.0
11
35.9565
21
79.1590
31
0.0
0
LINE
8
0
10
55.0065
20
79.1590
30
0.0
11
69.0065
21
79.1590
31
0.0
0
LINE
8
0
10
69.0065
20
79.1590
30
0.0
11
69.0065
21
93.1590
31
0.0
0
LINE
8
0
10
69.0065
20
93.1590
30
0.0
11
55.0065
21
93.1590
31
0.0
0
LINE
8
0
10
55.0065
20
93.1590
30
0.0
11
55.0065
21
79.1590
31
0.0
0
LINE
8
0
10
74.0565
20
79.1590
30
0.0
11
88.0565
21
79.1590
31
0.0
0
LINE
8
0
10
88.0565
20
79.1590
30
0.0
11
88.0565
21
93.1590
31
0.0
0
LINE
8
0
10
88.0565
20
93.1590
30
0.0
11
74.0565
21
93.1590
31
0.0
0
LINE
8
0
10
74.0565
20
93.1590
30
0.0
11
74.0565
21
79.1590
31
0.0
0
LINE
8
0
10
93.1065
20
79.1590
30
0.0
11
107.1065
21
79.1590
31
0.0
0
LINE
8
0
10
107.1065
20
79.1590
30
0.0
11
107.1065
21
93.1590
31
0.0
0
LINE
8
0
10
107.1065
20
93.1590
30
0.0
11
93.1065
21
93.1590
31
0.0
0
LINE
8
0
10
93.1065
20
93.1590
30
0.0
11
93.1065
21
79.1590
31
0.0
0
LINE
8
0
10
112.1565
20
79.1590
30
0.0
11
126.1565
21
79.1590
31
0.0
0
LINE
8
0
10
126.1565
20
79.1590
30
0.0
11
126.1565
21
93.1590
31
0.0
0
LINE
8
0
10
126.1565
20
93.1590
30
0.0
11
112.1565
21
93.1590
31
0.0
0
LINE
8
0
10
112.1565
20
93.1590
30
0.0
11
112.1565
21
79.1590
31
0.0
0
LINE
8
0
10
140.7315
20
79.1590
30
0.0
11
154.7315
21
79.1590
31
0.0
0
LINE
8
0
10
154.7315
20
79.1590
30
0.0
11
154.7315
21
93.1590
31
0.0
0
LINE
8
0
10
154.7315
20
93.1590
30
0.0
11
140.7315
21
93.1590
31
0.0
0
LINE
8
0
10
140.7315
20
93.1590
30
0.0
11
140.7315
21
79.1590
31
0.0
0
LINE
8
0
10
169.3065
20
79.1590
30
0.0
11
183.3065
21
79.1590
31
0.0
0
LINE
8
0
10
183.3065
20
79.1590
30
0.0
11
183.3065
21
93.1590
31
0.0
0
LINE
8
0
10
183.3065
20
93.1590
30
0.0
11
169.3065
21
93.1590
31
0.0
0
LINE
8
0
10
169.3065
20
93.1590
30
0.0
11
169.3065
21
79.1590
31
0.0
0
LINE
8
0
10
7.3815
20
60.1090
30
0.0
11
21.3815
21
60.1090
31
0.0
0
LINE
8
0
10
21.3815
20
60.1090
30
0.0
11
21.3815
21
74.1090
31
0.0
0
LINE
8
0
10
21.3815
20
74.1090
30
0.0
11
7.3815
21
74.1090
31
0.0
0
LINE
8
0
10
7.3815
20
74.1090
30
0.0
11
7.3815
21
60.1090
31
0.0
0
LINE
8
0
10
26.4315
20
60.1090
30
0.0
11
40.4315
21
60.1090
31
0.0
0
LINE
8
0
10
40.4315
20
60.1090
30
0.0
11
40.4315
21
74.1090
31
0.0
0
LINE
8
0
10
40.4315
20
74.1090
30
0.0
11
26.4315
21
74.1090
31
0.0
0
LINE
8
0
10
26.4315
20
74.1090
30
0.0
11
26.4315
21
60.1090
31
0.0
0
LINE
8
0
10
45.4815
20
60.1090
30
0.0
11
59.4815
21
60.1090
31
0.0
0
LINE
8
0
10
59.4815
20
60.1090
30
0.0
11
59.4815
21
74.1090
31
0.0
0
LINE
8
0
10
59.4815
20
74.1090
30
0.0
11
45.4815
21
74.1090
31
0.0
0
LINE
8
0
10
45.4815
20
74.1090
30
0.0
11
45.4815
21
60.1090
31
0.0
0
LINE
8
0
10
64.5315
20
60.1090
30
0.0
11
78.5315
21
60.1090
31
0.0
0
LINE
8
0
10
78.5315
20
60.1090
30
0.0
11
78.5315
21
74.1090
31
0.0
0
LINE
8
0
10
78.5315
20
74.1090
30
0.0
11
64.5315
21
74.1090
31
0.0
0
LINE
8
0
10
64.5315
20
74.1090
30
0.0
11
64.5315
21
60.1090
31
0.0
0
LINE
8
0
10
83.5815
20
60.1090
30
0.0
11
97.5815
21
60.1090
31
0.0
0
LINE
8
0
10
97.5815
20
60.1090
30
0.0
11
97.5815
21
74.1090
31
0.0
0
LINE
8
0
10
97.5815
20
74.1090
30
0.0
11
83.5815
21
74.1090
31
0.0
0
LINE
8
0
10
83.5815
20
74.1090
30
0.0
11
83.5815
21
60.1090
31
0.0
0
LINE
8
0
10
102.6315
20
60.1090
30
0.0
11
116.6315
21
60.1090
31
0.0
0
LINE
8
0
10
116.6315
20
60.1090
30
0.0
11
116.6315
21
74.1090
31
0.0
0
LINE
8
0
10
116.6315
20
74.1090
30
0.0
11
102.6315
21
74.1090
31
0.0
0
LINE
8
0
10
102.6315
20
74.1090
30
0.0
11
102.6315
21
60.1090
31
0.0
0
LINE
8
0
10
121.6815
20
60.1090
30
0.0
11
135.6815
21
60.1090
31
0.0
0
LINE
8
0
10
135.6815
20
60.1090
30
0.0
11
135.6815
21
74.1090
31
0.0
0
LINE
8
0
10
135.6815
20
74.1090
30
0.0
11
121.6815
21
74.1090
31
0.0
0
LINE
8
0
10
121.6815
20
74.1090
30
0.0
11
121.6815
21
60.1090
31
0.0
0
LINE
8
0
10
145.4940
20
60.1090
30
0.0
11
159.4940
21
60.1090
31
0.0
0
LINE
8
0
10
159.4940
20
60.1090
30
0.0
11
159.4940
21
74.1090
31
0.0
0
LINE
8
0
10
159.4940
20
74.1090
30
0.0
11
145.4940
21
74.1090
31
0.0
0
LINE
8
0
10
145.4940
20
74.1090
30
0.0
11
145.4940
21
60.1090
31
0.0
0
LINE
8
0
10
169.3065
20
60.1090
30
0.0
11
183.3065
21
60.1090
31
0.0
0
LINE
8
0
10
183.3065
20
60.1090
30
0.0
11
183.3065
21
74.1090
31
0.0
0
LINE
8
0
10
183.3065
20
74.1090
30
0.0
11
169.3065
21
74.1090
31
0.0
0
LINE
8
0
10
169.3065
20
74.1090
30
0.0
11
169.3065
21
60.1090
31
0.0
0
LINE
8
0
10
12.1440
20
41.0590
30
0.0
11
26.1440
21
41.0590
31
0.0
0
LINE
8
0
10
26.1440
20
41.0590
30
0.0
11
26.1440
21
55.0590
31
0.0
0
LINE
8
0
10
26.1440
20
55.0590
30
0.0
11
12.1440
21
55.0590
31
0.0
0
LINE
8
0
10
12.1440
20
55.0590
30
0.0
11
12.1440
21
41.0590
31
0.0
0
LINE
8
0
10
31.1940
20
41.0590
30
0.0
11
45.1940
21
41.0590
31
0.0
0
LINE
8
0
10
45.1940
20
41.0590
30
0.0
11
45.1940
21
55.0590
31
0.0
0
LINE
8
0
10
45.1940
20
55.0590
30
0.0
11
31.1940
21
55.0590
31
0.0
0
LINE
8
0
10
31.1940
20
55.0590
30
0.0
11
31.1940
21
41.0590
31
0.0
0
LINE
8
0
10
50.2440
20
41.0590
30
0.0
11
64.2440
21
41.0590
31
0.0
0
LINE
8
0
10
64.2440
20
41.0590
30
0.0
11
64.2440
21
55.0590
31
0.0
0
LINE
8
0
10
64.2440
20
55.0590
30
0.0
11
50.2440
21
55.0590
31
0.0
0
LINE
8
0
10
50.2440
20
55.0590
30
0.0
11
50.2440
21
41.0590
31
0.0
0
LINE
8
0
10
69.2940
20
41.0590
30
0.0
11
83.2940
21
41.0590
31
0.0
0
LINE
8
0
10
83.2940
20
41.0590
30
0.0
11
83.2940
21
55.0590
31
0.0
0
LINE
8
0
10
83.2940
20
55.0590
30
0.0
11
69.2940
21
55.0590
31
0.0
0
LINE
8
0
10
69.2940
20
55.0590
30
0.0
11
69.2940
21
41.0590
31
0.0
0
LINE
8
0
10
88.3440
20
41.0590
30
0.0
11
102.3440
21
41.0590
31
0.0
0
LINE
8
0
10
102.3440
20
41.0590
30
0.0
11
102.3440
21
55.0590
31
0.0
0
LINE
8
0
10
102.3440
20
55.0590
30
0.0
11
88.3440
21
55.0590
31
0.0
0
LINE
8
0
10
88.3440
20
55.0590
30
0.0
11
88.3440
21
41.0590
31
0.0
0
LINE
8
0
10
107.3940
20
41.0590
30
0.0
11
121.3940
21
41.0590
31
0.0
0
LINE
8
0
10
121.3940
20
41.0590
30
0.0
11
121.3940
21
55.0590
31
0.0
0
LINE
8
0
10
121.3940
20
55.0590
30
0.0
11
107.3940
21
55.0590
31
0.0
0
LINE
8
0
10
107.3940
20
55.0590
30
0.0
11
107.3940
21
41.0590
31
0.0
0
LINE
8
0
10
138.3502
20
41.0590
30
0.0
11
152.3502
21
41.0590
31
0.0
0
LINE
8
0
10
152.3502
20
41.0590
30
0.0
11
152.3502
21
55.0590
31
0.0
0
LINE
8
0
10
152.3502
20
55.0590
30
0.0
11
138.3502
21
55.0590
31
0.0
0
LINE
8
0
10
138.3502
20
55.0590
30
0.0
11
138.3502
21
41.0590
31
0.0
0
LINE
8
0
10
169.3065
20
41.0590
30
0.0
11
183.3065
21
41.0590
31
0.0
0
LINE
8
0
10
183.3065
20
41.0590
30
0.0
11
183.3065
21
55.0590
31
0.0
0
LINE
8
0
10
183.3065
20
55.0590
30
0.0
11
169.3065
21
55.0590
31
0.0
0
LINE
8
0
10
169.3065
20
55.0590
30
0.0
11
169.3065
21
41.0590
31
0.0
0
LINE
8
0
10
2.6190
20
22.0090
30
0.0
11
16.6190
21
22.0090
31
0.0
0
LINE
8
0
10
16.6190
20
22.0090
30
0.0
11
16.6190
21
36.0090
31
0.0
0
LINE
8
0
10
16.6190
20
36.0090
30
0.0
11
2.6190
21
36.0090
31
0.0
0
LINE
8
0
10
2.6190
20
36.0090
30
0.0
11
2.6190
21
22.0090
31
0.0
0
LINE
8
0
10
21.6690
20
22.0090
30
0.0
11
35.6690
21
22.0090
31
0.0
0
LINE
8
0
10
35.6690
20
22.0090
30
0.0
11
35.6690
21
36.0090
31
0.0
0
LINE
8
0
10
35.6690
20
36.0090
30
0.0
11
21.6690
21
36.0090
31
0.0
0
LINE
8
0
10
21.6690
20
36.0090
30
0.0
11
21.6690
21
22.0090
31
0.0
0
LINE
8
0
10
40.7190
20
22.0090
30
0.0
11
54.7190
21
22.0090
31
0.0
0
LINE
8
0
10
54.7190
20
22.0090
30
0.0
11
54.7190
21
36.0090
31
0.0
0
LINE
8
0
10
54.7190
20
36.0090
30
0.0
11
40.7190
21
36.0090
31
0.0
0
LINE
8
0
10
40.7190
20
36.0090
30
0.0
11
40.7190
21
22.0090
31
0.0
0
LINE
8
0
10
59.7690
20
22.0090
30
0.0
11
73.7690
21
22.0090
31
0.0
0
LINE
8
0
10
73.7690
20
22.0090
30
0.0
11
73.7690
21
36.0090
31
0.0
0
LINE
8
0
10
73.7690
20
36.0090
30
0.0
11
59.7690
21
36.0090
31
0.0
0
LINE
8
0
10
59.7690
20
36.0090
30
0.0
11
59.7690
21
22.0090
31
0.0
0
LINE
8
0
10
78.8190
20
22.0090
30
0.0
11
92.8190
21
22.0090
31
0.0
0
LINE
8
0
10
92.8190
20
22.0090
30
0.0
11
92.8190
21
36.0090
31
0.0
0
LINE
8
0
10
92.8190
20
36.0090
30
0.0
11
78.8190
21
36.0090
31
0.0
0
LINE
8
0
10
78.8190
20
36.0090
30
0.0
11
78.8190
21
22.0090
31
0.0
0
LINE
8
0
10
97.8690
20
22.0090
30
0.0
11
111.8690
21
22.0090
31
0.0
0
LINE
8
0
10
111.8690
20
22.0090
30
0.0
11
111.8690
21
36.0090
31
0.0
0
LINE
8
0
10
111.8690
20
36.0090
30
0.0
11
97.8690
21
36.0090
31
0.0
0
LINE
8
0
10
97.8690
20
36.0090
30
0.0
11
97.8690
21
22.0090
31
0.0
0
LINE
8
0
10
124.0627
20
22.0090
30
0.0
11
138.0627
21
22.0090
31
0.0
0
LINE
8
0
10
138.0627
20
22.0090
30
0.0
11
138.0627
21
36.0090
31
0.0
0
LINE
8
0
10
138.0627
20
36.0090
30
0.0
11
124.0627
21
36.0090
31
0.0
0
LINE
8
0
10
124.0627
20
36.0090
30
0.0
11
124.0627
21
22.0090
31
0.0
0
LINE
8
0
10
150.2565
20
22.0090
30
0.0
11
164.2565
21
22.0090
31
0.0
0
LINE
8
0
10
164.2565
20
22.0090
30
0.0
11
164.2565
21
36.0090
31
0.0
0
LINE
8
0
10
164.2565
20
36.0090
30
0.0
11
150.2565
21
36.0090
31
0.0
0
LINE
8
0
10
150.2565
20
36.0090
30
0.0
11
150.2565
21
22.0090
31
0.0
0
LINE
8
0
10
169.3065
20
22.0090
30
0.0
11
183.3065
21
22.0090
31
0.0
0
LINE
8
0
10
183.3065
20
22.0090
30
0.0
11
183.3065
21
36.0090
31
0.0
0
LINE
8
0
10
183.3065
20
36.0090
30
0.0
11
169.3065
21
36.0090
31
0.0
0
LINE
8
0
10
169.3065
20
36.0090
30
0.0
11
169.3065
21
22.0090
31
0.0
0
LINE
8
0
10
2.6190
20
2.9590
30
0.0
11
16.6190
21
2.9590
31
0.0
0
LINE
8
0
10
16.6190
20
2.9590
30
0.0
11
16.6190
21
16.9590
31
0.0
0
LINE
8
0
10
16.6190
20
16.9590
30
0.0
11
2.6190
21
16.9590
31
0.0
0
LINE
8
0
10
2.6190
20
16.9590
30
0.0
11
2.6190
21
2.9590
31
0.0
0
LINE
8
0
10
38.3377
20
2.9590
30
0.0
11
52.3377
21
2.9590
31
0.0
0
LINE
8
0
10
52.3377
20
2.9590
30
0.0
11
52.3377
21
16.9590
31
0.0
0
LINE
8
0
10
52.3377
20
16.9590
30
0.0
11
38.3377
21
16.9590
31
0.0
0
LINE
8
0
10
38.3377
20
16.9590
30
0.0
11
38.3377
21
2.9590
31
0.0
0
LINE
8
0
10
74.0565
20
2.9590
30
0.0
11
88.0565
21
2.9590
31
0.0
0
LINE
8
0
10
88.0565
20
2.9590
30
0.0
11
88.0565
21
16.9590
31
0.0
0
LINE
8
0
10
88.0565
20
16.9590
30
0.0
11
74.0565
21
16.9590
31
0.0
0
LINE
8
0
10
74.0565
20
16.9590
30
0.0
11
74.0565
21
2.9590
31
0.0
0
LINE
8
0
10
93.1065
20
2.9590
30
0.0
11
107.1065
21
2.9590
31
0.0
0
LINE
8
0
10
107.1065
20
2.9590
30
0.0
11
107.1065
21
16.9590
31
0.0
0
LINE
8
0
10
107.1065
20
16.9590
30
0.0
11
93.1065
21
16.9590
31
0.0
0
LINE
8
0
10
93.1065
20
16.9590
30
0.0
11
93.1065
21
2.9590
31
0.0
0
LINE
8
0
10
112.1565
20
2.9590
30
0.0
11
126.1565
21
2.9590
31
0.0
0
LINE
8
0
10
126.1565
20
2.9590
30
0.0
11
126.1565
21
16.9590
31
0.0
0
LINE
8
0
10
126.1565
20
16.9590
30
0.0
11
112.1565
21
16.9590
31
0.0
0
LINE
8
0
10
112.1565
20
16.9590
30
0.0
11
112.1565
21
2.9590
31
0.0
0
LINE
8
0
10
131.2065
20
2.9590
30
0.0
11
145.2065
21
2.9590
31
0.0
0
LINE
8
0
10
145.2065
20
2.9590
30
0.0
11
145.2065
21
16.9590
31
0.0
0
LINE
8
0
10
145.2065
20
16.9590
30
0.0
11
131.2065
21
16.9590
31
0.0
0
LINE
8
0
10
131.2065
20
16.9590
30
0.0
11
131.2065
21
2.9590
31
0.0
0
LINE
8
0
10
150.2565
20
2.9590
30
0.0
11
164.2565
21
2.9590
31
0.0
0
LINE
8
0
10
164.2565
20
2.9590
30
0.0
11
164.2565
21
16.9590
31
0.0
0
LINE
8
0
10
164.2565
20
16.9590
30
0.0
11
150.2565
21
16.9590
31
0.0
0
LINE
8
0
10
150.2565
20
16.9590
30
0.0
11
150.2565
21
2.9590
31
0.0
0
LINE
8
0
10
169.3065
20
2.9590
30
0.0
11
183.3065
21
2.9590
31
0.0
0
LINE
8
0
10
183.3065
20
2.9590
30
0.0
11
183.3065
21
16.9590
31
0.0
0
LINE
8
0
10
183.3065
20
16.9590
30
0.0
11
169.3065
21
16.9590
31
0.0
0
LINE
8
0
10
169.3065
20
16.9590
30
0.0
11
169.3065
21
2.9590
31
0.0
0
LINE
8
0
10
134.1815
20
78.4085
30
0.0
11
137.4815
21
78.4085
31
0.0
0
LINE
8
0
10
137.4815
20
78.4085
30
0.0
11
137.4815
21
92.6095
31
0.0
0
LINE
8
0
10
137.4815
20
92.6095
30
0.0
11
134.1815
21
92.6095
31
0.0
0
LINE
8
0
10
134.1815
20
92.6095
30
0.0
11
134.1815
21
78.4085
31
0.0
0
LINE
8
0
10
157.9815
20
78.4085
30
0.0
11
161.2815
21
78.4085
31
0.0
0
LINE
8
0
10
161.2815
20
78.4085
30
0.0
11
161.2815
21
92.6095
31
0.0
0
LINE
8
0
10
161.2815
20
92.6095
30
0.0
11
157.9815
21
92.6095
31
0.0
0
LINE
8
0
10
157.9815
20
92.6095
30
0.0
11
157.9815
21
78.4085
31
0.0
0
LINE
8
0
10
131.8002
20
40.3085
30
0.0
11
135.1002
21
40.3085
31
0.0
0
LINE
8
0
10
135.1002
20
40.3085
30
0.0
11
135.1002
21
54.5095
31
0.0
0
LINE
8
0
10
135.1002
20
54.5095
30
0.0
11
131.8002
21
54.5095
31
0.0
0
LINE
8
0
10
131.8002
20
54.5095
30
0.0
11
131.8002
21
40.3085
31
0.0
0
LINE
8
0
10
155.6002
20
40.3085
30
0.0
11
158.9002
21
40.3085
31
0.0
0
LINE
8
0
10
158.9002
20
40.3085
30
0.0
11
158.9002
21
54.5095
31
0.0
0
LINE
8
0
10
158.9002
20
54.5095
30
0.0
11
155.6002
21
54.5095
31
0.0
0
LINE
8
0
10
155.6002
20
54.5095
30
0.0
11
155.6002
21
40.3085
31
0.0
0
LINE
8
0
10
31.7878
20
2.2085
30
0.0
11
35.0877
21
2.2085
31
0.0
0
LINE
8
0
10
35.0877
20
2.2085
30
0.0
11
35.0877
21
16.4095
31
0.0
0
LINE
8
0
10
35.0877
20
16.4095
30
0.0
11
31.7878
21
16.4095
31
0.0
0
LINE
8
0
10
31.7878
20
16.4095
30
0.0
11
31.7878
21
2.2085
31
0.0
0
LINE
8
0
10
55.5877
20
2.2085
30
0.0
11
58.8877
21
2.2085
31
0.0
0
LINE
8
0
10
58.8877
20
2.2085
30
0.0
11
58.8877
21
16.4095
31
0.0
0
LINE
8
0
10
58.8877
20
16.4095
30
0.0
11
55.5877
21
16.4095
31
0.0
0
LINE
8
0
10
55.5877
20
16.4095
30
0.0
11
55.5877
21
2.2085
31
0.0
0
ENDSEC
0
EOF
