  0
SECTION
  2
HEADER
  9
$ACADVER
  1
AC1009
  9
$FILLMODE
 70
 0
  9
$SPLFRAME
 70
 1
  9
$EXTMIN
 10
0
 20
0
 30
0.0
  9
$EXTMAX
 10
1058.33
 20
1058.33
 30
0.0
  0
ENDSEC
  0
SECTION
  2
TABLES
  0
TABLE
  2
LAYER
 70
1
  0
LAYER
  2
0
 70
     0
 62
     7
  6
CONTINUOUS
  0
ENDTAB
  0
ENDSEC
  0
SECTION
  2
ENTITIES
  0
LINE
  8
0
 62
     0
 10
0.0950846
 20
119.496
 30
0.0
 11
185.833
 21
119.496
 31
0.0
  0
LINE
  8
0
 62
     0
 10
185.833
 20
119.496
 30
0.0
 11
185.833
 21
0.432703
 31
0.0
  0
LINE
  8
0
 62
     0
 10
185.833
 20
0.432703
 30
0.0
 11
0.0950846
 21
0.432703
 31
0.0
  0
LINE
  8
0
 62
     0
 10
0.0950846
 20
0.432703
 30
0.0
 11
0.0950846
 21
119.496
 31
0.0
  0
LINE
  8
0
 62
     0
 10
31.7872
 20
16.4097
 30
0.0
 11
35.0876
 21
16.4097
 31
0.0
  0
LINE
  8
0
 62
     0
 10
35.0876
 20
16.4097
 30
0.0
 11
35.0876
 21
2.209
 31
0.0
  0
LINE
  8
0
 62
     0
 10
35.0876
 20
2.209
 30
0.0
 11
31.7872
 21
2.209
 31
0.0
  0
LINE
  8
0
 62
     0
 10
31.7872
 20
2.209
 30
0.0
 11
31.7872
 21
16.4097
 31
0.0
  0
LINE
  8
0
 62
     0
 10
55.5872
 20
16.4097
 30
0.0
 11
58.8878
 21
16.4097
 31
0.0
  0
LINE
  8
0
 62
     0
 10
58.8878
 20
16.4097
 30
0.0
 11
58.8878
 21
2.209
 31
0.0
  0
LINE
  8
0
 62
     0
 10
58.8878
 20
2.209
 30
0.0
 11
55.5872
 21
2.209
 31
0.0
  0
LINE
  8
0
 62
     0
 10
55.5872
 20
2.209
 30
0.0
 11
55.5872
 21
16.4097
 31
0.0
  0
LINE
  8
0
 62
     0
 10
2.61965
 20
16.9595
 30
0.0
 11
16.6192
 21
16.9595
 31
0.0
  0
LINE
  8
0
 62
     0
 10
16.6192
 20
16.9595
 30
0.0
 11
16.6192
 21
2.95865
 31
0.0
  0
LINE
  8
0
 62
     0
 10
16.6192
 20
2.95865
 30
0.0
 11
2.61965
 21
2.95865
 31
0.0
  0
LINE
  8
0
 62
     0
 10
2.61965
 20
2.95865
 30
0.0
 11
2.61965
 21
16.9595
 31
0.0
  0
LINE
  8
0
 62
     0
 10
38.3371
 20
16.9595
 30
0.0
 11
52.3378
 21
16.9595
 31
0.0
  0
LINE
  8
0
 62
     0
 10
52.3378
 20
16.9595
 30
0.0
 11
52.3378
 21
2.95865
 31
0.0
  0
LINE
  8
0
 62
     0
 10
52.3378
 20
2.95865
 30
0.0
 11
38.3371
 21
2.95865
 31
0.0
  0
LINE
  8
0
 62
     0
 10
38.3371
 20
2.95865
 30
0.0
 11
38.3371
 21
16.9595
 31
0.0
  0
LINE
  8
0
 62
     0
 10
74.0572
 20
16.9595
 30
0.0
 11
88.0565
 21
16.9595
 31
0.0
  0
LINE
  8
0
 62
     0
 10
88.0565
 20
16.9595
 30
0.0
 11
88.0565
 21
2.95865
 31
0.0
  0
LINE
  8
0
 62
     0
 10
88.0565
 20
2.95865
 30
0.0
 11
74.0572
 21
2.95865
 31
0.0
  0
LINE
  8
0
 62
     0
 10
74.0572
 20
2.95865
 30
0.0
 11
74.0572
 21
16.9595
 31
0.0
  0
LINE
  8
0
 62
     0
 10
93.1072
 20
16.9595
 30
0.0
 11
107.107
 21
16.9595
 31
0.0
  0
LINE
  8
0
 62
     0
 10
107.107
 20
16.9595
 30
0.0
 11
107.107
 21
2.95865
 31
0.0
  0
LINE
  8
0
 62
     0
 10
107.107
 20
2.95865
 30
0.0
 11
93.1072
 21
2.95865
 31
0.0
  0
LINE
  8
0
 62
     0
 10
93.1072
 20
2.95865
 30
0.0
 11
93.1072
 21
16.9595
 31
0.0
  0
LINE
  8
0
 62
     0
 10
112.157
 20
16.9595
 30
0.0
 11
126.157
 21
16.9595
 31
0.0
  0
LINE
  8
0
 62
     0
 10
126.157
 20
16.9595
 30
0.0
 11
126.157
 21
2.95865
 31
0.0
  0
LINE
  8
0
 62
     0
 10
126.157
 20
2.95865
 30
0.0
 11
112.157
 21
2.95865
 31
0.0
  0
LINE
  8
0
 62
     0
 10
112.157
 20
2.95865
 30
0.0
 11
112.157
 21
16.9595
 31
0.0
  0
LINE
  8
0
 62
     0
 10
131.207
 20
16.9595
 30
0.0
 11
145.207
 21
16.9595
 31
0.0
  0
LINE
  8
0
 62
     0
 10
145.207
 20
16.9595
 30
0.0
 11
145.207
 21
2.95865
 31
0.0
  0
LINE
  8
0
 62
     0
 10
145.207
 20
2.95865
 30
0.0
 11
131.207
 21
2.95865
 31
0.0
  0
LINE
  8
0
 62
     0
 10
131.207
 20
2.95865
 30
0.0
 11
131.207
 21
16.9595
 31
0.0
  0
LINE
  8
0
 62
     0
 10
150.257
 20
16.9595
 30
0.0
 11
164.257
 21
16.9595
 31
0.0
  0
LINE
  8
0
 62
     0
 10
164.257
 20
16.9595
 30
0.0
 11
164.257
 21
2.95865
 31
0.0
  0
LINE
  8
0
 62
     0
 10
164.257
 20
2.95865
 30
0.0
 11
150.257
 21
2.95865
 31
0.0
  0
LINE
  8
0
 62
     0
 10
150.257
 20
2.95865
 30
0.0
 11
150.257
 21
16.9595
 31
0.0
  0
LINE
  8
0
 62
     0
 10
169.307
 20
16.9595
 30
0.0
 11
183.307
 21
16.9595
 31
0.0
  0
LINE
  8
0
 62
     0
 10
183.307
 20
16.9595
 30
0.0
 11
183.307
 21
2.95865
 31
0.0
  0
LINE
  8
0
 62
     0
 10
183.307
 20
2.95865
 30
0.0
 11
169.307
 21
2.95865
 31
0.0
  0
LINE
  8
0
 62
     0
 10
169.307
 20
2.95865
 30
0.0
 11
169.307
 21
16.9595
 31
0.0
  0
LINE
  8
0
 62
     0
 10
2.61965
 20
36.0094
 30
0.0
 11
16.6192
 21
36.0094
 31
0.0
  0
LINE
  8
0
 62
     0
 10
16.6192
 20
36.0094
 30
0.0
 11
16.6192
 21
22.0086
 31
0.0
  0
LINE
  8
0
 62
     0
 10
16.6192
 20
22.0086
 30
0.0
 11
2.61965
 21
22.0086
 31
0.0
  0
LINE
  8
0
 62
     0
 10
2.61965
 20
22.0086
 30
0.0
 11
2.61965
 21
36.0094
 31
0.0
  0
LINE
  8
0
 62
     0
 10
21.6697
 20
36.0094
 30
0.0
 11
35.669
 21
36.0094
 31
0.0
  0
LINE
  8
0
 62
     0
 10
35.669
 20
36.0094
 30
0.0
 11
35.669
 21
22.0086
 31
0.0
  0
LINE
  8
0
 62
     0
 10
35.669
 20
22.0086
 30
0.0
 11
21.6697
 21
22.0086
 31
0.0
  0
LINE
  8
0
 62
     0
 10
21.6697
 20
22.0086
 30
0.0
 11
21.6697
 21
36.0094
 31
0.0
  0
LINE
  8
0
 62
     0
 10
40.7197
 20
36.0094
 30
0.0
 11
54.719
 21
36.0094
 31
0.0
  0
LINE
  8
0
 62
     0
 10
54.719
 20
36.0094
 30
0.0
 11
54.719
 21
22.0086
 31
0.0
  0
LINE
  8
0
 62
     0
 10
54.719
 20
22.0086
 30
0.0
 11
40.7197
 21
22.0086
 31
0.0
  0
LINE
  8
0
 62
     0
 10
40.7197
 20
22.0086
 30
0.0
 11
40.7197
 21
36.0094
 31
0.0
  0
LINE
  8
0
 62
     0
 10
59.7697
 20
36.0094
 30
0.0
 11
73.769
 21
36.0094
 31
0.0
  0
LINE
  8
0
 62
     0
 10
73.769
 20
36.0094
 30
0.0
 11
73.769
 21
22.0086
 31
0.0
  0
LINE
  8
0
 62
     0
 10
73.769
 20
22.0086
 30
0.0
 11
59.7697
 21
22.0086
 31
0.0
  0
LINE
  8
0
 62
     0
 10
59.7697
 20
22.0086
 30
0.0
 11
59.7697
 21
36.0094
 31
0.0
  0
LINE
  8
0
 62
     0
 10
78.8197
 20
36.0094
 30
0.0
 11
92.819
 21
36.0094
 31
0.0
  0
LINE
  8
0
 62
     0
 10
92.819
 20
36.0094
 30
0.0
 11
92.819
 21
22.0086
 31
0.0
  0
LINE
  8
0
 62
     0
 10
92.819
 20
22.0086
 30
0.0
 11
78.8197
 21
22.0086
 31
0.0
  0
LINE
  8
0
 62
     0
 10
78.8197
 20
22.0086
 30
0.0
 11
78.8197
 21
36.0094
 31
0.0
  0
LINE
  8
0
 62
     0
 10
97.8683
 20
36.0094
 30
0.0
 11
111.869
 21
36.0094
 31
0.0
  0
LINE
  8
0
 62
     0
 10
111.869
 20
36.0094
 30
0.0
 11
111.869
 21
22.0086
 31
0.0
  0
LINE
  8
0
 62
     0
 10
111.869
 20
22.0086
 30
0.0
 11
97.8683
 21
22.0086
 31
0.0
  0
LINE
  8
0
 62
     0
 10
97.8683
 20
22.0086
 30
0.0
 11
97.8683
 21
36.0094
 31
0.0
  0
LINE
  8
0
 62
     0
 10
124.062
 20
36.0094
 30
0.0
 11
138.063
 21
36.0094
 31
0.0
  0
LINE
  8
0
 62
     0
 10
138.063
 20
36.0094
 30
0.0
 11
138.063
 21
22.0086
 31
0.0
  0
LINE
  8
0
 62
     0
 10
138.063
 20
22.0086
 30
0.0
 11
124.062
 21
22.0086
 31
0.0
  0
LINE
  8
0
 62
     0
 10
124.062
 20
22.0086
 30
0.0
 11
124.062
 21
36.0094
 31
0.0
  0
LINE
  8
0
 62
     0
 10
150.257
 20
36.0094
 30
0.0
 11
164.257
 21
36.0094
 31
0.0
  0
LINE
  8
0
 62
     0
 10
164.257
 20
36.0094
 30
0.0
 11
164.257
 21
22.0086
 31
0.0
  0
LINE
  8
0
 62
     0
 10
164.257
 20
22.0086
 30
0.0
 11
150.257
 21
22.0086
 31
0.0
  0
LINE
  8
0
 62
     0
 10
150.257
 20
22.0086
 30
0.0
 11
150.257
 21
36.0094
 31
0.0
  0
LINE
  8
0
 62
     0
 10
169.307
 20
36.0094
 30
0.0
 11
183.307
 21
36.0094
 31
0.0
  0
LINE
  8
0
 62
     0
 10
183.307
 20
36.0094
 30
0.0
 11
183.307
 21
22.0086
 31
0.0
  0
LINE
  8
0
 62
     0
 10
183.307
 20
22.0086
 30
0.0
 11
169.307
 21
22.0086
 31
0.0
  0
LINE
  8
0
 62
     0
 10
169.307
 20
22.0086
 30
0.0
 11
169.307
 21
36.0094
 31
0.0
  0
LINE
  8
0
 62
     0
 10
131.801
 20
54.5098
 30
0.0
 11
135.1
 21
54.5098
 31
0.0
  0
LINE
  8
0
 62
     0
 10
135.1
 20
54.5098
 30
0.0
 11
135.1
 21
40.3091
 31
0.0
  0
LINE
  8
0
 62
     0
 10
135.1
 20
40.3091
 30
0.0
 11
131.801
 21
40.3091
 31
0.0
  0
LINE
  8
0
 62
     0
 10
131.801
 20
40.3091
 30
0.0
 11
131.801
 21
54.5098
 31
0.0
  0
LINE
  8
0
 62
     0
 10
155.601
 20
54.5098
 30
0.0
 11
158.9
 21
54.5098
 31
0.0
  0
LINE
  8
0
 62
     0
 10
158.9
 20
54.5098
 30
0.0
 11
158.9
 21
40.3091
 31
0.0
  0
LINE
  8
0
 62
     0
 10
158.9
 20
40.3091
 30
0.0
 11
155.601
 21
40.3091
 31
0.0
  0
LINE
  8
0
 62
     0
 10
155.601
 20
40.3091
 30
0.0
 11
155.601
 21
54.5098
 31
0.0
  0
LINE
  8
0
 62
     0
 10
12.1447
 20
55.0594
 30
0.0
 11
26.1441
 21
55.0594
 31
0.0
  0
LINE
  8
0
 62
     0
 10
26.1441
 20
55.0594
 30
0.0
 11
26.1441
 21
41.0587
 31
0.0
  0
LINE
  8
0
 62
     0
 10
26.1441
 20
41.0587
 30
0.0
 11
12.1447
 21
41.0587
 31
0.0
  0
LINE
  8
0
 62
     0
 10
12.1447
 20
41.0587
 30
0.0
 11
12.1447
 21
55.0594
 31
0.0
  0
LINE
  8
0
 62
     0
 10
31.1947
 20
55.0594
 30
0.0
 11
45.194
 21
55.0594
 31
0.0
  0
LINE
  8
0
 62
     0
 10
45.194
 20
55.0594
 30
0.0
 11
45.194
 21
41.0587
 31
0.0
  0
LINE
  8
0
 62
     0
 10
45.194
 20
41.0587
 30
0.0
 11
31.1947
 21
41.0587
 31
0.0
  0
LINE
  8
0
 62
     0
 10
31.1947
 20
41.0587
 30
0.0
 11
31.1947
 21
55.0594
 31
0.0
  0
LINE
  8
0
 62
     0
 10
50.2447
 20
55.0594
 30
0.0
 11
64.244
 21
55.0594
 31
0.0
  0
LINE
  8
0
 62
     0
 10
64.244
 20
55.0594
 30
0.0
 11
64.244
 21
41.0587
 31
0.0
  0
LINE
  8
0
 62
     0
 10
64.244
 20
41.0587
 30
0.0
 11
50.2447
 21
41.0587
 31
0.0
  0
LINE
  8
0
 62
     0
 10
50.2447
 20
41.0587
 30
0.0
 11
50.2447
 21
55.0594
 31
0.0
  0
LINE
  8
0
 62
     0
 10
69.2947
 20
55.0594
 30
0.0
 11
83.294
 21
55.0594
 31
0.0
  0
LINE
  8
0
 62
     0
 10
83.294
 20
55.0594
 30
0.0
 11
83.294
 21
41.0587
 31
0.0
  0
LINE
  8
0
 62
     0
 10
83.294
 20
41.0587
 30
0.0
 11
69.2947
 21
41.0587
 31
0.0
  0
LINE
  8
0
 62
     0
 10
69.2947
 20
41.0587
 30
0.0
 11
69.2947
 21
55.0594
 31
0.0
  0
LINE
  8
0
 62
     0
 10
88.3447
 20
55.0594
 30
0.0
 11
102.344
 21
55.0594
 31
0.0
  0
LINE
  8
0
 62
     0
 10
102.344
 20
55.0594
 30
0.0
 11
102.344
 21
41.0587
 31
0.0
  0
LINE
  8
0
 62
     0
 10
102.344
 20
41.0587
 30
0.0
 11
88.3447
 21
41.0587
 31
0.0
  0
LINE
  8
0
 62
     0
 10
88.3447
 20
41.0587
 30
0.0
 11
88.3447
 21
55.0594
 31
0.0
  0
LINE
  8
0
 62
     0
 10
107.395
 20
55.0594
 30
0.0
 11
121.394
 21
55.0594
 31
0.0
  0
LINE
  8
0
 62
     0
 10
121.394
 20
55.0594
 30
0.0
 11
121.394
 21
41.0587
 31
0.0
  0
LINE
  8
0
 62
     0
 10
121.394
 20
41.0587
 30
0.0
 11
107.395
 21
41.0587
 31
0.0
  0
LINE
  8
0
 62
     0
 10
107.395
 20
41.0587
 30
0.0
 11
107.395
 21
55.0594
 31
0.0
  0
LINE
  8
0
 62
     0
 10
138.351
 20
55.0594
 30
0.0
 11
152.35
 21
55.0594
 31
0.0
  0
LINE
  8
0
 62
     0
 10
152.35
 20
55.0594
 30
0.0
 11
152.35
 21
41.0587
 31
0.0
  0
LINE
  8
0
 62
     0
 10
152.35
 20
41.0587
 30
0.0
 11
138.351
 21
41.0587
 31
0.0
  0
LINE
  8
0
 62
     0
 10
138.351
 20
41.0587
 30
0.0
 11
138.351
 21
55.0594
 31
0.0
  0
LINE
  8
0
 62
     0
 10
169.307
 20
55.0594
 30
0.0
 11
183.307
 21
55.0594
 31
0.0
  0
LINE
  8
0
 62
     0
 10
183.307
 20
55.0594
 30
0.0
 11
183.307
 21
41.0587
 31
0.0
  0
LINE
  8
0
 62
     0
 10
183.307
 20
41.0587
 30
0.0
 11
169.307
 21
41.0587
 31
0.0
  0
LINE
  8
0
 62
     0
 10
169.307
 20
41.0587
 30
0.0
 11
169.307
 21
55.0594
 31
0.0
  0
LINE
  8
0
 62
     0
 10
7.38216
 20
74.1094
 30
0.0
 11
21.3817
 21
74.1094
 31
0.0
  0
LINE
  8
0
 62
     0
 10
21.3817
 20
74.1094
 30
0.0
 11
21.3817
 21
60.1087
 31
0.0
  0
LINE
  8
0
 62
     0
 10
21.3817
 20
60.1087
 30
0.0
 11
7.38216
 21
60.1087
 31
0.0
  0
LINE
  8
0
 62
     0
 10
7.38216
 20
60.1087
 30
0.0
 11
7.38216
 21
74.1094
 31
0.0
  0
LINE
  8
0
 62
     0
 10
26.4322
 20
74.1094
 30
0.0
 11
40.4315
 21
74.1094
 31
0.0
  0
LINE
  8
0
 62
     0
 10
40.4315
 20
74.1094
 30
0.0
 11
40.4315
 21
60.1087
 31
0.0
  0
LINE
  8
0
 62
     0
 10
40.4315
 20
60.1087
 30
0.0
 11
26.4322
 21
60.1087
 31
0.0
  0
LINE
  8
0
 62
     0
 10
26.4322
 20
60.1087
 30
0.0
 11
26.4322
 21
74.1094
 31
0.0
  0
LINE
  8
0
 62
     0
 10
45.4822
 20
74.1094
 30
0.0
 11
59.4815
 21
74.1094
 31
0.0
  0
LINE
  8
0
 62
     0
 10
59.4815
 20
74.1094
 30
0.0
 11
59.4815
 21
60.1087
 31
0.0
  0
LINE
  8
0
 62
     0
 10
59.4815
 20
60.1087
 30
0.0
 11
45.4822
 21
60.1087
 31
0.0
  0
LINE
  8
0
 62
     0
 10
45.4822
 20
60.1087
 30
0.0
 11
45.4822
 21
74.1094
 31
0.0
  0
LINE
  8
0
 62
     0
 10
64.5322
 20
74.1094
 30
0.0
 11
78.5315
 21
74.1094
 31
0.0
  0
LINE
  8
0
 62
     0
 10
78.5315
 20
74.1094
 30
0.0
 11
78.5315
 21
60.1087
 31
0.0
  0
LINE
  8
0
 62
     0
 10
78.5315
 20
60.1087
 30
0.0
 11
64.5322
 21
60.1087
 31
0.0
  0
LINE
  8
0
 62
     0
 10
64.5322
 20
60.1087
 30
0.0
 11
64.5322
 21
74.1094
 31
0.0
  0
LINE
  8
0
 62
     0
 10
83.5822
 20
74.1094
 30
0.0
 11
97.5815
 21
74.1094
 31
0.0
  0
LINE
  8
0
 62
     0
 10
97.5815
 20
74.1094
 30
0.0
 11
97.5815
 21
60.1087
 31
0.0
  0
LINE
  8
0
 62
     0
 10
97.5815
 20
60.1087
 30
0.0
 11
83.5822
 21
60.1087
 31
0.0
  0
LINE
  8
0
 62
     0
 10
83.5822
 20
60.1087
 30
0.0
 11
83.5822
 21
74.1094
 31
0.0
  0
LINE
  8
0
 62
     0
 10
102.632
 20
74.1094
 30
0.0
 11
116.632
 21
74.1094
 31
0.0
  0
LINE
  8
0
 62
     0
 10
116.632
 20
74.1094
 30
0.0
 11
116.632
 21
60.1087
 31
0.0
  0
LINE
  8
0
 62
     0
 10
116.632
 20
60.1087
 30
0.0
 11
102.632
 21
60.1087
 31
0.0
  0
LINE
  8
0
 62
     0
 10
102.632
 20
60.1087
 30
0.0
 11
102.632
 21
74.1094
 31
0.0
  0
LINE
  8
0
 62
     0
 10
121.682
 20
74.1094
 30
0.0
 11
135.682
 21
74.1094
 31
0.0
  0
LINE
  8
0
 62
     0
 10
135.682
 20
74.1094
 30
0.0
 11
135.682
 21
60.1087
 31
0.0
  0
LINE
  8
0
 62
     0
 10
135.682
 20
60.1087
 30
0.0
 11
121.682
 21
60.1087
 31
0.0
  0
LINE
  8
0
 62
     0
 10
121.682
 20
60.1087
 30
0.0
 11
121.682
 21
74.1094
 31
0.0
  0
LINE
  8
0
 62
     0
 10
145.495
 20
74.1094
 30
0.0
 11
159.494
 21
74.1094
 31
0.0
  0
LINE
  8
0
 62
     0
 10
159.494
 20
74.1094
 30
0.0
 11
159.494
 21
60.1087
 31
0.0
  0
LINE
  8
0
 62
     0
 10
159.494
 20
60.1087
 30
0.0
 11
145.495
 21
60.1087
 31
0.0
  0
LINE
  8
0
 62
     0
 10
145.495
 20
60.1087
 30
0.0
 11
145.495
 21
74.1094
 31
0.0
  0
LINE
  8
0
 62
     0
 10
169.307
 20
74.1094
 30
0.0
 11
183.307
 21
74.1094
 31
0.0
  0
LINE
  8
0
 62
     0
 10
183.307
 20
74.1094
 30
0.0
 11
183.307
 21
60.1087
 31
0.0
  0
LINE
  8
0
 62
     0
 10
183.307
 20
60.1087
 30
0.0
 11
169.307
 21
60.1087
 31
0.0
  0
LINE
  8
0
 62
     0
 10
169.307
 20
60.1087
 30
0.0
 11
169.307
 21
74.1094
 31
0.0
  0
LINE
  8
0
 62
     0
 10
134.181
 20
92.6098
 30
0.0
 11
137.481
 21
92.6098
 31
0.0
  0
LINE
  8
0
 62
     0
 10
137.481
 20
92.6098
 30
0.0
 11
137.481
 21
78.4091
 31
0.0
  0
LINE
  8
0
 62
     0
 10
137.481
 20
78.4091
 30
0.0
 11
134.181
 21
78.4091
 31
0.0
  0
LINE
  8
0
 62
     0
 10
134.181
 20
78.4091
 30
0.0
 11
134.181
 21
92.6098
 31
0.0
  0
LINE
  8
0
 62
     0
 10
157.981
 20
92.6098
 30
0.0
 11
161.282
 21
92.6098
 31
0.0
  0
LINE
  8
0
 62
     0
 10
161.282
 20
92.6098
 30
0.0
 11
161.282
 21
78.4091
 31
0.0
  0
LINE
  8
0
 62
     0
 10
161.282
 20
78.4091
 30
0.0
 11
157.981
 21
78.4091
 31
0.0
  0
LINE
  8
0
 62
     0
 10
157.981
 20
78.4091
 30
0.0
 11
157.981
 21
92.6098
 31
0.0
  0
LINE
  8
0
 62
     0
 10
16.9072
 20
93.1594
 30
0.0
 11
30.9066
 21
93.1594
 31
0.0
  0
LINE
  8
0
 62
     0
 10
30.9066
 20
93.1594
 30
0.0
 11
30.9066
 21
79.1587
 31
0.0
  0
LINE
  8
0
 62
     0
 10
30.9066
 20
79.1587
 30
0.0
 11
16.9072
 21
79.1587
 31
0.0
  0
LINE
  8
0
 62
     0
 10
16.9072
 20
79.1587
 30
0.0
 11
16.9072
 21
93.1594
 31
0.0
  0
LINE
  8
0
 62
     0
 10
35.9572
 20
93.1594
 30
0.0
 11
49.9565
 21
93.1594
 31
0.0
  0
LINE
  8
0
 62
     0
 10
49.9565
 20
93.1594
 30
0.0
 11
49.9565
 21
79.1587
 31
0.0
  0
LINE
  8
0
 62
     0
 10
49.9565
 20
79.1587
 30
0.0
 11
35.9572
 21
79.1587
 31
0.0
  0
LINE
  8
0
 62
     0
 10
35.9572
 20
79.1587
 30
0.0
 11
35.9572
 21
93.1594
 31
0.0
  0
LINE
  8
0
 62
     0
 10
55.0072
 20
93.1594
 30
0.0
 11
69.0065
 21
93.1594
 31
0.0
  0
LINE
  8
0
 62
     0
 10
69.0065
 20
93.1594
 30
0.0
 11
69.0065
 21
79.1587
 31
0.0
  0
LINE
  8
0
 62
     0
 10
69.0065
 20
79.1587
 30
0.0
 11
55.0072
 21
79.1587
 31
0.0
  0
LINE
  8
0
 62
     0
 10
55.0072
 20
79.1587
 30
0.0
 11
55.0072
 21
93.1594
 31
0.0
  0
LINE
  8
0
 62
     0
 10
74.0572
 20
93.1594
 30
0.0
 11
88.0565
 21
93.1594
 31
0.0
  0
LINE
  8
0
 62
     0
 10
88.0565
 20
93.1594
 30
0.0
 11
88.0565
 21
79.1587
 31
0.0
  0
LINE
  8
0
 62
     0
 10
88.0565
 20
79.1587
 30
0.0
 11
74.0572
 21
79.1587
 31
0.0
  0
LINE
  8
0
 62
     0
 10
74.0572
 20
79.1587
 30
0.0
 11
74.0572
 21
93.1594
 31
0.0
  0
LINE
  8
0
 62
     0
 10
93.1072
 20
93.1594
 30
0.0
 11
107.107
 21
93.1594
 31
0.0
  0
LINE
  8
0
 62
     0
 10
107.107
 20
93.1594
 30
0.0
 11
107.107
 21
79.1587
 31
0.0
  0
LINE
  8
0
 62
     0
 10
107.107
 20
79.1587
 30
0.0
 11
93.1072
 21
79.1587
 31
0.0
  0
LINE
  8
0
 62
     0
 10
93.1072
 20
79.1587
 30
0.0
 11
93.1072
 21
93.1594
 31
0.0
  0
LINE
  8
0
 62
     0
 10
112.157
 20
93.1594
 30
0.0
 11
126.157
 21
93.1594
 31
0.0
  0
LINE
  8
0
 62
     0
 10
126.157
 20
93.1594
 30
0.0
 11
126.157
 21
79.1587
 31
0.0
  0
LINE
  8
0
 62
     0
 10
126.157
 20
79.1587
 30
0.0
 11
112.157
 21
79.1587
 31
0.0
  0
LINE
  8
0
 62
     0
 10
112.157
 20
79.1587
 30
0.0
 11
112.157
 21
93.1594
 31
0.0
  0
LINE
  8
0
 62
     0
 10
140.732
 20
93.1594
 30
0.0
 11
154.732
 21
93.1594
 31
0.0
  0
LINE
  8
0
 62
     0
 10
154.732
 20
93.1594
 30
0.0
 11
154.732
 21
79.1587
 31
0.0
  0
LINE
  8
0
 62
     0
 10
154.732
 20
79.1587
 30
0.0
 11
140.732
 21
79.1587
 31
0.0
  0
LINE
  8
0
 62
     0
 10
140.732
 20
79.1587
 30
0.0
 11
140.732
 21
93.1594
 31
0.0
  0
LINE
  8
0
 62
     0
 10
169.307
 20
93.1594
 30
0.0
 11
183.307
 21
93.1594
 31
0.0
  0
LINE
  8
0
 62
     0
 10
183.307
 20
93.1594
 30
0.0
 11
183.307
 21
79.1587
 31
0.0
  0
LINE
  8
0
 62
     0
 10
183.307
 20
79.1587
 30
0.0
 11
169.307
 21
79.1587
 31
0.0
  0
LINE
  8
0
 62
     0
 10
169.307
 20
79.1587
 30
0.0
 11
169.307
 21
93.1594
 31
0.0
  0
LINE
  8
0
 62
     0
 10
12.1447
 20
116.971
 30
0.0
 11
26.1441
 21
116.971
 31
0.0
  0
LINE
  8
0
 62
     0
 10
26.1441
 20
116.971
 30
0.0
 11
26.1441
 21
102.971
 31
0.0
  0
LINE
  8
0
 62
     0
 10
26.1441
 20
102.971
 30
0.0
 11
12.1447
 21
102.971
 31
0.0
  0
LINE
  8
0
 62
     0
 10
12.1447
 20
102.971
 30
0.0
 11
12.1447
 21
116.971
 31
0.0
  0
LINE
  8
0
 62
     0
 10
31.1947
 20
116.971
 30
0.0
 11
45.194
 21
116.971
 31
0.0
  0
LINE
  8
0
 62
     0
 10
45.194
 20
116.971
 30
0.0
 11
45.194
 21
102.971
 31
0.0
  0
LINE
  8
0
 62
     0
 10
45.194
 20
102.971
 30
0.0
 11
31.1947
 21
102.971
 31
0.0
  0
LINE
  8
0
 62
     0
 10
31.1947
 20
102.971
 30
0.0
 11
31.1947
 21
116.971
 31
0.0
  0
LINE
  8
0
 62
     0
 10
50.2447
 20
116.971
 30
0.0
 11
64.244
 21
116.971
 31
0.0
  0
LINE
  8
0
 62
     0
 10
64.244
 20
116.971
 30
0.0
 11
64.244
 21
102.971
 31
0.0
  0
LINE
  8
0
 62
     0
 10
64.244
 20
102.971
 30
0.0
 11
50.2447
 21
102.971
 31
0.0
  0
LINE
  8
0
 62
     0
 10
50.2447
 20
102.971
 30
0.0
 11
50.2447
 21
116.971
 31
0.0
  0
LINE
  8
0
 62
     0
 10
69.2947
 20
116.971
 30
0.0
 11
83.294
 21
116.971
 31
0.0
  0
LINE
  8
0
 62
     0
 10
83.294
 20
116.971
 30
0.0
 11
83.294
 21
102.971
 31
0.0
  0
LINE
  8
0
 62
     0
 10
83.294
 20
102.971
 30
0.0
 11
69.2947
 21
102.971
 31
0.0
  0
LINE
  8
0
 62
     0
 10
69.2947
 20
102.971
 30
0.0
 11
69.2947
 21
116.971
 31
0.0
  0
LINE
  8
0
 62
     0
 10
88.3447
 20
116.971
 30
0.0
 11
102.344
 21
116.971
 31
0.0
  0
LINE
  8
0
 62
     0
 10
102.344
 20
116.971
 30
0.0
 11
102.344
 21
102.971
 31
0.0
  0
LINE
  8
0
 62
     0
 10
102.344
 20
102.971
 30
0.0
 11
88.3447
 21
102.971
 31
0.0
  0
LINE
  8
0
 62
     0
 10
88.3447
 20
102.971
 30
0.0
 11
88.3447
 21
116.971
 31
0.0
  0
LINE
  8
0
 62
     0
 10
107.395
 20
116.971
 30
0.0
 11
121.394
 21
116.971
 31
0.0
  0
LINE
  8
0
 62
     0
 10
121.394
 20
116.971
 30
0.0
 11
121.394
 21
102.971
 31
0.0
  0
LINE
  8
0
 62
     0
 10
121.394
 20
102.971
 30
0.0
 11
107.395
 21
102.971
 31
0.0
  0
LINE
  8
0
 62
     0
 10
107.395
 20
102.971
 30
0.0
 11
107.395
 21
116.971
 31
0.0
  0
LINE
  8
0
 62
     0
 10
131.207
 20
116.971
 30
0.0
 11
145.207
 21
116.971
 31
0.0
  0
LINE
  8
0
 62
     0
 10
145.207
 20
116.971
 30
0.0
 11
145.207
 21
102.971
 31
0.0
  0
LINE
  8
0
 62
     0
 10
145.207
 20
102.971
 30
0.0
 11
131.207
 21
102.971
 31
0.0
  0
LINE
  8
0
 62
     0
 10
131.207
 20
102.971
 30
0.0
 11
131.207
 21
116.971
 31
0.0
  0
LINE
  8
0
 62
     0
 10
150.257
 20
116.971
 30
0.0
 11
164.257
 21
116.971
 31
0.0
  0
LINE
  8
0
 62
     0
 10
164.257
 20
116.971
 30
0.0
 11
164.257
 21
102.971
 31
0.0
  0
LINE
  8
0
 62
     0
 10
164.257
 20
102.971
 30
0.0
 11
150.257
 21
102.971
 31
0.0
  0
LINE
  8
0
 62
     0
 10
150.257
 20
102.971
 30
0.0
 11
150.257
 21
116.971
 31
0.0
  0
LINE
  8
0
 62
     0
 10
169.307
 20
116.971
 30
0.0
 11
183.307
 21
116.971
 31
0.0
  0
LINE
  8
0
 62
     0
 10
183.307
 20
116.971
 30
0.0
 11
183.307
 21
102.971
 31
0.0
  0
LINE
  8
0
 62
     0
 10
183.307
 20
102.971
 30
0.0
 11
169.307
 21
102.971
 31
0.0
  0
LINE
  8
0
 62
     0
 10
169.307
 20
102.971
 30
0.0
 11
169.307
 21
116.971
 31
0.0
  0
ENDSEC
  0
EOF
