  0
SECTION
  2
HEADER
  9
$ACADVER
  1
AC1009
  9
$FILLMODE
 70
 0
  9
$SPLFRAME
 70
 1
  9
$EXTMIN
 10
0
 20
0
 30
0.0
  9
$EXTMAX
 10
1058.33
 20
1058.33
 30
0.0
  0
ENDSEC
  0
SECTION
  2
TABLES
  0
TABLE
  2
LAYER
 70
1
  0
LAYER
  2
0
 70
     0
 62
     7
  6
CONTINUOUS
  0
ENDTAB
  0
ENDSEC
  0
SECTION
  2
ENTITIES
  0
LINE
  8
0
 62
     0
 10
201.596
 20
111.383
 30
0.0
 11
201.989
 21
111.368
 31
0.0
  0
LINE
  8
0
 62
     0
 10
201.989
 20
111.368
 30
0.0
 11
202.379
 21
111.321
 31
0.0
  0
LINE
  8
0
 62
     0
 10
202.379
 20
111.321
 30
0.0
 11
202.763
 21
111.245
 31
0.0
  0
LINE
  8
0
 62
     0
 10
202.763
 20
111.245
 30
0.0
 11
203.142
 21
111.139
 31
0.0
  0
LINE
  8
0
 62
     0
 10
203.142
 20
111.139
 30
0.0
 11
203.51
 21
111.002
 31
0.0
  0
LINE
  8
0
 62
     0
 10
203.51
 20
111.002
 30
0.0
 11
203.866
 21
110.839
 31
0.0
  0
LINE
  8
0
 62
     0
 10
203.866
 20
110.839
 30
0.0
 11
204.209
 21
110.647
 31
0.0
  0
LINE
  8
0
 62
     0
 10
204.209
 20
110.647
 30
0.0
 11
204.534
 21
110.428
 31
0.0
  0
LINE
  8
0
 62
     0
 10
204.534
 20
110.428
 30
0.0
 11
204.844
 21
110.185
 31
0.0
  0
LINE
  8
0
 62
     0
 10
204.844
 20
110.185
 30
0.0
 11
205.132
 21
109.918
 31
0.0
  0
LINE
  8
0
 62
     0
 10
205.132
 20
109.918
 30
0.0
 11
205.398
 21
109.63
 31
0.0
  0
LINE
  8
0
 62
     0
 10
205.398
 20
109.63
 30
0.0
 11
205.642
 21
109.321
 31
0.0
  0
LINE
  8
0
 62
     0
 10
205.642
 20
109.321
 30
0.0
 11
205.86
 21
108.996
 31
0.0
  0
LINE
  8
0
 62
     0
 10
205.86
 20
108.996
 30
0.0
 11
206.051
 21
108.653
 31
0.0
  0
LINE
  8
0
 62
     0
 10
206.051
 20
108.653
 30
0.0
 11
206.215
 21
108.296
 31
0.0
  0
LINE
  8
0
 62
     0
 10
206.215
 20
108.296
 30
0.0
 11
206.352
 21
107.928
 31
0.0
  0
LINE
  8
0
 62
     0
 10
206.352
 20
107.928
 30
0.0
 11
206.458
 21
107.55
 31
0.0
  0
LINE
  8
0
 62
     0
 10
206.458
 20
107.55
 30
0.0
 11
206.535
 21
107.166
 31
0.0
  0
LINE
  8
0
 62
     0
 10
206.535
 20
107.166
 30
0.0
 11
206.58
 21
106.776
 31
0.0
  0
LINE
  8
0
 62
     0
 10
206.58
 20
106.776
 30
0.0
 11
206.597
 21
106.382
 31
0.0
  0
LINE
  8
0
 62
     0
 10
206.597
 20
106.382
 30
0.0
 11
206.597
 21
5.13182
 31
0.0
  0
LINE
  8
0
 62
     0
 10
206.597
 20
5.13182
 30
0.0
 11
206.58
 21
4.73908
 31
0.0
  0
LINE
  8
0
 62
     0
 10
206.58
 20
4.73908
 30
0.0
 11
206.535
 21
4.34908
 31
0.0
  0
LINE
  8
0
 62
     0
 10
206.535
 20
4.34908
 30
0.0
 11
206.458
 21
3.96462
 31
0.0
  0
LINE
  8
0
 62
     0
 10
206.458
 20
3.96462
 30
0.0
 11
206.352
 21
3.58567
 31
0.0
  0
LINE
  8
0
 62
     0
 10
206.352
 20
3.58567
 30
0.0
 11
206.215
 21
3.21772
 31
0.0
  0
LINE
  8
0
 62
     0
 10
206.215
 20
3.21772
 30
0.0
 11
206.051
 21
2.86219
 31
0.0
  0
LINE
  8
0
 62
     0
 10
206.051
 20
2.86219
 30
0.0
 11
205.86
 21
2.51906
 31
0.0
  0
LINE
  8
0
 62
     0
 10
205.86
 20
2.51906
 30
0.0
 11
205.642
 21
2.19384
 31
0.0
  0
LINE
  8
0
 62
     0
 10
205.642
 20
2.19384
 30
0.0
 11
205.398
 21
1.88378
 31
0.0
  0
LINE
  8
0
 62
     0
 10
205.398
 20
1.88378
 30
0.0
 11
205.132
 21
1.59577
 31
0.0
  0
LINE
  8
0
 62
     0
 10
205.132
 20
1.59577
 30
0.0
 11
204.844
 21
1.32981
 31
0.0
  0
LINE
  8
0
 62
     0
 10
204.844
 20
1.32981
 30
0.0
 11
204.534
 21
1.0859
 31
0.0
  0
LINE
  8
0
 62
     0
 10
204.534
 20
1.0859
 30
0.0
 11
204.209
 21
0.868165
 31
0.0
  0
LINE
  8
0
 62
     0
 10
204.209
 20
0.868165
 30
0.0
 11
203.866
 21
0.676617
 31
0.0
  0
LINE
  8
0
 62
     0
 10
203.866
 20
0.676617
 30
0.0
 11
203.51
 21
0.512632
 31
0.0
  0
LINE
  8
0
 62
     0
 10
203.51
 20
0.512632
 30
0.0
 11
203.142
 21
0.376206
 31
0.0
  0
LINE
  8
0
 62
     0
 10
203.142
 20
0.376206
 30
0.0
 11
202.763
 21
0.270095
 31
0.0
  0
LINE
  8
0
 62
     0
 10
202.763
 20
0.270095
 30
0.0
 11
202.379
 21
0.192925
 31
0.0
  0
LINE
  8
0
 62
     0
 10
202.379
 20
0.192925
 30
0.0
 11
201.989
 21
0.14745
 31
0.0
  0
LINE
  8
0
 62
     0
 10
201.989
 20
0.14745
 30
0.0
 11
201.596
 21
0.130914
 31
0.0
  0
LINE
  8
0
 62
     0
 10
201.596
 20
0.130914
 30
0.0
 11
5.09598
 21
0.132292
 31
0.0
  0
LINE
  8
0
 62
     0
 10
5.09598
 20
0.132292
 30
0.0
 11
4.70186
 21
0.14745
 31
0.0
  0
LINE
  8
0
 62
     0
 10
4.70186
 20
0.14745
 30
0.0
 11
4.3119
 21
0.192925
 31
0.0
  0
LINE
  8
0
 62
     0
 10
4.3119
 20
0.192925
 30
0.0
 11
3.9274
 21
0.270095
 31
0.0
  0
LINE
  8
0
 62
     0
 10
3.9274
 20
0.270095
 30
0.0
 11
3.54983
 21
0.376206
 31
0.0
  0
LINE
  8
0
 62
     0
 10
3.54983
 20
0.376206
 30
0.0
 11
3.18189
 21
0.512632
 31
0.0
  0
LINE
  8
0
 62
     0
 10
3.18189
 20
0.512632
 30
0.0
 11
2.82498
 21
0.676617
 31
0.0
  0
LINE
  8
0
 62
     0
 10
2.82498
 20
0.676617
 30
0.0
 11
2.48185
 21
0.868165
 31
0.0
  0
LINE
  8
0
 62
     0
 10
2.48185
 20
0.868165
 30
0.0
 11
2.15663
 21
1.0859
 31
0.0
  0
LINE
  8
0
 62
     0
 10
2.15663
 20
1.0859
 30
0.0
 11
1.84795
 21
1.32981
 31
0.0
  0
LINE
  8
0
 62
     0
 10
1.84795
 20
1.32981
 30
0.0
 11
1.55994
 21
1.59577
 31
0.0
  0
LINE
  8
0
 62
     0
 10
1.55994
 20
1.59577
 30
0.0
 11
1.2926
 21
1.88378
 31
0.0
  0
LINE
  8
0
 62
     0
 10
1.2926
 20
1.88378
 30
0.0
 11
1.05006
 21
2.19384
 31
0.0
  0
LINE
  8
0
 62
     0
 10
1.05006
 20
2.19384
 30
0.0
 11
0.830957
 21
2.51906
 31
0.0
  0
LINE
  8
0
 62
     0
 10
0.830957
 20
2.51906
 30
0.0
 11
0.63941
 21
2.86219
 31
0.0
  0
LINE
  8
0
 62
     0
 10
0.63941
 20
2.86219
 30
0.0
 11
0.475424
 21
3.21772
 31
0.0
  0
LINE
  8
0
 62
     0
 10
0.475424
 20
3.21772
 30
0.0
 11
0.338998
 21
3.58567
 31
0.0
  0
LINE
  8
0
 62
     0
 10
0.338998
 20
3.58567
 30
0.0
 11
0.232888
 21
3.96462
 31
0.0
  0
LINE
  8
0
 62
     0
 10
0.232888
 20
3.96462
 30
0.0
 11
0.157097
 21
4.34908
 31
0.0
  0
LINE
  8
0
 62
     0
 10
0.157097
 20
4.34908
 30
0.0
 11
0.110243
 21
4.73908
 31
0.0
  0
LINE
  8
0
 62
     0
 10
0.110243
 20
4.73908
 30
0.0
 11
0.0950846
 21
5.13182
 31
0.0
  0
LINE
  8
0
 62
     0
 10
0.0950846
 20
5.13182
 30
0.0
 11
0.0950846
 21
106.382
 31
0.0
  0
LINE
  8
0
 62
     0
 10
0.0950846
 20
106.382
 30
0.0
 11
0.110243
 21
106.776
 31
0.0
  0
LINE
  8
0
 62
     0
 10
0.110243
 20
106.776
 30
0.0
 11
0.157097
 21
107.166
 31
0.0
  0
LINE
  8
0
 62
     0
 10
0.157097
 20
107.166
 30
0.0
 11
0.232888
 21
107.55
 31
0.0
  0
LINE
  8
0
 62
     0
 10
0.232888
 20
107.55
 30
0.0
 11
0.338998
 21
107.928
 31
0.0
  0
LINE
  8
0
 62
     0
 10
0.338998
 20
107.928
 30
0.0
 11
0.475424
 21
108.296
 31
0.0
  0
LINE
  8
0
 62
     0
 10
0.475424
 20
108.296
 30
0.0
 11
0.63941
 21
108.653
 31
0.0
  0
LINE
  8
0
 62
     0
 10
0.63941
 20
108.653
 30
0.0
 11
0.830957
 21
108.996
 31
0.0
  0
LINE
  8
0
 62
     0
 10
0.830957
 20
108.996
 30
0.0
 11
1.05006
 21
109.321
 31
0.0
  0
LINE
  8
0
 62
     0
 10
1.05006
 20
109.321
 30
0.0
 11
1.2926
 21
109.63
 31
0.0
  0
LINE
  8
0
 62
     0
 10
1.2926
 20
109.63
 30
0.0
 11
1.55994
 21
109.918
 31
0.0
  0
LINE
  8
0
 62
     0
 10
1.55994
 20
109.918
 30
0.0
 11
1.84795
 21
110.185
 31
0.0
  0
LINE
  8
0
 62
     0
 10
1.84795
 20
110.185
 30
0.0
 11
2.15663
 21
110.428
 31
0.0
  0
LINE
  8
0
 62
     0
 10
2.15663
 20
110.428
 30
0.0
 11
2.48185
 21
110.647
 31
0.0
  0
LINE
  8
0
 62
     0
 10
2.48185
 20
110.647
 30
0.0
 11
2.82498
 21
110.839
 31
0.0
  0
LINE
  8
0
 62
     0
 10
2.82498
 20
110.839
 30
0.0
 11
3.18189
 21
111.002
 31
0.0
  0
LINE
  8
0
 62
     0
 10
3.18189
 20
111.002
 30
0.0
 11
3.54983
 21
111.139
 31
0.0
  0
LINE
  8
0
 62
     0
 10
3.54983
 20
111.139
 30
0.0
 11
3.9274
 21
111.245
 31
0.0
  0
LINE
  8
0
 62
     0
 10
3.9274
 20
111.245
 30
0.0
 11
4.3119
 21
111.321
 31
0.0
  0
LINE
  8
0
 62
     0
 10
4.3119
 20
111.321
 30
0.0
 11
4.70186
 21
111.368
 31
0.0
  0
LINE
  8
0
 62
     0
 10
4.70186
 20
111.368
 30
0.0
 11
5.09598
 21
111.383
 31
0.0
  0
LINE
  8
0
 62
     0
 10
5.09598
 20
111.383
 30
0.0
 11
201.596
 21
111.383
 31
0.0
  0
LINE
  8
0
 62
     0
 10
44.552
 20
24.1088
 30
0.0
 11
47.8511
 21
24.1088
 31
0.0
  0
LINE
  8
0
 62
     0
 10
47.8511
 20
24.1088
 30
0.0
 11
47.8511
 21
9.90671
 31
0.0
  0
LINE
  8
0
 62
     0
 10
47.8511
 20
9.90671
 30
0.0
 11
44.552
 21
9.90671
 31
0.0
  0
LINE
  8
0
 62
     0
 10
44.552
 20
9.90671
 30
0.0
 11
44.552
 21
24.1088
 31
0.0
  0
LINE
  8
0
 62
     0
 10
68.3521
 20
24.1088
 30
0.0
 11
71.6509
 21
24.1088
 31
0.0
  0
LINE
  8
0
 62
     0
 10
71.6509
 20
24.1088
 30
0.0
 11
71.6509
 21
9.90671
 31
0.0
  0
LINE
  8
0
 62
     0
 10
71.6509
 20
9.90671
 30
0.0
 11
68.3521
 21
9.90671
 31
0.0
  0
LINE
  8
0
 62
     0
 10
68.3521
 20
9.90671
 30
0.0
 11
68.3521
 21
24.1088
 31
0.0
  0
LINE
  8
0
 62
     0
 10
15.3831
 20
24.6572
 30
0.0
 11
29.3825
 21
24.6572
 31
0.0
  0
LINE
  8
0
 62
     0
 10
29.3825
 20
24.6572
 30
0.0
 11
29.3825
 21
10.6577
 31
0.0
  0
LINE
  8
0
 62
     0
 10
29.3825
 20
10.6577
 30
0.0
 11
15.3831
 21
10.6577
 31
0.0
  0
LINE
  8
0
 62
     0
 10
15.3831
 20
10.6577
 30
0.0
 11
15.3831
 21
24.6572
 31
0.0
  0
LINE
  8
0
 62
     0
 10
51.1016
 20
24.6572
 30
0.0
 11
65.1013
 21
24.6572
 31
0.0
  0
LINE
  8
0
 62
     0
 10
65.1013
 20
24.6572
 30
0.0
 11
65.1013
 21
10.6577
 31
0.0
  0
LINE
  8
0
 62
     0
 10
65.1013
 20
10.6577
 30
0.0
 11
51.1016
 21
10.6577
 31
0.0
  0
LINE
  8
0
 62
     0
 10
51.1016
 20
10.6577
 30
0.0
 11
51.1016
 21
24.6572
 31
0.0
  0
LINE
  8
0
 62
     0
 10
86.8204
 20
24.6572
 30
0.0
 11
100.82
 21
24.6572
 31
0.0
  0
LINE
  8
0
 62
     0
 10
100.82
 20
24.6572
 30
0.0
 11
100.82
 21
10.6577
 31
0.0
  0
LINE
  8
0
 62
     0
 10
100.82
 20
10.6577
 30
0.0
 11
86.8204
 21
10.6577
 31
0.0
  0
LINE
  8
0
 62
     0
 10
86.8204
 20
10.6577
 30
0.0
 11
86.8204
 21
24.6572
 31
0.0
  0
LINE
  8
0
 62
     0
 10
105.869
 20
24.6572
 30
0.0
 11
119.87
 21
24.6572
 31
0.0
  0
LINE
  8
0
 62
     0
 10
119.87
 20
24.6572
 30
0.0
 11
119.87
 21
10.6577
 31
0.0
  0
LINE
  8
0
 62
     0
 10
119.87
 20
10.6577
 30
0.0
 11
105.869
 21
10.6577
 31
0.0
  0
LINE
  8
0
 62
     0
 10
105.869
 20
10.6577
 30
0.0
 11
105.869
 21
24.6572
 31
0.0
  0
LINE
  8
0
 62
     0
 10
124.919
 20
24.6572
 30
0.0
 11
138.92
 21
24.6572
 31
0.0
  0
LINE
  8
0
 62
     0
 10
138.92
 20
24.6572
 30
0.0
 11
138.92
 21
10.6577
 31
0.0
  0
LINE
  8
0
 62
     0
 10
138.92
 20
10.6577
 30
0.0
 11
124.919
 21
10.6577
 31
0.0
  0
LINE
  8
0
 62
     0
 10
124.919
 20
10.6577
 30
0.0
 11
124.919
 21
24.6572
 31
0.0
  0
LINE
  8
0
 62
     0
 10
143.97
 20
24.6572
 30
0.0
 11
157.97
 21
24.6572
 31
0.0
  0
LINE
  8
0
 62
     0
 10
157.97
 20
24.6572
 30
0.0
 11
157.97
 21
10.6577
 31
0.0
  0
LINE
  8
0
 62
     0
 10
157.97
 20
10.6577
 30
0.0
 11
143.97
 21
10.6577
 31
0.0
  0
LINE
  8
0
 62
     0
 10
143.97
 20
10.6577
 30
0.0
 11
143.97
 21
24.6572
 31
0.0
  0
LINE
  8
0
 62
     0
 10
163.02
 20
24.6572
 30
0.0
 11
177.02
 21
24.6572
 31
0.0
  0
LINE
  8
0
 62
     0
 10
177.02
 20
24.6572
 30
0.0
 11
177.02
 21
10.6577
 31
0.0
  0
LINE
  8
0
 62
     0
 10
177.02
 20
10.6577
 30
0.0
 11
163.02
 21
10.6577
 31
0.0
  0
LINE
  8
0
 62
     0
 10
163.02
 20
10.6577
 30
0.0
 11
163.02
 21
24.6572
 31
0.0
  0
LINE
  8
0
 62
     0
 10
182.07
 20
24.6572
 30
0.0
 11
196.07
 21
24.6572
 31
0.0
  0
LINE
  8
0
 62
     0
 10
196.07
 20
24.6572
 30
0.0
 11
196.07
 21
10.6577
 31
0.0
  0
LINE
  8
0
 62
     0
 10
196.07
 20
10.6577
 30
0.0
 11
182.07
 21
10.6577
 31
0.0
  0
LINE
  8
0
 62
     0
 10
182.07
 20
10.6577
 30
0.0
 11
182.07
 21
24.6572
 31
0.0
  0
LINE
  8
0
 62
     0
 10
15.3831
 20
43.7074
 30
0.0
 11
29.3825
 21
43.7074
 31
0.0
  0
LINE
  8
0
 62
     0
 10
29.3825
 20
43.7074
 30
0.0
 11
29.3825
 21
29.7077
 31
0.0
  0
LINE
  8
0
 62
     0
 10
29.3825
 20
29.7077
 30
0.0
 11
15.3831
 21
29.7077
 31
0.0
  0
LINE
  8
0
 62
     0
 10
15.3831
 20
29.7077
 30
0.0
 11
15.3831
 21
43.7074
 31
0.0
  0
LINE
  8
0
 62
     0
 10
34.4331
 20
43.7074
 30
0.0
 11
48.4325
 21
43.7074
 31
0.0
  0
LINE
  8
0
 62
     0
 10
48.4325
 20
43.7074
 30
0.0
 11
48.4325
 21
29.7077
 31
0.0
  0
LINE
  8
0
 62
     0
 10
48.4325
 20
29.7077
 30
0.0
 11
34.4331
 21
29.7077
 31
0.0
  0
LINE
  8
0
 62
     0
 10
34.4331
 20
29.7077
 30
0.0
 11
34.4331
 21
43.7074
 31
0.0
  0
LINE
  8
0
 62
     0
 10
53.4829
 20
43.7074
 30
0.0
 11
67.4825
 21
43.7074
 31
0.0
  0
LINE
  8
0
 62
     0
 10
67.4825
 20
43.7074
 30
0.0
 11
67.4825
 21
29.7077
 31
0.0
  0
LINE
  8
0
 62
     0
 10
67.4825
 20
29.7077
 30
0.0
 11
53.4829
 21
29.7077
 31
0.0
  0
LINE
  8
0
 62
     0
 10
53.4829
 20
29.7077
 30
0.0
 11
53.4829
 21
43.7074
 31
0.0
  0
LINE
  8
0
 62
     0
 10
72.5329
 20
43.7074
 30
0.0
 11
86.5325
 21
43.7074
 31
0.0
  0
LINE
  8
0
 62
     0
 10
86.5325
 20
43.7074
 30
0.0
 11
86.5325
 21
29.7077
 31
0.0
  0
LINE
  8
0
 62
     0
 10
86.5325
 20
29.7077
 30
0.0
 11
72.5329
 21
29.7077
 31
0.0
  0
LINE
  8
0
 62
     0
 10
72.5329
 20
29.7077
 30
0.0
 11
72.5329
 21
43.7074
 31
0.0
  0
LINE
  8
0
 62
     0
 10
91.5829
 20
43.7074
 30
0.0
 11
105.583
 21
43.7074
 31
0.0
  0
LINE
  8
0
 62
     0
 10
105.583
 20
43.7074
 30
0.0
 11
105.583
 21
29.7077
 31
0.0
  0
LINE
  8
0
 62
     0
 10
105.583
 20
29.7077
 30
0.0
 11
91.5829
 21
29.7077
 31
0.0
  0
LINE
  8
0
 62
     0
 10
91.5829
 20
29.7077
 30
0.0
 11
91.5829
 21
43.7074
 31
0.0
  0
LINE
  8
0
 62
     0
 10
110.633
 20
43.7074
 30
0.0
 11
124.633
 21
43.7074
 31
0.0
  0
LINE
  8
0
 62
     0
 10
124.633
 20
43.7074
 30
0.0
 11
124.633
 21
29.7077
 31
0.0
  0
LINE
  8
0
 62
     0
 10
124.633
 20
29.7077
 30
0.0
 11
110.633
 21
29.7077
 31
0.0
  0
LINE
  8
0
 62
     0
 10
110.633
 20
29.7077
 30
0.0
 11
110.633
 21
43.7074
 31
0.0
  0
LINE
  8
0
 62
     0
 10
136.827
 20
43.7074
 30
0.0
 11
150.826
 21
43.7074
 31
0.0
  0
LINE
  8
0
 62
     0
 10
150.826
 20
43.7074
 30
0.0
 11
150.826
 21
29.7077
 31
0.0
  0
LINE
  8
0
 62
     0
 10
150.826
 20
29.7077
 30
0.0
 11
136.827
 21
29.7077
 31
0.0
  0
LINE
  8
0
 62
     0
 10
136.827
 20
29.7077
 30
0.0
 11
136.827
 21
43.7074
 31
0.0
  0
LINE
  8
0
 62
     0
 10
163.019
 20
43.7074
 30
0.0
 11
177.02
 21
43.7074
 31
0.0
  0
LINE
  8
0
 62
     0
 10
177.02
 20
43.7074
 30
0.0
 11
177.02
 21
29.7077
 31
0.0
  0
LINE
  8
0
 62
     0
 10
177.02
 20
29.7077
 30
0.0
 11
163.019
 21
29.7077
 31
0.0
  0
LINE
  8
0
 62
     0
 10
163.019
 20
29.7077
 30
0.0
 11
163.019
 21
43.7074
 31
0.0
  0
LINE
  8
0
 62
     0
 10
182.07
 20
43.7074
 30
0.0
 11
196.07
 21
43.7074
 31
0.0
  0
LINE
  8
0
 62
     0
 10
196.07
 20
43.7074
 30
0.0
 11
196.07
 21
29.7077
 31
0.0
  0
LINE
  8
0
 62
     0
 10
196.07
 20
29.7077
 30
0.0
 11
182.07
 21
29.7077
 31
0.0
  0
LINE
  8
0
 62
     0
 10
182.07
 20
29.7077
 30
0.0
 11
182.07
 21
43.7074
 31
0.0
  0
LINE
  8
0
 62
     0
 10
144.563
 20
62.2074
 30
0.0
 11
147.864
 21
62.2074
 31
0.0
  0
LINE
  8
0
 62
     0
 10
147.864
 20
62.2074
 30
0.0
 11
147.864
 21
48.0067
 31
0.0
  0
LINE
  8
0
 62
     0
 10
147.864
 20
48.0067
 30
0.0
 11
144.563
 21
48.0067
 31
0.0
  0
LINE
  8
0
 62
     0
 10
144.563
 20
48.0067
 30
0.0
 11
144.563
 21
62.2074
 31
0.0
  0
LINE
  8
0
 62
     0
 10
168.363
 20
62.2074
 30
0.0
 11
171.663
 21
62.2074
 31
0.0
  0
LINE
  8
0
 62
     0
 10
171.663
 20
62.2074
 30
0.0
 11
171.663
 21
48.0067
 31
0.0
  0
LINE
  8
0
 62
     0
 10
171.663
 20
48.0067
 30
0.0
 11
168.363
 21
48.0067
 31
0.0
  0
LINE
  8
0
 62
     0
 10
168.363
 20
48.0067
 30
0.0
 11
168.363
 21
62.2074
 31
0.0
  0
LINE
  8
0
 62
     0
 10
24.9081
 20
62.7574
 30
0.0
 11
38.9075
 21
62.7574
 31
0.0
  0
LINE
  8
0
 62
     0
 10
38.9075
 20
62.7574
 30
0.0
 11
38.9075
 21
48.7578
 31
0.0
  0
LINE
  8
0
 62
     0
 10
38.9075
 20
48.7578
 30
0.0
 11
24.9081
 21
48.7578
 31
0.0
  0
LINE
  8
0
 62
     0
 10
24.9081
 20
48.7578
 30
0.0
 11
24.9081
 21
62.7574
 31
0.0
  0
LINE
  8
0
 62
     0
 10
43.9579
 20
62.7574
 30
0.0
 11
57.9575
 21
62.7574
 31
0.0
  0
LINE
  8
0
 62
     0
 10
57.9575
 20
62.7574
 30
0.0
 11
57.9575
 21
48.7578
 31
0.0
  0
LINE
  8
0
 62
     0
 10
57.9575
 20
48.7578
 30
0.0
 11
43.9579
 21
48.7578
 31
0.0
  0
LINE
  8
0
 62
     0
 10
43.9579
 20
48.7578
 30
0.0
 11
43.9579
 21
62.7574
 31
0.0
  0
LINE
  8
0
 62
     0
 10
63.0079
 20
62.7574
 30
0.0
 11
77.0075
 21
62.7574
 31
0.0
  0
LINE
  8
0
 62
     0
 10
77.0075
 20
62.7574
 30
0.0
 11
77.0075
 21
48.7578
 31
0.0
  0
LINE
  8
0
 62
     0
 10
77.0075
 20
48.7578
 30
0.0
 11
63.0079
 21
48.7578
 31
0.0
  0
LINE
  8
0
 62
     0
 10
63.0079
 20
48.7578
 30
0.0
 11
63.0079
 21
62.7574
 31
0.0
  0
LINE
  8
0
 62
     0
 10
82.0579
 20
62.7574
 30
0.0
 11
96.0575
 21
62.7574
 31
0.0
  0
LINE
  8
0
 62
     0
 10
96.0575
 20
62.7574
 30
0.0
 11
96.0575
 21
48.7578
 31
0.0
  0
LINE
  8
0
 62
     0
 10
96.0575
 20
48.7578
 30
0.0
 11
82.0579
 21
48.7578
 31
0.0
  0
LINE
  8
0
 62
     0
 10
82.0579
 20
48.7578
 30
0.0
 11
82.0579
 21
62.7574
 31
0.0
  0
LINE
  8
0
 62
     0
 10
101.108
 20
62.7574
 30
0.0
 11
115.108
 21
62.7574
 31
0.0
  0
LINE
  8
0
 62
     0
 10
115.108
 20
62.7574
 30
0.0
 11
115.108
 21
48.7578
 31
0.0
  0
LINE
  8
0
 62
     0
 10
115.108
 20
48.7578
 30
0.0
 11
101.108
 21
48.7578
 31
0.0
  0
LINE
  8
0
 62
     0
 10
101.108
 20
48.7578
 30
0.0
 11
101.108
 21
62.7574
 31
0.0
  0
LINE
  8
0
 62
     0
 10
120.158
 20
62.7574
 30
0.0
 11
134.158
 21
62.7574
 31
0.0
  0
LINE
  8
0
 62
     0
 10
134.158
 20
62.7574
 30
0.0
 11
134.158
 21
48.7578
 31
0.0
  0
LINE
  8
0
 62
     0
 10
134.158
 20
48.7578
 30
0.0
 11
120.158
 21
48.7578
 31
0.0
  0
LINE
  8
0
 62
     0
 10
120.158
 20
48.7578
 30
0.0
 11
120.158
 21
62.7574
 31
0.0
  0
LINE
  8
0
 62
     0
 10
151.113
 20
62.7574
 30
0.0
 11
165.114
 21
62.7574
 31
0.0
  0
LINE
  8
0
 62
     0
 10
165.114
 20
62.7574
 30
0.0
 11
165.114
 21
48.7578
 31
0.0
  0
LINE
  8
0
 62
     0
 10
165.114
 20
48.7578
 30
0.0
 11
151.113
 21
48.7578
 31
0.0
  0
LINE
  8
0
 62
     0
 10
151.113
 20
48.7578
 30
0.0
 11
151.113
 21
62.7574
 31
0.0
  0
LINE
  8
0
 62
     0
 10
182.07
 20
62.7574
 30
0.0
 11
196.07
 21
62.7574
 31
0.0
  0
LINE
  8
0
 62
     0
 10
196.07
 20
62.7574
 30
0.0
 11
196.07
 21
48.7578
 31
0.0
  0
LINE
  8
0
 62
     0
 10
196.07
 20
48.7578
 30
0.0
 11
182.07
 21
48.7578
 31
0.0
  0
LINE
  8
0
 62
     0
 10
182.07
 20
48.7578
 30
0.0
 11
182.07
 21
62.7574
 31
0.0
  0
LINE
  8
0
 62
     0
 10
20.1442
 20
81.8074
 30
0.0
 11
34.145
 21
81.8074
 31
0.0
  0
LINE
  8
0
 62
     0
 10
34.145
 20
81.8074
 30
0.0
 11
34.145
 21
67.8078
 31
0.0
  0
LINE
  8
0
 62
     0
 10
34.145
 20
67.8078
 30
0.0
 11
20.1442
 21
67.8078
 31
0.0
  0
LINE
  8
0
 62
     0
 10
20.1442
 20
67.8078
 30
0.0
 11
20.1442
 21
81.8074
 31
0.0
  0
LINE
  8
0
 62
     0
 10
39.1943
 20
81.8074
 30
0.0
 11
53.195
 21
81.8074
 31
0.0
  0
LINE
  8
0
 62
     0
 10
53.195
 20
81.8074
 30
0.0
 11
53.195
 21
67.8078
 31
0.0
  0
LINE
  8
0
 62
     0
 10
53.195
 20
67.8078
 30
0.0
 11
39.1943
 21
67.8078
 31
0.0
  0
LINE
  8
0
 62
     0
 10
39.1943
 20
67.8078
 30
0.0
 11
39.1943
 21
81.8074
 31
0.0
  0
LINE
  8
0
 62
     0
 10
58.2443
 20
81.8074
 30
0.0
 11
72.245
 21
81.8074
 31
0.0
  0
LINE
  8
0
 62
     0
 10
72.245
 20
81.8074
 30
0.0
 11
72.245
 21
67.8078
 31
0.0
  0
LINE
  8
0
 62
     0
 10
72.245
 20
67.8078
 30
0.0
 11
58.2443
 21
67.8078
 31
0.0
  0
LINE
  8
0
 62
     0
 10
58.2443
 20
67.8078
 30
0.0
 11
58.2443
 21
81.8074
 31
0.0
  0
LINE
  8
0
 62
     0
 10
77.2943
 20
81.8074
 30
0.0
 11
91.295
 21
81.8074
 31
0.0
  0
LINE
  8
0
 62
     0
 10
91.295
 20
81.8074
 30
0.0
 11
91.295
 21
67.8078
 31
0.0
  0
LINE
  8
0
 62
     0
 10
91.295
 20
67.8078
 30
0.0
 11
77.2943
 21
67.8078
 31
0.0
  0
LINE
  8
0
 62
     0
 10
77.2943
 20
67.8078
 30
0.0
 11
77.2943
 21
81.8074
 31
0.0
  0
LINE
  8
0
 62
     0
 10
96.3443
 20
81.8074
 30
0.0
 11
110.345
 21
81.8074
 31
0.0
  0
LINE
  8
0
 62
     0
 10
110.345
 20
81.8074
 30
0.0
 11
110.345
 21
67.8078
 31
0.0
  0
LINE
  8
0
 62
     0
 10
110.345
 20
67.8078
 30
0.0
 11
96.3443
 21
67.8078
 31
0.0
  0
LINE
  8
0
 62
     0
 10
96.3443
 20
67.8078
 30
0.0
 11
96.3443
 21
81.8074
 31
0.0
  0
LINE
  8
0
 62
     0
 10
115.394
 20
81.8074
 30
0.0
 11
129.395
 21
81.8074
 31
0.0
  0
LINE
  8
0
 62
     0
 10
129.395
 20
81.8074
 30
0.0
 11
129.395
 21
67.8078
 31
0.0
  0
LINE
  8
0
 62
     0
 10
129.395
 20
67.8078
 30
0.0
 11
115.394
 21
67.8078
 31
0.0
  0
LINE
  8
0
 62
     0
 10
115.394
 20
67.8078
 30
0.0
 11
115.394
 21
81.8074
 31
0.0
  0
LINE
  8
0
 62
     0
 10
134.445
 20
81.8074
 30
0.0
 11
148.445
 21
81.8074
 31
0.0
  0
LINE
  8
0
 62
     0
 10
148.445
 20
81.8074
 30
0.0
 11
148.445
 21
67.8078
 31
0.0
  0
LINE
  8
0
 62
     0
 10
148.445
 20
67.8078
 30
0.0
 11
134.445
 21
67.8078
 31
0.0
  0
LINE
  8
0
 62
     0
 10
134.445
 20
67.8078
 30
0.0
 11
134.445
 21
81.8074
 31
0.0
  0
LINE
  8
0
 62
     0
 10
158.258
 20
81.8074
 30
0.0
 11
172.258
 21
81.8074
 31
0.0
  0
LINE
  8
0
 62
     0
 10
172.258
 20
81.8074
 30
0.0
 11
172.258
 21
67.8078
 31
0.0
  0
LINE
  8
0
 62
     0
 10
172.258
 20
67.8078
 30
0.0
 11
158.258
 21
67.8078
 31
0.0
  0
LINE
  8
0
 62
     0
 10
158.258
 20
67.8078
 30
0.0
 11
158.258
 21
81.8074
 31
0.0
  0
LINE
  8
0
 62
     0
 10
182.07
 20
81.8074
 30
0.0
 11
196.07
 21
81.8074
 31
0.0
  0
LINE
  8
0
 62
     0
 10
196.07
 20
81.8074
 30
0.0
 11
196.07
 21
67.8078
 31
0.0
  0
LINE
  8
0
 62
     0
 10
196.07
 20
67.8078
 30
0.0
 11
182.07
 21
67.8078
 31
0.0
  0
LINE
  8
0
 62
     0
 10
182.07
 20
67.8078
 30
0.0
 11
182.07
 21
81.8074
 31
0.0
  0
LINE
  8
0
 62
     0
 10
146.944
 20
100.307
 30
0.0
 11
150.245
 21
100.307
 31
0.0
  0
LINE
  8
0
 62
     0
 10
150.245
 20
100.307
 30
0.0
 11
150.245
 21
86.1067
 31
0.0
  0
LINE
  8
0
 62
     0
 10
150.245
 20
86.1067
 30
0.0
 11
146.944
 21
86.1067
 31
0.0
  0
LINE
  8
0
 62
     0
 10
146.944
 20
86.1067
 30
0.0
 11
146.944
 21
100.307
 31
0.0
  0
LINE
  8
0
 62
     0
 10
170.744
 20
100.307
 30
0.0
 11
174.045
 21
100.307
 31
0.0
  0
LINE
  8
0
 62
     0
 10
174.045
 20
100.307
 30
0.0
 11
174.045
 21
86.1067
 31
0.0
  0
LINE
  8
0
 62
     0
 10
174.045
 20
86.1067
 30
0.0
 11
170.744
 21
86.1067
 31
0.0
  0
LINE
  8
0
 62
     0
 10
170.744
 20
86.1067
 30
0.0
 11
170.744
 21
100.307
 31
0.0
  0
LINE
  8
0
 62
     0
 10
10.6192
 20
100.858
 30
0.0
 11
24.62
 21
100.858
 31
0.0
  0
LINE
  8
0
 62
     0
 10
24.62
 20
100.858
 30
0.0
 11
24.62
 21
86.8578
 31
0.0
  0
LINE
  8
0
 62
     0
 10
24.62
 20
86.8578
 30
0.0
 11
10.6192
 21
86.8578
 31
0.0
  0
LINE
  8
0
 62
     0
 10
10.6192
 20
86.8578
 30
0.0
 11
10.6192
 21
100.858
 31
0.0
  0
LINE
  8
0
 62
     0
 10
29.6706
 20
100.858
 30
0.0
 11
43.67
 21
100.858
 31
0.0
  0
LINE
  8
0
 62
     0
 10
43.67
 20
100.858
 30
0.0
 11
43.67
 21
86.8578
 31
0.0
  0
LINE
  8
0
 62
     0
 10
43.67
 20
86.8578
 30
0.0
 11
29.6706
 21
86.8578
 31
0.0
  0
LINE
  8
0
 62
     0
 10
29.6706
 20
86.8578
 30
0.0
 11
29.6706
 21
100.858
 31
0.0
  0
LINE
  8
0
 62
     0
 10
48.7204
 20
100.858
 30
0.0
 11
62.72
 21
100.858
 31
0.0
  0
LINE
  8
0
 62
     0
 10
62.72
 20
100.858
 30
0.0
 11
62.72
 21
86.8578
 31
0.0
  0
LINE
  8
0
 62
     0
 10
62.72
 20
86.8578
 30
0.0
 11
48.7204
 21
86.8578
 31
0.0
  0
LINE
  8
0
 62
     0
 10
48.7204
 20
86.8578
 30
0.0
 11
48.7204
 21
100.858
 31
0.0
  0
LINE
  8
0
 62
     0
 10
67.7704
 20
100.858
 30
0.0
 11
81.77
 21
100.858
 31
0.0
  0
LINE
  8
0
 62
     0
 10
81.77
 20
100.858
 30
0.0
 11
81.77
 21
86.8578
 31
0.0
  0
LINE
  8
0
 62
     0
 10
81.77
 20
86.8578
 30
0.0
 11
67.7704
 21
86.8578
 31
0.0
  0
LINE
  8
0
 62
     0
 10
67.7704
 20
86.8578
 30
0.0
 11
67.7704
 21
100.858
 31
0.0
  0
LINE
  8
0
 62
     0
 10
86.8204
 20
100.858
 30
0.0
 11
100.82
 21
100.858
 31
0.0
  0
LINE
  8
0
 62
     0
 10
100.82
 20
100.858
 30
0.0
 11
100.82
 21
86.8578
 31
0.0
  0
LINE
  8
0
 62
     0
 10
100.82
 20
86.8578
 30
0.0
 11
86.8204
 21
86.8578
 31
0.0
  0
LINE
  8
0
 62
     0
 10
86.8204
 20
86.8578
 30
0.0
 11
86.8204
 21
100.858
 31
0.0
  0
LINE
  8
0
 62
     0
 10
105.869
 20
100.858
 30
0.0
 11
119.87
 21
100.858
 31
0.0
  0
LINE
  8
0
 62
     0
 10
119.87
 20
100.858
 30
0.0
 11
119.87
 21
86.8578
 31
0.0
  0
LINE
  8
0
 62
     0
 10
119.87
 20
86.8578
 30
0.0
 11
105.869
 21
86.8578
 31
0.0
  0
LINE
  8
0
 62
     0
 10
105.869
 20
86.8578
 30
0.0
 11
105.869
 21
100.858
 31
0.0
  0
LINE
  8
0
 62
     0
 10
124.919
 20
100.858
 30
0.0
 11
138.92
 21
100.858
 31
0.0
  0
LINE
  8
0
 62
     0
 10
138.92
 20
100.858
 30
0.0
 11
138.92
 21
86.8578
 31
0.0
  0
LINE
  8
0
 62
     0
 10
138.92
 20
86.8578
 30
0.0
 11
124.919
 21
86.8578
 31
0.0
  0
LINE
  8
0
 62
     0
 10
124.919
 20
86.8578
 30
0.0
 11
124.919
 21
100.858
 31
0.0
  0
LINE
  8
0
 62
     0
 10
153.494
 20
100.858
 30
0.0
 11
167.495
 21
100.858
 31
0.0
  0
LINE
  8
0
 62
     0
 10
167.495
 20
100.858
 30
0.0
 11
167.495
 21
86.8578
 31
0.0
  0
LINE
  8
0
 62
     0
 10
167.495
 20
86.8578
 30
0.0
 11
153.494
 21
86.8578
 31
0.0
  0
LINE
  8
0
 62
     0
 10
153.494
 20
86.8578
 30
0.0
 11
153.494
 21
100.858
 31
0.0
  0
LINE
  8
0
 62
     0
 10
182.069
 20
100.858
 30
0.0
 11
196.07
 21
100.858
 31
0.0
  0
LINE
  8
0
 62
     0
 10
196.07
 20
100.858
 30
0.0
 11
196.07
 21
86.8578
 31
0.0
  0
LINE
  8
0
 62
     0
 10
196.07
 20
86.8578
 30
0.0
 11
182.069
 21
86.8578
 31
0.0
  0
LINE
  8
0
 62
     0
 10
182.069
 20
86.8578
 30
0.0
 11
182.069
 21
100.858
 31
0.0
  0
ENDSEC
  0
EOF
