  0
SECTION
  2
HEADER
  9
$ACADVER
  1
AC1009
  9
$FILLMODE
 70
 0
  9
$SPLFRAME
 70
 1
  9
$EXTMIN
 10
0
 20
0
 30
0.0
  9
$EXTMAX
 10
1058.33
 20
1058.33
 30
0.0
  0
ENDSEC
  0
SECTION
  2
TABLES
  0
TABLE
  2
LAYER
 70
1
  0
LAYER
  2
0
 70
     0
 62
     7
  6
CONTINUOUS
  0
ENDTAB
  0
ENDSEC
  0
SECTION
  2
ENTITIES
  0
LINE
  8
0
 62
     0
 10
190.934
 20
129.374
 30
0.0
 11
191.326
 21
129.359
 31
0.0
  0
LINE
  8
0
 62
     0
 10
191.326
 20
129.359
 30
0.0
 11
191.715
 21
129.312
 31
0.0
  0
LINE
  8
0
 62
     0
 10
191.715
 20
129.312
 30
0.0
 11
192.1
 21
129.237
 31
0.0
  0
LINE
  8
0
 62
     0
 10
192.1
 20
129.237
 30
0.0
 11
192.479
 21
129.13
 31
0.0
  0
LINE
  8
0
 62
     0
 10
192.479
 20
129.13
 30
0.0
 11
192.847
 21
128.994
 31
0.0
  0
LINE
  8
0
 62
     0
 10
192.847
 20
128.994
 30
0.0
 11
193.204
 21
128.83
 31
0.0
  0
LINE
  8
0
 62
     0
 10
193.204
 20
128.83
 30
0.0
 11
193.546
 21
128.639
 31
0.0
  0
LINE
  8
0
 62
     0
 10
193.546
 20
128.639
 30
0.0
 11
193.872
 21
128.419
 31
0.0
  0
LINE
  8
0
 62
     0
 10
193.872
 20
128.419
 30
0.0
 11
194.181
 21
128.177
 31
0.0
  0
LINE
  8
0
 62
     0
 10
194.181
 20
128.177
 30
0.0
 11
194.47
 21
127.909
 31
0.0
  0
LINE
  8
0
 62
     0
 10
194.47
 20
127.909
 30
0.0
 11
194.736
 21
127.622
 31
0.0
  0
LINE
  8
0
 62
     0
 10
194.736
 20
127.622
 30
0.0
 11
194.979
 21
127.313
 31
0.0
  0
LINE
  8
0
 62
     0
 10
194.979
 20
127.313
 30
0.0
 11
195.197
 21
126.988
 31
0.0
  0
LINE
  8
0
 62
     0
 10
195.197
 20
126.988
 30
0.0
 11
195.388
 21
126.644
 31
0.0
  0
LINE
  8
0
 62
     0
 10
195.388
 20
126.644
 30
0.0
 11
195.552
 21
126.287
 31
0.0
  0
LINE
  8
0
 62
     0
 10
195.552
 20
126.287
 30
0.0
 11
195.688
 21
125.92
 31
0.0
  0
LINE
  8
0
 62
     0
 10
195.688
 20
125.92
 30
0.0
 11
195.796
 21
125.542
 31
0.0
  0
LINE
  8
0
 62
     0
 10
195.796
 20
125.542
 30
0.0
 11
195.872
 21
125.157
 31
0.0
  0
LINE
  8
0
 62
     0
 10
195.872
 20
125.157
 30
0.0
 11
195.918
 21
124.768
 31
0.0
  0
LINE
  8
0
 62
     0
 10
195.918
 20
124.768
 30
0.0
 11
195.933
 21
124.374
 31
0.0
  0
LINE
  8
0
 62
     0
 10
195.933
 20
124.374
 30
0.0
 11
195.933
 21
5.21035
 31
0.0
  0
LINE
  8
0
 62
     0
 10
195.933
 20
5.21035
 30
0.0
 11
195.918
 21
4.81902
 31
0.0
  0
LINE
  8
0
 62
     0
 10
195.918
 20
4.81902
 30
0.0
 11
195.872
 21
4.42902
 31
0.0
  0
LINE
  8
0
 62
     0
 10
195.872
 20
4.42902
 30
0.0
 11
195.796
 21
4.04453
 31
0.0
  0
LINE
  8
0
 62
     0
 10
195.796
 20
4.04453
 30
0.0
 11
195.688
 21
3.66557
 31
0.0
  0
LINE
  8
0
 62
     0
 10
195.688
 20
3.66557
 30
0.0
 11
195.552
 21
3.29765
 31
0.0
  0
LINE
  8
0
 62
     0
 10
195.552
 20
3.29765
 30
0.0
 11
195.388
 21
2.94073
 31
0.0
  0
LINE
  8
0
 62
     0
 10
195.388
 20
2.94073
 30
0.0
 11
195.197
 21
2.59898
 31
0.0
  0
LINE
  8
0
 62
     0
 10
195.197
 20
2.59898
 30
0.0
 11
194.979
 21
2.27239
 31
0.0
  0
LINE
  8
0
 62
     0
 10
194.979
 20
2.27239
 30
0.0
 11
194.736
 21
1.96371
 31
0.0
  0
LINE
  8
0
 62
     0
 10
194.736
 20
1.96371
 30
0.0
 11
194.47
 21
1.67432
 31
0.0
  0
LINE
  8
0
 62
     0
 10
194.47
 20
1.67432
 30
0.0
 11
194.181
 21
1.40836
 31
0.0
  0
LINE
  8
0
 62
     0
 10
194.181
 20
1.40836
 30
0.0
 11
193.872
 21
1.16582
 31
0.0
  0
LINE
  8
0
 62
     0
 10
193.872
 20
1.16582
 30
0.0
 11
193.546
 21
0.94809
 31
0.0
  0
LINE
  8
0
 62
     0
 10
193.546
 20
0.94809
 30
0.0
 11
193.204
 21
0.756543
 31
0.0
  0
LINE
  8
0
 62
     0
 10
193.204
 20
0.756543
 30
0.0
 11
192.847
 21
0.592557
 31
0.0
  0
LINE
  8
0
 62
     0
 10
192.847
 20
0.592557
 30
0.0
 11
192.479
 21
0.456131
 31
0.0
  0
LINE
  8
0
 62
     0
 10
192.479
 20
0.456131
 30
0.0
 11
192.1
 21
0.348644
 31
0.0
  0
LINE
  8
0
 62
     0
 10
192.1
 20
0.348644
 30
0.0
 11
191.715
 21
0.272852
 31
0.0
  0
LINE
  8
0
 62
     0
 10
191.715
 20
0.272852
 30
0.0
 11
191.326
 21
0.225998
 31
0.0
  0
LINE
  8
0
 62
     0
 10
191.326
 20
0.225998
 30
0.0
 11
190.934
 21
0.21084
 31
0.0
  0
LINE
  8
0
 62
     0
 10
190.934
 20
0.21084
 30
0.0
 11
5.09598
 21
0.21084
 31
0.0
  0
LINE
  8
0
 62
     0
 10
5.09598
 20
0.21084
 30
0.0
 11
4.70186
 21
0.225998
 31
0.0
  0
LINE
  8
0
 62
     0
 10
4.70186
 20
0.225998
 30
0.0
 11
4.3119
 21
0.272852
 31
0.0
  0
LINE
  8
0
 62
     0
 10
4.3119
 20
0.272852
 30
0.0
 11
3.9274
 21
0.348644
 31
0.0
  0
LINE
  8
0
 62
     0
 10
3.9274
 20
0.348644
 30
0.0
 11
3.54983
 21
0.456131
 31
0.0
  0
LINE
  8
0
 62
     0
 10
3.54983
 20
0.456131
 30
0.0
 11
3.18189
 21
0.592557
 31
0.0
  0
LINE
  8
0
 62
     0
 10
3.18189
 20
0.592557
 30
0.0
 11
2.82498
 21
0.756543
 31
0.0
  0
LINE
  8
0
 62
     0
 10
2.82498
 20
0.756543
 30
0.0
 11
2.48185
 21
0.94809
 31
0.0
  0
LINE
  8
0
 62
     0
 10
2.48185
 20
0.94809
 30
0.0
 11
2.15663
 21
1.16582
 31
0.0
  0
LINE
  8
0
 62
     0
 10
2.15663
 20
1.16582
 30
0.0
 11
1.84795
 21
1.40836
 31
0.0
  0
LINE
  8
0
 62
     0
 10
1.84795
 20
1.40836
 30
0.0
 11
1.55994
 21
1.67432
 31
0.0
  0
LINE
  8
0
 62
     0
 10
1.55994
 20
1.67432
 30
0.0
 11
1.2926
 21
1.96371
 31
0.0
  0
LINE
  8
0
 62
     0
 10
1.2926
 20
1.96371
 30
0.0
 11
1.05006
 21
2.27239
 31
0.0
  0
LINE
  8
0
 62
     0
 10
1.05006
 20
2.27239
 30
0.0
 11
0.830957
 21
2.59898
 31
0.0
  0
LINE
  8
0
 62
     0
 10
0.830957
 20
2.59898
 30
0.0
 11
0.63941
 21
2.94073
 31
0.0
  0
LINE
  8
0
 62
     0
 10
0.63941
 20
2.94073
 30
0.0
 11
0.475424
 21
3.29765
 31
0.0
  0
LINE
  8
0
 62
     0
 10
0.475424
 20
3.29765
 30
0.0
 11
0.338998
 21
3.66557
 31
0.0
  0
LINE
  8
0
 62
     0
 10
0.338998
 20
3.66557
 30
0.0
 11
0.232888
 21
4.04453
 31
0.0
  0
LINE
  8
0
 62
     0
 10
0.232888
 20
4.04453
 30
0.0
 11
0.157097
 21
4.42902
 31
0.0
  0
LINE
  8
0
 62
     0
 10
0.157097
 20
4.42902
 30
0.0
 11
0.110243
 21
4.81902
 31
0.0
  0
LINE
  8
0
 62
     0
 10
0.110243
 20
4.81902
 30
0.0
 11
0.0950846
 21
5.21035
 31
0.0
  0
LINE
  8
0
 62
     0
 10
0.0950846
 20
5.21035
 30
0.0
 11
0.0950846
 21
124.374
 31
0.0
  0
LINE
  8
0
 62
     0
 10
0.0950846
 20
124.374
 30
0.0
 11
0.110243
 21
124.768
 31
0.0
  0
LINE
  8
0
 62
     0
 10
0.110243
 20
124.768
 30
0.0
 11
0.157097
 21
125.157
 31
0.0
  0
LINE
  8
0
 62
     0
 10
0.157097
 20
125.157
 30
0.0
 11
0.232888
 21
125.542
 31
0.0
  0
LINE
  8
0
 62
     0
 10
0.232888
 20
125.542
 30
0.0
 11
0.338998
 21
125.92
 31
0.0
  0
LINE
  8
0
 62
     0
 10
0.338998
 20
125.92
 30
0.0
 11
0.475424
 21
126.287
 31
0.0
  0
LINE
  8
0
 62
     0
 10
0.475424
 20
126.287
 30
0.0
 11
0.63941
 21
126.644
 31
0.0
  0
LINE
  8
0
 62
     0
 10
0.63941
 20
126.644
 30
0.0
 11
0.830957
 21
126.988
 31
0.0
  0
LINE
  8
0
 62
     0
 10
0.830957
 20
126.988
 30
0.0
 11
1.05006
 21
127.313
 31
0.0
  0
LINE
  8
0
 62
     0
 10
1.05006
 20
127.313
 30
0.0
 11
1.2926
 21
127.622
 31
0.0
  0
LINE
  8
0
 62
     0
 10
1.2926
 20
127.622
 30
0.0
 11
1.55994
 21
127.909
 31
0.0
  0
LINE
  8
0
 62
     0
 10
1.55994
 20
127.909
 30
0.0
 11
1.84795
 21
128.177
 31
0.0
  0
LINE
  8
0
 62
     0
 10
1.84795
 20
128.177
 30
0.0
 11
2.15663
 21
128.419
 31
0.0
  0
LINE
  8
0
 62
     0
 10
2.15663
 20
128.419
 30
0.0
 11
2.48185
 21
128.639
 31
0.0
  0
LINE
  8
0
 62
     0
 10
2.48185
 20
128.639
 30
0.0
 11
2.82498
 21
128.83
 31
0.0
  0
LINE
  8
0
 62
     0
 10
2.82498
 20
128.83
 30
0.0
 11
3.18189
 21
128.994
 31
0.0
  0
LINE
  8
0
 62
     0
 10
3.18189
 20
128.994
 30
0.0
 11
3.54983
 21
129.13
 31
0.0
  0
LINE
  8
0
 62
     0
 10
3.54983
 20
129.13
 30
0.0
 11
3.9274
 21
129.237
 31
0.0
  0
LINE
  8
0
 62
     0
 10
3.9274
 20
129.237
 30
0.0
 11
4.3119
 21
129.312
 31
0.0
  0
LINE
  8
0
 62
     0
 10
4.3119
 20
129.312
 30
0.0
 11
4.70186
 21
129.359
 31
0.0
  0
LINE
  8
0
 62
     0
 10
4.70186
 20
129.359
 30
0.0
 11
5.09598
 21
129.374
 31
0.0
  0
LINE
  8
0
 62
     0
 10
5.09598
 20
129.374
 30
0.0
 11
190.934
 21
129.374
 31
0.0
  0
LINE
  8
0
 62
     0
 10
43.4386
 20
21.7372
 30
0.0
 11
43.4386
 21
17.0367
 31
0.0
  0
LINE
  8
0
 62
     0
 10
43.4386
 20
17.0367
 30
0.0
 11
41.8137
 21
17.0367
 31
0.0
  0
LINE
  8
0
 62
     0
 10
41.8137
 20
17.0367
 30
0.0
 11
41.8137
 21
20.2668
 31
0.0
  0
LINE
  8
0
 62
     0
 10
41.8137
 20
20.2668
 30
0.0
 11
40.0886
 21
20.2668
 31
0.0
  0
LINE
  8
0
 62
     0
 10
40.0886
 20
20.2668
 30
0.0
 11
40.0886
 21
21.1873
 31
0.0
  0
LINE
  8
0
 62
     0
 10
40.0886
 20
21.1873
 30
0.0
 11
36.8886
 21
21.1873
 31
0.0
  0
LINE
  8
0
 62
     0
 10
36.8886
 20
21.1873
 30
0.0
 11
36.8886
 21
20.2668
 31
0.0
  0
LINE
  8
0
 62
     0
 10
36.8886
 20
20.2668
 30
0.0
 11
35.1634
 21
20.2668
 31
0.0
  0
LINE
  8
0
 62
     0
 10
35.1634
 20
20.2668
 30
0.0
 11
35.1634
 21
17.0367
 31
0.0
  0
LINE
  8
0
 62
     0
 10
35.1634
 20
17.0367
 30
0.0
 11
34.3379
 21
17.0367
 31
0.0
  0
LINE
  8
0
 62
     0
 10
34.3379
 20
17.0367
 30
0.0
 11
34.3379
 21
14.3371
 31
0.0
  0
LINE
  8
0
 62
     0
 10
34.3379
 20
14.3371
 30
0.0
 11
35.1634
 21
14.3371
 31
0.0
  0
LINE
  8
0
 62
     0
 10
35.1634
 20
14.3371
 30
0.0
 11
35.1634
 21
8.06704
 31
0.0
  0
LINE
  8
0
 62
     0
 10
35.1634
 20
8.06704
 30
0.0
 11
36.8886
 21
8.06704
 31
0.0
  0
LINE
  8
0
 62
     0
 10
36.8886
 20
8.06704
 30
0.0
 11
36.8886
 21
7.08723
 31
0.0
  0
LINE
  8
0
 62
     0
 10
36.8886
 20
7.08723
 30
0.0
 11
40.0886
 21
7.08723
 31
0.0
  0
LINE
  8
0
 62
     0
 10
40.0886
 20
7.08723
 30
0.0
 11
40.0886
 21
8.06704
 31
0.0
  0
LINE
  8
0
 62
     0
 10
40.0886
 20
8.06704
 30
0.0
 11
41.8137
 21
8.06704
 31
0.0
  0
LINE
  8
0
 62
     0
 10
41.8137
 20
8.06704
 30
0.0
 11
41.8137
 21
12.5374
 31
0.0
  0
LINE
  8
0
 62
     0
 10
41.8137
 20
12.5374
 30
0.0
 11
43.4386
 21
12.5374
 31
0.0
  0
LINE
  8
0
 62
     0
 10
43.4386
 20
12.5374
 30
0.0
 11
43.4386
 21
7.83689
 31
0.0
  0
LINE
  8
0
 62
     0
 10
43.4386
 20
7.83689
 30
0.0
 11
57.3387
 21
7.83689
 31
0.0
  0
LINE
  8
0
 62
     0
 10
57.3387
 20
7.83689
 30
0.0
 11
57.3387
 21
12.5374
 31
0.0
  0
LINE
  8
0
 62
     0
 10
57.3387
 20
12.5374
 30
0.0
 11
58.9636
 21
12.5374
 31
0.0
  0
LINE
  8
0
 62
     0
 10
58.9636
 20
12.5374
 30
0.0
 11
58.9636
 21
8.06704
 31
0.0
  0
LINE
  8
0
 62
     0
 10
58.9636
 20
8.06704
 30
0.0
 11
60.6887
 21
8.06704
 31
0.0
  0
LINE
  8
0
 62
     0
 10
60.6887
 20
8.06704
 30
0.0
 11
60.6887
 21
7.08723
 31
0.0
  0
LINE
  8
0
 62
     0
 10
60.6887
 20
7.08723
 30
0.0
 11
63.8888
 21
7.08723
 31
0.0
  0
LINE
  8
0
 62
     0
 10
63.8888
 20
7.08723
 30
0.0
 11
63.8888
 21
8.06704
 31
0.0
  0
LINE
  8
0
 62
     0
 10
63.8888
 20
8.06704
 30
0.0
 11
65.6138
 21
8.06704
 31
0.0
  0
LINE
  8
0
 62
     0
 10
65.6138
 20
8.06704
 30
0.0
 11
65.6138
 21
14.3371
 31
0.0
  0
LINE
  8
0
 62
     0
 10
65.6138
 20
14.3371
 30
0.0
 11
66.4379
 21
14.3371
 31
0.0
  0
LINE
  8
0
 62
     0
 10
66.4379
 20
14.3371
 30
0.0
 11
66.4379
 21
17.0367
 31
0.0
  0
LINE
  8
0
 62
     0
 10
66.4379
 20
17.0367
 30
0.0
 11
65.6138
 21
17.0367
 31
0.0
  0
LINE
  8
0
 62
     0
 10
65.6138
 20
17.0367
 30
0.0
 11
65.6138
 21
20.2668
 31
0.0
  0
LINE
  8
0
 62
     0
 10
65.6138
 20
20.2668
 30
0.0
 11
63.8888
 21
20.2668
 31
0.0
  0
LINE
  8
0
 62
     0
 10
63.8888
 20
20.2668
 30
0.0
 11
63.8888
 21
21.1873
 31
0.0
  0
LINE
  8
0
 62
     0
 10
63.8888
 20
21.1873
 30
0.0
 11
60.6887
 21
21.1873
 31
0.0
  0
LINE
  8
0
 62
     0
 10
60.6887
 20
21.1873
 30
0.0
 11
60.6887
 21
20.2668
 31
0.0
  0
LINE
  8
0
 62
     0
 10
60.6887
 20
20.2668
 30
0.0
 11
58.9636
 21
20.2668
 31
0.0
  0
LINE
  8
0
 62
     0
 10
58.9636
 20
20.2668
 30
0.0
 11
58.9636
 21
17.0367
 31
0.0
  0
LINE
  8
0
 62
     0
 10
58.9636
 20
17.0367
 30
0.0
 11
57.3387
 21
17.0367
 31
0.0
  0
LINE
  8
0
 62
     0
 10
57.3387
 20
17.0367
 30
0.0
 11
57.3387
 21
21.7372
 31
0.0
  0
LINE
  8
0
 62
     0
 10
57.3387
 20
21.7372
 30
0.0
 11
43.4386
 21
21.7372
 31
0.0
  0
LINE
  8
0
 62
     0
 10
7.72114
 20
21.7372
 30
0.0
 11
21.6201
 21
21.7372
 31
0.0
  0
LINE
  8
0
 62
     0
 10
21.6201
 20
21.7372
 30
0.0
 11
21.6201
 21
7.83689
 31
0.0
  0
LINE
  8
0
 62
     0
 10
21.6201
 20
7.83689
 30
0.0
 11
7.72114
 21
7.83689
 31
0.0
  0
LINE
  8
0
 62
     0
 10
7.72114
 20
7.83689
 30
0.0
 11
7.72114
 21
21.7372
 31
0.0
  0
LINE
  8
0
 62
     0
 10
79.1573
 20
21.7372
 30
0.0
 11
93.0575
 21
21.7372
 31
0.0
  0
LINE
  8
0
 62
     0
 10
93.0575
 20
21.7372
 30
0.0
 11
93.0575
 21
7.83689
 31
0.0
  0
LINE
  8
0
 62
     0
 10
93.0575
 20
7.83689
 30
0.0
 11
79.1573
 21
7.83689
 31
0.0
  0
LINE
  8
0
 62
     0
 10
79.1573
 20
7.83689
 30
0.0
 11
79.1573
 21
21.7372
 31
0.0
  0
LINE
  8
0
 62
     0
 10
98.2073
 20
21.7372
 30
0.0
 11
112.107
 21
21.7372
 31
0.0
  0
LINE
  8
0
 62
     0
 10
112.107
 20
21.7372
 30
0.0
 11
112.107
 21
7.83689
 31
0.0
  0
LINE
  8
0
 62
     0
 10
112.107
 20
7.83689
 30
0.0
 11
98.2073
 21
7.83689
 31
0.0
  0
LINE
  8
0
 62
     0
 10
98.2073
 20
7.83689
 30
0.0
 11
98.2073
 21
21.7372
 31
0.0
  0
LINE
  8
0
 62
     0
 10
117.257
 20
21.7372
 30
0.0
 11
131.157
 21
21.7372
 31
0.0
  0
LINE
  8
0
 62
     0
 10
131.157
 20
21.7372
 30
0.0
 11
131.157
 21
7.83689
 31
0.0
  0
LINE
  8
0
 62
     0
 10
131.157
 20
7.83689
 30
0.0
 11
117.257
 21
7.83689
 31
0.0
  0
LINE
  8
0
 62
     0
 10
117.257
 20
7.83689
 30
0.0
 11
117.257
 21
21.7372
 31
0.0
  0
LINE
  8
0
 62
     0
 10
136.307
 20
21.7372
 30
0.0
 11
150.207
 21
21.7372
 31
0.0
  0
LINE
  8
0
 62
     0
 10
150.207
 20
21.7372
 30
0.0
 11
150.207
 21
7.83689
 31
0.0
  0
LINE
  8
0
 62
     0
 10
150.207
 20
7.83689
 30
0.0
 11
136.307
 21
7.83689
 31
0.0
  0
LINE
  8
0
 62
     0
 10
136.307
 20
7.83689
 30
0.0
 11
136.307
 21
21.7372
 31
0.0
  0
LINE
  8
0
 62
     0
 10
155.357
 20
21.7372
 30
0.0
 11
169.257
 21
21.7372
 31
0.0
  0
LINE
  8
0
 62
     0
 10
169.257
 20
21.7372
 30
0.0
 11
169.257
 21
7.83689
 31
0.0
  0
LINE
  8
0
 62
     0
 10
169.257
 20
7.83689
 30
0.0
 11
155.357
 21
7.83689
 31
0.0
  0
LINE
  8
0
 62
     0
 10
155.357
 20
7.83689
 30
0.0
 11
155.357
 21
21.7372
 31
0.0
  0
LINE
  8
0
 62
     0
 10
174.407
 20
21.7372
 30
0.0
 11
188.307
 21
21.7372
 31
0.0
  0
LINE
  8
0
 62
     0
 10
188.307
 20
21.7372
 30
0.0
 11
188.307
 21
7.83689
 31
0.0
  0
LINE
  8
0
 62
     0
 10
188.307
 20
7.83689
 30
0.0
 11
174.407
 21
7.83689
 31
0.0
  0
LINE
  8
0
 62
     0
 10
174.407
 20
7.83689
 30
0.0
 11
174.407
 21
21.7372
 31
0.0
  0
LINE
  8
0
 62
     0
 10
7.72114
 20
40.7871
 30
0.0
 11
21.6201
 21
40.7871
 31
0.0
  0
LINE
  8
0
 62
     0
 10
21.6201
 20
40.7871
 30
0.0
 11
21.6201
 21
26.8869
 31
0.0
  0
LINE
  8
0
 62
     0
 10
21.6201
 20
26.8869
 30
0.0
 11
7.72114
 21
26.8869
 31
0.0
  0
LINE
  8
0
 62
     0
 10
7.72114
 20
26.8869
 30
0.0
 11
7.72114
 21
40.7871
 31
0.0
  0
LINE
  8
0
 62
     0
 10
26.7711
 20
40.7871
 30
0.0
 11
40.67
 21
40.7871
 31
0.0
  0
LINE
  8
0
 62
     0
 10
40.67
 20
40.7871
 30
0.0
 11
40.67
 21
26.8869
 31
0.0
  0
LINE
  8
0
 62
     0
 10
40.67
 20
26.8869
 30
0.0
 11
26.7711
 21
26.8869
 31
0.0
  0
LINE
  8
0
 62
     0
 10
26.7711
 20
26.8869
 30
0.0
 11
26.7711
 21
40.7871
 31
0.0
  0
LINE
  8
0
 62
     0
 10
45.8198
 20
40.7871
 30
0.0
 11
59.72
 21
40.7871
 31
0.0
  0
LINE
  8
0
 62
     0
 10
59.72
 20
40.7871
 30
0.0
 11
59.72
 21
26.8869
 31
0.0
  0
LINE
  8
0
 62
     0
 10
59.72
 20
26.8869
 30
0.0
 11
45.8198
 21
26.8869
 31
0.0
  0
LINE
  8
0
 62
     0
 10
45.8198
 20
26.8869
 30
0.0
 11
45.8198
 21
40.7871
 31
0.0
  0
LINE
  8
0
 62
     0
 10
64.8698
 20
40.7871
 30
0.0
 11
78.77
 21
40.7871
 31
0.0
  0
LINE
  8
0
 62
     0
 10
78.77
 20
40.7871
 30
0.0
 11
78.77
 21
26.8869
 31
0.0
  0
LINE
  8
0
 62
     0
 10
78.77
 20
26.8869
 30
0.0
 11
64.8698
 21
26.8869
 31
0.0
  0
LINE
  8
0
 62
     0
 10
64.8698
 20
26.8869
 30
0.0
 11
64.8698
 21
40.7871
 31
0.0
  0
LINE
  8
0
 62
     0
 10
83.9198
 20
40.7871
 30
0.0
 11
97.82
 21
40.7871
 31
0.0
  0
LINE
  8
0
 62
     0
 10
97.82
 20
40.7871
 30
0.0
 11
97.82
 21
26.8869
 31
0.0
  0
LINE
  8
0
 62
     0
 10
97.82
 20
26.8869
 30
0.0
 11
83.9198
 21
26.8869
 31
0.0
  0
LINE
  8
0
 62
     0
 10
83.9198
 20
26.8869
 30
0.0
 11
83.9198
 21
40.7871
 31
0.0
  0
LINE
  8
0
 62
     0
 10
102.97
 20
40.7871
 30
0.0
 11
116.87
 21
40.7871
 31
0.0
  0
LINE
  8
0
 62
     0
 10
116.87
 20
40.7871
 30
0.0
 11
116.87
 21
26.8869
 31
0.0
  0
LINE
  8
0
 62
     0
 10
116.87
 20
26.8869
 30
0.0
 11
102.97
 21
26.8869
 31
0.0
  0
LINE
  8
0
 62
     0
 10
102.97
 20
26.8869
 30
0.0
 11
102.97
 21
40.7871
 31
0.0
  0
LINE
  8
0
 62
     0
 10
129.164
 20
40.7871
 30
0.0
 11
143.064
 21
40.7871
 31
0.0
  0
LINE
  8
0
 62
     0
 10
143.064
 20
40.7871
 30
0.0
 11
143.064
 21
26.8869
 31
0.0
  0
LINE
  8
0
 62
     0
 10
143.064
 20
26.8869
 30
0.0
 11
129.164
 21
26.8869
 31
0.0
  0
LINE
  8
0
 62
     0
 10
129.164
 20
26.8869
 30
0.0
 11
129.164
 21
40.7871
 31
0.0
  0
LINE
  8
0
 62
     0
 10
155.357
 20
40.7871
 30
0.0
 11
169.257
 21
40.7871
 31
0.0
  0
LINE
  8
0
 62
     0
 10
169.257
 20
40.7871
 30
0.0
 11
169.257
 21
26.8869
 31
0.0
  0
LINE
  8
0
 62
     0
 10
169.257
 20
26.8869
 30
0.0
 11
155.357
 21
26.8869
 31
0.0
  0
LINE
  8
0
 62
     0
 10
155.357
 20
26.8869
 30
0.0
 11
155.357
 21
40.7871
 31
0.0
  0
LINE
  8
0
 62
     0
 10
174.407
 20
40.7871
 30
0.0
 11
188.307
 21
40.7871
 31
0.0
  0
LINE
  8
0
 62
     0
 10
188.307
 20
40.7871
 30
0.0
 11
188.307
 21
26.8869
 31
0.0
  0
LINE
  8
0
 62
     0
 10
188.307
 20
26.8869
 30
0.0
 11
174.407
 21
26.8869
 31
0.0
  0
LINE
  8
0
 62
     0
 10
174.407
 20
26.8869
 30
0.0
 11
174.407
 21
40.7871
 31
0.0
  0
LINE
  8
0
 62
     0
 10
143.451
 20
59.8371
 30
0.0
 11
143.451
 21
55.1367
 31
0.0
  0
LINE
  8
0
 62
     0
 10
143.451
 20
55.1367
 30
0.0
 11
141.826
 21
55.1367
 31
0.0
  0
LINE
  8
0
 62
     0
 10
141.826
 20
55.1367
 30
0.0
 11
141.826
 21
58.3667
 31
0.0
  0
LINE
  8
0
 62
     0
 10
141.826
 20
58.3667
 30
0.0
 11
140.101
 21
58.3667
 31
0.0
  0
LINE
  8
0
 62
     0
 10
140.101
 20
58.3667
 30
0.0
 11
140.101
 21
59.2875
 31
0.0
  0
LINE
  8
0
 62
     0
 10
140.101
 20
59.2875
 30
0.0
 11
136.901
 21
59.2875
 31
0.0
  0
LINE
  8
0
 62
     0
 10
136.901
 20
59.2875
 30
0.0
 11
136.901
 21
58.3667
 31
0.0
  0
LINE
  8
0
 62
     0
 10
136.901
 20
58.3667
 30
0.0
 11
135.176
 21
58.3667
 31
0.0
  0
LINE
  8
0
 62
     0
 10
135.176
 20
58.3667
 30
0.0
 11
135.176
 21
55.1367
 31
0.0
  0
LINE
  8
0
 62
     0
 10
135.176
 20
55.1367
 30
0.0
 11
134.352
 21
55.1367
 31
0.0
  0
LINE
  8
0
 62
     0
 10
134.352
 20
55.1367
 30
0.0
 11
134.352
 21
52.4372
 31
0.0
  0
LINE
  8
0
 62
     0
 10
134.352
 20
52.4372
 30
0.0
 11
135.176
 21
52.4372
 31
0.0
  0
LINE
  8
0
 62
     0
 10
135.176
 20
52.4372
 30
0.0
 11
135.176
 21
46.167
 31
0.0
  0
LINE
  8
0
 62
     0
 10
135.176
 20
46.167
 30
0.0
 11
136.901
 21
46.167
 31
0.0
  0
LINE
  8
0
 62
     0
 10
136.901
 20
46.167
 30
0.0
 11
136.901
 21
45.1873
 31
0.0
  0
LINE
  8
0
 62
     0
 10
136.901
 20
45.1873
 30
0.0
 11
140.101
 21
45.1873
 31
0.0
  0
LINE
  8
0
 62
     0
 10
140.101
 20
45.1873
 30
0.0
 11
140.101
 21
46.167
 31
0.0
  0
LINE
  8
0
 62
     0
 10
140.101
 20
46.167
 30
0.0
 11
141.826
 21
46.167
 31
0.0
  0
LINE
  8
0
 62
     0
 10
141.826
 20
46.167
 30
0.0
 11
141.826
 21
50.6374
 31
0.0
  0
LINE
  8
0
 62
     0
 10
141.826
 20
50.6374
 30
0.0
 11
143.451
 21
50.6374
 31
0.0
  0
LINE
  8
0
 62
     0
 10
143.451
 20
50.6374
 30
0.0
 11
143.451
 21
45.937
 31
0.0
  0
LINE
  8
0
 62
     0
 10
143.451
 20
45.937
 30
0.0
 11
157.351
 21
45.937
 31
0.0
  0
LINE
  8
0
 62
     0
 10
157.351
 20
45.937
 30
0.0
 11
157.351
 21
50.6374
 31
0.0
  0
LINE
  8
0
 62
     0
 10
157.351
 20
50.6374
 30
0.0
 11
158.976
 21
50.6374
 31
0.0
  0
LINE
  8
0
 62
     0
 10
158.976
 20
50.6374
 30
0.0
 11
158.976
 21
46.167
 31
0.0
  0
LINE
  8
0
 62
     0
 10
158.976
 20
46.167
 30
0.0
 11
160.701
 21
46.167
 31
0.0
  0
LINE
  8
0
 62
     0
 10
160.701
 20
46.167
 30
0.0
 11
160.701
 21
45.1873
 31
0.0
  0
LINE
  8
0
 62
     0
 10
160.701
 20
45.1873
 30
0.0
 11
163.901
 21
45.1873
 31
0.0
  0
LINE
  8
0
 62
     0
 10
163.901
 20
45.1873
 30
0.0
 11
163.901
 21
46.167
 31
0.0
  0
LINE
  8
0
 62
     0
 10
163.901
 20
46.167
 30
0.0
 11
165.626
 21
46.167
 31
0.0
  0
LINE
  8
0
 62
     0
 10
165.626
 20
46.167
 30
0.0
 11
165.626
 21
52.4372
 31
0.0
  0
LINE
  8
0
 62
     0
 10
165.626
 20
52.4372
 30
0.0
 11
166.452
 21
52.4372
 31
0.0
  0
LINE
  8
0
 62
     0
 10
166.452
 20
52.4372
 30
0.0
 11
166.452
 21
55.1367
 31
0.0
  0
LINE
  8
0
 62
     0
 10
166.452
 20
55.1367
 30
0.0
 11
165.626
 21
55.1367
 31
0.0
  0
LINE
  8
0
 62
     0
 10
165.626
 20
55.1367
 30
0.0
 11
165.626
 21
58.3667
 31
0.0
  0
LINE
  8
0
 62
     0
 10
165.626
 20
58.3667
 30
0.0
 11
163.901
 21
58.3667
 31
0.0
  0
LINE
  8
0
 62
     0
 10
163.901
 20
58.3667
 30
0.0
 11
163.901
 21
59.2875
 31
0.0
  0
LINE
  8
0
 62
     0
 10
163.901
 20
59.2875
 30
0.0
 11
160.701
 21
59.2875
 31
0.0
  0
LINE
  8
0
 62
     0
 10
160.701
 20
59.2875
 30
0.0
 11
160.701
 21
58.3667
 31
0.0
  0
LINE
  8
0
 62
     0
 10
160.701
 20
58.3667
 30
0.0
 11
158.976
 21
58.3667
 31
0.0
  0
LINE
  8
0
 62
     0
 10
158.976
 20
58.3667
 30
0.0
 11
158.976
 21
55.1367
 31
0.0
  0
LINE
  8
0
 62
     0
 10
158.976
 20
55.1367
 30
0.0
 11
157.351
 21
55.1367
 31
0.0
  0
LINE
  8
0
 62
     0
 10
157.351
 20
55.1367
 30
0.0
 11
157.351
 21
59.8371
 31
0.0
  0
LINE
  8
0
 62
     0
 10
157.351
 20
59.8371
 30
0.0
 11
143.451
 21
59.8371
 31
0.0
  0
LINE
  8
0
 62
     0
 10
17.2461
 20
59.8371
 30
0.0
 11
31.1451
 21
59.8371
 31
0.0
  0
LINE
  8
0
 62
     0
 10
31.1451
 20
59.8371
 30
0.0
 11
31.1451
 21
45.937
 31
0.0
  0
LINE
  8
0
 62
     0
 10
31.1451
 20
45.937
 30
0.0
 11
17.2461
 21
45.937
 31
0.0
  0
LINE
  8
0
 62
     0
 10
17.2461
 20
45.937
 30
0.0
 11
17.2461
 21
59.8371
 31
0.0
  0
LINE
  8
0
 62
     0
 10
36.2962
 20
59.8371
 30
0.0
 11
50.195
 21
59.8371
 31
0.0
  0
LINE
  8
0
 62
     0
 10
50.195
 20
59.8371
 30
0.0
 11
50.195
 21
45.937
 31
0.0
  0
LINE
  8
0
 62
     0
 10
50.195
 20
45.937
 30
0.0
 11
36.2962
 21
45.937
 31
0.0
  0
LINE
  8
0
 62
     0
 10
36.2962
 20
45.937
 30
0.0
 11
36.2962
 21
59.8371
 31
0.0
  0
LINE
  8
0
 62
     0
 10
55.3462
 20
59.8371
 30
0.0
 11
69.245
 21
59.8371
 31
0.0
  0
LINE
  8
0
 62
     0
 10
69.245
 20
59.8371
 30
0.0
 11
69.245
 21
45.937
 31
0.0
  0
LINE
  8
0
 62
     0
 10
69.245
 20
45.937
 30
0.0
 11
55.3462
 21
45.937
 31
0.0
  0
LINE
  8
0
 62
     0
 10
55.3462
 20
45.937
 30
0.0
 11
55.3462
 21
59.8371
 31
0.0
  0
LINE
  8
0
 62
     0
 10
74.3962
 20
59.8371
 30
0.0
 11
88.295
 21
59.8371
 31
0.0
  0
LINE
  8
0
 62
     0
 10
88.295
 20
59.8371
 30
0.0
 11
88.295
 21
45.937
 31
0.0
  0
LINE
  8
0
 62
     0
 10
88.295
 20
45.937
 30
0.0
 11
74.3962
 21
45.937
 31
0.0
  0
LINE
  8
0
 62
     0
 10
74.3962
 20
45.937
 30
0.0
 11
74.3962
 21
59.8371
 31
0.0
  0
LINE
  8
0
 62
     0
 10
93.4462
 20
59.8371
 30
0.0
 11
107.345
 21
59.8371
 31
0.0
  0
LINE
  8
0
 62
     0
 10
107.345
 20
59.8371
 30
0.0
 11
107.345
 21
45.937
 31
0.0
  0
LINE
  8
0
 62
     0
 10
107.345
 20
45.937
 30
0.0
 11
93.4462
 21
45.937
 31
0.0
  0
LINE
  8
0
 62
     0
 10
93.4462
 20
45.937
 30
0.0
 11
93.4462
 21
59.8371
 31
0.0
  0
LINE
  8
0
 62
     0
 10
112.495
 20
59.8371
 30
0.0
 11
126.395
 21
59.8371
 31
0.0
  0
LINE
  8
0
 62
     0
 10
126.395
 20
59.8371
 30
0.0
 11
126.395
 21
45.937
 31
0.0
  0
LINE
  8
0
 62
     0
 10
126.395
 20
45.937
 30
0.0
 11
112.495
 21
45.937
 31
0.0
  0
LINE
  8
0
 62
     0
 10
112.495
 20
45.937
 30
0.0
 11
112.495
 21
59.8371
 31
0.0
  0
LINE
  8
0
 62
     0
 10
174.407
 20
59.8371
 30
0.0
 11
188.307
 21
59.8371
 31
0.0
  0
LINE
  8
0
 62
     0
 10
188.307
 20
59.8371
 30
0.0
 11
188.307
 21
45.937
 31
0.0
  0
LINE
  8
0
 62
     0
 10
188.307
 20
45.937
 30
0.0
 11
174.407
 21
45.937
 31
0.0
  0
LINE
  8
0
 62
     0
 10
174.407
 20
45.937
 30
0.0
 11
174.407
 21
59.8371
 31
0.0
  0
LINE
  8
0
 62
     0
 10
12.4823
 20
78.8871
 30
0.0
 11
26.3826
 21
78.8871
 31
0.0
  0
LINE
  8
0
 62
     0
 10
26.3826
 20
78.8871
 30
0.0
 11
26.3826
 21
64.987
 31
0.0
  0
LINE
  8
0
 62
     0
 10
26.3826
 20
64.987
 30
0.0
 11
12.4823
 21
64.987
 31
0.0
  0
LINE
  8
0
 62
     0
 10
12.4823
 20
64.987
 30
0.0
 11
12.4823
 21
78.8871
 31
0.0
  0
LINE
  8
0
 62
     0
 10
31.5323
 20
78.8871
 30
0.0
 11
45.4325
 21
78.8871
 31
0.0
  0
LINE
  8
0
 62
     0
 10
45.4325
 20
78.8871
 30
0.0
 11
45.4325
 21
64.987
 31
0.0
  0
LINE
  8
0
 62
     0
 10
45.4325
 20
64.987
 30
0.0
 11
31.5323
 21
64.987
 31
0.0
  0
LINE
  8
0
 62
     0
 10
31.5323
 20
64.987
 30
0.0
 11
31.5323
 21
78.8871
 31
0.0
  0
LINE
  8
0
 62
     0
 10
50.5823
 20
78.8871
 30
0.0
 11
64.4825
 21
78.8871
 31
0.0
  0
LINE
  8
0
 62
     0
 10
64.4825
 20
78.8871
 30
0.0
 11
64.4825
 21
64.987
 31
0.0
  0
LINE
  8
0
 62
     0
 10
64.4825
 20
64.987
 30
0.0
 11
50.5823
 21
64.987
 31
0.0
  0
LINE
  8
0
 62
     0
 10
50.5823
 20
64.987
 30
0.0
 11
50.5823
 21
78.8871
 31
0.0
  0
LINE
  8
0
 62
     0
 10
69.6323
 20
78.8871
 30
0.0
 11
83.5325
 21
78.8871
 31
0.0
  0
LINE
  8
0
 62
     0
 10
83.5325
 20
78.8871
 30
0.0
 11
83.5325
 21
64.987
 31
0.0
  0
LINE
  8
0
 62
     0
 10
83.5325
 20
64.987
 30
0.0
 11
69.6323
 21
64.987
 31
0.0
  0
LINE
  8
0
 62
     0
 10
69.6323
 20
64.987
 30
0.0
 11
69.6323
 21
78.8871
 31
0.0
  0
LINE
  8
0
 62
     0
 10
88.6823
 20
78.8871
 30
0.0
 11
102.582
 21
78.8871
 31
0.0
  0
LINE
  8
0
 62
     0
 10
102.582
 20
78.8871
 30
0.0
 11
102.582
 21
64.987
 31
0.0
  0
LINE
  8
0
 62
     0
 10
102.582
 20
64.987
 30
0.0
 11
88.6823
 21
64.987
 31
0.0
  0
LINE
  8
0
 62
     0
 10
88.6823
 20
64.987
 30
0.0
 11
88.6823
 21
78.8871
 31
0.0
  0
LINE
  8
0
 62
     0
 10
107.732
 20
78.8871
 30
0.0
 11
121.632
 21
78.8871
 31
0.0
  0
LINE
  8
0
 62
     0
 10
121.632
 20
78.8871
 30
0.0
 11
121.632
 21
64.987
 31
0.0
  0
LINE
  8
0
 62
     0
 10
121.632
 20
64.987
 30
0.0
 11
107.732
 21
64.987
 31
0.0
  0
LINE
  8
0
 62
     0
 10
107.732
 20
64.987
 30
0.0
 11
107.732
 21
78.8871
 31
0.0
  0
LINE
  8
0
 62
     0
 10
126.782
 20
78.8871
 30
0.0
 11
140.682
 21
78.8871
 31
0.0
  0
LINE
  8
0
 62
     0
 10
140.682
 20
78.8871
 30
0.0
 11
140.682
 21
64.987
 31
0.0
  0
LINE
  8
0
 62
     0
 10
140.682
 20
64.987
 30
0.0
 11
126.782
 21
64.987
 31
0.0
  0
LINE
  8
0
 62
     0
 10
126.782
 20
64.987
 30
0.0
 11
126.782
 21
78.8871
 31
0.0
  0
LINE
  8
0
 62
     0
 10
150.596
 20
78.8871
 30
0.0
 11
164.495
 21
78.8871
 31
0.0
  0
LINE
  8
0
 62
     0
 10
164.495
 20
78.8871
 30
0.0
 11
164.495
 21
64.987
 31
0.0
  0
LINE
  8
0
 62
     0
 10
164.495
 20
64.987
 30
0.0
 11
150.596
 21
64.987
 31
0.0
  0
LINE
  8
0
 62
     0
 10
150.596
 20
64.987
 30
0.0
 11
150.596
 21
78.8871
 31
0.0
  0
LINE
  8
0
 62
     0
 10
174.407
 20
78.8871
 30
0.0
 11
188.307
 21
78.8871
 31
0.0
  0
LINE
  8
0
 62
     0
 10
188.307
 20
78.8871
 30
0.0
 11
188.307
 21
64.987
 31
0.0
  0
LINE
  8
0
 62
     0
 10
188.307
 20
64.987
 30
0.0
 11
174.407
 21
64.987
 31
0.0
  0
LINE
  8
0
 62
     0
 10
174.407
 20
64.987
 30
0.0
 11
174.407
 21
78.8871
 31
0.0
  0
LINE
  8
0
 62
     0
 10
145.832
 20
97.9371
 30
0.0
 11
145.832
 21
93.2367
 31
0.0
  0
LINE
  8
0
 62
     0
 10
145.832
 20
93.2367
 30
0.0
 11
144.207
 21
93.2367
 31
0.0
  0
LINE
  8
0
 62
     0
 10
144.207
 20
93.2367
 30
0.0
 11
144.207
 21
96.4667
 31
0.0
  0
LINE
  8
0
 62
     0
 10
144.207
 20
96.4667
 30
0.0
 11
142.482
 21
96.4667
 31
0.0
  0
LINE
  8
0
 62
     0
 10
142.482
 20
96.4667
 30
0.0
 11
142.482
 21
97.3875
 31
0.0
  0
LINE
  8
0
 62
     0
 10
142.482
 20
97.3875
 30
0.0
 11
139.282
 21
97.3875
 31
0.0
  0
LINE
  8
0
 62
     0
 10
139.282
 20
97.3875
 30
0.0
 11
139.282
 21
96.4667
 31
0.0
  0
LINE
  8
0
 62
     0
 10
139.282
 20
96.4667
 30
0.0
 11
137.557
 21
96.4667
 31
0.0
  0
LINE
  8
0
 62
     0
 10
137.557
 20
96.4667
 30
0.0
 11
137.557
 21
93.2367
 31
0.0
  0
LINE
  8
0
 62
     0
 10
137.557
 20
93.2367
 30
0.0
 11
136.733
 21
93.2367
 31
0.0
  0
LINE
  8
0
 62
     0
 10
136.733
 20
93.2367
 30
0.0
 11
136.733
 21
90.5372
 31
0.0
  0
LINE
  8
0
 62
     0
 10
136.733
 20
90.5372
 30
0.0
 11
137.557
 21
90.5372
 31
0.0
  0
LINE
  8
0
 62
     0
 10
137.557
 20
90.5372
 30
0.0
 11
137.557
 21
84.267
 31
0.0
  0
LINE
  8
0
 62
     0
 10
137.557
 20
84.267
 30
0.0
 11
139.282
 21
84.267
 31
0.0
  0
LINE
  8
0
 62
     0
 10
139.282
 20
84.267
 30
0.0
 11
139.282
 21
83.2873
 31
0.0
  0
LINE
  8
0
 62
     0
 10
139.282
 20
83.2873
 30
0.0
 11
142.482
 21
83.2873
 31
0.0
  0
LINE
  8
0
 62
     0
 10
142.482
 20
83.2873
 30
0.0
 11
142.482
 21
84.267
 31
0.0
  0
LINE
  8
0
 62
     0
 10
142.482
 20
84.267
 30
0.0
 11
144.207
 21
84.267
 31
0.0
  0
LINE
  8
0
 62
     0
 10
144.207
 20
84.267
 30
0.0
 11
144.207
 21
88.7374
 31
0.0
  0
LINE
  8
0
 62
     0
 10
144.207
 20
88.7374
 30
0.0
 11
145.832
 21
88.7374
 31
0.0
  0
LINE
  8
0
 62
     0
 10
145.832
 20
88.7374
 30
0.0
 11
145.832
 21
84.037
 31
0.0
  0
LINE
  8
0
 62
     0
 10
145.832
 20
84.037
 30
0.0
 11
159.732
 21
84.037
 31
0.0
  0
LINE
  8
0
 62
     0
 10
159.732
 20
84.037
 30
0.0
 11
159.732
 21
88.7374
 31
0.0
  0
LINE
  8
0
 62
     0
 10
159.732
 20
88.7374
 30
0.0
 11
161.357
 21
88.7374
 31
0.0
  0
LINE
  8
0
 62
     0
 10
161.357
 20
88.7374
 30
0.0
 11
161.357
 21
84.267
 31
0.0
  0
LINE
  8
0
 62
     0
 10
161.357
 20
84.267
 30
0.0
 11
163.082
 21
84.267
 31
0.0
  0
LINE
  8
0
 62
     0
 10
163.082
 20
84.267
 30
0.0
 11
163.082
 21
83.2873
 31
0.0
  0
LINE
  8
0
 62
     0
 10
163.082
 20
83.2873
 30
0.0
 11
166.283
 21
83.2873
 31
0.0
  0
LINE
  8
0
 62
     0
 10
166.283
 20
83.2873
 30
0.0
 11
166.283
 21
84.267
 31
0.0
  0
LINE
  8
0
 62
     0
 10
166.283
 20
84.267
 30
0.0
 11
168.008
 21
84.267
 31
0.0
  0
LINE
  8
0
 62
     0
 10
168.008
 20
84.267
 30
0.0
 11
168.008
 21
90.5372
 31
0.0
  0
LINE
  8
0
 62
     0
 10
168.008
 20
90.5372
 30
0.0
 11
168.833
 21
90.5372
 31
0.0
  0
LINE
  8
0
 62
     0
 10
168.833
 20
90.5372
 30
0.0
 11
168.833
 21
93.2367
 31
0.0
  0
LINE
  8
0
 62
     0
 10
168.833
 20
93.2367
 30
0.0
 11
168.008
 21
93.2367
 31
0.0
  0
LINE
  8
0
 62
     0
 10
168.008
 20
93.2367
 30
0.0
 11
168.008
 21
96.4667
 31
0.0
  0
LINE
  8
0
 62
     0
 10
168.008
 20
96.4667
 30
0.0
 11
166.283
 21
96.4667
 31
0.0
  0
LINE
  8
0
 62
     0
 10
166.283
 20
96.4667
 30
0.0
 11
166.283
 21
97.3875
 31
0.0
  0
LINE
  8
0
 62
     0
 10
166.283
 20
97.3875
 30
0.0
 11
163.082
 21
97.3875
 31
0.0
  0
LINE
  8
0
 62
     0
 10
163.082
 20
97.3875
 30
0.0
 11
163.082
 21
96.4667
 31
0.0
  0
LINE
  8
0
 62
     0
 10
163.082
 20
96.4667
 30
0.0
 11
161.357
 21
96.4667
 31
0.0
  0
LINE
  8
0
 62
     0
 10
161.357
 20
96.4667
 30
0.0
 11
161.357
 21
93.2367
 31
0.0
  0
LINE
  8
0
 62
     0
 10
161.357
 20
93.2367
 30
0.0
 11
159.732
 21
93.2367
 31
0.0
  0
LINE
  8
0
 62
     0
 10
159.732
 20
93.2367
 30
0.0
 11
159.732
 21
97.9371
 31
0.0
  0
LINE
  8
0
 62
     0
 10
159.732
 20
97.9371
 30
0.0
 11
145.832
 21
97.9371
 31
0.0
  0
LINE
  8
0
 62
     0
 10
22.0073
 20
97.9371
 30
0.0
 11
35.9075
 21
97.9371
 31
0.0
  0
LINE
  8
0
 62
     0
 10
35.9075
 20
97.9371
 30
0.0
 11
35.9075
 21
84.037
 31
0.0
  0
LINE
  8
0
 62
     0
 10
35.9075
 20
84.037
 30
0.0
 11
22.0073
 21
84.037
 31
0.0
  0
LINE
  8
0
 62
     0
 10
22.0073
 20
84.037
 30
0.0
 11
22.0073
 21
97.9371
 31
0.0
  0
LINE
  8
0
 62
     0
 10
41.0573
 20
97.9371
 30
0.0
 11
54.9575
 21
97.9371
 31
0.0
  0
LINE
  8
0
 62
     0
 10
54.9575
 20
97.9371
 30
0.0
 11
54.9575
 21
84.037
 31
0.0
  0
LINE
  8
0
 62
     0
 10
54.9575
 20
84.037
 30
0.0
 11
41.0573
 21
84.037
 31
0.0
  0
LINE
  8
0
 62
     0
 10
41.0573
 20
84.037
 30
0.0
 11
41.0573
 21
97.9371
 31
0.0
  0
LINE
  8
0
 62
     0
 10
60.1073
 20
97.9371
 30
0.0
 11
74.0075
 21
97.9371
 31
0.0
  0
LINE
  8
0
 62
     0
 10
74.0075
 20
97.9371
 30
0.0
 11
74.0075
 21
84.037
 31
0.0
  0
LINE
  8
0
 62
     0
 10
74.0075
 20
84.037
 30
0.0
 11
60.1073
 21
84.037
 31
0.0
  0
LINE
  8
0
 62
     0
 10
60.1073
 20
84.037
 30
0.0
 11
60.1073
 21
97.9371
 31
0.0
  0
LINE
  8
0
 62
     0
 10
79.1573
 20
97.9371
 30
0.0
 11
93.0575
 21
97.9371
 31
0.0
  0
LINE
  8
0
 62
     0
 10
93.0575
 20
97.9371
 30
0.0
 11
93.0575
 21
84.037
 31
0.0
  0
LINE
  8
0
 62
     0
 10
93.0575
 20
84.037
 30
0.0
 11
79.1573
 21
84.037
 31
0.0
  0
LINE
  8
0
 62
     0
 10
79.1573
 20
84.037
 30
0.0
 11
79.1573
 21
97.9371
 31
0.0
  0
LINE
  8
0
 62
     0
 10
98.2073
 20
97.9371
 30
0.0
 11
112.107
 21
97.9371
 31
0.0
  0
LINE
  8
0
 62
     0
 10
112.107
 20
97.9371
 30
0.0
 11
112.107
 21
84.037
 31
0.0
  0
LINE
  8
0
 62
     0
 10
112.107
 20
84.037
 30
0.0
 11
98.2073
 21
84.037
 31
0.0
  0
LINE
  8
0
 62
     0
 10
98.2073
 20
84.037
 30
0.0
 11
98.2073
 21
97.9371
 31
0.0
  0
LINE
  8
0
 62
     0
 10
117.257
 20
97.9371
 30
0.0
 11
131.157
 21
97.9371
 31
0.0
  0
LINE
  8
0
 62
     0
 10
131.157
 20
97.9371
 30
0.0
 11
131.157
 21
84.037
 31
0.0
  0
LINE
  8
0
 62
     0
 10
131.157
 20
84.037
 30
0.0
 11
117.257
 21
84.037
 31
0.0
  0
LINE
  8
0
 62
     0
 10
117.257
 20
84.037
 30
0.0
 11
117.257
 21
97.9371
 31
0.0
  0
LINE
  8
0
 62
     0
 10
174.407
 20
97.9371
 30
0.0
 11
188.307
 21
97.9371
 31
0.0
  0
LINE
  8
0
 62
     0
 10
188.307
 20
97.9371
 30
0.0
 11
188.307
 21
84.037
 31
0.0
  0
LINE
  8
0
 62
     0
 10
188.307
 20
84.037
 30
0.0
 11
174.407
 21
84.037
 31
0.0
  0
LINE
  8
0
 62
     0
 10
174.407
 20
84.037
 30
0.0
 11
174.407
 21
97.9371
 31
0.0
  0
LINE
  8
0
 62
     0
 10
17.2461
 20
121.748
 30
0.0
 11
31.1451
 21
121.748
 31
0.0
  0
LINE
  8
0
 62
     0
 10
31.1451
 20
121.748
 30
0.0
 11
31.1451
 21
107.849
 31
0.0
  0
LINE
  8
0
 62
     0
 10
31.1451
 20
107.849
 30
0.0
 11
17.2461
 21
107.849
 31
0.0
  0
LINE
  8
0
 62
     0
 10
17.2461
 20
107.849
 30
0.0
 11
17.2461
 21
121.748
 31
0.0
  0
LINE
  8
0
 62
     0
 10
36.2962
 20
121.748
 30
0.0
 11
50.195
 21
121.748
 31
0.0
  0
LINE
  8
0
 62
     0
 10
50.195
 20
121.748
 30
0.0
 11
50.195
 21
107.849
 31
0.0
  0
LINE
  8
0
 62
     0
 10
50.195
 20
107.849
 30
0.0
 11
36.2962
 21
107.849
 31
0.0
  0
LINE
  8
0
 62
     0
 10
36.2962
 20
107.849
 30
0.0
 11
36.2962
 21
121.748
 31
0.0
  0
LINE
  8
0
 62
     0
 10
55.3462
 20
121.748
 30
0.0
 11
69.245
 21
121.748
 31
0.0
  0
LINE
  8
0
 62
     0
 10
69.245
 20
121.748
 30
0.0
 11
69.245
 21
107.849
 31
0.0
  0
LINE
  8
0
 62
     0
 10
69.245
 20
107.849
 30
0.0
 11
55.3462
 21
107.849
 31
0.0
  0
LINE
  8
0
 62
     0
 10
55.3462
 20
107.849
 30
0.0
 11
55.3462
 21
121.748
 31
0.0
  0
LINE
  8
0
 62
     0
 10
74.3962
 20
121.748
 30
0.0
 11
88.295
 21
121.748
 31
0.0
  0
LINE
  8
0
 62
     0
 10
88.295
 20
121.748
 30
0.0
 11
88.295
 21
107.849
 31
0.0
  0
LINE
  8
0
 62
     0
 10
88.295
 20
107.849
 30
0.0
 11
74.3962
 21
107.849
 31
0.0
  0
LINE
  8
0
 62
     0
 10
74.3962
 20
107.849
 30
0.0
 11
74.3962
 21
121.748
 31
0.0
  0
LINE
  8
0
 62
     0
 10
93.4462
 20
121.748
 30
0.0
 11
107.345
 21
121.748
 31
0.0
  0
LINE
  8
0
 62
     0
 10
107.345
 20
121.748
 30
0.0
 11
107.345
 21
107.849
 31
0.0
  0
LINE
  8
0
 62
     0
 10
107.345
 20
107.849
 30
0.0
 11
93.4462
 21
107.849
 31
0.0
  0
LINE
  8
0
 62
     0
 10
93.4462
 20
107.849
 30
0.0
 11
93.4462
 21
121.748
 31
0.0
  0
LINE
  8
0
 62
     0
 10
112.495
 20
121.748
 30
0.0
 11
126.395
 21
121.748
 31
0.0
  0
LINE
  8
0
 62
     0
 10
126.395
 20
121.748
 30
0.0
 11
126.395
 21
107.849
 31
0.0
  0
LINE
  8
0
 62
     0
 10
126.395
 20
107.849
 30
0.0
 11
112.495
 21
107.849
 31
0.0
  0
LINE
  8
0
 62
     0
 10
112.495
 20
107.849
 30
0.0
 11
112.495
 21
121.748
 31
0.0
  0
LINE
  8
0
 62
     0
 10
136.307
 20
121.748
 30
0.0
 11
150.207
 21
121.748
 31
0.0
  0
LINE
  8
0
 62
     0
 10
150.207
 20
121.748
 30
0.0
 11
150.207
 21
107.849
 31
0.0
  0
LINE
  8
0
 62
     0
 10
150.207
 20
107.849
 30
0.0
 11
136.307
 21
107.849
 31
0.0
  0
LINE
  8
0
 62
     0
 10
136.307
 20
107.849
 30
0.0
 11
136.307
 21
121.748
 31
0.0
  0
LINE
  8
0
 62
     0
 10
155.357
 20
121.748
 30
0.0
 11
169.257
 21
121.748
 31
0.0
  0
LINE
  8
0
 62
     0
 10
169.257
 20
121.748
 30
0.0
 11
169.257
 21
107.849
 31
0.0
  0
LINE
  8
0
 62
     0
 10
169.257
 20
107.849
 30
0.0
 11
155.357
 21
107.849
 31
0.0
  0
LINE
  8
0
 62
     0
 10
155.357
 20
107.849
 30
0.0
 11
155.357
 21
121.748
 31
0.0
  0
LINE
  8
0
 62
     0
 10
174.407
 20
121.748
 30
0.0
 11
188.307
 21
121.748
 31
0.0
  0
LINE
  8
0
 62
     0
 10
188.307
 20
121.748
 30
0.0
 11
188.307
 21
107.849
 31
0.0
  0
LINE
  8
0
 62
     0
 10
188.307
 20
107.849
 30
0.0
 11
174.407
 21
107.849
 31
0.0
  0
LINE
  8
0
 62
     0
 10
174.407
 20
107.849
 30
0.0
 11
174.407
 21
121.748
 31
0.0
  0
ENDSEC
  0
EOF
