  0
SECTION
  2
HEADER
  9
$ACADVER
  1
AC1009
  9
$FILLMODE
 70
 0
  9
$SPLFRAME
 70
 1
  9
$EXTMIN
 10
0
 20
0
 30
0.0
  9
$EXTMAX
 10
1058.33
 20
1058.33
 30
0.0
  0
ENDSEC
  0
SECTION
  2
TABLES
  0
TABLE
  2
LAYER
 70
1
  0
LAYER
  2
0
 70
     0
 62
     7
  6
CONTINUOUS
  0
ENDTAB
  0
ENDSEC
  0
SECTION
  2
ENTITIES
  0
LINE
  8
0
 62
     0
 10
151.358
 20
109.619
 30
0.0
 11
151.437
 21
109.616
 31
0.0
  0
LINE
  8
0
 62
     0
 10
151.437
 20
109.616
 30
0.0
 11
151.514
 21
109.606
 31
0.0
  0
LINE
  8
0
 62
     0
 10
151.514
 20
109.606
 30
0.0
 11
151.591
 21
109.591
 31
0.0
  0
LINE
  8
0
 62
     0
 10
151.591
 20
109.591
 30
0.0
 11
151.667
 21
109.571
 31
0.0
  0
LINE
  8
0
 62
     0
 10
151.667
 20
109.571
 30
0.0
 11
151.741
 21
109.543
 31
0.0
  0
LINE
  8
0
 62
     0
 10
151.741
 20
109.543
 30
0.0
 11
151.813
 21
109.51
 31
0.0
  0
LINE
  8
0
 62
     0
 10
151.813
 20
109.51
 30
0.0
 11
151.88
 21
109.472
 31
0.0
  0
LINE
  8
0
 62
     0
 10
151.88
 20
109.472
 30
0.0
 11
151.947
 21
109.428
 31
0.0
  0
LINE
  8
0
 62
     0
 10
151.947
 20
109.428
 30
0.0
 11
152.007
 21
109.379
 31
0.0
  0
LINE
  8
0
 62
     0
 10
152.007
 20
109.379
 30
0.0
 11
152.065
 21
109.327
 31
0.0
  0
LINE
  8
0
 62
     0
 10
152.065
 20
109.327
 30
0.0
 11
152.119
 21
109.269
 31
0.0
  0
LINE
  8
0
 62
     0
 10
152.119
 20
109.269
 30
0.0
 11
152.167
 21
109.207
 31
0.0
  0
LINE
  8
0
 62
     0
 10
152.167
 20
109.207
 30
0.0
 11
152.211
 21
109.142
 31
0.0
  0
LINE
  8
0
 62
     0
 10
152.211
 20
109.142
 30
0.0
 11
152.25
 21
109.072
 31
0.0
  0
LINE
  8
0
 62
     0
 10
152.25
 20
109.072
 30
0.0
 11
152.283
 21
109.001
 31
0.0
  0
LINE
  8
0
 62
     0
 10
152.283
 20
109.001
 30
0.0
 11
152.309
 21
108.928
 31
0.0
  0
LINE
  8
0
 62
     0
 10
152.309
 20
108.928
 30
0.0
 11
152.331
 21
108.853
 31
0.0
  0
LINE
  8
0
 62
     0
 10
152.331
 20
108.853
 30
0.0
 11
152.346
 21
108.775
 31
0.0
  0
LINE
  8
0
 62
     0
 10
152.346
 20
108.775
 30
0.0
 11
152.356
 21
108.697
 31
0.0
  0
LINE
  8
0
 62
     0
 10
152.356
 20
108.697
 30
0.0
 11
152.359
 21
108.619
 31
0.0
  0
LINE
  8
0
 62
     0
 10
152.359
 20
108.619
 30
0.0
 11
152.359
 21
1.21681
 31
0.0
  0
LINE
  8
0
 62
     0
 10
152.359
 20
1.21681
 30
0.0
 11
152.356
 21
1.13964
 31
0.0
  0
LINE
  8
0
 62
     0
 10
152.356
 20
1.13964
 30
0.0
 11
152.346
 21
1.06109
 31
0.0
  0
LINE
  8
0
 62
     0
 10
152.346
 20
1.06109
 30
0.0
 11
152.331
 21
0.983918
 31
0.0
  0
LINE
  8
0
 62
     0
 10
152.331
 20
0.983918
 30
0.0
 11
152.309
 21
0.908128
 31
0.0
  0
LINE
  8
0
 62
     0
 10
152.309
 20
0.908128
 30
0.0
 11
152.283
 21
0.835092
 31
0.0
  0
LINE
  8
0
 62
     0
 10
152.283
 20
0.835092
 30
0.0
 11
152.25
 21
0.764812
 31
0.0
  0
LINE
  8
0
 62
     0
 10
152.25
 20
0.764812
 30
0.0
 11
152.211
 21
0.695911
 31
0.0
  0
LINE
  8
0
 62
     0
 10
152.211
 20
0.695911
 30
0.0
 11
152.167
 21
0.629765
 31
0.0
  0
LINE
  8
0
 62
     0
 10
152.167
 20
0.629765
 30
0.0
 11
152.119
 21
0.567754
 31
0.0
  0
LINE
  8
0
 62
     0
 10
152.119
 20
0.567754
 30
0.0
 11
152.065
 21
0.509873
 31
0.0
  0
LINE
  8
0
 62
     0
 10
152.065
 20
0.509873
 30
0.0
 11
152.007
 21
0.45751
 31
0.0
  0
LINE
  8
0
 62
     0
 10
152.007
 20
0.45751
 30
0.0
 11
151.947
 21
0.407899
 31
0.0
  0
LINE
  8
0
 62
     0
 10
151.947
 20
0.407899
 30
0.0
 11
151.88
 21
0.365181
 31
0.0
  0
LINE
  8
0
 62
     0
 10
151.88
 20
0.365181
 30
0.0
 11
151.813
 21
0.326595
 31
0.0
  0
LINE
  8
0
 62
     0
 10
151.813
 20
0.326595
 30
0.0
 11
151.741
 21
0.2949
 31
0.0
  0
LINE
  8
0
 62
     0
 10
151.741
 20
0.2949
 30
0.0
 11
151.667
 21
0.265961
 31
0.0
  0
LINE
  8
0
 62
     0
 10
151.667
 20
0.265961
 30
0.0
 11
151.591
 21
0.245291
 31
0.0
  0
LINE
  8
0
 62
     0
 10
151.591
 20
0.245291
 30
0.0
 11
151.514
 21
0.230132
 31
0.0
  0
LINE
  8
0
 62
     0
 10
151.514
 20
0.230132
 30
0.0
 11
151.437
 21
0.221864
 31
0.0
  0
LINE
  8
0
 62
     0
 10
151.437
 20
0.221864
 30
0.0
 11
151.358
 21
0.21773
 31
0.0
  0
LINE
  8
0
 62
     0
 10
151.358
 20
0.21773
 30
0.0
 11
1.09554
 21
0.21773
 31
0.0
  0
LINE
  8
0
 62
     0
 10
1.09554
 20
0.21773
 30
0.0
 11
1.01699
 21
0.221864
 31
0.0
  0
LINE
  8
0
 62
     0
 10
1.01699
 20
0.221864
 30
0.0
 11
0.938445
 21
0.230132
 31
0.0
  0
LINE
  8
0
 62
     0
 10
0.938445
 20
0.230132
 30
0.0
 11
0.861275
 21
0.245291
 31
0.0
  0
LINE
  8
0
 62
     0
 10
0.861275
 20
0.245291
 30
0.0
 11
0.785481
 21
0.265961
 31
0.0
  0
LINE
  8
0
 62
     0
 10
0.785481
 20
0.265961
 30
0.0
 11
0.712445
 21
0.2949
 31
0.0
  0
LINE
  8
0
 62
     0
 10
0.712445
 20
0.2949
 30
0.0
 11
0.642165
 21
0.326595
 31
0.0
  0
LINE
  8
0
 62
     0
 10
0.642165
 20
0.326595
 30
0.0
 11
0.571885
 21
0.365181
 31
0.0
  0
LINE
  8
0
 62
     0
 10
0.571885
 20
0.365181
 30
0.0
 11
0.507118
 21
0.407899
 31
0.0
  0
LINE
  8
0
 62
     0
 10
0.507118
 20
0.407899
 30
0.0
 11
0.445107
 21
0.45751
 31
0.0
  0
LINE
  8
0
 62
     0
 10
0.445107
 20
0.45751
 30
0.0
 11
0.38723
 21
0.509873
 31
0.0
  0
LINE
  8
0
 62
     0
 10
0.38723
 20
0.509873
 30
0.0
 11
0.334863
 21
0.567754
 31
0.0
  0
LINE
  8
0
 62
     0
 10
0.334863
 20
0.567754
 30
0.0
 11
0.285254
 21
0.629765
 31
0.0
  0
LINE
  8
0
 62
     0
 10
0.285254
 20
0.629765
 30
0.0
 11
0.242535
 21
0.695911
 31
0.0
  0
LINE
  8
0
 62
     0
 10
0.242535
 20
0.695911
 30
0.0
 11
0.20395
 21
0.764812
 31
0.0
  0
LINE
  8
0
 62
     0
 10
0.20395
 20
0.764812
 30
0.0
 11
0.170877
 21
0.835092
 31
0.0
  0
LINE
  8
0
 62
     0
 10
0.170877
 20
0.835092
 30
0.0
 11
0.143316
 21
0.908128
 31
0.0
  0
LINE
  8
0
 62
     0
 10
0.143316
 20
0.908128
 30
0.0
 11
0.122645
 21
0.983918
 31
0.0
  0
LINE
  8
0
 62
     0
 10
0.122645
 20
0.983918
 30
0.0
 11
0.107487
 21
1.06109
 31
0.0
  0
LINE
  8
0
 62
     0
 10
0.107487
 20
1.06109
 30
0.0
 11
0.0978408
 21
1.13964
 31
0.0
  0
LINE
  8
0
 62
     0
 10
0.0978408
 20
1.13964
 30
0.0
 11
0.0950846
 21
1.21819
 31
0.0
  0
LINE
  8
0
 62
     0
 10
0.0950846
 20
1.21819
 30
0.0
 11
0.0950846
 21
108.619
 31
0.0
  0
LINE
  8
0
 62
     0
 10
0.0950846
 20
108.619
 30
0.0
 11
0.0978408
 21
108.697
 31
0.0
  0
LINE
  8
0
 62
     0
 10
0.0978408
 20
108.697
 30
0.0
 11
0.107487
 21
108.775
 31
0.0
  0
LINE
  8
0
 62
     0
 10
0.107487
 20
108.775
 30
0.0
 11
0.122645
 21
108.853
 31
0.0
  0
LINE
  8
0
 62
     0
 10
0.122645
 20
108.853
 30
0.0
 11
0.143316
 21
108.928
 31
0.0
  0
LINE
  8
0
 62
     0
 10
0.143316
 20
108.928
 30
0.0
 11
0.170877
 21
109.001
 31
0.0
  0
LINE
  8
0
 62
     0
 10
0.170877
 20
109.001
 30
0.0
 11
0.20395
 21
109.072
 31
0.0
  0
LINE
  8
0
 62
     0
 10
0.20395
 20
109.072
 30
0.0
 11
0.242535
 21
109.142
 31
0.0
  0
LINE
  8
0
 62
     0
 10
0.242535
 20
109.142
 30
0.0
 11
0.285254
 21
109.207
 31
0.0
  0
LINE
  8
0
 62
     0
 10
0.285254
 20
109.207
 30
0.0
 11
0.334863
 21
109.269
 31
0.0
  0
LINE
  8
0
 62
     0
 10
0.334863
 20
109.269
 30
0.0
 11
0.38723
 21
109.327
 31
0.0
  0
LINE
  8
0
 62
     0
 10
0.38723
 20
109.327
 30
0.0
 11
0.445107
 21
109.379
 31
0.0
  0
LINE
  8
0
 62
     0
 10
0.445107
 20
109.379
 30
0.0
 11
0.507118
 21
109.428
 31
0.0
  0
LINE
  8
0
 62
     0
 10
0.507118
 20
109.428
 30
0.0
 11
0.571885
 21
109.472
 31
0.0
  0
LINE
  8
0
 62
     0
 10
0.571885
 20
109.472
 30
0.0
 11
0.642165
 21
109.51
 31
0.0
  0
LINE
  8
0
 62
     0
 10
0.642165
 20
109.51
 30
0.0
 11
0.712445
 21
109.543
 31
0.0
  0
LINE
  8
0
 62
     0
 10
0.712445
 20
109.543
 30
0.0
 11
0.785481
 21
109.571
 31
0.0
  0
LINE
  8
0
 62
     0
 10
0.785481
 20
109.571
 30
0.0
 11
0.861275
 21
109.591
 31
0.0
  0
LINE
  8
0
 62
     0
 10
0.861275
 20
109.591
 30
0.0
 11
0.938445
 21
109.606
 31
0.0
  0
LINE
  8
0
 62
     0
 10
0.938445
 20
109.606
 30
0.0
 11
1.01699
 21
109.616
 31
0.0
  0
LINE
  8
0
 62
     0
 10
1.01699
 20
109.616
 30
0.0
 11
1.09554
 21
109.619
 31
0.0
  0
LINE
  8
0
 62
     0
 10
1.09554
 20
109.619
 30
0.0
 11
151.358
 21
109.619
 31
0.0
  0
LINE
  8
0
 62
     0
 10
149.344
 20
4.14789
 30
0.0
 11
148.945
 21
3.94533
 31
0.0
  0
LINE
  8
0
 62
     0
 10
148.945
 20
3.94533
 30
0.0
 11
148.631
 21
3.62977
 31
0.0
  0
LINE
  8
0
 62
     0
 10
148.631
 20
3.62977
 30
0.0
 11
148.428
 21
3.23288
 31
0.0
  0
LINE
  8
0
 62
     0
 10
148.428
 20
3.23288
 30
0.0
 11
148.358
 21
2.7919
 31
0.0
  0
LINE
  8
0
 62
     0
 10
148.358
 20
2.7919
 30
0.0
 11
148.428
 21
2.35231
 31
0.0
  0
LINE
  8
0
 62
     0
 10
148.428
 20
2.35231
 30
0.0
 11
148.631
 21
1.95544
 31
0.0
  0
LINE
  8
0
 62
     0
 10
148.631
 20
1.95544
 30
0.0
 11
148.945
 21
1.63987
 31
0.0
  0
LINE
  8
0
 62
     0
 10
148.945
 20
1.63987
 30
0.0
 11
149.344
 21
1.43729
 31
0.0
  0
LINE
  8
0
 62
     0
 10
149.344
 20
1.43729
 30
0.0
 11
149.783
 21
1.36839
 31
0.0
  0
LINE
  8
0
 62
     0
 10
149.783
 20
1.36839
 30
0.0
 11
150.224
 21
1.43729
 31
0.0
  0
LINE
  8
0
 62
     0
 10
150.224
 20
1.43729
 30
0.0
 11
150.621
 21
1.63987
 31
0.0
  0
LINE
  8
0
 62
     0
 10
150.621
 20
1.63987
 30
0.0
 11
150.937
 21
1.95544
 31
0.0
  0
LINE
  8
0
 62
     0
 10
150.937
 20
1.95544
 30
0.0
 11
151.139
 21
2.35231
 31
0.0
  0
LINE
  8
0
 62
     0
 10
151.139
 20
2.35231
 30
0.0
 11
151.208
 21
2.7919
 31
0.0
  0
LINE
  8
0
 62
     0
 10
151.208
 20
2.7919
 30
0.0
 11
151.139
 21
3.23288
 31
0.0
  0
LINE
  8
0
 62
     0
 10
151.139
 20
3.23288
 30
0.0
 11
150.937
 21
3.62977
 31
0.0
  0
LINE
  8
0
 62
     0
 10
150.937
 20
3.62977
 30
0.0
 11
150.621
 21
3.94533
 31
0.0
  0
LINE
  8
0
 62
     0
 10
150.621
 20
3.94533
 30
0.0
 11
150.224
 21
4.14789
 31
0.0
  0
LINE
  8
0
 62
     0
 10
150.224
 20
4.14789
 30
0.0
 11
149.783
 21
4.21679
 31
0.0
  0
LINE
  8
0
 62
     0
 10
149.783
 20
4.21679
 30
0.0
 11
149.344
 21
4.14789
 31
0.0
  0
LINE
  8
0
 62
     0
 10
75.7865
 20
4.14789
 30
0.0
 11
75.3897
 21
3.94533
 31
0.0
  0
LINE
  8
0
 62
     0
 10
75.3897
 20
3.94533
 30
0.0
 11
75.0743
 21
3.62977
 31
0.0
  0
LINE
  8
0
 62
     0
 10
75.0743
 20
3.62977
 30
0.0
 11
74.8714
 21
3.23288
 31
0.0
  0
LINE
  8
0
 62
     0
 10
74.8714
 20
3.23288
 30
0.0
 11
74.8012
 21
2.7919
 31
0.0
  0
LINE
  8
0
 62
     0
 10
74.8012
 20
2.7919
 30
0.0
 11
74.8714
 21
2.35231
 31
0.0
  0
LINE
  8
0
 62
     0
 10
74.8714
 20
2.35231
 30
0.0
 11
75.0743
 21
1.95544
 31
0.0
  0
LINE
  8
0
 62
     0
 10
75.0743
 20
1.95544
 30
0.0
 11
75.3897
 21
1.63987
 31
0.0
  0
LINE
  8
0
 62
     0
 10
75.3897
 20
1.63987
 30
0.0
 11
75.7865
 21
1.43729
 31
0.0
  0
LINE
  8
0
 62
     0
 10
75.7865
 20
1.43729
 30
0.0
 11
76.2261
 21
1.36839
 31
0.0
  0
LINE
  8
0
 62
     0
 10
76.2261
 20
1.36839
 30
0.0
 11
76.6671
 21
1.43729
 31
0.0
  0
LINE
  8
0
 62
     0
 10
76.6671
 20
1.43729
 30
0.0
 11
77.064
 21
1.63987
 31
0.0
  0
LINE
  8
0
 62
     0
 10
77.064
 20
1.63987
 30
0.0
 11
77.3797
 21
1.95544
 31
0.0
  0
LINE
  8
0
 62
     0
 10
77.3797
 20
1.95544
 30
0.0
 11
77.5822
 21
2.35231
 31
0.0
  0
LINE
  8
0
 62
     0
 10
77.5822
 20
2.35231
 30
0.0
 11
77.651
 21
2.7919
 31
0.0
  0
LINE
  8
0
 62
     0
 10
77.651
 20
2.7919
 30
0.0
 11
77.5822
 21
3.23288
 31
0.0
  0
LINE
  8
0
 62
     0
 10
77.5822
 20
3.23288
 30
0.0
 11
77.3797
 21
3.62977
 31
0.0
  0
LINE
  8
0
 62
     0
 10
77.3797
 20
3.62977
 30
0.0
 11
77.064
 21
3.94533
 31
0.0
  0
LINE
  8
0
 62
     0
 10
77.064
 20
3.94533
 30
0.0
 11
76.6671
 21
4.14789
 31
0.0
  0
LINE
  8
0
 62
     0
 10
76.6671
 20
4.14789
 30
0.0
 11
76.2261
 21
4.21679
 31
0.0
  0
LINE
  8
0
 62
     0
 10
76.2261
 20
4.21679
 30
0.0
 11
75.7865
 21
4.14789
 31
0.0
  0
LINE
  8
0
 62
     0
 10
2.22966
 20
4.14789
 30
0.0
 11
1.83279
 21
3.94533
 31
0.0
  0
LINE
  8
0
 62
     0
 10
1.83279
 20
3.94533
 30
0.0
 11
1.51722
 21
3.62977
 31
0.0
  0
LINE
  8
0
 62
     0
 10
1.51722
 20
3.62977
 30
0.0
 11
1.31465
 21
3.23288
 31
0.0
  0
LINE
  8
0
 62
     0
 10
1.31465
 20
3.23288
 30
0.0
 11
1.24437
 21
2.7919
 31
0.0
  0
LINE
  8
0
 62
     0
 10
1.24437
 20
2.7919
 30
0.0
 11
1.31465
 21
2.35231
 31
0.0
  0
LINE
  8
0
 62
     0
 10
1.31465
 20
2.35231
 30
0.0
 11
1.51722
 21
1.95544
 31
0.0
  0
LINE
  8
0
 62
     0
 10
1.51722
 20
1.95544
 30
0.0
 11
1.83279
 21
1.63987
 31
0.0
  0
LINE
  8
0
 62
     0
 10
1.83279
 20
1.63987
 30
0.0
 11
2.22966
 21
1.43729
 31
0.0
  0
LINE
  8
0
 62
     0
 10
2.22966
 20
1.43729
 30
0.0
 11
2.66926
 21
1.36839
 31
0.0
  0
LINE
  8
0
 62
     0
 10
2.66926
 20
1.36839
 30
0.0
 11
3.11023
 21
1.43729
 31
0.0
  0
LINE
  8
0
 62
     0
 10
3.11023
 20
1.43729
 30
0.0
 11
3.50711
 21
1.63987
 31
0.0
  0
LINE
  8
0
 62
     0
 10
3.50711
 20
1.63987
 30
0.0
 11
3.82266
 21
1.95544
 31
0.0
  0
LINE
  8
0
 62
     0
 10
3.82266
 20
1.95544
 30
0.0
 11
4.02527
 21
2.35231
 31
0.0
  0
LINE
  8
0
 62
     0
 10
4.02527
 20
2.35231
 30
0.0
 11
4.09416
 21
2.7919
 31
0.0
  0
LINE
  8
0
 62
     0
 10
4.09416
 20
2.7919
 30
0.0
 11
4.02527
 21
3.23288
 31
0.0
  0
LINE
  8
0
 62
     0
 10
4.02527
 20
3.23288
 30
0.0
 11
3.82266
 21
3.62977
 31
0.0
  0
LINE
  8
0
 62
     0
 10
3.82266
 20
3.62977
 30
0.0
 11
3.50711
 21
3.94533
 31
0.0
  0
LINE
  8
0
 62
     0
 10
3.50711
 20
3.94533
 30
0.0
 11
3.11023
 21
4.14789
 31
0.0
  0
LINE
  8
0
 62
     0
 10
3.11023
 20
4.14789
 30
0.0
 11
2.66926
 21
4.21679
 31
0.0
  0
LINE
  8
0
 62
     0
 10
2.66926
 20
4.21679
 30
0.0
 11
2.22966
 21
4.14789
 31
0.0
  0
LINE
  8
0
 62
     0
 10
5.24482
 20
104.469
 30
0.0
 11
147.209
 21
104.469
 31
0.0
  0
LINE
  8
0
 62
     0
 10
147.209
 20
104.469
 30
0.0
 11
147.209
 21
5.36744
 31
0.0
  0
LINE
  8
0
 62
     0
 10
147.209
 20
5.36744
 30
0.0
 11
5.24482
 21
5.36744
 31
0.0
  0
LINE
  8
0
 62
     0
 10
5.24482
 20
5.36744
 30
0.0
 11
5.24482
 21
104.469
 31
0.0
  0
LINE
  8
0
 62
     0
 10
75.7865
 20
108.399
 30
0.0
 11
75.3897
 21
108.197
 31
0.0
  0
LINE
  8
0
 62
     0
 10
75.3897
 20
108.197
 30
0.0
 11
75.0743
 21
107.881
 31
0.0
  0
LINE
  8
0
 62
     0
 10
75.0743
 20
107.881
 30
0.0
 11
74.8714
 21
107.484
 31
0.0
  0
LINE
  8
0
 62
     0
 10
74.8714
 20
107.484
 30
0.0
 11
74.8012
 21
107.043
 31
0.0
  0
LINE
  8
0
 62
     0
 10
74.8012
 20
107.043
 30
0.0
 11
74.8714
 21
106.604
 31
0.0
  0
LINE
  8
0
 62
     0
 10
74.8714
 20
106.604
 30
0.0
 11
75.0743
 21
106.207
 31
0.0
  0
LINE
  8
0
 62
     0
 10
75.0743
 20
106.207
 30
0.0
 11
75.3897
 21
105.891
 31
0.0
  0
LINE
  8
0
 62
     0
 10
75.3897
 20
105.891
 30
0.0
 11
75.7865
 21
105.689
 31
0.0
  0
LINE
  8
0
 62
     0
 10
75.7865
 20
105.689
 30
0.0
 11
76.2261
 21
105.618
 31
0.0
  0
LINE
  8
0
 62
     0
 10
76.2261
 20
105.618
 30
0.0
 11
76.6671
 21
105.689
 31
0.0
  0
LINE
  8
0
 62
     0
 10
76.6671
 20
105.689
 30
0.0
 11
77.064
 21
105.891
 31
0.0
  0
LINE
  8
0
 62
     0
 10
77.064
 20
105.891
 30
0.0
 11
77.3797
 21
106.207
 31
0.0
  0
LINE
  8
0
 62
     0
 10
77.3797
 20
106.207
 30
0.0
 11
77.5822
 21
106.604
 31
0.0
  0
LINE
  8
0
 62
     0
 10
77.5822
 20
106.604
 30
0.0
 11
77.651
 21
107.043
 31
0.0
  0
LINE
  8
0
 62
     0
 10
77.651
 20
107.043
 30
0.0
 11
77.5822
 21
107.484
 31
0.0
  0
LINE
  8
0
 62
     0
 10
77.5822
 20
107.484
 30
0.0
 11
77.3797
 21
107.881
 31
0.0
  0
LINE
  8
0
 62
     0
 10
77.3797
 20
107.881
 30
0.0
 11
77.064
 21
108.197
 31
0.0
  0
LINE
  8
0
 62
     0
 10
77.064
 20
108.197
 30
0.0
 11
76.6671
 21
108.399
 31
0.0
  0
LINE
  8
0
 62
     0
 10
76.6671
 20
108.399
 30
0.0
 11
76.2261
 21
108.468
 31
0.0
  0
LINE
  8
0
 62
     0
 10
76.2261
 20
108.468
 30
0.0
 11
75.7865
 21
108.399
 31
0.0
  0
LINE
  8
0
 62
     0
 10
149.344
 20
108.399
 30
0.0
 11
148.945
 21
108.197
 31
0.0
  0
LINE
  8
0
 62
     0
 10
148.945
 20
108.197
 30
0.0
 11
148.631
 21
107.881
 31
0.0
  0
LINE
  8
0
 62
     0
 10
148.631
 20
107.881
 30
0.0
 11
148.428
 21
107.484
 31
0.0
  0
LINE
  8
0
 62
     0
 10
148.428
 20
107.484
 30
0.0
 11
148.358
 21
107.043
 31
0.0
  0
LINE
  8
0
 62
     0
 10
148.358
 20
107.043
 30
0.0
 11
148.428
 21
106.604
 31
0.0
  0
LINE
  8
0
 62
     0
 10
148.428
 20
106.604
 30
0.0
 11
148.631
 21
106.207
 31
0.0
  0
LINE
  8
0
 62
     0
 10
148.631
 20
106.207
 30
0.0
 11
148.945
 21
105.891
 31
0.0
  0
LINE
  8
0
 62
     0
 10
148.945
 20
105.891
 30
0.0
 11
149.344
 21
105.689
 31
0.0
  0
LINE
  8
0
 62
     0
 10
149.344
 20
105.689
 30
0.0
 11
149.783
 21
105.618
 31
0.0
  0
LINE
  8
0
 62
     0
 10
149.783
 20
105.618
 30
0.0
 11
150.224
 21
105.689
 31
0.0
  0
LINE
  8
0
 62
     0
 10
150.224
 20
105.689
 30
0.0
 11
150.621
 21
105.891
 31
0.0
  0
LINE
  8
0
 62
     0
 10
150.621
 20
105.891
 30
0.0
 11
150.937
 21
106.207
 31
0.0
  0
LINE
  8
0
 62
     0
 10
150.937
 20
106.207
 30
0.0
 11
151.139
 21
106.604
 31
0.0
  0
LINE
  8
0
 62
     0
 10
151.139
 20
106.604
 30
0.0
 11
151.208
 21
107.043
 31
0.0
  0
LINE
  8
0
 62
     0
 10
151.208
 20
107.043
 30
0.0
 11
151.139
 21
107.484
 31
0.0
  0
LINE
  8
0
 62
     0
 10
151.139
 20
107.484
 30
0.0
 11
150.937
 21
107.881
 31
0.0
  0
LINE
  8
0
 62
     0
 10
150.937
 20
107.881
 30
0.0
 11
150.621
 21
108.197
 31
0.0
  0
LINE
  8
0
 62
     0
 10
150.621
 20
108.197
 30
0.0
 11
150.224
 21
108.399
 31
0.0
  0
LINE
  8
0
 62
     0
 10
150.224
 20
108.399
 30
0.0
 11
149.783
 21
108.468
 31
0.0
  0
LINE
  8
0
 62
     0
 10
149.783
 20
108.468
 30
0.0
 11
149.344
 21
108.399
 31
0.0
  0
LINE
  8
0
 62
     0
 10
2.22966
 20
108.399
 30
0.0
 11
1.83279
 21
108.197
 31
0.0
  0
LINE
  8
0
 62
     0
 10
1.83279
 20
108.197
 30
0.0
 11
1.51722
 21
107.881
 31
0.0
  0
LINE
  8
0
 62
     0
 10
1.51722
 20
107.881
 30
0.0
 11
1.31465
 21
107.484
 31
0.0
  0
LINE
  8
0
 62
     0
 10
1.31465
 20
107.484
 30
0.0
 11
1.24437
 21
107.043
 31
0.0
  0
LINE
  8
0
 62
     0
 10
1.24437
 20
107.043
 30
0.0
 11
1.31465
 21
106.604
 31
0.0
  0
LINE
  8
0
 62
     0
 10
1.31465
 20
106.604
 30
0.0
 11
1.51722
 21
106.207
 31
0.0
  0
LINE
  8
0
 62
     0
 10
1.51722
 20
106.207
 30
0.0
 11
1.83279
 21
105.891
 31
0.0
  0
LINE
  8
0
 62
     0
 10
1.83279
 20
105.891
 30
0.0
 11
2.22966
 21
105.689
 31
0.0
  0
LINE
  8
0
 62
     0
 10
2.22966
 20
105.689
 30
0.0
 11
2.66926
 21
105.618
 31
0.0
  0
LINE
  8
0
 62
     0
 10
2.66926
 20
105.618
 30
0.0
 11
3.11023
 21
105.689
 31
0.0
  0
LINE
  8
0
 62
     0
 10
3.11023
 20
105.689
 30
0.0
 11
3.50711
 21
105.891
 31
0.0
  0
LINE
  8
0
 62
     0
 10
3.50711
 20
105.891
 30
0.0
 11
3.82266
 21
106.207
 31
0.0
  0
LINE
  8
0
 62
     0
 10
3.82266
 20
106.207
 30
0.0
 11
4.02527
 21
106.604
 31
0.0
  0
LINE
  8
0
 62
     0
 10
4.02527
 20
106.604
 30
0.0
 11
4.09416
 21
107.043
 31
0.0
  0
LINE
  8
0
 62
     0
 10
4.09416
 20
107.043
 30
0.0
 11
4.02527
 21
107.484
 31
0.0
  0
LINE
  8
0
 62
     0
 10
4.02527
 20
107.484
 30
0.0
 11
3.82266
 21
107.881
 31
0.0
  0
LINE
  8
0
 62
     0
 10
3.82266
 20
107.881
 30
0.0
 11
3.50711
 21
108.197
 31
0.0
  0
LINE
  8
0
 62
     0
 10
3.50711
 20
108.197
 30
0.0
 11
3.11023
 21
108.399
 31
0.0
  0
LINE
  8
0
 62
     0
 10
3.11023
 20
108.399
 30
0.0
 11
2.66926
 21
108.468
 31
0.0
  0
LINE
  8
0
 62
     0
 10
2.66926
 20
108.468
 30
0.0
 11
2.22966
 21
108.399
 31
0.0
  0
ENDSEC
  0
EOF
