  0
SECTION
  2
HEADER
  9
$ACADVER
  1
AC1009
  9
$FILLMODE
 70
 0
  9
$SPLFRAME
 70
 1
  9
$EXTMIN
 10
0
 20
0
 30
0.0
  9
$EXTMAX
 10
1058.33
 20
1058.33
 30
0.0
  0
ENDSEC
  0
SECTION
  2
TABLES
  0
TABLE
  2
LAYER
 70
1
  0
LAYER
  2
0
 70
     0
 62
     7
  6
CONTINUOUS
  0
ENDTAB
  0
ENDSEC
  0
SECTION
  2
ENTITIES
  0
LINE
  8
0
 62
     0
 10
0.0950846
 20
107.502
 30
0.0
 11
150.207
 21
107.502
 31
0.0
  0
LINE
  8
0
 62
     0
 10
150.207
 20
107.502
 30
0.0
 11
150.207
 21
0.252181
 31
0.0
  0
LINE
  8
0
 62
     0
 10
150.207
 20
0.252181
 30
0.0
 11
0.0950846
 21
0.252181
 31
0.0
  0
LINE
  8
0
 62
     0
 10
0.0950846
 20
0.252181
 30
0.0
 11
0.0950846
 21
107.502
 31
0.0
  0
LINE
  8
0
 62
     0
 10
109.226
 20
22.2291
 30
0.0
 11
112.525
 21
22.2291
 31
0.0
  0
LINE
  8
0
 62
     0
 10
112.525
 20
22.2291
 30
0.0
 11
112.525
 21
8.02707
 31
0.0
  0
LINE
  8
0
 62
     0
 10
112.525
 20
8.02707
 30
0.0
 11
109.226
 21
8.02707
 31
0.0
  0
LINE
  8
0
 62
     0
 10
109.226
 20
8.02707
 30
0.0
 11
109.226
 21
22.2291
 31
0.0
  0
LINE
  8
0
 62
     0
 10
133.026
 20
22.2291
 30
0.0
 11
136.325
 21
22.2291
 31
0.0
  0
LINE
  8
0
 62
     0
 10
136.325
 20
22.2291
 30
0.0
 11
136.325
 21
8.02707
 31
0.0
  0
LINE
  8
0
 62
     0
 10
136.325
 20
8.02707
 30
0.0
 11
133.026
 21
8.02707
 31
0.0
  0
LINE
  8
0
 62
     0
 10
133.026
 20
8.02707
 30
0.0
 11
133.026
 21
22.2291
 31
0.0
  0
LINE
  8
0
 62
     0
 10
11.0009
 20
22.7776
 30
0.0
 11
25.0004
 21
22.7776
 31
0.0
  0
LINE
  8
0
 62
     0
 10
25.0004
 20
22.7776
 30
0.0
 11
25.0004
 21
8.7781
 31
0.0
  0
LINE
  8
0
 62
     0
 10
25.0004
 20
8.7781
 30
0.0
 11
11.0009
 21
8.7781
 31
0.0
  0
LINE
  8
0
 62
     0
 10
11.0009
 20
8.7781
 30
0.0
 11
11.0009
 21
22.7776
 31
0.0
  0
LINE
  8
0
 62
     0
 10
34.812
 20
22.7776
 30
0.0
 11
48.8128
 21
22.7776
 31
0.0
  0
LINE
  8
0
 62
     0
 10
48.8128
 20
22.7776
 30
0.0
 11
48.8128
 21
8.7781
 31
0.0
  0
LINE
  8
0
 62
     0
 10
48.8128
 20
8.7781
 30
0.0
 11
34.812
 21
8.7781
 31
0.0
  0
LINE
  8
0
 62
     0
 10
34.812
 20
8.7781
 30
0.0
 11
34.812
 21
22.7776
 31
0.0
  0
LINE
  8
0
 62
     0
 10
58.626
 20
22.7776
 30
0.0
 11
72.6253
 21
22.7776
 31
0.0
  0
LINE
  8
0
 62
     0
 10
72.6253
 20
22.7776
 30
0.0
 11
72.6253
 21
8.7781
 31
0.0
  0
LINE
  8
0
 62
     0
 10
72.6253
 20
8.7781
 30
0.0
 11
58.626
 21
8.7781
 31
0.0
  0
LINE
  8
0
 62
     0
 10
58.626
 20
8.7781
 30
0.0
 11
58.626
 21
22.7776
 31
0.0
  0
LINE
  8
0
 62
     0
 10
82.4371
 20
22.7776
 30
0.0
 11
96.4378
 21
22.7776
 31
0.0
  0
LINE
  8
0
 62
     0
 10
96.4378
 20
22.7776
 30
0.0
 11
96.4378
 21
8.7781
 31
0.0
  0
LINE
  8
0
 62
     0
 10
96.4378
 20
8.7781
 30
0.0
 11
82.4371
 21
8.7781
 31
0.0
  0
LINE
  8
0
 62
     0
 10
82.4371
 20
8.7781
 30
0.0
 11
82.4371
 21
22.7776
 31
0.0
  0
LINE
  8
0
 62
     0
 10
115.776
 20
22.7776
 30
0.0
 11
129.775
 21
22.7776
 31
0.0
  0
LINE
  8
0
 62
     0
 10
129.775
 20
22.7776
 30
0.0
 11
129.775
 21
8.7781
 31
0.0
  0
LINE
  8
0
 62
     0
 10
129.775
 20
8.7781
 30
0.0
 11
115.776
 21
8.7781
 31
0.0
  0
LINE
  8
0
 62
     0
 10
115.776
 20
8.7781
 30
0.0
 11
115.776
 21
22.7776
 31
0.0
  0
LINE
  8
0
 62
     0
 10
13.9761
 20
41.2778
 30
0.0
 11
17.2751
 21
41.2778
 31
0.0
  0
LINE
  8
0
 62
     0
 10
17.2751
 20
41.2778
 30
0.0
 11
17.2751
 21
27.0771
 31
0.0
  0
LINE
  8
0
 62
     0
 10
17.2751
 20
27.0771
 30
0.0
 11
13.9761
 21
27.0771
 31
0.0
  0
LINE
  8
0
 62
     0
 10
13.9761
 20
27.0771
 30
0.0
 11
13.9761
 21
41.2778
 31
0.0
  0
LINE
  8
0
 62
     0
 10
37.7762
 20
41.2778
 30
0.0
 11
41.0753
 21
41.2778
 31
0.0
  0
LINE
  8
0
 62
     0
 10
41.0753
 20
41.2778
 30
0.0
 11
41.0753
 21
27.0771
 31
0.0
  0
LINE
  8
0
 62
     0
 10
41.0753
 20
27.0771
 30
0.0
 11
37.7762
 21
27.0771
 31
0.0
  0
LINE
  8
0
 62
     0
 10
37.7762
 20
27.0771
 30
0.0
 11
37.7762
 21
41.2778
 31
0.0
  0
LINE
  8
0
 62
     0
 10
20.5259
 20
41.8275
 30
0.0
 11
34.5254
 21
41.8275
 31
0.0
  0
LINE
  8
0
 62
     0
 10
34.5254
 20
41.8275
 30
0.0
 11
34.5254
 21
27.8281
 31
0.0
  0
LINE
  8
0
 62
     0
 10
34.5254
 20
27.8281
 30
0.0
 11
20.5259
 21
27.8281
 31
0.0
  0
LINE
  8
0
 62
     0
 10
20.5259
 20
27.8281
 30
0.0
 11
20.5259
 21
41.8275
 31
0.0
  0
LINE
  8
0
 62
     0
 10
51.4823
 20
41.8275
 30
0.0
 11
65.4816
 21
41.8275
 31
0.0
  0
LINE
  8
0
 62
     0
 10
65.4816
 20
41.8275
 30
0.0
 11
65.4816
 21
27.8281
 31
0.0
  0
LINE
  8
0
 62
     0
 10
65.4816
 20
27.8281
 30
0.0
 11
51.4823
 21
27.8281
 31
0.0
  0
LINE
  8
0
 62
     0
 10
51.4823
 20
27.8281
 30
0.0
 11
51.4823
 21
41.8275
 31
0.0
  0
LINE
  8
0
 62
     0
 10
70.5323
 20
41.8275
 30
0.0
 11
84.5316
 21
41.8275
 31
0.0
  0
LINE
  8
0
 62
     0
 10
84.5316
 20
41.8275
 30
0.0
 11
84.5316
 21
27.8281
 31
0.0
  0
LINE
  8
0
 62
     0
 10
84.5316
 20
27.8281
 30
0.0
 11
70.5323
 21
27.8281
 31
0.0
  0
LINE
  8
0
 62
     0
 10
70.5323
 20
27.8281
 30
0.0
 11
70.5323
 21
41.8275
 31
0.0
  0
LINE
  8
0
 62
     0
 10
89.5823
 20
41.8275
 30
0.0
 11
103.582
 21
41.8275
 31
0.0
  0
LINE
  8
0
 62
     0
 10
103.582
 20
41.8275
 30
0.0
 11
103.582
 21
27.8281
 31
0.0
  0
LINE
  8
0
 62
     0
 10
103.582
 20
27.8281
 30
0.0
 11
89.5823
 21
27.8281
 31
0.0
  0
LINE
  8
0
 62
     0
 10
89.5823
 20
27.8281
 30
0.0
 11
89.5823
 21
41.8275
 31
0.0
  0
LINE
  8
0
 62
     0
 10
108.632
 20
41.8275
 30
0.0
 11
122.632
 21
41.8275
 31
0.0
  0
LINE
  8
0
 62
     0
 10
122.632
 20
41.8275
 30
0.0
 11
122.632
 21
27.8281
 31
0.0
  0
LINE
  8
0
 62
     0
 10
122.632
 20
27.8281
 30
0.0
 11
108.632
 21
27.8281
 31
0.0
  0
LINE
  8
0
 62
     0
 10
108.632
 20
27.8281
 30
0.0
 11
108.632
 21
41.8275
 31
0.0
  0
LINE
  8
0
 62
     0
 10
127.682
 20
41.8275
 30
0.0
 11
141.682
 21
41.8275
 31
0.0
  0
LINE
  8
0
 62
     0
 10
141.682
 20
41.8275
 30
0.0
 11
141.682
 21
27.8281
 31
0.0
  0
LINE
  8
0
 62
     0
 10
141.682
 20
27.8281
 30
0.0
 11
127.682
 21
27.8281
 31
0.0
  0
LINE
  8
0
 62
     0
 10
127.682
 20
27.8281
 30
0.0
 11
127.682
 21
41.8275
 31
0.0
  0
LINE
  8
0
 62
     0
 10
15.762
 20
60.8774
 30
0.0
 11
29.7629
 21
60.8774
 31
0.0
  0
LINE
  8
0
 62
     0
 10
29.7629
 20
60.8774
 30
0.0
 11
29.7629
 21
46.8782
 31
0.0
  0
LINE
  8
0
 62
     0
 10
29.7629
 20
46.8782
 30
0.0
 11
15.762
 21
46.8782
 31
0.0
  0
LINE
  8
0
 62
     0
 10
15.762
 20
46.8782
 30
0.0
 11
15.762
 21
60.8774
 31
0.0
  0
LINE
  8
0
 62
     0
 10
41.9573
 20
60.8774
 30
0.0
 11
55.9566
 21
60.8774
 31
0.0
  0
LINE
  8
0
 62
     0
 10
55.9566
 20
60.8774
 30
0.0
 11
55.9566
 21
46.8782
 31
0.0
  0
LINE
  8
0
 62
     0
 10
55.9566
 20
46.8782
 30
0.0
 11
41.9573
 21
46.8782
 31
0.0
  0
LINE
  8
0
 62
     0
 10
41.9573
 20
46.8782
 30
0.0
 11
41.9573
 21
60.8774
 31
0.0
  0
LINE
  8
0
 62
     0
 10
61.0073
 20
60.8774
 30
0.0
 11
75.0066
 21
60.8774
 31
0.0
  0
LINE
  8
0
 62
     0
 10
75.0066
 20
60.8774
 30
0.0
 11
75.0066
 21
46.8782
 31
0.0
  0
LINE
  8
0
 62
     0
 10
75.0066
 20
46.8782
 30
0.0
 11
61.0073
 21
46.8782
 31
0.0
  0
LINE
  8
0
 62
     0
 10
61.0073
 20
46.8782
 30
0.0
 11
61.0073
 21
60.8774
 31
0.0
  0
LINE
  8
0
 62
     0
 10
80.0573
 20
60.8774
 30
0.0
 11
94.0566
 21
60.8774
 31
0.0
  0
LINE
  8
0
 62
     0
 10
94.0566
 20
60.8774
 30
0.0
 11
94.0566
 21
46.8782
 31
0.0
  0
LINE
  8
0
 62
     0
 10
94.0566
 20
46.8782
 30
0.0
 11
80.0573
 21
46.8782
 31
0.0
  0
LINE
  8
0
 62
     0
 10
80.0573
 20
46.8782
 30
0.0
 11
80.0573
 21
60.8774
 31
0.0
  0
LINE
  8
0
 62
     0
 10
99.1073
 20
60.8774
 30
0.0
 11
113.107
 21
60.8774
 31
0.0
  0
LINE
  8
0
 62
     0
 10
113.107
 20
60.8774
 30
0.0
 11
113.107
 21
46.8782
 31
0.0
  0
LINE
  8
0
 62
     0
 10
113.107
 20
46.8782
 30
0.0
 11
99.1073
 21
46.8782
 31
0.0
  0
LINE
  8
0
 62
     0
 10
99.1073
 20
46.8782
 30
0.0
 11
99.1073
 21
60.8774
 31
0.0
  0
LINE
  8
0
 62
     0
 10
118.157
 20
60.8774
 30
0.0
 11
132.157
 21
60.8774
 31
0.0
  0
LINE
  8
0
 62
     0
 10
132.157
 20
60.8774
 30
0.0
 11
132.157
 21
46.8782
 31
0.0
  0
LINE
  8
0
 62
     0
 10
132.157
 20
46.8782
 30
0.0
 11
118.157
 21
46.8782
 31
0.0
  0
LINE
  8
0
 62
     0
 10
118.157
 20
46.8782
 30
0.0
 11
118.157
 21
60.8774
 31
0.0
  0
LINE
  8
0
 62
     0
 10
13.3821
 20
79.9274
 30
0.0
 11
27.3816
 21
79.9274
 31
0.0
  0
LINE
  8
0
 62
     0
 10
27.3816
 20
79.9274
 30
0.0
 11
27.3816
 21
65.9282
 31
0.0
  0
LINE
  8
0
 62
     0
 10
27.3816
 20
65.9282
 30
0.0
 11
13.3821
 21
65.9282
 31
0.0
  0
LINE
  8
0
 62
     0
 10
13.3821
 20
65.9282
 30
0.0
 11
13.3821
 21
79.9274
 31
0.0
  0
LINE
  8
0
 62
     0
 10
37.1948
 20
79.9274
 30
0.0
 11
51.1941
 21
79.9274
 31
0.0
  0
LINE
  8
0
 62
     0
 10
51.1941
 20
79.9274
 30
0.0
 11
51.1941
 21
65.9282
 31
0.0
  0
LINE
  8
0
 62
     0
 10
51.1941
 20
65.9282
 30
0.0
 11
37.1948
 21
65.9282
 31
0.0
  0
LINE
  8
0
 62
     0
 10
37.1948
 20
65.9282
 30
0.0
 11
37.1948
 21
79.9274
 31
0.0
  0
LINE
  8
0
 62
     0
 10
56.2448
 20
79.9274
 30
0.0
 11
70.2441
 21
79.9274
 31
0.0
  0
LINE
  8
0
 62
     0
 10
70.2441
 20
79.9274
 30
0.0
 11
70.2441
 21
65.9282
 31
0.0
  0
LINE
  8
0
 62
     0
 10
70.2441
 20
65.9282
 30
0.0
 11
56.2448
 21
65.9282
 31
0.0
  0
LINE
  8
0
 62
     0
 10
56.2448
 20
65.9282
 30
0.0
 11
56.2448
 21
79.9274
 31
0.0
  0
LINE
  8
0
 62
     0
 10
75.2948
 20
79.9274
 30
0.0
 11
89.2941
 21
79.9274
 31
0.0
  0
LINE
  8
0
 62
     0
 10
89.2941
 20
79.9274
 30
0.0
 11
89.2941
 21
65.9282
 31
0.0
  0
LINE
  8
0
 62
     0
 10
89.2941
 20
65.9282
 30
0.0
 11
75.2948
 21
65.9282
 31
0.0
  0
LINE
  8
0
 62
     0
 10
75.2948
 20
65.9282
 30
0.0
 11
75.2948
 21
79.9274
 31
0.0
  0
LINE
  8
0
 62
     0
 10
94.3448
 20
79.9274
 30
0.0
 11
108.344
 21
79.9274
 31
0.0
  0
LINE
  8
0
 62
     0
 10
108.344
 20
79.9274
 30
0.0
 11
108.344
 21
65.9282
 31
0.0
  0
LINE
  8
0
 62
     0
 10
108.344
 20
65.9282
 30
0.0
 11
94.3448
 21
65.9282
 31
0.0
  0
LINE
  8
0
 62
     0
 10
94.3448
 20
65.9282
 30
0.0
 11
94.3448
 21
79.9274
 31
0.0
  0
LINE
  8
0
 62
     0
 10
113.395
 20
79.9274
 30
0.0
 11
127.394
 21
79.9274
 31
0.0
  0
LINE
  8
0
 62
     0
 10
127.394
 20
79.9274
 30
0.0
 11
127.394
 21
65.9282
 31
0.0
  0
LINE
  8
0
 62
     0
 10
127.394
 20
65.9282
 30
0.0
 11
113.395
 21
65.9282
 31
0.0
  0
LINE
  8
0
 62
     0
 10
113.395
 20
65.9282
 30
0.0
 11
113.395
 21
79.9274
 31
0.0
  0
LINE
  8
0
 62
     0
 10
8.61826
 20
98.9789
 30
0.0
 11
22.6191
 21
98.9789
 31
0.0
  0
LINE
  8
0
 62
     0
 10
22.6191
 20
98.9789
 30
0.0
 11
22.6191
 21
84.9782
 31
0.0
  0
LINE
  8
0
 62
     0
 10
22.6191
 20
84.9782
 30
0.0
 11
8.61826
 21
84.9782
 31
0.0
  0
LINE
  8
0
 62
     0
 10
8.61826
 20
84.9782
 30
0.0
 11
8.61826
 21
98.9789
 31
0.0
  0
LINE
  8
0
 62
     0
 10
27.6696
 20
98.9789
 30
0.0
 11
41.6691
 21
98.9789
 31
0.0
  0
LINE
  8
0
 62
     0
 10
41.6691
 20
98.9789
 30
0.0
 11
41.6691
 21
84.9782
 31
0.0
  0
LINE
  8
0
 62
     0
 10
41.6691
 20
84.9782
 30
0.0
 11
27.6696
 21
84.9782
 31
0.0
  0
LINE
  8
0
 62
     0
 10
27.6696
 20
84.9782
 30
0.0
 11
27.6696
 21
98.9789
 31
0.0
  0
LINE
  8
0
 62
     0
 10
46.7198
 20
98.9789
 30
0.0
 11
60.7191
 21
98.9789
 31
0.0
  0
LINE
  8
0
 62
     0
 10
60.7191
 20
98.9789
 30
0.0
 11
60.7191
 21
84.9782
 31
0.0
  0
LINE
  8
0
 62
     0
 10
60.7191
 20
84.9782
 30
0.0
 11
46.7198
 21
84.9782
 31
0.0
  0
LINE
  8
0
 62
     0
 10
46.7198
 20
84.9782
 30
0.0
 11
46.7198
 21
98.9789
 31
0.0
  0
LINE
  8
0
 62
     0
 10
65.7698
 20
98.9789
 30
0.0
 11
79.7691
 21
98.9789
 31
0.0
  0
LINE
  8
0
 62
     0
 10
79.7691
 20
98.9789
 30
0.0
 11
79.7691
 21
84.9782
 31
0.0
  0
LINE
  8
0
 62
     0
 10
79.7691
 20
84.9782
 30
0.0
 11
65.7698
 21
84.9782
 31
0.0
  0
LINE
  8
0
 62
     0
 10
65.7698
 20
84.9782
 30
0.0
 11
65.7698
 21
98.9789
 31
0.0
  0
LINE
  8
0
 62
     0
 10
84.8198
 20
98.9789
 30
0.0
 11
98.8191
 21
98.9789
 31
0.0
  0
LINE
  8
0
 62
     0
 10
98.8191
 20
98.9789
 30
0.0
 11
98.8191
 21
84.9782
 31
0.0
  0
LINE
  8
0
 62
     0
 10
98.8191
 20
84.9782
 30
0.0
 11
84.8198
 21
84.9782
 31
0.0
  0
LINE
  8
0
 62
     0
 10
84.8198
 20
84.9782
 30
0.0
 11
84.8198
 21
98.9789
 31
0.0
  0
LINE
  8
0
 62
     0
 10
103.868
 20
98.9789
 30
0.0
 11
117.869
 21
98.9789
 31
0.0
  0
LINE
  8
0
 62
     0
 10
117.869
 20
98.9789
 30
0.0
 11
117.869
 21
84.9782
 31
0.0
  0
LINE
  8
0
 62
     0
 10
117.869
 20
84.9782
 30
0.0
 11
103.868
 21
84.9782
 31
0.0
  0
LINE
  8
0
 62
     0
 10
103.868
 20
84.9782
 30
0.0
 11
103.868
 21
98.9789
 31
0.0
  0
LINE
  8
0
 62
     0
 10
122.918
 20
98.9789
 30
0.0
 11
136.919
 21
98.9789
 31
0.0
  0
LINE
  8
0
 62
     0
 10
136.919
 20
98.9789
 30
0.0
 11
136.919
 21
84.9782
 31
0.0
  0
LINE
  8
0
 62
     0
 10
136.919
 20
84.9782
 30
0.0
 11
122.918
 21
84.9782
 31
0.0
  0
LINE
  8
0
 62
     0
 10
122.918
 20
84.9782
 30
0.0
 11
122.918
 21
98.9789
 31
0.0
  0
ENDSEC
  0
EOF
