  0
SECTION
  2
HEADER
  9
$ACADVER
  1
AC1009
  9
$FILLMODE
 70
 0
  9
$SPLFRAME
 70
 1
  9
$EXTMIN
 10
0
 20
0
 30
0.0
  9
$EXTMAX
 10
1058.33
 20
1058.33
 30
0.0
  0
ENDSEC
  0
SECTION
  2
TABLES
  0
TABLE
  2
LAYER
 70
1
  0
LAYER
  2
0
 70
     0
 62
     7
  6
CONTINUOUS
  0
ENDTAB
  0
ENDSEC
  0
SECTION
  2
ENTITIES
  0
LINE
  8
0
 62
     0
 10
0.0950846
 20
109.619
 30
0.0
 11
152.207
 21
109.619
 31
0.0
  0
LINE
  8
0
 62
     0
 10
152.207
 20
109.619
 30
0.0
 11
152.207
 21
0.369316
 31
0.0
  0
LINE
  8
0
 62
     0
 10
152.207
 20
0.369316
 30
0.0
 11
0.0950846
 21
0.369316
 31
0.0
  0
LINE
  8
0
 62
     0
 10
0.0950846
 20
0.369316
 30
0.0
 11
0.0950846
 21
109.619
 31
0.0
  0
LINE
  8
0
 62
     0
 10
116.775
 20
23.8938
 30
0.0
 11
116.775
 21
19.1947
 31
0.0
  0
LINE
  8
0
 62
     0
 10
116.775
 20
19.1947
 30
0.0
 11
115.251
 21
19.1947
 31
0.0
  0
LINE
  8
0
 62
     0
 10
115.251
 20
19.1947
 30
0.0
 11
115.251
 21
22.4248
 31
0.0
  0
LINE
  8
0
 62
     0
 10
115.251
 20
22.4248
 30
0.0
 11
113.526
 21
22.4248
 31
0.0
  0
LINE
  8
0
 62
     0
 10
113.526
 20
22.4248
 30
0.0
 11
113.526
 21
23.3454
 31
0.0
  0
LINE
  8
0
 62
     0
 10
113.526
 20
23.3454
 30
0.0
 11
110.225
 21
23.3454
 31
0.0
  0
LINE
  8
0
 62
     0
 10
110.225
 20
23.3454
 30
0.0
 11
110.225
 21
22.4248
 31
0.0
  0
LINE
  8
0
 62
     0
 10
110.225
 20
22.4248
 30
0.0
 11
108.5
 21
22.4248
 31
0.0
  0
LINE
  8
0
 62
     0
 10
108.5
 20
22.4248
 30
0.0
 11
108.5
 21
19.1947
 31
0.0
  0
LINE
  8
0
 62
     0
 10
108.5
 20
19.1947
 30
0.0
 11
107.676
 21
19.1947
 31
0.0
  0
LINE
  8
0
 62
     0
 10
107.676
 20
19.1947
 30
0.0
 11
107.676
 21
16.3945
 31
0.0
  0
LINE
  8
0
 62
     0
 10
107.676
 20
16.3945
 30
0.0
 11
108.5
 21
16.3945
 31
0.0
  0
LINE
  8
0
 62
     0
 10
108.5
 20
16.3945
 30
0.0
 11
108.5
 21
10.1258
 31
0.0
  0
LINE
  8
0
 62
     0
 10
108.5
 20
10.1258
 30
0.0
 11
110.225
 21
10.1258
 31
0.0
  0
LINE
  8
0
 62
     0
 10
110.225
 20
10.1258
 30
0.0
 11
110.225
 21
9.14467
 31
0.0
  0
LINE
  8
0
 62
     0
 10
110.225
 20
9.14467
 30
0.0
 11
113.526
 21
9.14467
 31
0.0
  0
LINE
  8
0
 62
     0
 10
113.526
 20
9.14467
 30
0.0
 11
113.526
 21
10.1258
 31
0.0
  0
LINE
  8
0
 62
     0
 10
113.526
 20
10.1258
 30
0.0
 11
115.251
 21
10.1258
 31
0.0
  0
LINE
  8
0
 62
     0
 10
115.251
 20
10.1258
 30
0.0
 11
115.251
 21
14.5948
 31
0.0
  0
LINE
  8
0
 62
     0
 10
115.251
 20
14.5948
 30
0.0
 11
116.775
 21
14.5948
 31
0.0
  0
LINE
  8
0
 62
     0
 10
116.775
 20
14.5948
 30
0.0
 11
116.775
 21
9.89432
 31
0.0
  0
LINE
  8
0
 62
     0
 10
116.775
 20
9.89432
 30
0.0
 11
130.776
 21
9.89432
 31
0.0
  0
LINE
  8
0
 62
     0
 10
130.776
 20
9.89432
 30
0.0
 11
130.776
 21
14.5948
 31
0.0
  0
LINE
  8
0
 62
     0
 10
130.776
 20
14.5948
 30
0.0
 11
132.3
 21
14.5948
 31
0.0
  0
LINE
  8
0
 62
     0
 10
132.3
 20
14.5948
 30
0.0
 11
132.3
 21
10.1258
 31
0.0
  0
LINE
  8
0
 62
     0
 10
132.3
 20
10.1258
 30
0.0
 11
134.025
 21
10.1258
 31
0.0
  0
LINE
  8
0
 62
     0
 10
134.025
 20
10.1258
 30
0.0
 11
134.025
 21
9.14467
 31
0.0
  0
LINE
  8
0
 62
     0
 10
134.025
 20
9.14467
 30
0.0
 11
137.326
 21
9.14467
 31
0.0
  0
LINE
  8
0
 62
     0
 10
137.326
 20
9.14467
 30
0.0
 11
137.326
 21
10.1258
 31
0.0
  0
LINE
  8
0
 62
     0
 10
137.326
 20
10.1258
 30
0.0
 11
139.051
 21
10.1258
 31
0.0
  0
LINE
  8
0
 62
     0
 10
139.051
 20
10.1258
 30
0.0
 11
139.051
 21
16.3945
 31
0.0
  0
LINE
  8
0
 62
     0
 10
139.051
 20
16.3945
 30
0.0
 11
139.875
 21
16.3945
 31
0.0
  0
LINE
  8
0
 62
     0
 10
139.875
 20
16.3945
 30
0.0
 11
139.875
 21
19.1947
 31
0.0
  0
LINE
  8
0
 62
     0
 10
139.875
 20
19.1947
 30
0.0
 11
139.051
 21
19.1947
 31
0.0
  0
LINE
  8
0
 62
     0
 10
139.051
 20
19.1947
 30
0.0
 11
139.051
 21
22.4248
 31
0.0
  0
LINE
  8
0
 62
     0
 10
139.051
 20
22.4248
 30
0.0
 11
137.326
 21
22.4248
 31
0.0
  0
LINE
  8
0
 62
     0
 10
137.326
 20
22.4248
 30
0.0
 11
137.326
 21
23.3454
 31
0.0
  0
LINE
  8
0
 62
     0
 10
137.326
 20
23.3454
 30
0.0
 11
134.025
 21
23.3454
 31
0.0
  0
LINE
  8
0
 62
     0
 10
134.025
 20
23.3454
 30
0.0
 11
134.025
 21
22.4248
 31
0.0
  0
LINE
  8
0
 62
     0
 10
134.025
 20
22.4248
 30
0.0
 11
132.3
 21
22.4248
 31
0.0
  0
LINE
  8
0
 62
     0
 10
132.3
 20
22.4248
 30
0.0
 11
132.3
 21
19.1947
 31
0.0
  0
LINE
  8
0
 62
     0
 10
132.3
 20
19.1947
 30
0.0
 11
130.776
 21
19.1947
 31
0.0
  0
LINE
  8
0
 62
     0
 10
130.776
 20
19.1947
 30
0.0
 11
130.776
 21
23.8938
 31
0.0
  0
LINE
  8
0
 62
     0
 10
130.776
 20
23.8938
 30
0.0
 11
116.775
 21
23.8938
 31
0.0
  0
LINE
  8
0
 62
     0
 10
11.9999
 20
23.8938
 30
0.0
 11
26.0008
 21
23.8938
 31
0.0
  0
LINE
  8
0
 62
     0
 10
26.0008
 20
23.8938
 30
0.0
 11
26.0008
 21
9.89432
 31
0.0
  0
LINE
  8
0
 62
     0
 10
26.0008
 20
9.89432
 30
0.0
 11
11.9999
 21
9.89432
 31
0.0
  0
LINE
  8
0
 62
     0
 10
11.9999
 20
9.89432
 30
0.0
 11
11.9999
 21
23.8938
 31
0.0
  0
LINE
  8
0
 62
     0
 10
35.8126
 20
23.8938
 30
0.0
 11
49.8119
 21
23.8938
 31
0.0
  0
LINE
  8
0
 62
     0
 10
49.8119
 20
23.8938
 30
0.0
 11
49.8119
 21
9.89432
 31
0.0
  0
LINE
  8
0
 62
     0
 10
49.8119
 20
9.89432
 30
0.0
 11
35.8126
 21
9.89432
 31
0.0
  0
LINE
  8
0
 62
     0
 10
35.8126
 20
9.89432
 30
0.0
 11
35.8126
 21
23.8938
 31
0.0
  0
LINE
  8
0
 62
     0
 10
59.6251
 20
23.8938
 30
0.0
 11
73.6258
 21
23.8938
 31
0.0
  0
LINE
  8
0
 62
     0
 10
73.6258
 20
23.8938
 30
0.0
 11
73.6258
 21
9.89432
 31
0.0
  0
LINE
  8
0
 62
     0
 10
73.6258
 20
9.89432
 30
0.0
 11
59.6251
 21
9.89432
 31
0.0
  0
LINE
  8
0
 62
     0
 10
59.6251
 20
9.89432
 30
0.0
 11
59.6251
 21
23.8938
 31
0.0
  0
LINE
  8
0
 62
     0
 10
83.4376
 20
23.8938
 30
0.0
 11
97.4369
 21
23.8938
 31
0.0
  0
LINE
  8
0
 62
     0
 10
97.4369
 20
23.8938
 30
0.0
 11
97.4369
 21
9.89432
 31
0.0
  0
LINE
  8
0
 62
     0
 10
97.4369
 20
9.89432
 30
0.0
 11
83.4376
 21
9.89432
 31
0.0
  0
LINE
  8
0
 62
     0
 10
83.4376
 20
9.89432
 30
0.0
 11
83.4376
 21
23.8938
 31
0.0
  0
LINE
  8
0
 62
     0
 10
21.5249
 20
42.9436
 30
0.0
 11
21.5249
 21
38.2446
 31
0.0
  0
LINE
  8
0
 62
     0
 10
21.5249
 20
38.2446
 30
0.0
 11
20.0008
 21
38.2446
 31
0.0
  0
LINE
  8
0
 62
     0
 10
20.0008
 20
38.2446
 30
0.0
 11
20.0008
 21
41.4747
 31
0.0
  0
LINE
  8
0
 62
     0
 10
20.0008
 20
41.4747
 30
0.0
 11
18.2755
 21
41.4747
 31
0.0
  0
LINE
  8
0
 62
     0
 10
18.2755
 20
41.4747
 30
0.0
 11
18.2755
 21
42.394
 31
0.0
  0
LINE
  8
0
 62
     0
 10
18.2755
 20
42.394
 30
0.0
 11
14.9751
 21
42.394
 31
0.0
  0
LINE
  8
0
 62
     0
 10
14.9751
 20
42.394
 30
0.0
 11
14.9751
 21
41.4747
 31
0.0
  0
LINE
  8
0
 62
     0
 10
14.9751
 20
41.4747
 30
0.0
 11
13.2498
 21
41.4747
 31
0.0
  0
LINE
  8
0
 62
     0
 10
13.2498
 20
41.4747
 30
0.0
 11
13.2498
 21
38.2446
 31
0.0
  0
LINE
  8
0
 62
     0
 10
13.2498
 20
38.2446
 30
0.0
 11
12.4258
 21
38.2446
 31
0.0
  0
LINE
  8
0
 62
     0
 10
12.4258
 20
38.2446
 30
0.0
 11
12.4258
 21
35.4446
 31
0.0
  0
LINE
  8
0
 62
     0
 10
12.4258
 20
35.4446
 30
0.0
 11
13.2498
 21
35.4446
 31
0.0
  0
LINE
  8
0
 62
     0
 10
13.2498
 20
35.4446
 30
0.0
 11
13.2498
 21
29.1744
 31
0.0
  0
LINE
  8
0
 62
     0
 10
13.2498
 20
29.1744
 30
0.0
 11
14.9751
 21
29.1744
 31
0.0
  0
LINE
  8
0
 62
     0
 10
14.9751
 20
29.1744
 30
0.0
 11
14.9751
 21
28.1947
 31
0.0
  0
LINE
  8
0
 62
     0
 10
14.9751
 20
28.1947
 30
0.0
 11
18.2755
 21
28.1947
 31
0.0
  0
LINE
  8
0
 62
     0
 10
18.2755
 20
28.1947
 30
0.0
 11
18.2755
 21
29.1744
 31
0.0
  0
LINE
  8
0
 62
     0
 10
18.2755
 20
29.1744
 30
0.0
 11
20.0008
 21
29.1744
 31
0.0
  0
LINE
  8
0
 62
     0
 10
20.0008
 20
29.1744
 30
0.0
 11
20.0008
 21
33.6448
 31
0.0
  0
LINE
  8
0
 62
     0
 10
20.0008
 20
33.6448
 30
0.0
 11
21.5249
 21
33.6448
 31
0.0
  0
LINE
  8
0
 62
     0
 10
21.5249
 20
33.6448
 30
0.0
 11
21.5249
 21
28.9443
 31
0.0
  0
LINE
  8
0
 62
     0
 10
21.5249
 20
28.9443
 30
0.0
 11
35.5258
 21
28.9443
 31
0.0
  0
LINE
  8
0
 62
     0
 10
35.5258
 20
28.9443
 30
0.0
 11
35.5258
 21
33.6448
 31
0.0
  0
LINE
  8
0
 62
     0
 10
35.5258
 20
33.6448
 30
0.0
 11
37.0498
 21
33.6448
 31
0.0
  0
LINE
  8
0
 62
     0
 10
37.0498
 20
33.6448
 30
0.0
 11
37.0498
 21
29.1744
 31
0.0
  0
LINE
  8
0
 62
     0
 10
37.0498
 20
29.1744
 30
0.0
 11
38.7752
 21
29.1744
 31
0.0
  0
LINE
  8
0
 62
     0
 10
38.7752
 20
29.1744
 30
0.0
 11
38.7752
 21
28.1947
 31
0.0
  0
LINE
  8
0
 62
     0
 10
38.7752
 20
28.1947
 30
0.0
 11
42.0758
 21
28.1947
 31
0.0
  0
LINE
  8
0
 62
     0
 10
42.0758
 20
28.1947
 30
0.0
 11
42.0758
 21
29.1744
 31
0.0
  0
LINE
  8
0
 62
     0
 10
42.0758
 20
29.1744
 30
0.0
 11
43.8009
 21
29.1744
 31
0.0
  0
LINE
  8
0
 62
     0
 10
43.8009
 20
29.1744
 30
0.0
 11
43.8009
 21
35.4446
 31
0.0
  0
LINE
  8
0
 62
     0
 10
43.8009
 20
35.4446
 30
0.0
 11
44.625
 21
35.4446
 31
0.0
  0
LINE
  8
0
 62
     0
 10
44.625
 20
35.4446
 30
0.0
 11
44.625
 21
38.2446
 31
0.0
  0
LINE
  8
0
 62
     0
 10
44.625
 20
38.2446
 30
0.0
 11
43.8009
 21
38.2446
 31
0.0
  0
LINE
  8
0
 62
     0
 10
43.8009
 20
38.2446
 30
0.0
 11
43.8009
 21
41.4747
 31
0.0
  0
LINE
  8
0
 62
     0
 10
43.8009
 20
41.4747
 30
0.0
 11
42.0758
 21
41.4747
 31
0.0
  0
LINE
  8
0
 62
     0
 10
42.0758
 20
41.4747
 30
0.0
 11
42.0758
 21
42.394
 31
0.0
  0
LINE
  8
0
 62
     0
 10
42.0758
 20
42.394
 30
0.0
 11
38.7752
 21
42.394
 31
0.0
  0
LINE
  8
0
 62
     0
 10
38.7752
 20
42.394
 30
0.0
 11
38.7752
 21
41.4747
 31
0.0
  0
LINE
  8
0
 62
     0
 10
38.7752
 20
41.4747
 30
0.0
 11
37.0498
 21
41.4747
 31
0.0
  0
LINE
  8
0
 62
     0
 10
37.0498
 20
41.4747
 30
0.0
 11
37.0498
 21
38.2446
 31
0.0
  0
LINE
  8
0
 62
     0
 10
37.0498
 20
38.2446
 30
0.0
 11
35.5258
 21
38.2446
 31
0.0
  0
LINE
  8
0
 62
     0
 10
35.5258
 20
38.2446
 30
0.0
 11
35.5258
 21
42.9436
 31
0.0
  0
LINE
  8
0
 62
     0
 10
35.5258
 20
42.9436
 30
0.0
 11
21.5249
 21
42.9436
 31
0.0
  0
LINE
  8
0
 62
     0
 10
52.4813
 20
42.9436
 30
0.0
 11
66.482
 21
42.9436
 31
0.0
  0
LINE
  8
0
 62
     0
 10
66.482
 20
42.9436
 30
0.0
 11
66.482
 21
28.9443
 31
0.0
  0
LINE
  8
0
 62
     0
 10
66.482
 20
28.9443
 30
0.0
 11
52.4813
 21
28.9443
 31
0.0
  0
LINE
  8
0
 62
     0
 10
52.4813
 20
28.9443
 30
0.0
 11
52.4813
 21
42.9436
 31
0.0
  0
LINE
  8
0
 62
     0
 10
71.5313
 20
42.9436
 30
0.0
 11
85.532
 21
42.9436
 31
0.0
  0
LINE
  8
0
 62
     0
 10
85.532
 20
42.9436
 30
0.0
 11
85.532
 21
28.9443
 31
0.0
  0
LINE
  8
0
 62
     0
 10
85.532
 20
28.9443
 30
0.0
 11
71.5313
 21
28.9443
 31
0.0
  0
LINE
  8
0
 62
     0
 10
71.5313
 20
28.9443
 30
0.0
 11
71.5313
 21
42.9436
 31
0.0
  0
LINE
  8
0
 62
     0
 10
90.5813
 20
42.9436
 30
0.0
 11
104.582
 21
42.9436
 31
0.0
  0
LINE
  8
0
 62
     0
 10
104.582
 20
42.9436
 30
0.0
 11
104.582
 21
28.9443
 31
0.0
  0
LINE
  8
0
 62
     0
 10
104.582
 20
28.9443
 30
0.0
 11
90.5813
 21
28.9443
 31
0.0
  0
LINE
  8
0
 62
     0
 10
90.5813
 20
28.9443
 30
0.0
 11
90.5813
 21
42.9436
 31
0.0
  0
LINE
  8
0
 62
     0
 10
109.631
 20
42.9436
 30
0.0
 11
123.632
 21
42.9436
 31
0.0
  0
LINE
  8
0
 62
     0
 10
123.632
 20
42.9436
 30
0.0
 11
123.632
 21
28.9443
 31
0.0
  0
LINE
  8
0
 62
     0
 10
123.632
 20
28.9443
 30
0.0
 11
109.631
 21
28.9443
 31
0.0
  0
LINE
  8
0
 62
     0
 10
109.631
 20
28.9443
 30
0.0
 11
109.631
 21
42.9436
 31
0.0
  0
LINE
  8
0
 62
     0
 10
128.681
 20
42.9436
 30
0.0
 11
142.682
 21
42.9436
 31
0.0
  0
LINE
  8
0
 62
     0
 10
142.682
 20
42.9436
 30
0.0
 11
142.682
 21
28.9443
 31
0.0
  0
LINE
  8
0
 62
     0
 10
142.682
 20
28.9443
 30
0.0
 11
128.681
 21
28.9443
 31
0.0
  0
LINE
  8
0
 62
     0
 10
128.681
 20
28.9443
 30
0.0
 11
128.681
 21
42.9436
 31
0.0
  0
LINE
  8
0
 62
     0
 10
16.7624
 20
61.9936
 30
0.0
 11
30.7619
 21
61.9936
 31
0.0
  0
LINE
  8
0
 62
     0
 10
30.7619
 20
61.9936
 30
0.0
 11
30.7619
 21
47.9944
 31
0.0
  0
LINE
  8
0
 62
     0
 10
30.7619
 20
47.9944
 30
0.0
 11
16.7624
 21
47.9944
 31
0.0
  0
LINE
  8
0
 62
     0
 10
16.7624
 20
47.9944
 30
0.0
 11
16.7624
 21
61.9936
 31
0.0
  0
LINE
  8
0
 62
     0
 10
42.9563
 20
61.9936
 30
0.0
 11
56.957
 21
61.9936
 31
0.0
  0
LINE
  8
0
 62
     0
 10
56.957
 20
61.9936
 30
0.0
 11
56.957
 21
47.9944
 31
0.0
  0
LINE
  8
0
 62
     0
 10
56.957
 20
47.9944
 30
0.0
 11
42.9563
 21
47.9944
 31
0.0
  0
LINE
  8
0
 62
     0
 10
42.9563
 20
47.9944
 30
0.0
 11
42.9563
 21
61.9936
 31
0.0
  0
LINE
  8
0
 62
     0
 10
62.0063
 20
61.9936
 30
0.0
 11
76.007
 21
61.9936
 31
0.0
  0
LINE
  8
0
 62
     0
 10
76.007
 20
61.9936
 30
0.0
 11
76.007
 21
47.9944
 31
0.0
  0
LINE
  8
0
 62
     0
 10
76.007
 20
47.9944
 30
0.0
 11
62.0063
 21
47.9944
 31
0.0
  0
LINE
  8
0
 62
     0
 10
62.0063
 20
47.9944
 30
0.0
 11
62.0063
 21
61.9936
 31
0.0
  0
LINE
  8
0
 62
     0
 10
81.0563
 20
61.9936
 30
0.0
 11
95.057
 21
61.9936
 31
0.0
  0
LINE
  8
0
 62
     0
 10
95.057
 20
61.9936
 30
0.0
 11
95.057
 21
47.9944
 31
0.0
  0
LINE
  8
0
 62
     0
 10
95.057
 20
47.9944
 30
0.0
 11
81.0563
 21
47.9944
 31
0.0
  0
LINE
  8
0
 62
     0
 10
81.0563
 20
47.9944
 30
0.0
 11
81.0563
 21
61.9936
 31
0.0
  0
LINE
  8
0
 62
     0
 10
100.106
 20
61.9936
 30
0.0
 11
114.107
 21
61.9936
 31
0.0
  0
LINE
  8
0
 62
     0
 10
114.107
 20
61.9936
 30
0.0
 11
114.107
 21
47.9944
 31
0.0
  0
LINE
  8
0
 62
     0
 10
114.107
 20
47.9944
 30
0.0
 11
100.106
 21
47.9944
 31
0.0
  0
LINE
  8
0
 62
     0
 10
100.106
 20
47.9944
 30
0.0
 11
100.106
 21
61.9936
 31
0.0
  0
LINE
  8
0
 62
     0
 10
119.156
 20
61.9936
 30
0.0
 11
133.157
 21
61.9936
 31
0.0
  0
LINE
  8
0
 62
     0
 10
133.157
 20
61.9936
 30
0.0
 11
133.157
 21
47.9944
 31
0.0
  0
LINE
  8
0
 62
     0
 10
133.157
 20
47.9944
 30
0.0
 11
119.156
 21
47.9944
 31
0.0
  0
LINE
  8
0
 62
     0
 10
119.156
 20
47.9944
 30
0.0
 11
119.156
 21
61.9936
 31
0.0
  0
LINE
  8
0
 62
     0
 10
14.3812
 20
81.0436
 30
0.0
 11
28.3821
 21
81.0436
 31
0.0
  0
LINE
  8
0
 62
     0
 10
28.3821
 20
81.0436
 30
0.0
 11
28.3821
 21
67.0444
 31
0.0
  0
LINE
  8
0
 62
     0
 10
28.3821
 20
67.0444
 30
0.0
 11
14.3812
 21
67.0444
 31
0.0
  0
LINE
  8
0
 62
     0
 10
14.3812
 20
67.0444
 30
0.0
 11
14.3812
 21
81.0436
 31
0.0
  0
LINE
  8
0
 62
     0
 10
38.1952
 20
81.0436
 30
0.0
 11
52.1945
 21
81.0436
 31
0.0
  0
LINE
  8
0
 62
     0
 10
52.1945
 20
81.0436
 30
0.0
 11
52.1945
 21
67.0444
 31
0.0
  0
LINE
  8
0
 62
     0
 10
52.1945
 20
67.0444
 30
0.0
 11
38.1952
 21
67.0444
 31
0.0
  0
LINE
  8
0
 62
     0
 10
38.1952
 20
67.0444
 30
0.0
 11
38.1952
 21
81.0436
 31
0.0
  0
LINE
  8
0
 62
     0
 10
57.2453
 20
81.0436
 30
0.0
 11
71.2445
 21
81.0436
 31
0.0
  0
LINE
  8
0
 62
     0
 10
71.2445
 20
81.0436
 30
0.0
 11
71.2445
 21
67.0444
 31
0.0
  0
LINE
  8
0
 62
     0
 10
71.2445
 20
67.0444
 30
0.0
 11
57.2453
 21
67.0444
 31
0.0
  0
LINE
  8
0
 62
     0
 10
57.2453
 20
67.0444
 30
0.0
 11
57.2453
 21
81.0436
 31
0.0
  0
LINE
  8
0
 62
     0
 10
76.2953
 20
81.0436
 30
0.0
 11
90.2945
 21
81.0436
 31
0.0
  0
LINE
  8
0
 62
     0
 10
90.2945
 20
81.0436
 30
0.0
 11
90.2945
 21
67.0444
 31
0.0
  0
LINE
  8
0
 62
     0
 10
90.2945
 20
67.0444
 30
0.0
 11
76.2953
 21
67.0444
 31
0.0
  0
LINE
  8
0
 62
     0
 10
76.2953
 20
67.0444
 30
0.0
 11
76.2953
 21
81.0436
 31
0.0
  0
LINE
  8
0
 62
     0
 10
95.3452
 20
81.0436
 30
0.0
 11
109.345
 21
81.0436
 31
0.0
  0
LINE
  8
0
 62
     0
 10
109.345
 20
81.0436
 30
0.0
 11
109.345
 21
67.0444
 31
0.0
  0
LINE
  8
0
 62
     0
 10
109.345
 20
67.0444
 30
0.0
 11
95.3452
 21
67.0444
 31
0.0
  0
LINE
  8
0
 62
     0
 10
95.3452
 20
67.0444
 30
0.0
 11
95.3452
 21
81.0436
 31
0.0
  0
LINE
  8
0
 62
     0
 10
114.395
 20
81.0436
 30
0.0
 11
128.395
 21
81.0436
 31
0.0
  0
LINE
  8
0
 62
     0
 10
128.395
 20
81.0436
 30
0.0
 11
128.395
 21
67.0444
 31
0.0
  0
LINE
  8
0
 62
     0
 10
128.395
 20
67.0444
 30
0.0
 11
114.395
 21
67.0444
 31
0.0
  0
LINE
  8
0
 62
     0
 10
114.395
 20
67.0444
 30
0.0
 11
114.395
 21
81.0436
 31
0.0
  0
LINE
  8
0
 62
     0
 10
9.6187
 20
100.095
 30
0.0
 11
23.6196
 21
100.095
 31
0.0
  0
LINE
  8
0
 62
     0
 10
23.6196
 20
100.095
 30
0.0
 11
23.6196
 21
86.0944
 31
0.0
  0
LINE
  8
0
 62
     0
 10
23.6196
 20
86.0944
 30
0.0
 11
9.6187
 21
86.0944
 31
0.0
  0
LINE
  8
0
 62
     0
 10
9.6187
 20
86.0944
 30
0.0
 11
9.6187
 21
100.095
 31
0.0
  0
LINE
  8
0
 62
     0
 10
28.6701
 20
100.095
 30
0.0
 11
42.6695
 21
100.095
 31
0.0
  0
LINE
  8
0
 62
     0
 10
42.6695
 20
100.095
 30
0.0
 11
42.6695
 21
86.0944
 31
0.0
  0
LINE
  8
0
 62
     0
 10
42.6695
 20
86.0944
 30
0.0
 11
28.6701
 21
86.0944
 31
0.0
  0
LINE
  8
0
 62
     0
 10
28.6701
 20
86.0944
 30
0.0
 11
28.6701
 21
100.095
 31
0.0
  0
LINE
  8
0
 62
     0
 10
47.7203
 20
100.095
 30
0.0
 11
61.7195
 21
100.095
 31
0.0
  0
LINE
  8
0
 62
     0
 10
61.7195
 20
100.095
 30
0.0
 11
61.7195
 21
86.0944
 31
0.0
  0
LINE
  8
0
 62
     0
 10
61.7195
 20
86.0944
 30
0.0
 11
47.7203
 21
86.0944
 31
0.0
  0
LINE
  8
0
 62
     0
 10
47.7203
 20
86.0944
 30
0.0
 11
47.7203
 21
100.095
 31
0.0
  0
LINE
  8
0
 62
     0
 10
66.7703
 20
100.095
 30
0.0
 11
80.7695
 21
100.095
 31
0.0
  0
LINE
  8
0
 62
     0
 10
80.7695
 20
100.095
 30
0.0
 11
80.7695
 21
86.0944
 31
0.0
  0
LINE
  8
0
 62
     0
 10
80.7695
 20
86.0944
 30
0.0
 11
66.7703
 21
86.0944
 31
0.0
  0
LINE
  8
0
 62
     0
 10
66.7703
 20
86.0944
 30
0.0
 11
66.7703
 21
100.095
 31
0.0
  0
LINE
  8
0
 62
     0
 10
85.8203
 20
100.095
 30
0.0
 11
99.8195
 21
100.095
 31
0.0
  0
LINE
  8
0
 62
     0
 10
99.8195
 20
100.095
 30
0.0
 11
99.8195
 21
86.0944
 31
0.0
  0
LINE
  8
0
 62
     0
 10
99.8195
 20
86.0944
 30
0.0
 11
85.8203
 21
86.0944
 31
0.0
  0
LINE
  8
0
 62
     0
 10
85.8203
 20
86.0944
 30
0.0
 11
85.8203
 21
100.095
 31
0.0
  0
LINE
  8
0
 62
     0
 10
104.869
 20
100.095
 30
0.0
 11
118.868
 21
100.095
 31
0.0
  0
LINE
  8
0
 62
     0
 10
118.868
 20
100.095
 30
0.0
 11
118.868
 21
86.0944
 31
0.0
  0
LINE
  8
0
 62
     0
 10
118.868
 20
86.0944
 30
0.0
 11
104.869
 21
86.0944
 31
0.0
  0
LINE
  8
0
 62
     0
 10
104.869
 20
86.0944
 30
0.0
 11
104.869
 21
100.095
 31
0.0
  0
LINE
  8
0
 62
     0
 10
123.919
 20
100.095
 30
0.0
 11
137.92
 21
100.095
 31
0.0
  0
LINE
  8
0
 62
     0
 10
137.92
 20
100.095
 30
0.0
 11
137.92
 21
86.0944
 31
0.0
  0
LINE
  8
0
 62
     0
 10
137.92
 20
86.0944
 30
0.0
 11
123.919
 21
86.0944
 31
0.0
  0
LINE
  8
0
 62
     0
 10
123.919
 20
86.0944
 30
0.0
 11
123.919
 21
100.095
 31
0.0
  0
ENDSEC
  0
EOF
