0
SECTION
2
HEADER
9
$INSUNITS
70
4
9
$INSBASE
10
0.0
20
0.0
30
0.0
9
$EXTMIN
10
0
20
0
9
$EXTMAX
10
150.0875
20
107.22500000000001
0
ENDSEC
0
SECTION
2
TABLES
0
TABLE
2
LTYPE
70
1
0
LTYPE
2
CONTINUOUS
70
64
3
Solid line
72
65
73
0
40
0.0
0
ENDTAB
0
TABLE
2
LAYER
70
1
0
LAYER
2
Layer1
70
64
62
7
6
CONTINUOUS
0
ENDTAB
0
TABLE
2
STYLE
70
0
0
ENDTAB
0
TABLE
2
VIEW
70
0
0
ENDTAB
0
ENDSEC
0
SECTION
2
BLOCKS
0
ENDSEC
0
SECTION
2
ENTITIES
0
POLYLINE
5
129
8
Layer1
66
1
10
0.0
20
0.0
30
0.0
70
1
0
VERTEX
5
12a
8
Layer1
10
0.0000
20
0.0000
30
0.0
0
VERTEX
5
12b
8
Layer1
10
150.0875
20
0.0000
30
0.0
0
VERTEX
5
12c
8
Layer1
10
150.0875
20
107.2250
30
0.0
0
VERTEX
5
12d
8
Layer1
10
0.0000
20
107.2250
30
0.0
0
VERTEX
5
12e
8
Layer1
10
0.0000
20
0.0000
30
0.0
0
SEQEND
5
12f
8
Layer1
0
POLYLINE
5
130
8
Layer1
66
1
10
0.0
20
0.0
30
0.0
70
1
0
VERTEX
5
131
8
Layer1
10
22.5250
20
98.7000
30
0.0
0
VERTEX
5
132
8
Layer1
10
8.5250
20
98.7000
30
0.0
0
VERTEX
5
133
8
Layer1
10
8.5250
20
84.7000
30
0.0
0
VERTEX
5
134
8
Layer1
10
22.5250
20
84.7000
30
0.0
0
VERTEX
5
135
8
Layer1
10
22.5250
20
98.7000
30
0.0
0
SEQEND
5
136
8
Layer1
0
POLYLINE
5
137
8
Layer1
66
1
10
0.0
20
0.0
30
0.0
70
1
0
VERTEX
5
138
8
Layer1
10
41.5750
20
98.7000
30
0.0
0
VERTEX
5
139
8
Layer1
10
27.5750
20
98.7000
30
0.0
0
VERTEX
5
13a
8
Layer1
10
27.5750
20
84.7000
30
0.0
0
VERTEX
5
13b
8
Layer1
10
41.5750
20
84.7000
30
0.0
0
VERTEX
5
13c
8
Layer1
10
41.5750
20
98.7000
30
0.0
0
SEQEND
5
13d
8
Layer1
0
POLYLINE
5
13e
8
Layer1
66
1
10
0.0
20
0.0
30
0.0
70
1
0
VERTEX
5
13f
8
Layer1
10
60.6250
20
98.7000
30
0.0
0
VERTEX
5
140
8
Layer1
10
46.6250
20
98.7000
30
0.0
0
VERTEX
5
141
8
Layer1
10
46.6250
20
84.7000
30
0.0
0
VERTEX
5
142
8
Layer1
10
60.6250
20
84.7000
30
0.0
0
VERTEX
5
143
8
Layer1
10
60.6250
20
98.7000
30
0.0
0
SEQEND
5
144
8
Layer1
0
POLYLINE
5
145
8
Layer1
66
1
10
0.0
20
0.0
30
0.0
70
1
0
VERTEX
5
146
8
Layer1
10
79.6750
20
98.7000
30
0.0
0
VERTEX
5
147
8
Layer1
10
65.6750
20
98.7000
30
0.0
0
VERTEX
5
148
8
Layer1
10
65.6750
20
84.7000
30
0.0
0
VERTEX
5
149
8
Layer1
10
79.6750
20
84.7000
30
0.0
0
VERTEX
5
14a
8
Layer1
10
79.6750
20
98.7000
30
0.0
0
SEQEND
5
14b
8
Layer1
0
POLYLINE
5
14c
8
Layer1
66
1
10
0.0
20
0.0
30
0.0
70
1
0
VERTEX
5
14d
8
Layer1
10
98.7250
20
98.7000
30
0.0
0
VERTEX
5
14e
8
Layer1
10
84.7250
20
98.7000
30
0.0
0
VERTEX
5
14f
8
Layer1
10
84.7250
20
84.7000
30
0.0
0
VERTEX
5
150
8
Layer1
10
98.7250
20
84.7000
30
0.0
0
VERTEX
5
151
8
Layer1
10
98.7250
20
98.7000
30
0.0
0
SEQEND
5
152
8
Layer1
0
POLYLINE
5
153
8
Layer1
66
1
10
0.0
20
0.0
30
0.0
70
1
0
VERTEX
5
154
8
Layer1
10
117.7750
20
98.7000
30
0.0
0
VERTEX
5
155
8
Layer1
10
103.7750
20
98.7000
30
0.0
0
VERTEX
5
156
8
Layer1
10
103.7750
20
84.7000
30
0.0
0
VERTEX
5
157
8
Layer1
10
117.7750
20
84.7000
30
0.0
0
VERTEX
5
158
8
Layer1
10
117.7750
20
98.7000
30
0.0
0
SEQEND
5
159
8
Layer1
0
POLYLINE
5
15a
8
Layer1
66
1
10
0.0
20
0.0
30
0.0
70
1
0
VERTEX
5
15b
8
Layer1
10
136.8250
20
98.7000
30
0.0
0
VERTEX
5
15c
8
Layer1
10
122.8250
20
98.7000
30
0.0
0
VERTEX
5
15d
8
Layer1
10
122.8250
20
84.7000
30
0.0
0
VERTEX
5
15e
8
Layer1
10
136.8250
20
84.7000
30
0.0
0
VERTEX
5
15f
8
Layer1
10
136.8250
20
98.7000
30
0.0
0
SEQEND
5
160
8
Layer1
0
POLYLINE
5
161
8
Layer1
66
1
10
0.0
20
0.0
30
0.0
70
1
0
VERTEX
5
162
8
Layer1
10
27.2880
20
79.6500
30
0.0
0
VERTEX
5
163
8
Layer1
10
13.2880
20
79.6500
30
0.0
0
VERTEX
5
164
8
Layer1
10
13.2880
20
65.6500
30
0.0
0
VERTEX
5
165
8
Layer1
10
27.2880
20
65.6500
30
0.0
0
VERTEX
5
166
8
Layer1
10
27.2880
20
79.6500
30
0.0
0
SEQEND
5
167
8
Layer1
0
POLYLINE
5
168
8
Layer1
66
1
10
0.0
20
0.0
30
0.0
70
1
0
VERTEX
5
169
8
Layer1
10
51.1000
20
79.6500
30
0.0
0
VERTEX
5
16a
8
Layer1
10
37.1000
20
79.6500
30
0.0
0
VERTEX
5
16b
8
Layer1
10
37.1000
20
65.6500
30
0.0
0
VERTEX
5
16c
8
Layer1
10
51.1000
20
65.6500
30
0.0
0
VERTEX
5
16d
8
Layer1
10
51.1000
20
79.6500
30
0.0
0
SEQEND
5
16e
8
Layer1
0
POLYLINE
5
16f
8
Layer1
66
1
10
0.0
20
0.0
30
0.0
70
1
0
VERTEX
5
170
8
Layer1
10
70.1500
20
79.6500
30
0.0
0
VERTEX
5
171
8
Layer1
10
56.1500
20
79.6500
30
0.0
0
VERTEX
5
172
8
Layer1
10
56.1500
20
65.6500
30
0.0
0
VERTEX
5
173
8
Layer1
10
70.1500
20
65.6500
30
0.0
0
VERTEX
5
174
8
Layer1
10
70.1500
20
79.6500
30
0.0
0
SEQEND
5
175
8
Layer1
0
POLYLINE
5
176
8
Layer1
66
1
10
0.0
20
0.0
30
0.0
70
1
0
VERTEX
5
177
8
Layer1
10
89.2000
20
79.6500
30
0.0
0
VERTEX
5
178
8
Layer1
10
75.2000
20
79.6500
30
0.0
0
VERTEX
5
179
8
Layer1
10
75.2000
20
65.6500
30
0.0
0
VERTEX
5
17a
8
Layer1
10
89.2000
20
65.6500
30
0.0
0
VERTEX
5
17b
8
Layer1
10
89.2000
20
79.6500
30
0.0
0
SEQEND
5
17c
8
Layer1
0
POLYLINE
5
17d
8
Layer1
66
1
10
0.0
20
0.0
30
0.0
70
1
0
VERTEX
5
17e
8
Layer1
10
108.2500
20
79.6500
30
0.0
0
VERTEX
5
17f
8
Layer1
10
94.2500
20
79.6500
30
0.0
0
VERTEX
5
180
8
Layer1
10
94.2500
20
65.6500
30
0.0
0
VERTEX
5
181
8
Layer1
10
108.2500
20
65.6500
30
0.0
0
VERTEX
5
182
8
Layer1
10
108.2500
20
79.6500
30
0.0
0
SEQEND
5
183
8
Layer1
0
POLYLINE
5
184
8
Layer1
66
1
10
0.0
20
0.0
30
0.0
70
1
0
VERTEX
5
185
8
Layer1
10
127.3000
20
79.6500
30
0.0
0
VERTEX
5
186
8
Layer1
10
113.3000
20
79.6500
30
0.0
0
VERTEX
5
187
8
Layer1
10
113.3000
20
65.6500
30
0.0
0
VERTEX
5
188
8
Layer1
10
127.3000
20
65.6500
30
0.0
0
VERTEX
5
189
8
Layer1
10
127.3000
20
79.6500
30
0.0
0
SEQEND
5
18a
8
Layer1
0
POLYLINE
5
18b
8
Layer1
66
1
10
0.0
20
0.0
30
0.0
70
1
0
VERTEX
5
18c
8
Layer1
10
29.6690
20
60.6000
30
0.0
0
VERTEX
5
18d
8
Layer1
10
15.6690
20
60.6000
30
0.0
0
VERTEX
5
18e
8
Layer1
10
15.6690
20
46.6000
30
0.0
0
VERTEX
5
18f
8
Layer1
10
29.6690
20
46.6000
30
0.0
0
VERTEX
5
190
8
Layer1
10
29.6690
20
60.6000
30
0.0
0
SEQEND
5
191
8
Layer1
0
POLYLINE
5
192
8
Layer1
66
1
10
0.0
20
0.0
30
0.0
70
1
0
VERTEX
5
193
8
Layer1
10
55.8630
20
60.6000
30
0.0
0
VERTEX
5
194
8
Layer1
10
41.8630
20
60.6000
30
0.0
0
VERTEX
5
195
8
Layer1
10
41.8630
20
46.6000
30
0.0
0
VERTEX
5
196
8
Layer1
10
55.8630
20
46.6000
30
0.0
0
VERTEX
5
197
8
Layer1
10
55.8630
20
60.6000
30
0.0
0
SEQEND
5
198
8
Layer1
0
POLYLINE
5
199
8
Layer1
66
1
10
0.0
20
0.0
30
0.0
70
1
0
VERTEX
5
19a
8
Layer1
10
74.9130
20
60.6000
30
0.0
0
VERTEX
5
19b
8
Layer1
10
60.9130
20
60.6000
30
0.0
0
VERTEX
5
19c
8
Layer1
10
60.9130
20
46.6000
30
0.0
0
VERTEX
5
19d
8
Layer1
10
74.9130
20
46.6000
30
0.0
0
VERTEX
5
19e
8
Layer1
10
74.9130
20
60.6000
30
0.0
0
SEQEND
5
19f
8
Layer1
0
POLYLINE
5
1a0
8
Layer1
66
1
10
0.0
20
0.0
30
0.0
70
1
0
VERTEX
5
1a1
8
Layer1
10
93.9630
20
60.6000
30
0.0
0
VERTEX
5
1a2
8
Layer1
10
79.9630
20
60.6000
30
0.0
0
VERTEX
5
1a3
8
Layer1
10
79.9630
20
46.6000
30
0.0
0
VERTEX
5
1a4
8
Layer1
10
93.9630
20
46.6000
30
0.0
0
VERTEX
5
1a5
8
Layer1
10
93.9630
20
60.6000
30
0.0
0
SEQEND
5
1a6
8
Layer1
0
POLYLINE
5
1a7
8
Layer1
66
1
10
0.0
20
0.0
30
0.0
70
1
0
VERTEX
5
1a8
8
Layer1
10
113.0130
20
60.6000
30
0.0
0
VERTEX
5
1a9
8
Layer1
10
99.0130
20
60.6000
30
0.0
0
VERTEX
5
1aa
8
Layer1
10
99.0130
20
46.6000
30
0.0
0
VERTEX
5
1ab
8
Layer1
10
113.0130
20
46.6000
30
0.0
0
VERTEX
5
1ac
8
Layer1
10
113.0130
20
60.6000
30
0.0
0
SEQEND
5
1ad
8
Layer1
0
POLYLINE
5
1ae
8
Layer1
66
1
10
0.0
20
0.0
30
0.0
70
1
0
VERTEX
5
1af
8
Layer1
10
132.0630
20
60.6000
30
0.0
0
VERTEX
5
1b0
8
Layer1
10
118.0630
20
60.6000
30
0.0
0
VERTEX
5
1b1
8
Layer1
10
118.0630
20
46.6000
30
0.0
0
VERTEX
5
1b2
8
Layer1
10
132.0630
20
46.6000
30
0.0
0
VERTEX
5
1b3
8
Layer1
10
132.0630
20
60.6000
30
0.0
0
SEQEND
5
1b4
8
Layer1
0
POLYLINE
5
1b5
8
Layer1
66
1
10
0.0
20
0.0
30
0.0
70
1
0
VERTEX
5
1b6
8
Layer1
10
17.0310
20
27.7800
30
0.0
0
VERTEX
5
1b7
8
Layer1
10
18.8560
20
27.7800
30
0.0
0
VERTEX
5
1b8
8
Layer1
10
18.8560
20
34.0500
30
0.0
0
VERTEX
5
1b9
8
Layer1
10
20.4310
20
34.0500
30
0.0
0
VERTEX
5
1ba
8
Layer1
10
20.4310
20
27.5500
30
0.0
0
VERTEX
5
1bb
8
Layer1
10
34.4310
20
27.5500
30
0.0
0
VERTEX
5
1bc
8
Layer1
10
34.4310
20
34.0500
30
0.0
0
VERTEX
5
1bd
8
Layer1
10
36.0060
20
34.0500
30
0.0
0
VERTEX
5
1be
8
Layer1
10
36.0060
20
27.7800
30
0.0
0
VERTEX
5
1bf
8
Layer1
10
37.8310
20
27.7800
30
0.0
0
VERTEX
5
1c0
8
Layer1
10
37.8310
20
26.5800
30
0.0
0
VERTEX
5
1c1
8
Layer1
10
40.8310
20
26.5800
30
0.0
0
VERTEX
5
1c2
8
Layer1
10
40.8310
20
27.7800
30
0.0
0
VERTEX
5
1c3
8
Layer1
10
42.6560
20
27.7800
30
0.0
0
VERTEX
5
1c4
8
Layer1
10
42.6560
20
34.0500
30
0.0
0
VERTEX
5
1c5
8
Layer1
10
43.5310
20
34.0500
30
0.0
0
VERTEX
5
1c6
8
Layer1
10
43.5310
20
36.8500
30
0.0
0
VERTEX
5
1c7
8
Layer1
10
42.6560
20
36.8500
30
0.0
0
VERTEX
5
1c8
8
Layer1
10
42.6560
20
40.0800
30
0.0
0
VERTEX
5
1c9
8
Layer1
10
36.0060
20
40.0800
30
0.0
0
VERTEX
5
1ca
8
Layer1
10
36.0060
20
36.8500
30
0.0
0
VERTEX
5
1cb
8
Layer1
10
34.4310
20
36.8500
30
0.0
0
VERTEX
5
1cc
8
Layer1
10
34.4310
20
41.5500
30
0.0
0
VERTEX
5
1cd
8
Layer1
10
20.4310
20
41.5500
30
0.0
0
VERTEX
5
1ce
8
Layer1
10
20.4310
20
36.8500
30
0.0
0
VERTEX
5
1cf
8
Layer1
10
18.8560
20
36.8500
30
0.0
0
VERTEX
5
1d0
8
Layer1
10
18.8560
20
40.0800
30
0.0
0
VERTEX
5
1d1
8
Layer1
10
12.2060
20
40.0800
30
0.0
0
VERTEX
5
1d2
8
Layer1
10
12.2060
20
36.8500
30
0.0
0
VERTEX
5
1d3
8
Layer1
10
11.3310
20
36.8500
30
0.0
0
VERTEX
5
1d4
8
Layer1
10
11.3310
20
34.0500
30
0.0
0
VERTEX
5
1d5
8
Layer1
10
12.2060
20
34.0500
30
0.0
0
VERTEX
5
1d6
8
Layer1
10
12.2060
20
27.7800
30
0.0
0
VERTEX
5
1d7
8
Layer1
10
14.0310
20
27.7800
30
0.0
0
VERTEX
5
1d8
8
Layer1
10
14.0310
20
26.5800
30
0.0
0
VERTEX
5
1d9
8
Layer1
10
17.0310
20
26.5800
30
0.0
0
VERTEX
5
1da
8
Layer1
10
17.0310
20
27.7800
30
0.0
0
SEQEND
5
1db
8
Layer1
0
POLYLINE
5
1dc
8
Layer1
66
1
10
0.0
20
0.0
30
0.0
70
1
0
VERTEX
5
1dd
8
Layer1
10
65.3880
20
41.5500
30
0.0
0
VERTEX
5
1de
8
Layer1
10
51.3880
20
41.5500
30
0.0
0
VERTEX
5
1df
8
Layer1
10
51.3880
20
27.5500
30
0.0
0
VERTEX
5
1e0
8
Layer1
10
65.3880
20
27.5500
30
0.0
0
VERTEX
5
1e1
8
Layer1
10
65.3880
20
41.5500
30
0.0
0
SEQEND
5
1e2
8
Layer1
0
POLYLINE
5
1e3
8
Layer1
66
1
10
0.0
20
0.0
30
0.0
70
1
0
VERTEX
5
1e4
8
Layer1
10
84.4380
20
41.5500
30
0.0
0
VERTEX
5
1e5
8
Layer1
10
70.4380
20
41.5500
30
0.0
0
VERTEX
5
1e6
8
Layer1
10
70.4380
20
27.5500
30
0.0
0
VERTEX
5
1e7
8
Layer1
10
84.4380
20
27.5500
30
0.0
0
VERTEX
5
1e8
8
Layer1
10
84.4380
20
41.5500
30
0.0
0
SEQEND
5
1e9
8
Layer1
0
POLYLINE
5
1ea
8
Layer1
66
1
10
0.0
20
0.0
30
0.0
70
1
0
VERTEX
5
1eb
8
Layer1
10
103.4880
20
41.5500
30
0.0
0
VERTEX
5
1ec
8
Layer1
10
89.4880
20
41.5500
30
0.0
0
VERTEX
5
1ed
8
Layer1
10
89.4880
20
27.5500
30
0.0
0
VERTEX
5
1ee
8
Layer1
10
103.4880
20
27.5500
30
0.0
0
VERTEX
5
1ef
8
Layer1
10
103.4880
20
41.5500
30
0.0
0
SEQEND
5
1f0
8
Layer1
0
POLYLINE
5
1f1
8
Layer1
66
1
10
0.0
20
0.0
30
0.0
70
1
0
VERTEX
5
1f2
8
Layer1
10
122.5380
20
41.5500
30
0.0
0
VERTEX
5
1f3
8
Layer1
10
108.5380
20
41.5500
30
0.0
0
VERTEX
5
1f4
8
Layer1
10
108.5380
20
27.5500
30
0.0
0
VERTEX
5
1f5
8
Layer1
10
122.5380
20
27.5500
30
0.0
0
VERTEX
5
1f6
8
Layer1
10
122.5380
20
41.5500
30
0.0
0
SEQEND
5
1f7
8
Layer1
0
POLYLINE
5
1f8
8
Layer1
66
1
10
0.0
20
0.0
30
0.0
70
1
0
VERTEX
5
1f9
8
Layer1
10
141.5880
20
41.5500
30
0.0
0
VERTEX
5
1fa
8
Layer1
10
127.5880
20
41.5500
30
0.0
0
VERTEX
5
1fb
8
Layer1
10
127.5880
20
27.5500
30
0.0
0
VERTEX
5
1fc
8
Layer1
10
141.5880
20
27.5500
30
0.0
0
VERTEX
5
1fd
8
Layer1
10
141.5880
20
41.5500
30
0.0
0
SEQEND
5
1fe
8
Layer1
0
POLYLINE
5
1ff
8
Layer1
66
1
10
0.0
20
0.0
30
0.0
70
1
0
VERTEX
5
200
8
Layer1
10
24.9060
20
22.5000
30
0.0
0
VERTEX
5
201
8
Layer1
10
10.9060
20
22.5000
30
0.0
0
VERTEX
5
202
8
Layer1
10
10.9060
20
8.5000
30
0.0
0
VERTEX
5
203
8
Layer1
10
24.9060
20
8.5000
30
0.0
0
VERTEX
5
204
8
Layer1
10
24.9060
20
22.5000
30
0.0
0
SEQEND
5
205
8
Layer1
0
POLYLINE
5
206
8
Layer1
66
1
10
0.0
20
0.0
30
0.0
70
1
0
VERTEX
5
207
8
Layer1
10
48.7190
20
22.5000
30
0.0
0
VERTEX
5
208
8
Layer1
10
34.7190
20
22.5000
30
0.0
0
VERTEX
5
209
8
Layer1
10
34.7190
20
8.5000
30
0.0
0
VERTEX
5
20a
8
Layer1
10
48.7190
20
8.5000
30
0.0
0
VERTEX
5
20b
8
Layer1
10
48.7190
20
22.5000
30
0.0
0
SEQEND
5
20c
8
Layer1
0
POLYLINE
5
20d
8
Layer1
66
1
10
0.0
20
0.0
30
0.0
70
1
0
VERTEX
5
20e
8
Layer1
10
72.5310
20
22.5000
30
0.0
0
VERTEX
5
20f
8
Layer1
10
58.5310
20
22.5000
30
0.0
0
VERTEX
5
210
8
Layer1
10
58.5310
20
8.5000
30
0.0
0
VERTEX
5
211
8
Layer1
10
72.5310
20
8.5000
30
0.0
0
VERTEX
5
212
8
Layer1
10
72.5310
20
22.5000
30
0.0
0
SEQEND
5
213
8
Layer1
0
POLYLINE
5
214
8
Layer1
66
1
10
0.0
20
0.0
30
0.0
70
1
0
VERTEX
5
215
8
Layer1
10
96.3440
20
22.5000
30
0.0
0
VERTEX
5
216
8
Layer1
10
82.3440
20
22.5000
30
0.0
0
VERTEX
5
217
8
Layer1
10
82.3440
20
8.5000
30
0.0
0
VERTEX
5
218
8
Layer1
10
96.3440
20
8.5000
30
0.0
0
VERTEX
5
219
8
Layer1
10
96.3440
20
22.5000
30
0.0
0
SEQEND
5
21a
8
Layer1
0
POLYLINE
5
21b
8
Layer1
66
1
10
0.0
20
0.0
30
0.0
70
1
0
VERTEX
5
21c
8
Layer1
10
112.2810
20
8.7300
30
0.0
0
VERTEX
5
21d
8
Layer1
10
114.1060
20
8.7300
30
0.0
0
VERTEX
5
21e
8
Layer1
10
114.1060
20
15.0000
30
0.0
0
VERTEX
5
21f
8
Layer1
10
115.6810
20
15.0000
30
0.0
0
VERTEX
5
220
8
Layer1
10
115.6810
20
8.5000
30
0.0
0
VERTEX
5
221
8
Layer1
10
129.6810
20
8.5000
30
0.0
0
VERTEX
5
222
8
Layer1
10
129.6810
20
15.0000
30
0.0
0
VERTEX
5
223
8
Layer1
10
131.2560
20
15.0000
30
0.0
0
VERTEX
5
224
8
Layer1
10
131.2560
20
8.7300
30
0.0
0
VERTEX
5
225
8
Layer1
10
133.0810
20
8.7300
30
0.0
0
VERTEX
5
226
8
Layer1
10
133.0810
20
7.5300
30
0.0
0
VERTEX
5
227
8
Layer1
10
136.0810
20
7.5300
30
0.0
0
VERTEX
5
228
8
Layer1
10
136.0810
20
8.7300
30
0.0
0
VERTEX
5
229
8
Layer1
10
137.9060
20
8.7300
30
0.0
0
VERTEX
5
22a
8
Layer1
10
137.9060
20
15.0000
30
0.0
0
VERTEX
5
22b
8
Layer1
10
138.7810
20
15.0000
30
0.0
0
VERTEX
5
22c
8
Layer1
10
138.7810
20
17.8000
30
0.0
0
VERTEX
5
22d
8
Layer1
10
137.9060
20
17.8000
30
0.0
0
VERTEX
5
22e
8
Layer1
10
137.9060
20
21.0300
30
0.0
0
VERTEX
5
22f
8
Layer1
10
131.2560
20
21.0300
30
0.0
0
VERTEX
5
230
8
Layer1
10
131.2560
20
17.8000
30
0.0
0
VERTEX
5
231
8
Layer1
10
129.6810
20
17.8000
30
0.0
0
VERTEX
5
232
8
Layer1
10
129.6810
20
22.5000
30
0.0
0
VERTEX
5
233
8
Layer1
10
115.6810
20
22.5000
30
0.0
0
VERTEX
5
234
8
Layer1
10
115.6810
20
17.8000
30
0.0
0
VERTEX
5
235
8
Layer1
10
114.1060
20
17.8000
30
0.0
0
VERTEX
5
236
8
Layer1
10
114.1060
20
21.0300
30
0.0
0
VERTEX
5
237
8
Layer1
10
107.4560
20
21.0300
30
0.0
0
VERTEX
5
238
8
Layer1
10
107.4560
20
17.8000
30
0.0
0
VERTEX
5
239
8
Layer1
10
106.5810
20
17.8000
30
0.0
0
VERTEX
5
23a
8
Layer1
10
106.5810
20
15.0000
30
0.0
0
VERTEX
5
23b
8
Layer1
10
107.4560
20
15.0000
30
0.0
0
VERTEX
5
23c
8
Layer1
10
107.4560
20
8.7300
30
0.0
0
VERTEX
5
23d
8
Layer1
10
109.2810
20
8.7300
30
0.0
0
VERTEX
5
23e
8
Layer1
10
109.2810
20
7.5300
30
0.0
0
VERTEX
5
23f
8
Layer1
10
112.2810
20
7.5300
30
0.0
0
VERTEX
5
240
8
Layer1
10
112.2810
20
8.7300
30
0.0
0
SEQEND
5
241
8
Layer1
0
ENDSEC
0
EOF
