0
SECTION
2
HEADER
9
$INSUNITS
70
4
9
$INSBASE
10
0.0
20
0.0
30
0.0
9
$EXTMIN
10
0
20
0
9
$EXTMAX
10
202.47500000000002
20
107.22500000000001
0
ENDSEC
0
SECTION
2
TABLES
0
TABLE
2
LTYPE
70
1
0
LTYPE
2
CONTINUOUS
70
64
3
Solid line
72
65
73
0
40
0.0
0
ENDTAB
0
TABLE
2
LAYER
70
1
0
LAYER
2
Layer1
70
64
62
7
6
CONTINUOUS
0
ENDTAB
0
TABLE
2
STYLE
70
0
0
ENDTAB
0
TABLE
2
VIEW
70
0
0
ENDTAB
0
ENDSEC
0
SECTION
2
BLOCKS
0
ENDSEC
0
SECTION
2
ENTITIES
0
POLYLINE
5
242
8
Layer1
66
1
10
0.0
20
0.0
30
0.0
70
1
0
VERTEX
5
243
8
Layer1
10
0.0000
20
0.0000
30
0.0
0
VERTEX
5
244
8
Layer1
10
202.4750
20
0.0000
30
0.0
0
VERTEX
5
245
8
Layer1
10
202.4750
20
107.2250
30
0.0
0
VERTEX
5
246
8
Layer1
10
0.0000
20
107.2250
30
0.0
0
VERTEX
5
247
8
Layer1
10
0.0000
20
0.0000
30
0.0
0
SEQEND
5
248
8
Layer1
0
POLYLINE
5
249
8
Layer1
66
1
10
0.0
20
0.0
30
0.0
70
1
0
VERTEX
5
24a
8
Layer1
10
22.5250
20
98.7000
30
0.0
0
VERTEX
5
24b
8
Layer1
10
8.5250
20
98.7000
30
0.0
0
VERTEX
5
24c
8
Layer1
10
8.5250
20
84.7000
30
0.0
0
VERTEX
5
24d
8
Layer1
10
22.5250
20
84.7000
30
0.0
0
VERTEX
5
24e
8
Layer1
10
22.5250
20
98.7000
30
0.0
0
SEQEND
5
24f
8
Layer1
0
POLYLINE
5
250
8
Layer1
66
1
10
0.0
20
0.0
30
0.0
70
1
0
VERTEX
5
251
8
Layer1
10
41.5750
20
98.7000
30
0.0
0
VERTEX
5
252
8
Layer1
10
27.5750
20
98.7000
30
0.0
0
VERTEX
5
253
8
Layer1
10
27.5750
20
84.7000
30
0.0
0
VERTEX
5
254
8
Layer1
10
41.5750
20
84.7000
30
0.0
0
VERTEX
5
255
8
Layer1
10
41.5750
20
98.7000
30
0.0
0
SEQEND
5
256
8
Layer1
0
POLYLINE
5
257
8
Layer1
66
1
10
0.0
20
0.0
30
0.0
70
1
0
VERTEX
5
258
8
Layer1
10
60.6250
20
98.7000
30
0.0
0
VERTEX
5
259
8
Layer1
10
46.6250
20
98.7000
30
0.0
0
VERTEX
5
25a
8
Layer1
10
46.6250
20
84.7000
30
0.0
0
VERTEX
5
25b
8
Layer1
10
60.6250
20
84.7000
30
0.0
0
VERTEX
5
25c
8
Layer1
10
60.6250
20
98.7000
30
0.0
0
SEQEND
5
25d
8
Layer1
0
POLYLINE
5
25e
8
Layer1
66
1
10
0.0
20
0.0
30
0.0
70
1
0
VERTEX
5
25f
8
Layer1
10
79.6750
20
98.7000
30
0.0
0
VERTEX
5
260
8
Layer1
10
65.6750
20
98.7000
30
0.0
0
VERTEX
5
261
8
Layer1
10
65.6750
20
84.7000
30
0.0
0
VERTEX
5
262
8
Layer1
10
79.6750
20
84.7000
30
0.0
0
VERTEX
5
263
8
Layer1
10
79.6750
20
98.7000
30
0.0
0
SEQEND
5
264
8
Layer1
0
POLYLINE
5
265
8
Layer1
66
1
10
0.0
20
0.0
30
0.0
70
1
0
VERTEX
5
266
8
Layer1
10
98.7250
20
98.7000
30
0.0
0
VERTEX
5
267
8
Layer1
10
84.7250
20
98.7000
30
0.0
0
VERTEX
5
268
8
Layer1
10
84.7250
20
84.7000
30
0.0
0
VERTEX
5
269
8
Layer1
10
98.7250
20
84.7000
30
0.0
0
VERTEX
5
26a
8
Layer1
10
98.7250
20
98.7000
30
0.0
0
SEQEND
5
26b
8
Layer1
0
POLYLINE
5
26c
8
Layer1
66
1
10
0.0
20
0.0
30
0.0
70
1
0
VERTEX
5
26d
8
Layer1
10
117.7750
20
98.7000
30
0.0
0
VERTEX
5
26e
8
Layer1
10
103.7750
20
98.7000
30
0.0
0
VERTEX
5
26f
8
Layer1
10
103.7750
20
84.7000
30
0.0
0
VERTEX
5
270
8
Layer1
10
117.7750
20
84.7000
30
0.0
0
VERTEX
5
271
8
Layer1
10
117.7750
20
98.7000
30
0.0
0
SEQEND
5
272
8
Layer1
0
POLYLINE
5
273
8
Layer1
66
1
10
0.0
20
0.0
30
0.0
70
1
0
VERTEX
5
274
8
Layer1
10
136.8250
20
98.7000
30
0.0
0
VERTEX
5
275
8
Layer1
10
122.8250
20
98.7000
30
0.0
0
VERTEX
5
276
8
Layer1
10
122.8250
20
84.7000
30
0.0
0
VERTEX
5
277
8
Layer1
10
136.8250
20
84.7000
30
0.0
0
VERTEX
5
278
8
Layer1
10
136.8250
20
98.7000
30
0.0
0
SEQEND
5
279
8
Layer1
0
POLYLINE
5
27a
8
Layer1
66
1
10
0.0
20
0.0
30
0.0
70
1
0
VERTEX
5
27b
8
Layer1
10
148.0000
20
84.9300
30
0.0
0
VERTEX
5
27c
8
Layer1
10
149.8250
20
84.9300
30
0.0
0
VERTEX
5
27d
8
Layer1
10
149.8250
20
91.2000
30
0.0
0
VERTEX
5
27e
8
Layer1
10
151.4000
20
91.2000
30
0.0
0
VERTEX
5
27f
8
Layer1
10
151.4000
20
84.7000
30
0.0
0
VERTEX
5
280
8
Layer1
10
165.4000
20
84.7000
30
0.0
0
VERTEX
5
281
8
Layer1
10
165.4000
20
91.2000
30
0.0
0
VERTEX
5
282
8
Layer1
10
166.9750
20
91.2000
30
0.0
0
VERTEX
5
283
8
Layer1
10
166.9750
20
84.9300
30
0.0
0
VERTEX
5
284
8
Layer1
10
168.8000
20
84.9300
30
0.0
0
VERTEX
5
285
8
Layer1
10
168.8000
20
83.7300
30
0.0
0
VERTEX
5
286
8
Layer1
10
171.8000
20
83.7300
30
0.0
0
VERTEX
5
287
8
Layer1
10
171.8000
20
84.9300
30
0.0
0
VERTEX
5
288
8
Layer1
10
173.6250
20
84.9300
30
0.0
0
VERTEX
5
289
8
Layer1
10
173.6250
20
91.2000
30
0.0
0
VERTEX
5
28a
8
Layer1
10
174.5000
20
91.2000
30
0.0
0
VERTEX
5
28b
8
Layer1
10
174.5000
20
94.0000
30
0.0
0
VERTEX
5
28c
8
Layer1
10
173.6250
20
94.0000
30
0.0
0
VERTEX
5
28d
8
Layer1
10
173.6250
20
97.2300
30
0.0
0
VERTEX
5
28e
8
Layer1
10
166.9750
20
97.2300
30
0.0
0
VERTEX
5
28f
8
Layer1
10
166.9750
20
94.0000
30
0.0
0
VERTEX
5
290
8
Layer1
10
165.4000
20
94.0000
30
0.0
0
VERTEX
5
291
8
Layer1
10
165.4000
20
98.7000
30
0.0
0
VERTEX
5
292
8
Layer1
10
151.4000
20
98.7000
30
0.0
0
VERTEX
5
293
8
Layer1
10
151.4000
20
94.0000
30
0.0
0
VERTEX
5
294
8
Layer1
10
149.8250
20
94.0000
30
0.0
0
VERTEX
5
295
8
Layer1
10
149.8250
20
97.2300
30
0.0
0
VERTEX
5
296
8
Layer1
10
143.1750
20
97.2300
30
0.0
0
VERTEX
5
297
8
Layer1
10
143.1750
20
94.0000
30
0.0
0
VERTEX
5
298
8
Layer1
10
142.3000
20
94.0000
30
0.0
0
VERTEX
5
299
8
Layer1
10
142.3000
20
91.2000
30
0.0
0
VERTEX
5
29a
8
Layer1
10
143.1750
20
91.2000
30
0.0
0
VERTEX
5
29b
8
Layer1
10
143.1750
20
84.9300
30
0.0
0
VERTEX
5
29c
8
Layer1
10
145.0000
20
84.9300
30
0.0
0
VERTEX
5
29d
8
Layer1
10
145.0000
20
83.7300
30
0.0
0
VERTEX
5
29e
8
Layer1
10
148.0000
20
83.7300
30
0.0
0
VERTEX
5
29f
8
Layer1
10
148.0000
20
84.9300
30
0.0
0
SEQEND
5
2a0
8
Layer1
0
POLYLINE
5
2a1
8
Layer1
66
1
10
0.0
20
0.0
30
0.0
70
1
0
VERTEX
5
2a2
8
Layer1
10
193.9750
20
98.7000
30
0.0
0
VERTEX
5
2a3
8
Layer1
10
179.9750
20
98.7000
30
0.0
0
VERTEX
5
2a4
8
Layer1
10
179.9750
20
84.7000
30
0.0
0
VERTEX
5
2a5
8
Layer1
10
193.9750
20
84.7000
30
0.0
0
VERTEX
5
2a6
8
Layer1
10
193.9750
20
98.7000
30
0.0
0
SEQEND
5
2a7
8
Layer1
0
POLYLINE
5
2a8
8
Layer1
66
1
10
0.0
20
0.0
30
0.0
70
1
0
VERTEX
5
2a9
8
Layer1
10
32.0500
20
79.6500
30
0.0
0
VERTEX
5
2aa
8
Layer1
10
18.0500
20
79.6500
30
0.0
0
VERTEX
5
2ab
8
Layer1
10
18.0500
20
65.6500
30
0.0
0
VERTEX
5
2ac
8
Layer1
10
32.0500
20
65.6500
30
0.0
0
VERTEX
5
2ad
8
Layer1
10
32.0500
20
79.6500
30
0.0
0
SEQEND
5
2ae
8
Layer1
0
POLYLINE
5
2af
8
Layer1
66
1
10
0.0
20
0.0
30
0.0
70
1
0
VERTEX
5
2b0
8
Layer1
10
51.1000
20
79.6500
30
0.0
0
VERTEX
5
2b1
8
Layer1
10
37.1000
20
79.6500
30
0.0
0
VERTEX
5
2b2
8
Layer1
10
37.1000
20
65.6500
30
0.0
0
VERTEX
5
2b3
8
Layer1
10
51.1000
20
65.6500
30
0.0
0
VERTEX
5
2b4
8
Layer1
10
51.1000
20
79.6500
30
0.0
0
SEQEND
5
2b5
8
Layer1
0
POLYLINE
5
2b6
8
Layer1
66
1
10
0.0
20
0.0
30
0.0
70
1
0
VERTEX
5
2b7
8
Layer1
10
70.1500
20
79.6500
30
0.0
0
VERTEX
5
2b8
8
Layer1
10
56.1500
20
79.6500
30
0.0
0
VERTEX
5
2b9
8
Layer1
10
56.1500
20
65.6500
30
0.0
0
VERTEX
5
2ba
8
Layer1
10
70.1500
20
65.6500
30
0.0
0
VERTEX
5
2bb
8
Layer1
10
70.1500
20
79.6500
30
0.0
0
SEQEND
5
2bc
8
Layer1
0
POLYLINE
5
2bd
8
Layer1
66
1
10
0.0
20
0.0
30
0.0
70
1
0
VERTEX
5
2be
8
Layer1
10
89.2000
20
79.6500
30
0.0
0
VERTEX
5
2bf
8
Layer1
10
75.2000
20
79.6500
30
0.0
0
VERTEX
5
2c0
8
Layer1
10
75.2000
20
65.6500
30
0.0
0
VERTEX
5
2c1
8
Layer1
10
89.2000
20
65.6500
30
0.0
0
VERTEX
5
2c2
8
Layer1
10
89.2000
20
79.6500
30
0.0
0
SEQEND
5
2c3
8
Layer1
0
POLYLINE
5
2c4
8
Layer1
66
1
10
0.0
20
0.0
30
0.0
70
1
0
VERTEX
5
2c5
8
Layer1
10
108.2500
20
79.6500
30
0.0
0
VERTEX
5
2c6
8
Layer1
10
94.2500
20
79.6500
30
0.0
0
VERTEX
5
2c7
8
Layer1
10
94.2500
20
65.6500
30
0.0
0
VERTEX
5
2c8
8
Layer1
10
108.2500
20
65.6500
30
0.0
0
VERTEX
5
2c9
8
Layer1
10
108.2500
20
79.6500
30
0.0
0
SEQEND
5
2ca
8
Layer1
0
POLYLINE
5
2cb
8
Layer1
66
1
10
0.0
20
0.0
30
0.0
70
1
0
VERTEX
5
2cc
8
Layer1
10
127.3000
20
79.6500
30
0.0
0
VERTEX
5
2cd
8
Layer1
10
113.3000
20
79.6500
30
0.0
0
VERTEX
5
2ce
8
Layer1
10
113.3000
20
65.6500
30
0.0
0
VERTEX
5
2cf
8
Layer1
10
127.3000
20
65.6500
30
0.0
0
VERTEX
5
2d0
8
Layer1
10
127.3000
20
79.6500
30
0.0
0
SEQEND
5
2d1
8
Layer1
0
POLYLINE
5
2d2
8
Layer1
66
1
10
0.0
20
0.0
30
0.0
70
1
0
VERTEX
5
2d3
8
Layer1
10
146.3500
20
79.6500
30
0.0
0
VERTEX
5
2d4
8
Layer1
10
132.3500
20
79.6500
30
0.0
0
VERTEX
5
2d5
8
Layer1
10
132.3500
20
65.6500
30
0.0
0
VERTEX
5
2d6
8
Layer1
10
146.3500
20
65.6500
30
0.0
0
VERTEX
5
2d7
8
Layer1
10
146.3500
20
79.6500
30
0.0
0
SEQEND
5
2d8
8
Layer1
0
POLYLINE
5
2d9
8
Layer1
66
1
10
0.0
20
0.0
30
0.0
70
1
0
VERTEX
5
2da
8
Layer1
10
170.1630
20
79.6500
30
0.0
0
VERTEX
5
2db
8
Layer1
10
156.1630
20
79.6500
30
0.0
0
VERTEX
5
2dc
8
Layer1
10
156.1630
20
65.6500
30
0.0
0
VERTEX
5
2dd
8
Layer1
10
170.1630
20
65.6500
30
0.0
0
VERTEX
5
2de
8
Layer1
10
170.1630
20
79.6500
30
0.0
0
SEQEND
5
2df
8
Layer1
0
POLYLINE
5
2e0
8
Layer1
66
1
10
0.0
20
0.0
30
0.0
70
1
0
VERTEX
5
2e1
8
Layer1
10
193.9750
20
79.6500
30
0.0
0
VERTEX
5
2e2
8
Layer1
10
179.9750
20
79.6500
30
0.0
0
VERTEX
5
2e3
8
Layer1
10
179.9750
20
65.6500
30
0.0
0
VERTEX
5
2e4
8
Layer1
10
193.9750
20
65.6500
30
0.0
0
VERTEX
5
2e5
8
Layer1
10
193.9750
20
79.6500
30
0.0
0
SEQEND
5
2e6
8
Layer1
0
POLYLINE
5
2e7
8
Layer1
66
1
10
0.0
20
0.0
30
0.0
70
1
0
VERTEX
5
2e8
8
Layer1
10
36.8130
20
60.6000
30
0.0
0
VERTEX
5
2e9
8
Layer1
10
22.8130
20
60.6000
30
0.0
0
VERTEX
5
2ea
8
Layer1
10
22.8130
20
46.6000
30
0.0
0
VERTEX
5
2eb
8
Layer1
10
36.8130
20
46.6000
30
0.0
0
VERTEX
5
2ec
8
Layer1
10
36.8130
20
60.6000
30
0.0
0
SEQEND
5
2ed
8
Layer1
0
POLYLINE
5
2ee
8
Layer1
66
1
10
0.0
20
0.0
30
0.0
70
1
0
VERTEX
5
2ef
8
Layer1
10
55.8630
20
60.6000
30
0.0
0
VERTEX
5
2f0
8
Layer1
10
41.8630
20
60.6000
30
0.0
0
VERTEX
5
2f1
8
Layer1
10
41.8630
20
46.6000
30
0.0
0
VERTEX
5
2f2
8
Layer1
10
55.8630
20
46.6000
30
0.0
0
VERTEX
5
2f3
8
Layer1
10
55.8630
20
60.6000
30
0.0
0
SEQEND
5
2f4
8
Layer1
0
POLYLINE
5
2f5
8
Layer1
66
1
10
0.0
20
0.0
30
0.0
70
1
0
VERTEX
5
2f6
8
Layer1
10
74.9130
20
60.6000
30
0.0
0
VERTEX
5
2f7
8
Layer1
10
60.9130
20
60.6000
30
0.0
0
VERTEX
5
2f8
8
Layer1
10
60.9130
20
46.6000
30
0.0
0
VERTEX
5
2f9
8
Layer1
10
74.9130
20
46.6000
30
0.0
0
VERTEX
5
2fa
8
Layer1
10
74.9130
20
60.6000
30
0.0
0
SEQEND
5
2fb
8
Layer1
0
POLYLINE
5
2fc
8
Layer1
66
1
10
0.0
20
0.0
30
0.0
70
1
0
VERTEX
5
2fd
8
Layer1
10
93.9630
20
60.6000
30
0.0
0
VERTEX
5
2fe
8
Layer1
10
79.9630
20
60.6000
30
0.0
0
VERTEX
5
2ff
8
Layer1
10
79.9630
20
46.6000
30
0.0
0
VERTEX
5
300
8
Layer1
10
93.9630
20
46.6000
30
0.0
0
VERTEX
5
301
8
Layer1
10
93.9630
20
60.6000
30
0.0
0
SEQEND
5
302
8
Layer1
0
POLYLINE
5
303
8
Layer1
66
1
10
0.0
20
0.0
30
0.0
70
1
0
VERTEX
5
304
8
Layer1
10
113.0130
20
60.6000
30
0.0
0
VERTEX
5
305
8
Layer1
10
99.0130
20
60.6000
30
0.0
0
VERTEX
5
306
8
Layer1
10
99.0130
20
46.6000
30
0.0
0
VERTEX
5
307
8
Layer1
10
113.0130
20
46.6000
30
0.0
0
VERTEX
5
308
8
Layer1
10
113.0130
20
60.6000
30
0.0
0
SEQEND
5
309
8
Layer1
0
POLYLINE
5
30a
8
Layer1
66
1
10
0.0
20
0.0
30
0.0
70
1
0
VERTEX
5
30b
8
Layer1
10
132.0630
20
60.6000
30
0.0
0
VERTEX
5
30c
8
Layer1
10
118.0630
20
60.6000
30
0.0
0
VERTEX
5
30d
8
Layer1
10
118.0630
20
46.6000
30
0.0
0
VERTEX
5
30e
8
Layer1
10
132.0630
20
46.6000
30
0.0
0
VERTEX
5
30f
8
Layer1
10
132.0630
20
60.6000
30
0.0
0
SEQEND
5
310
8
Layer1
0
POLYLINE
5
311
8
Layer1
66
1
10
0.0
20
0.0
30
0.0
70
1
0
VERTEX
5
312
8
Layer1
10
145.6190
20
46.8300
30
0.0
0
VERTEX
5
313
8
Layer1
10
147.4440
20
46.8300
30
0.0
0
VERTEX
5
314
8
Layer1
10
147.4440
20
53.1000
30
0.0
0
VERTEX
5
315
8
Layer1
10
149.0190
20
53.1000
30
0.0
0
VERTEX
5
316
8
Layer1
10
149.0190
20
46.6000
30
0.0
0
VERTEX
5
317
8
Layer1
10
163.0190
20
46.6000
30
0.0
0
VERTEX
5
318
8
Layer1
10
163.0190
20
53.1000
30
0.0
0
VERTEX
5
319
8
Layer1
10
164.5940
20
53.1000
30
0.0
0
VERTEX
5
31a
8
Layer1
10
164.5940
20
46.8300
30
0.0
0
VERTEX
5
31b
8
Layer1
10
166.4190
20
46.8300
30
0.0
0
VERTEX
5
31c
8
Layer1
10
166.4190
20
45.6300
30
0.0
0
VERTEX
5
31d
8
Layer1
10
169.4190
20
45.6300
30
0.0
0
VERTEX
5
31e
8
Layer1
10
169.4190
20
46.8300
30
0.0
0
VERTEX
5
31f
8
Layer1
10
171.2440
20
46.8300
30
0.0
0
VERTEX
5
320
8
Layer1
10
171.2440
20
53.1000
30
0.0
0
VERTEX
5
321
8
Layer1
10
172.1190
20
53.1000
30
0.0
0
VERTEX
5
322
8
Layer1
10
172.1190
20
55.9000
30
0.0
0
VERTEX
5
323
8
Layer1
10
171.2440
20
55.9000
30
0.0
0
VERTEX
5
324
8
Layer1
10
171.2440
20
59.1300
30
0.0
0
VERTEX
5
325
8
Layer1
10
164.5940
20
59.1300
30
0.0
0
VERTEX
5
326
8
Layer1
10
164.5940
20
55.9000
30
0.0
0
VERTEX
5
327
8
Layer1
10
163.0190
20
55.9000
30
0.0
0
VERTEX
5
328
8
Layer1
10
163.0190
20
60.6000
30
0.0
0
VERTEX
5
329
8
Layer1
10
149.0190
20
60.6000
30
0.0
0
VERTEX
5
32a
8
Layer1
10
149.0190
20
55.9000
30
0.0
0
VERTEX
5
32b
8
Layer1
10
147.4440
20
55.9000
30
0.0
0
VERTEX
5
32c
8
Layer1
10
147.4440
20
59.1300
30
0.0
0
VERTEX
5
32d
8
Layer1
10
140.7940
20
59.1300
30
0.0
0
VERTEX
5
32e
8
Layer1
10
140.7940
20
55.9000
30
0.0
0
VERTEX
5
32f
8
Layer1
10
139.9190
20
55.9000
30
0.0
0
VERTEX
5
330
8
Layer1
10
139.9190
20
53.1000
30
0.0
0
VERTEX
5
331
8
Layer1
10
140.7940
20
53.1000
30
0.0
0
VERTEX
5
332
8
Layer1
10
140.7940
20
46.8300
30
0.0
0
VERTEX
5
333
8
Layer1
10
142.6190
20
46.8300
30
0.0
0
VERTEX
5
334
8
Layer1
10
142.6190
20
45.6300
30
0.0
0
VERTEX
5
335
8
Layer1
10
145.6190
20
45.6300
30
0.0
0
VERTEX
5
336
8
Layer1
10
145.6190
20
46.8300
30
0.0
0
SEQEND
5
337
8
Layer1
0
POLYLINE
5
338
8
Layer1
66
1
10
0.0
20
0.0
30
0.0
70
1
0
VERTEX
5
339
8
Layer1
10
193.9750
20
60.6000
30
0.0
0
VERTEX
5
33a
8
Layer1
10
179.9750
20
60.6000
30
0.0
0
VERTEX
5
33b
8
Layer1
10
179.9750
20
46.6000
30
0.0
0
VERTEX
5
33c
8
Layer1
10
193.9750
20
46.6000
30
0.0
0
VERTEX
5
33d
8
Layer1
10
193.9750
20
60.6000
30
0.0
0
SEQEND
5
33e
8
Layer1
0
POLYLINE
5
33f
8
Layer1
66
1
10
0.0
20
0.0
30
0.0
70
1
0
VERTEX
5
340
8
Layer1
10
27.2880
20
41.5500
30
0.0
0
VERTEX
5
341
8
Layer1
10
13.2880
20
41.5500
30
0.0
0
VERTEX
5
342
8
Layer1
10
13.2880
20
27.5500
30
0.0
0
VERTEX
5
343
8
Layer1
10
27.2880
20
27.5500
30
0.0
0
VERTEX
5
344
8
Layer1
10
27.2880
20
41.5500
30
0.0
0
SEQEND
5
345
8
Layer1
0
POLYLINE
5
346
8
Layer1
66
1
10
0.0
20
0.0
30
0.0
70
1
0
VERTEX
5
347
8
Layer1
10
46.3380
20
41.5500
30
0.0
0
VERTEX
5
348
8
Layer1
10
32.3380
20
41.5500
30
0.0
0
VERTEX
5
349
8
Layer1
10
32.3380
20
27.5500
30
0.0
0
VERTEX
5
34a
8
Layer1
10
46.3380
20
27.5500
30
0.0
0
VERTEX
5
34b
8
Layer1
10
46.3380
20
41.5500
30
0.0
0
SEQEND
5
34c
8
Layer1
0
POLYLINE
5
34d
8
Layer1
66
1
10
0.0
20
0.0
30
0.0
70
1
0
VERTEX
5
34e
8
Layer1
10
65.3880
20
41.5500
30
0.0
0
VERTEX
5
34f
8
Layer1
10
51.3880
20
41.5500
30
0.0
0
VERTEX
5
350
8
Layer1
10
51.3880
20
27.5500
30
0.0
0
VERTEX
5
351
8
Layer1
10
65.3880
20
27.5500
30
0.0
0
VERTEX
5
352
8
Layer1
10
65.3880
20
41.5500
30
0.0
0
SEQEND
5
353
8
Layer1
0
POLYLINE
5
354
8
Layer1
66
1
10
0.0
20
0.0
30
0.0
70
1
0
VERTEX
5
355
8
Layer1
10
84.4380
20
41.5500
30
0.0
0
VERTEX
5
356
8
Layer1
10
70.4380
20
41.5500
30
0.0
0
VERTEX
5
357
8
Layer1
10
70.4380
20
27.5500
30
0.0
0
VERTEX
5
358
8
Layer1
10
84.4380
20
27.5500
30
0.0
0
VERTEX
5
359
8
Layer1
10
84.4380
20
41.5500
30
0.0
0
SEQEND
5
35a
8
Layer1
0
POLYLINE
5
35b
8
Layer1
66
1
10
0.0
20
0.0
30
0.0
70
1
0
VERTEX
5
35c
8
Layer1
10
103.4880
20
41.5500
30
0.0
0
VERTEX
5
35d
8
Layer1
10
89.4880
20
41.5500
30
0.0
0
VERTEX
5
35e
8
Layer1
10
89.4880
20
27.5500
30
0.0
0
VERTEX
5
35f
8
Layer1
10
103.4880
20
27.5500
30
0.0
0
VERTEX
5
360
8
Layer1
10
103.4880
20
41.5500
30
0.0
0
SEQEND
5
361
8
Layer1
0
POLYLINE
5
362
8
Layer1
66
1
10
0.0
20
0.0
30
0.0
70
1
0
VERTEX
5
363
8
Layer1
10
122.5380
20
41.5500
30
0.0
0
VERTEX
5
364
8
Layer1
10
108.5380
20
41.5500
30
0.0
0
VERTEX
5
365
8
Layer1
10
108.5380
20
27.5500
30
0.0
0
VERTEX
5
366
8
Layer1
10
122.5380
20
27.5500
30
0.0
0
VERTEX
5
367
8
Layer1
10
122.5380
20
41.5500
30
0.0
0
SEQEND
5
368
8
Layer1
0
POLYLINE
5
369
8
Layer1
66
1
10
0.0
20
0.0
30
0.0
70
1
0
VERTEX
5
36a
8
Layer1
10
148.7310
20
41.5500
30
0.0
0
VERTEX
5
36b
8
Layer1
10
134.7310
20
41.5500
30
0.0
0
VERTEX
5
36c
8
Layer1
10
134.7310
20
27.5500
30
0.0
0
VERTEX
5
36d
8
Layer1
10
148.7310
20
27.5500
30
0.0
0
VERTEX
5
36e
8
Layer1
10
148.7310
20
41.5500
30
0.0
0
SEQEND
5
36f
8
Layer1
0
POLYLINE
5
370
8
Layer1
66
1
10
0.0
20
0.0
30
0.0
70
1
0
VERTEX
5
371
8
Layer1
10
174.9250
20
41.5500
30
0.0
0
VERTEX
5
372
8
Layer1
10
160.9250
20
41.5500
30
0.0
0
VERTEX
5
373
8
Layer1
10
160.9250
20
27.5500
30
0.0
0
VERTEX
5
374
8
Layer1
10
174.9250
20
27.5500
30
0.0
0
VERTEX
5
375
8
Layer1
10
174.9250
20
41.5500
30
0.0
0
SEQEND
5
376
8
Layer1
0
POLYLINE
5
377
8
Layer1
66
1
10
0.0
20
0.0
30
0.0
70
1
0
VERTEX
5
378
8
Layer1
10
193.9750
20
41.5500
30
0.0
0
VERTEX
5
379
8
Layer1
10
179.9750
20
41.5500
30
0.0
0
VERTEX
5
37a
8
Layer1
10
179.9750
20
27.5500
30
0.0
0
VERTEX
5
37b
8
Layer1
10
193.9750
20
27.5500
30
0.0
0
VERTEX
5
37c
8
Layer1
10
193.9750
20
41.5500
30
0.0
0
SEQEND
5
37d
8
Layer1
0
POLYLINE
5
37e
8
Layer1
66
1
10
0.0
20
0.0
30
0.0
70
1
0
VERTEX
5
37f
8
Layer1
10
27.2880
20
22.5000
30
0.0
0
VERTEX
5
380
8
Layer1
10
13.2880
20
22.5000
30
0.0
0
VERTEX
5
381
8
Layer1
10
13.2880
20
8.5000
30
0.0
0
VERTEX
5
382
8
Layer1
10
27.2880
20
8.5000
30
0.0
0
VERTEX
5
383
8
Layer1
10
27.2880
20
22.5000
30
0.0
0
SEQEND
5
384
8
Layer1
0
POLYLINE
5
385
8
Layer1
66
1
10
0.0
20
0.0
30
0.0
70
1
0
VERTEX
5
386
8
Layer1
10
45.6060
20
8.7300
30
0.0
0
VERTEX
5
387
8
Layer1
10
47.4310
20
8.7300
30
0.0
0
VERTEX
5
388
8
Layer1
10
47.4310
20
15.0000
30
0.0
0
VERTEX
5
389
8
Layer1
10
49.0060
20
15.0000
30
0.0
0
VERTEX
5
38a
8
Layer1
10
49.0060
20
8.5000
30
0.0
0
VERTEX
5
38b
8
Layer1
10
63.0060
20
8.5000
30
0.0
0
VERTEX
5
38c
8
Layer1
10
63.0060
20
15.0000
30
0.0
0
VERTEX
5
38d
8
Layer1
10
64.5810
20
15.0000
30
0.0
0
VERTEX
5
38e
8
Layer1
10
64.5810
20
8.7300
30
0.0
0
VERTEX
5
38f
8
Layer1
10
66.4060
20
8.7300
30
0.0
0
VERTEX
5
390
8
Layer1
10
66.4060
20
7.5300
30
0.0
0
VERTEX
5
391
8
Layer1
10
69.4060
20
7.5300
30
0.0
0
VERTEX
5
392
8
Layer1
10
69.4060
20
8.7300
30
0.0
0
VERTEX
5
393
8
Layer1
10
71.2310
20
8.7300
30
0.0
0
VERTEX
5
394
8
Layer1
10
71.2310
20
15.0000
30
0.0
0
VERTEX
5
395
8
Layer1
10
72.1060
20
15.0000
30
0.0
0
VERTEX
5
396
8
Layer1
10
72.1060
20
17.8000
30
0.0
0
VERTEX
5
397
8
Layer1
10
71.2310
20
17.8000
30
0.0
0
VERTEX
5
398
8
Layer1
10
71.2310
20
21.0300
30
0.0
0
VERTEX
5
399
8
Layer1
10
64.5810
20
21.0300
30
0.0
0
VERTEX
5
39a
8
Layer1
10
64.5810
20
17.8000
30
0.0
0
VERTEX
5
39b
8
Layer1
10
63.0060
20
17.8000
30
0.0
0
VERTEX
5
39c
8
Layer1
10
63.0060
20
22.5000
30
0.0
0
VERTEX
5
39d
8
Layer1
10
49.0060
20
22.5000
30
0.0
0
VERTEX
5
39e
8
Layer1
10
49.0060
20
17.8000
30
0.0
0
VERTEX
5
39f
8
Layer1
10
47.4310
20
17.8000
30
0.0
0
VERTEX
5
3a0
8
Layer1
10
47.4310
20
21.0300
30
0.0
0
VERTEX
5
3a1
8
Layer1
10
40.7810
20
21.0300
30
0.0
0
VERTEX
5
3a2
8
Layer1
10
40.7810
20
17.8000
30
0.0
0
VERTEX
5
3a3
8
Layer1
10
39.9060
20
17.8000
30
0.0
0
VERTEX
5
3a4
8
Layer1
10
39.9060
20
15.0000
30
0.0
0
VERTEX
5
3a5
8
Layer1
10
40.7810
20
15.0000
30
0.0
0
VERTEX
5
3a6
8
Layer1
10
40.7810
20
8.7300
30
0.0
0
VERTEX
5
3a7
8
Layer1
10
42.6060
20
8.7300
30
0.0
0
VERTEX
5
3a8
8
Layer1
10
42.6060
20
7.5300
30
0.0
0
VERTEX
5
3a9
8
Layer1
10
45.6060
20
7.5300
30
0.0
0
VERTEX
5
3aa
8
Layer1
10
45.6060
20
8.7300
30
0.0
0
SEQEND
5
3ab
8
Layer1
0
POLYLINE
5
3ac
8
Layer1
66
1
10
0.0
20
0.0
30
0.0
70
1
0
VERTEX
5
3ad
8
Layer1
10
98.7250
20
22.5000
30
0.0
0
VERTEX
5
3ae
8
Layer1
10
84.7250
20
22.5000
30
0.0
0
VERTEX
5
3af
8
Layer1
10
84.7250
20
8.5000
30
0.0
0
VERTEX
5
3b0
8
Layer1
10
98.7250
20
8.5000
30
0.0
0
VERTEX
5
3b1
8
Layer1
10
98.7250
20
22.5000
30
0.0
0
SEQEND
5
3b2
8
Layer1
0
POLYLINE
5
3b3
8
Layer1
66
1
10
0.0
20
0.0
30
0.0
70
1
0
VERTEX
5
3b4
8
Layer1
10
117.7750
20
22.5000
30
0.0
0
VERTEX
5
3b5
8
Layer1
10
103.7750
20
22.5000
30
0.0
0
VERTEX
5
3b6
8
Layer1
10
103.7750
20
8.5000
30
0.0
0
VERTEX
5
3b7
8
Layer1
10
117.7750
20
8.5000
30
0.0
0
VERTEX
5
3b8
8
Layer1
10
117.7750
20
22.5000
30
0.0
0
SEQEND
5
3b9
8
Layer1
0
POLYLINE
5
3ba
8
Layer1
66
1
10
0.0
20
0.0
30
0.0
70
1
0
VERTEX
5
3bb
8
Layer1
10
136.8250
20
22.5000
30
0.0
0
VERTEX
5
3bc
8
Layer1
10
122.8250
20
22.5000
30
0.0
0
VERTEX
5
3bd
8
Layer1
10
122.8250
20
8.5000
30
0.0
0
VERTEX
5
3be
8
Layer1
10
136.8250
20
8.5000
30
0.0
0
VERTEX
5
3bf
8
Layer1
10
136.8250
20
22.5000
30
0.0
0
SEQEND
5
3c0
8
Layer1
0
POLYLINE
5
3c1
8
Layer1
66
1
10
0.0
20
0.0
30
0.0
70
1
0
VERTEX
5
3c2
8
Layer1
10
155.8750
20
22.5000
30
0.0
0
VERTEX
5
3c3
8
Layer1
10
141.8750
20
22.5000
30
0.0
0
VERTEX
5
3c4
8
Layer1
10
141.8750
20
8.5000
30
0.0
0
VERTEX
5
3c5
8
Layer1
10
155.8750
20
8.5000
30
0.0
0
VERTEX
5
3c6
8
Layer1
10
155.8750
20
22.5000
30
0.0
0
SEQEND
5
3c7
8
Layer1
0
POLYLINE
5
3c8
8
Layer1
66
1
10
0.0
20
0.0
30
0.0
70
1
0
VERTEX
5
3c9
8
Layer1
10
174.9250
20
22.5000
30
0.0
0
VERTEX
5
3ca
8
Layer1
10
160.9250
20
22.5000
30
0.0
0
VERTEX
5
3cb
8
Layer1
10
160.9250
20
8.5000
30
0.0
0
VERTEX
5
3cc
8
Layer1
10
174.9250
20
8.5000
30
0.0
0
VERTEX
5
3cd
8
Layer1
10
174.9250
20
22.5000
30
0.0
0
SEQEND
5
3ce
8
Layer1
0
POLYLINE
5
3cf
8
Layer1
66
1
10
0.0
20
0.0
30
0.0
70
1
0
VERTEX
5
3d0
8
Layer1
10
193.9750
20
22.5000
30
0.0
0
VERTEX
5
3d1
8
Layer1
10
179.9750
20
22.5000
30
0.0
0
VERTEX
5
3d2
8
Layer1
10
179.9750
20
8.5000
30
0.0
0
VERTEX
5
3d3
8
Layer1
10
193.9750
20
8.5000
30
0.0
0
VERTEX
5
3d4
8
Layer1
10
193.9750
20
22.5000
30
0.0
0
SEQEND
5
3d5
8
Layer1
0
ENDSEC
0
EOF
