  0
SECTION
  2
HEADER
  9
$ACADVER
  1
AC1009
  9
$FILLMODE
 70
 0
  9
$SPLFRAME
 70
 1
  9
$EXTMIN
 10
0
 20
0
 30
0.0
  9
$EXTMAX
 10
1058.33
 20
1058.33
 30
0.0
  0
ENDSEC
  0
SECTION
  2
TABLES
  0
TABLE
  2
LAYER
 70
1
  0
LAYER
  2
0
 70
     0
 62
     7
  6
CONTINUOUS
  0
ENDTAB
  0
ENDSEC
  0
SECTION
  2
ENTITIES
  0
LINE
  8
0
 62
     0
 10
0.0950846
 20
109.619
 30
0.0
 11
204.596
 21
109.619
 31
0.0
  0
LINE
  8
0
 62
     0
 10
204.596
 20
109.619
 30
0.0
 11
204.596
 21
0.369316
 31
0.0
  0
LINE
  8
0
 62
     0
 10
204.596
 20
0.369316
 30
0.0
 11
0.0950846
 21
0.369316
 31
0.0
  0
LINE
  8
0
 62
     0
 10
0.0950846
 20
0.369316
 30
0.0
 11
0.0950846
 21
109.619
 31
0.0
  0
LINE
  8
0
 62
     0
 10
50.1001
 20
23.8938
 30
0.0
 11
50.1001
 21
19.1947
 31
0.0
  0
LINE
  8
0
 62
     0
 10
50.1001
 20
19.1947
 30
0.0
 11
48.5757
 21
19.1947
 31
0.0
  0
LINE
  8
0
 62
     0
 10
48.5757
 20
19.1947
 30
0.0
 11
48.5757
 21
22.4248
 31
0.0
  0
LINE
  8
0
 62
     0
 10
48.5757
 20
22.4248
 30
0.0
 11
46.8507
 21
22.4248
 31
0.0
  0
LINE
  8
0
 62
     0
 10
46.8507
 20
22.4248
 30
0.0
 11
46.8507
 21
23.3454
 31
0.0
  0
LINE
  8
0
 62
     0
 10
46.8507
 20
23.3454
 30
0.0
 11
43.5501
 21
23.3454
 31
0.0
  0
LINE
  8
0
 62
     0
 10
43.5501
 20
23.3454
 30
0.0
 11
43.5501
 21
22.4248
 31
0.0
  0
LINE
  8
0
 62
     0
 10
43.5501
 20
22.4248
 30
0.0
 11
41.825
 21
22.4248
 31
0.0
  0
LINE
  8
0
 62
     0
 10
41.825
 20
22.4248
 30
0.0
 11
41.825
 21
19.1947
 31
0.0
  0
LINE
  8
0
 62
     0
 10
41.825
 20
19.1947
 30
0.0
 11
41.0009
 21
19.1947
 31
0.0
  0
LINE
  8
0
 62
     0
 10
41.0009
 20
19.1947
 30
0.0
 11
41.0009
 21
16.3945
 31
0.0
  0
LINE
  8
0
 62
     0
 10
41.0009
 20
16.3945
 30
0.0
 11
41.825
 21
16.3945
 31
0.0
  0
LINE
  8
0
 62
     0
 10
41.825
 20
16.3945
 30
0.0
 11
41.825
 21
10.1258
 31
0.0
  0
LINE
  8
0
 62
     0
 10
41.825
 20
10.1258
 30
0.0
 11
43.5501
 21
10.1258
 31
0.0
  0
LINE
  8
0
 62
     0
 10
43.5501
 20
10.1258
 30
0.0
 11
43.5501
 21
9.14467
 31
0.0
  0
LINE
  8
0
 62
     0
 10
43.5501
 20
9.14467
 30
0.0
 11
46.8507
 21
9.14467
 31
0.0
  0
LINE
  8
0
 62
     0
 10
46.8507
 20
9.14467
 30
0.0
 11
46.8507
 21
10.1258
 31
0.0
  0
LINE
  8
0
 62
     0
 10
46.8507
 20
10.1258
 30
0.0
 11
48.5757
 21
10.1258
 31
0.0
  0
LINE
  8
0
 62
     0
 10
48.5757
 20
10.1258
 30
0.0
 11
48.5757
 21
14.5948
 31
0.0
  0
LINE
  8
0
 62
     0
 10
48.5757
 20
14.5948
 30
0.0
 11
50.1001
 21
14.5948
 31
0.0
  0
LINE
  8
0
 62
     0
 10
50.1001
 20
14.5948
 30
0.0
 11
50.1001
 21
9.89432
 31
0.0
  0
LINE
  8
0
 62
     0
 10
50.1001
 20
9.89432
 30
0.0
 11
64.1008
 21
9.89432
 31
0.0
  0
LINE
  8
0
 62
     0
 10
64.1008
 20
9.89432
 30
0.0
 11
64.1008
 21
14.5948
 31
0.0
  0
LINE
  8
0
 62
     0
 10
64.1008
 20
14.5948
 30
0.0
 11
65.6248
 21
14.5948
 31
0.0
  0
LINE
  8
0
 62
     0
 10
65.6248
 20
14.5948
 30
0.0
 11
65.6248
 21
10.1258
 31
0.0
  0
LINE
  8
0
 62
     0
 10
65.6248
 20
10.1258
 30
0.0
 11
67.3502
 21
10.1258
 31
0.0
  0
LINE
  8
0
 62
     0
 10
67.3502
 20
10.1258
 30
0.0
 11
67.3502
 21
9.14467
 31
0.0
  0
LINE
  8
0
 62
     0
 10
67.3502
 20
9.14467
 30
0.0
 11
70.6508
 21
9.14467
 31
0.0
  0
LINE
  8
0
 62
     0
 10
70.6508
 20
9.14467
 30
0.0
 11
70.6508
 21
10.1258
 31
0.0
  0
LINE
  8
0
 62
     0
 10
70.6508
 20
10.1258
 30
0.0
 11
72.3759
 21
10.1258
 31
0.0
  0
LINE
  8
0
 62
     0
 10
72.3759
 20
10.1258
 30
0.0
 11
72.3759
 21
16.3945
 31
0.0
  0
LINE
  8
0
 62
     0
 10
72.3759
 20
16.3945
 30
0.0
 11
73.2
 21
16.3945
 31
0.0
  0
LINE
  8
0
 62
     0
 10
73.2
 20
16.3945
 30
0.0
 11
73.2
 21
19.1947
 31
0.0
  0
LINE
  8
0
 62
     0
 10
73.2
 20
19.1947
 30
0.0
 11
72.3759
 21
19.1947
 31
0.0
  0
LINE
  8
0
 62
     0
 10
72.3759
 20
19.1947
 30
0.0
 11
72.3759
 21
22.4248
 31
0.0
  0
LINE
  8
0
 62
     0
 10
72.3759
 20
22.4248
 30
0.0
 11
70.6508
 21
22.4248
 31
0.0
  0
LINE
  8
0
 62
     0
 10
70.6508
 20
22.4248
 30
0.0
 11
70.6508
 21
23.3454
 31
0.0
  0
LINE
  8
0
 62
     0
 10
70.6508
 20
23.3454
 30
0.0
 11
67.3502
 21
23.3454
 31
0.0
  0
LINE
  8
0
 62
     0
 10
67.3502
 20
23.3454
 30
0.0
 11
67.3502
 21
22.4248
 31
0.0
  0
LINE
  8
0
 62
     0
 10
67.3502
 20
22.4248
 30
0.0
 11
65.6248
 21
22.4248
 31
0.0
  0
LINE
  8
0
 62
     0
 10
65.6248
 20
22.4248
 30
0.0
 11
65.6248
 21
19.1947
 31
0.0
  0
LINE
  8
0
 62
     0
 10
65.6248
 20
19.1947
 30
0.0
 11
64.1008
 21
19.1947
 31
0.0
  0
LINE
  8
0
 62
     0
 10
64.1008
 20
19.1947
 30
0.0
 11
64.1008
 21
23.8938
 31
0.0
  0
LINE
  8
0
 62
     0
 10
64.1008
 20
23.8938
 30
0.0
 11
50.1001
 21
23.8938
 31
0.0
  0
LINE
  8
0
 62
     0
 10
14.3812
 20
23.8938
 30
0.0
 11
28.3821
 21
23.8938
 31
0.0
  0
LINE
  8
0
 62
     0
 10
28.3821
 20
23.8938
 30
0.0
 11
28.3821
 21
9.89432
 31
0.0
  0
LINE
  8
0
 62
     0
 10
28.3821
 20
9.89432
 30
0.0
 11
14.3812
 21
9.89432
 31
0.0
  0
LINE
  8
0
 62
     0
 10
14.3812
 20
9.89432
 30
0.0
 11
14.3812
 21
23.8938
 31
0.0
  0
LINE
  8
0
 62
     0
 10
85.8203
 20
23.8938
 30
0.0
 11
99.8195
 21
23.8938
 31
0.0
  0
LINE
  8
0
 62
     0
 10
99.8195
 20
23.8938
 30
0.0
 11
99.8195
 21
9.89432
 31
0.0
  0
LINE
  8
0
 62
     0
 10
99.8195
 20
9.89432
 30
0.0
 11
85.8203
 21
9.89432
 31
0.0
  0
LINE
  8
0
 62
     0
 10
85.8203
 20
9.89432
 30
0.0
 11
85.8203
 21
23.8938
 31
0.0
  0
LINE
  8
0
 62
     0
 10
104.869
 20
23.8938
 30
0.0
 11
118.868
 21
23.8938
 31
0.0
  0
LINE
  8
0
 62
     0
 10
118.868
 20
23.8938
 30
0.0
 11
118.868
 21
9.89432
 31
0.0
  0
LINE
  8
0
 62
     0
 10
118.868
 20
9.89432
 30
0.0
 11
104.869
 21
9.89432
 31
0.0
  0
LINE
  8
0
 62
     0
 10
104.869
 20
9.89432
 30
0.0
 11
104.869
 21
23.8938
 31
0.0
  0
LINE
  8
0
 62
     0
 10
123.919
 20
23.8938
 30
0.0
 11
137.92
 21
23.8938
 31
0.0
  0
LINE
  8
0
 62
     0
 10
137.92
 20
23.8938
 30
0.0
 11
137.92
 21
9.89432
 31
0.0
  0
LINE
  8
0
 62
     0
 10
137.92
 20
9.89432
 30
0.0
 11
123.919
 21
9.89432
 31
0.0
  0
LINE
  8
0
 62
     0
 10
123.919
 20
9.89432
 30
0.0
 11
123.919
 21
23.8938
 31
0.0
  0
LINE
  8
0
 62
     0
 10
142.97
 20
23.8938
 30
0.0
 11
156.97
 21
23.8938
 31
0.0
  0
LINE
  8
0
 62
     0
 10
156.97
 20
23.8938
 30
0.0
 11
156.97
 21
9.89432
 31
0.0
  0
LINE
  8
0
 62
     0
 10
156.97
 20
9.89432
 30
0.0
 11
142.97
 21
9.89432
 31
0.0
  0
LINE
  8
0
 62
     0
 10
142.97
 20
9.89432
 30
0.0
 11
142.97
 21
23.8938
 31
0.0
  0
LINE
  8
0
 62
     0
 10
162.02
 20
23.8938
 30
0.0
 11
176.02
 21
23.8938
 31
0.0
  0
LINE
  8
0
 62
     0
 10
176.02
 20
23.8938
 30
0.0
 11
176.02
 21
9.89432
 31
0.0
  0
LINE
  8
0
 62
     0
 10
176.02
 20
9.89432
 30
0.0
 11
162.02
 21
9.89432
 31
0.0
  0
LINE
  8
0
 62
     0
 10
162.02
 20
9.89432
 30
0.0
 11
162.02
 21
23.8938
 31
0.0
  0
LINE
  8
0
 62
     0
 10
181.07
 20
23.8938
 30
0.0
 11
195.07
 21
23.8938
 31
0.0
  0
LINE
  8
0
 62
     0
 10
195.07
 20
23.8938
 30
0.0
 11
195.07
 21
9.89432
 31
0.0
  0
LINE
  8
0
 62
     0
 10
195.07
 20
9.89432
 30
0.0
 11
181.07
 21
9.89432
 31
0.0
  0
LINE
  8
0
 62
     0
 10
181.07
 20
9.89432
 30
0.0
 11
181.07
 21
23.8938
 31
0.0
  0
LINE
  8
0
 62
     0
 10
14.3812
 20
42.9436
 30
0.0
 11
28.3821
 21
42.9436
 31
0.0
  0
LINE
  8
0
 62
     0
 10
28.3821
 20
42.9436
 30
0.0
 11
28.3821
 21
28.9443
 31
0.0
  0
LINE
  8
0
 62
     0
 10
28.3821
 20
28.9443
 30
0.0
 11
14.3812
 21
28.9443
 31
0.0
  0
LINE
  8
0
 62
     0
 10
14.3812
 20
28.9443
 30
0.0
 11
14.3812
 21
42.9436
 31
0.0
  0
LINE
  8
0
 62
     0
 10
33.4312
 20
42.9436
 30
0.0
 11
47.432
 21
42.9436
 31
0.0
  0
LINE
  8
0
 62
     0
 10
47.432
 20
42.9436
 30
0.0
 11
47.432
 21
28.9443
 31
0.0
  0
LINE
  8
0
 62
     0
 10
47.432
 20
28.9443
 30
0.0
 11
33.4312
 21
28.9443
 31
0.0
  0
LINE
  8
0
 62
     0
 10
33.4312
 20
28.9443
 30
0.0
 11
33.4312
 21
42.9436
 31
0.0
  0
LINE
  8
0
 62
     0
 10
52.4813
 20
42.9436
 30
0.0
 11
66.482
 21
42.9436
 31
0.0
  0
LINE
  8
0
 62
     0
 10
66.482
 20
42.9436
 30
0.0
 11
66.482
 21
28.9443
 31
0.0
  0
LINE
  8
0
 62
     0
 10
66.482
 20
28.9443
 30
0.0
 11
52.4813
 21
28.9443
 31
0.0
  0
LINE
  8
0
 62
     0
 10
52.4813
 20
28.9443
 30
0.0
 11
52.4813
 21
42.9436
 31
0.0
  0
LINE
  8
0
 62
     0
 10
71.5313
 20
42.9436
 30
0.0
 11
85.532
 21
42.9436
 31
0.0
  0
LINE
  8
0
 62
     0
 10
85.532
 20
42.9436
 30
0.0
 11
85.532
 21
28.9443
 31
0.0
  0
LINE
  8
0
 62
     0
 10
85.532
 20
28.9443
 30
0.0
 11
71.5313
 21
28.9443
 31
0.0
  0
LINE
  8
0
 62
     0
 10
71.5313
 20
28.9443
 30
0.0
 11
71.5313
 21
42.9436
 31
0.0
  0
LINE
  8
0
 62
     0
 10
90.5813
 20
42.9436
 30
0.0
 11
104.582
 21
42.9436
 31
0.0
  0
LINE
  8
0
 62
     0
 10
104.582
 20
42.9436
 30
0.0
 11
104.582
 21
28.9443
 31
0.0
  0
LINE
  8
0
 62
     0
 10
104.582
 20
28.9443
 30
0.0
 11
90.5813
 21
28.9443
 31
0.0
  0
LINE
  8
0
 62
     0
 10
90.5813
 20
28.9443
 30
0.0
 11
90.5813
 21
42.9436
 31
0.0
  0
LINE
  8
0
 62
     0
 10
109.631
 20
42.9436
 30
0.0
 11
123.632
 21
42.9436
 31
0.0
  0
LINE
  8
0
 62
     0
 10
123.632
 20
42.9436
 30
0.0
 11
123.632
 21
28.9443
 31
0.0
  0
LINE
  8
0
 62
     0
 10
123.632
 20
28.9443
 30
0.0
 11
109.631
 21
28.9443
 31
0.0
  0
LINE
  8
0
 62
     0
 10
109.631
 20
28.9443
 30
0.0
 11
109.631
 21
42.9436
 31
0.0
  0
LINE
  8
0
 62
     0
 10
135.825
 20
42.9436
 30
0.0
 11
149.826
 21
42.9436
 31
0.0
  0
LINE
  8
0
 62
     0
 10
149.826
 20
42.9436
 30
0.0
 11
149.826
 21
28.9443
 31
0.0
  0
LINE
  8
0
 62
     0
 10
149.826
 20
28.9443
 30
0.0
 11
135.825
 21
28.9443
 31
0.0
  0
LINE
  8
0
 62
     0
 10
135.825
 20
28.9443
 30
0.0
 11
135.825
 21
42.9436
 31
0.0
  0
LINE
  8
0
 62
     0
 10
162.019
 20
42.9436
 30
0.0
 11
176.018
 21
42.9436
 31
0.0
  0
LINE
  8
0
 62
     0
 10
176.018
 20
42.9436
 30
0.0
 11
176.018
 21
28.9443
 31
0.0
  0
LINE
  8
0
 62
     0
 10
176.018
 20
28.9443
 30
0.0
 11
162.019
 21
28.9443
 31
0.0
  0
LINE
  8
0
 62
     0
 10
162.019
 20
28.9443
 30
0.0
 11
162.019
 21
42.9436
 31
0.0
  0
LINE
  8
0
 62
     0
 10
181.07
 20
42.9436
 30
0.0
 11
195.07
 21
42.9436
 31
0.0
  0
LINE
  8
0
 62
     0
 10
195.07
 20
42.9436
 30
0.0
 11
195.07
 21
28.9443
 31
0.0
  0
LINE
  8
0
 62
     0
 10
195.07
 20
28.9443
 30
0.0
 11
181.07
 21
28.9443
 31
0.0
  0
LINE
  8
0
 62
     0
 10
181.07
 20
28.9443
 30
0.0
 11
181.07
 21
42.9436
 31
0.0
  0
LINE
  8
0
 62
     0
 10
150.113
 20
61.9936
 30
0.0
 11
150.113
 21
57.2946
 31
0.0
  0
LINE
  8
0
 62
     0
 10
150.113
 20
57.2946
 30
0.0
 11
148.587
 21
57.2946
 31
0.0
  0
LINE
  8
0
 62
     0
 10
148.587
 20
57.2946
 30
0.0
 11
148.587
 21
60.5247
 31
0.0
  0
LINE
  8
0
 62
     0
 10
148.587
 20
60.5247
 30
0.0
 11
146.863
 21
60.5247
 31
0.0
  0
LINE
  8
0
 62
     0
 10
146.863
 20
60.5247
 30
0.0
 11
146.863
 21
61.444
 31
0.0
  0
LINE
  8
0
 62
     0
 10
146.863
 20
61.444
 30
0.0
 11
143.563
 21
61.444
 31
0.0
  0
LINE
  8
0
 62
     0
 10
143.563
 20
61.444
 30
0.0
 11
143.563
 21
60.5247
 31
0.0
  0
LINE
  8
0
 62
     0
 10
143.563
 20
60.5247
 30
0.0
 11
141.837
 21
60.5247
 31
0.0
  0
LINE
  8
0
 62
     0
 10
141.837
 20
60.5247
 30
0.0
 11
141.837
 21
57.2946
 31
0.0
  0
LINE
  8
0
 62
     0
 10
141.837
 20
57.2946
 30
0.0
 11
141.012
 21
57.2946
 31
0.0
  0
LINE
  8
0
 62
     0
 10
141.012
 20
57.2946
 30
0.0
 11
141.012
 21
54.4946
 31
0.0
  0
LINE
  8
0
 62
     0
 10
141.012
 20
54.4946
 30
0.0
 11
141.837
 21
54.4946
 31
0.0
  0
LINE
  8
0
 62
     0
 10
141.837
 20
54.4946
 30
0.0
 11
141.837
 21
48.2244
 31
0.0
  0
LINE
  8
0
 62
     0
 10
141.837
 20
48.2244
 30
0.0
 11
143.563
 21
48.2244
 31
0.0
  0
LINE
  8
0
 62
     0
 10
143.563
 20
48.2244
 30
0.0
 11
143.563
 21
47.2447
 31
0.0
  0
LINE
  8
0
 62
     0
 10
143.563
 20
47.2447
 30
0.0
 11
146.863
 21
47.2447
 31
0.0
  0
LINE
  8
0
 62
     0
 10
146.863
 20
47.2447
 30
0.0
 11
146.863
 21
48.2244
 31
0.0
  0
LINE
  8
0
 62
     0
 10
146.863
 20
48.2244
 30
0.0
 11
148.587
 21
48.2244
 31
0.0
  0
LINE
  8
0
 62
     0
 10
148.587
 20
48.2244
 30
0.0
 11
148.587
 21
52.6948
 31
0.0
  0
LINE
  8
0
 62
     0
 10
148.587
 20
52.6948
 30
0.0
 11
150.113
 21
52.6948
 31
0.0
  0
LINE
  8
0
 62
     0
 10
150.113
 20
52.6948
 30
0.0
 11
150.113
 21
47.9944
 31
0.0
  0
LINE
  8
0
 62
     0
 10
150.113
 20
47.9944
 30
0.0
 11
164.112
 21
47.9944
 31
0.0
  0
LINE
  8
0
 62
     0
 10
164.112
 20
47.9944
 30
0.0
 11
164.112
 21
52.6948
 31
0.0
  0
LINE
  8
0
 62
     0
 10
164.112
 20
52.6948
 30
0.0
 11
165.637
 21
52.6948
 31
0.0
  0
LINE
  8
0
 62
     0
 10
165.637
 20
52.6948
 30
0.0
 11
165.637
 21
48.2244
 31
0.0
  0
LINE
  8
0
 62
     0
 10
165.637
 20
48.2244
 30
0.0
 11
167.363
 21
48.2244
 31
0.0
  0
LINE
  8
0
 62
     0
 10
167.363
 20
48.2244
 30
0.0
 11
167.363
 21
47.2447
 31
0.0
  0
LINE
  8
0
 62
     0
 10
167.363
 20
47.2447
 30
0.0
 11
170.663
 21
47.2447
 31
0.0
  0
LINE
  8
0
 62
     0
 10
170.663
 20
47.2447
 30
0.0
 11
170.663
 21
48.2244
 31
0.0
  0
LINE
  8
0
 62
     0
 10
170.663
 20
48.2244
 30
0.0
 11
172.387
 21
48.2244
 31
0.0
  0
LINE
  8
0
 62
     0
 10
172.387
 20
48.2244
 30
0.0
 11
172.387
 21
54.4946
 31
0.0
  0
LINE
  8
0
 62
     0
 10
172.387
 20
54.4946
 30
0.0
 11
173.212
 21
54.4946
 31
0.0
  0
LINE
  8
0
 62
     0
 10
173.212
 20
54.4946
 30
0.0
 11
173.212
 21
57.2946
 31
0.0
  0
LINE
  8
0
 62
     0
 10
173.212
 20
57.2946
 30
0.0
 11
172.387
 21
57.2946
 31
0.0
  0
LINE
  8
0
 62
     0
 10
172.387
 20
57.2946
 30
0.0
 11
172.387
 21
60.5247
 31
0.0
  0
LINE
  8
0
 62
     0
 10
172.387
 20
60.5247
 30
0.0
 11
170.663
 21
60.5247
 31
0.0
  0
LINE
  8
0
 62
     0
 10
170.663
 20
60.5247
 30
0.0
 11
170.663
 21
61.444
 31
0.0
  0
LINE
  8
0
 62
     0
 10
170.663
 20
61.444
 30
0.0
 11
167.363
 21
61.444
 31
0.0
  0
LINE
  8
0
 62
     0
 10
167.363
 20
61.444
 30
0.0
 11
167.363
 21
60.5247
 31
0.0
  0
LINE
  8
0
 62
     0
 10
167.363
 20
60.5247
 30
0.0
 11
165.637
 21
60.5247
 31
0.0
  0
LINE
  8
0
 62
     0
 10
165.637
 20
60.5247
 30
0.0
 11
165.637
 21
57.2946
 31
0.0
  0
LINE
  8
0
 62
     0
 10
165.637
 20
57.2946
 30
0.0
 11
164.112
 21
57.2946
 31
0.0
  0
LINE
  8
0
 62
     0
 10
164.112
 20
57.2946
 30
0.0
 11
164.112
 21
61.9936
 31
0.0
  0
LINE
  8
0
 62
     0
 10
164.112
 20
61.9936
 30
0.0
 11
150.113
 21
61.9936
 31
0.0
  0
LINE
  8
0
 62
     0
 10
23.9062
 20
61.9936
 30
0.0
 11
37.907
 21
61.9936
 31
0.0
  0
LINE
  8
0
 62
     0
 10
37.907
 20
61.9936
 30
0.0
 11
37.907
 21
47.9944
 31
0.0
  0
LINE
  8
0
 62
     0
 10
37.907
 20
47.9944
 30
0.0
 11
23.9062
 21
47.9944
 31
0.0
  0
LINE
  8
0
 62
     0
 10
23.9062
 20
47.9944
 30
0.0
 11
23.9062
 21
61.9936
 31
0.0
  0
LINE
  8
0
 62
     0
 10
42.9563
 20
61.9936
 30
0.0
 11
56.957
 21
61.9936
 31
0.0
  0
LINE
  8
0
 62
     0
 10
56.957
 20
61.9936
 30
0.0
 11
56.957
 21
47.9944
 31
0.0
  0
LINE
  8
0
 62
     0
 10
56.957
 20
47.9944
 30
0.0
 11
42.9563
 21
47.9944
 31
0.0
  0
LINE
  8
0
 62
     0
 10
42.9563
 20
47.9944
 30
0.0
 11
42.9563
 21
61.9936
 31
0.0
  0
LINE
  8
0
 62
     0
 10
62.0063
 20
61.9936
 30
0.0
 11
76.007
 21
61.9936
 31
0.0
  0
LINE
  8
0
 62
     0
 10
76.007
 20
61.9936
 30
0.0
 11
76.007
 21
47.9944
 31
0.0
  0
LINE
  8
0
 62
     0
 10
76.007
 20
47.9944
 30
0.0
 11
62.0063
 21
47.9944
 31
0.0
  0
LINE
  8
0
 62
     0
 10
62.0063
 20
47.9944
 30
0.0
 11
62.0063
 21
61.9936
 31
0.0
  0
LINE
  8
0
 62
     0
 10
81.0563
 20
61.9936
 30
0.0
 11
95.057
 21
61.9936
 31
0.0
  0
LINE
  8
0
 62
     0
 10
95.057
 20
61.9936
 30
0.0
 11
95.057
 21
47.9944
 31
0.0
  0
LINE
  8
0
 62
     0
 10
95.057
 20
47.9944
 30
0.0
 11
81.0563
 21
47.9944
 31
0.0
  0
LINE
  8
0
 62
     0
 10
81.0563
 20
47.9944
 30
0.0
 11
81.0563
 21
61.9936
 31
0.0
  0
LINE
  8
0
 62
     0
 10
100.106
 20
61.9936
 30
0.0
 11
114.107
 21
61.9936
 31
0.0
  0
LINE
  8
0
 62
     0
 10
114.107
 20
61.9936
 30
0.0
 11
114.107
 21
47.9944
 31
0.0
  0
LINE
  8
0
 62
     0
 10
114.107
 20
47.9944
 30
0.0
 11
100.106
 21
47.9944
 31
0.0
  0
LINE
  8
0
 62
     0
 10
100.106
 20
47.9944
 30
0.0
 11
100.106
 21
61.9936
 31
0.0
  0
LINE
  8
0
 62
     0
 10
119.156
 20
61.9936
 30
0.0
 11
133.157
 21
61.9936
 31
0.0
  0
LINE
  8
0
 62
     0
 10
133.157
 20
61.9936
 30
0.0
 11
133.157
 21
47.9944
 31
0.0
  0
LINE
  8
0
 62
     0
 10
133.157
 20
47.9944
 30
0.0
 11
119.156
 21
47.9944
 31
0.0
  0
LINE
  8
0
 62
     0
 10
119.156
 20
47.9944
 30
0.0
 11
119.156
 21
61.9936
 31
0.0
  0
LINE
  8
0
 62
     0
 10
181.07
 20
61.9936
 30
0.0
 11
195.07
 21
61.9936
 31
0.0
  0
LINE
  8
0
 62
     0
 10
195.07
 20
61.9936
 30
0.0
 11
195.07
 21
47.9944
 31
0.0
  0
LINE
  8
0
 62
     0
 10
195.07
 20
47.9944
 30
0.0
 11
181.07
 21
47.9944
 31
0.0
  0
LINE
  8
0
 62
     0
 10
181.07
 20
47.9944
 30
0.0
 11
181.07
 21
61.9936
 31
0.0
  0
LINE
  8
0
 62
     0
 10
19.1437
 20
81.0436
 30
0.0
 11
33.1446
 21
81.0436
 31
0.0
  0
LINE
  8
0
 62
     0
 10
33.1446
 20
81.0436
 30
0.0
 11
33.1446
 21
67.0444
 31
0.0
  0
LINE
  8
0
 62
     0
 10
33.1446
 20
67.0444
 30
0.0
 11
19.1437
 21
67.0444
 31
0.0
  0
LINE
  8
0
 62
     0
 10
19.1437
 20
67.0444
 30
0.0
 11
19.1437
 21
81.0436
 31
0.0
  0
LINE
  8
0
 62
     0
 10
38.1938
 20
81.0436
 30
0.0
 11
52.1931
 21
81.0436
 31
0.0
  0
LINE
  8
0
 62
     0
 10
52.1931
 20
81.0436
 30
0.0
 11
52.1931
 21
67.0444
 31
0.0
  0
LINE
  8
0
 62
     0
 10
52.1931
 20
67.0444
 30
0.0
 11
38.1938
 21
67.0444
 31
0.0
  0
LINE
  8
0
 62
     0
 10
38.1938
 20
67.0444
 30
0.0
 11
38.1938
 21
81.0436
 31
0.0
  0
LINE
  8
0
 62
     0
 10
57.2438
 20
81.0436
 30
0.0
 11
71.2431
 21
81.0436
 31
0.0
  0
LINE
  8
0
 62
     0
 10
71.2431
 20
81.0436
 30
0.0
 11
71.2431
 21
67.0444
 31
0.0
  0
LINE
  8
0
 62
     0
 10
71.2431
 20
67.0444
 30
0.0
 11
57.2438
 21
67.0444
 31
0.0
  0
LINE
  8
0
 62
     0
 10
57.2438
 20
67.0444
 30
0.0
 11
57.2438
 21
81.0436
 31
0.0
  0
LINE
  8
0
 62
     0
 10
76.2938
 20
81.0436
 30
0.0
 11
90.2931
 21
81.0436
 31
0.0
  0
LINE
  8
0
 62
     0
 10
90.2931
 20
81.0436
 30
0.0
 11
90.2931
 21
67.0444
 31
0.0
  0
LINE
  8
0
 62
     0
 10
90.2931
 20
67.0444
 30
0.0
 11
76.2938
 21
67.0444
 31
0.0
  0
LINE
  8
0
 62
     0
 10
76.2938
 20
67.0444
 30
0.0
 11
76.2938
 21
81.0436
 31
0.0
  0
LINE
  8
0
 62
     0
 10
95.3438
 20
81.0436
 30
0.0
 11
109.343
 21
81.0436
 31
0.0
  0
LINE
  8
0
 62
     0
 10
109.343
 20
81.0436
 30
0.0
 11
109.343
 21
67.0444
 31
0.0
  0
LINE
  8
0
 62
     0
 10
109.343
 20
67.0444
 30
0.0
 11
95.3438
 21
67.0444
 31
0.0
  0
LINE
  8
0
 62
     0
 10
95.3438
 20
67.0444
 30
0.0
 11
95.3438
 21
81.0436
 31
0.0
  0
LINE
  8
0
 62
     0
 10
114.394
 20
81.0436
 30
0.0
 11
128.393
 21
81.0436
 31
0.0
  0
LINE
  8
0
 62
     0
 10
128.393
 20
81.0436
 30
0.0
 11
128.393
 21
67.0444
 31
0.0
  0
LINE
  8
0
 62
     0
 10
128.393
 20
67.0444
 30
0.0
 11
114.394
 21
67.0444
 31
0.0
  0
LINE
  8
0
 62
     0
 10
114.394
 20
67.0444
 30
0.0
 11
114.394
 21
81.0436
 31
0.0
  0
LINE
  8
0
 62
     0
 10
133.445
 20
81.0436
 30
0.0
 11
147.445
 21
81.0436
 31
0.0
  0
LINE
  8
0
 62
     0
 10
147.445
 20
81.0436
 30
0.0
 11
147.445
 21
67.0444
 31
0.0
  0
LINE
  8
0
 62
     0
 10
147.445
 20
67.0444
 30
0.0
 11
133.445
 21
67.0444
 31
0.0
  0
LINE
  8
0
 62
     0
 10
133.445
 20
67.0444
 30
0.0
 11
133.445
 21
81.0436
 31
0.0
  0
LINE
  8
0
 62
     0
 10
157.256
 20
81.0436
 30
0.0
 11
171.257
 21
81.0436
 31
0.0
  0
LINE
  8
0
 62
     0
 10
171.257
 20
81.0436
 30
0.0
 11
171.257
 21
67.0444
 31
0.0
  0
LINE
  8
0
 62
     0
 10
171.257
 20
67.0444
 30
0.0
 11
157.256
 21
67.0444
 31
0.0
  0
LINE
  8
0
 62
     0
 10
157.256
 20
67.0444
 30
0.0
 11
157.256
 21
81.0436
 31
0.0
  0
LINE
  8
0
 62
     0
 10
181.07
 20
81.0436
 30
0.0
 11
195.07
 21
81.0436
 31
0.0
  0
LINE
  8
0
 62
     0
 10
195.07
 20
81.0436
 30
0.0
 11
195.07
 21
67.0444
 31
0.0
  0
LINE
  8
0
 62
     0
 10
195.07
 20
67.0444
 30
0.0
 11
181.07
 21
67.0444
 31
0.0
  0
LINE
  8
0
 62
     0
 10
181.07
 20
67.0444
 30
0.0
 11
181.07
 21
81.0436
 31
0.0
  0
LINE
  8
0
 62
     0
 10
152.494
 20
100.095
 30
0.0
 11
152.494
 21
95.3961
 31
0.0
  0
LINE
  8
0
 62
     0
 10
152.494
 20
95.3961
 30
0.0
 11
150.968
 21
95.3961
 31
0.0
  0
LINE
  8
0
 62
     0
 10
150.968
 20
95.3961
 30
0.0
 11
150.968
 21
98.6247
 31
0.0
  0
LINE
  8
0
 62
     0
 10
150.968
 20
98.6247
 30
0.0
 11
149.243
 21
98.6247
 31
0.0
  0
LINE
  8
0
 62
     0
 10
149.243
 20
98.6247
 30
0.0
 11
149.243
 21
99.544
 31
0.0
  0
LINE
  8
0
 62
     0
 10
149.243
 20
99.544
 30
0.0
 11
145.944
 21
99.544
 31
0.0
  0
LINE
  8
0
 62
     0
 10
145.944
 20
99.544
 30
0.0
 11
145.944
 21
98.6247
 31
0.0
  0
LINE
  8
0
 62
     0
 10
145.944
 20
98.6247
 30
0.0
 11
144.219
 21
98.6247
 31
0.0
  0
LINE
  8
0
 62
     0
 10
144.219
 20
98.6247
 30
0.0
 11
144.219
 21
95.3961
 31
0.0
  0
LINE
  8
0
 62
     0
 10
144.219
 20
95.3961
 30
0.0
 11
143.393
 21
95.3961
 31
0.0
  0
LINE
  8
0
 62
     0
 10
143.393
 20
95.3961
 30
0.0
 11
143.393
 21
92.5946
 31
0.0
  0
LINE
  8
0
 62
     0
 10
143.393
 20
92.5946
 30
0.0
 11
144.219
 21
92.5946
 31
0.0
  0
LINE
  8
0
 62
     0
 10
144.219
 20
92.5946
 30
0.0
 11
144.219
 21
86.3258
 31
0.0
  0
LINE
  8
0
 62
     0
 10
144.219
 20
86.3258
 30
0.0
 11
145.944
 21
86.3258
 31
0.0
  0
LINE
  8
0
 62
     0
 10
145.944
 20
86.3258
 30
0.0
 11
145.944
 21
85.3447
 31
0.0
  0
LINE
  8
0
 62
     0
 10
145.944
 20
85.3447
 30
0.0
 11
149.243
 21
85.3447
 31
0.0
  0
LINE
  8
0
 62
     0
 10
149.243
 20
85.3447
 30
0.0
 11
149.243
 21
86.3258
 31
0.0
  0
LINE
  8
0
 62
     0
 10
149.243
 20
86.3258
 30
0.0
 11
150.968
 21
86.3258
 31
0.0
  0
LINE
  8
0
 62
     0
 10
150.968
 20
86.3258
 30
0.0
 11
150.968
 21
90.7948
 31
0.0
  0
LINE
  8
0
 62
     0
 10
150.968
 20
90.7948
 30
0.0
 11
152.494
 21
90.7948
 31
0.0
  0
LINE
  8
0
 62
     0
 10
152.494
 20
90.7948
 30
0.0
 11
152.494
 21
86.0944
 31
0.0
  0
LINE
  8
0
 62
     0
 10
152.494
 20
86.0944
 30
0.0
 11
166.493
 21
86.0944
 31
0.0
  0
LINE
  8
0
 62
     0
 10
166.493
 20
86.0944
 30
0.0
 11
166.493
 21
90.7948
 31
0.0
  0
LINE
  8
0
 62
     0
 10
166.493
 20
90.7948
 30
0.0
 11
168.019
 21
90.7948
 31
0.0
  0
LINE
  8
0
 62
     0
 10
168.019
 20
90.7948
 30
0.0
 11
168.019
 21
86.3258
 31
0.0
  0
LINE
  8
0
 62
     0
 10
168.019
 20
86.3258
 30
0.0
 11
169.744
 21
86.3258
 31
0.0
  0
LINE
  8
0
 62
     0
 10
169.744
 20
86.3258
 30
0.0
 11
169.744
 21
85.3447
 31
0.0
  0
LINE
  8
0
 62
     0
 10
169.744
 20
85.3447
 30
0.0
 11
173.045
 21
85.3447
 31
0.0
  0
LINE
  8
0
 62
     0
 10
173.045
 20
85.3447
 30
0.0
 11
173.045
 21
86.3258
 31
0.0
  0
LINE
  8
0
 62
     0
 10
173.045
 20
86.3258
 30
0.0
 11
174.768
 21
86.3258
 31
0.0
  0
LINE
  8
0
 62
     0
 10
174.768
 20
86.3258
 30
0.0
 11
174.768
 21
92.5946
 31
0.0
  0
LINE
  8
0
 62
     0
 10
174.768
 20
92.5946
 30
0.0
 11
175.594
 21
92.5946
 31
0.0
  0
LINE
  8
0
 62
     0
 10
175.594
 20
92.5946
 30
0.0
 11
175.594
 21
95.3961
 31
0.0
  0
LINE
  8
0
 62
     0
 10
175.594
 20
95.3961
 30
0.0
 11
174.768
 21
95.3961
 31
0.0
  0
LINE
  8
0
 62
     0
 10
174.768
 20
95.3961
 30
0.0
 11
174.768
 21
98.6247
 31
0.0
  0
LINE
  8
0
 62
     0
 10
174.768
 20
98.6247
 30
0.0
 11
173.045
 21
98.6247
 31
0.0
  0
LINE
  8
0
 62
     0
 10
173.045
 20
98.6247
 30
0.0
 11
173.045
 21
99.544
 31
0.0
  0
LINE
  8
0
 62
     0
 10
173.045
 20
99.544
 30
0.0
 11
169.744
 21
99.544
 31
0.0
  0
LINE
  8
0
 62
     0
 10
169.744
 20
99.544
 30
0.0
 11
169.744
 21
98.6247
 31
0.0
  0
LINE
  8
0
 62
     0
 10
169.744
 20
98.6247
 30
0.0
 11
168.019
 21
98.6247
 31
0.0
  0
LINE
  8
0
 62
     0
 10
168.019
 20
98.6247
 30
0.0
 11
168.019
 21
95.3961
 31
0.0
  0
LINE
  8
0
 62
     0
 10
168.019
 20
95.3961
 30
0.0
 11
166.493
 21
95.3961
 31
0.0
  0
LINE
  8
0
 62
     0
 10
166.493
 20
95.3961
 30
0.0
 11
166.493
 21
100.095
 31
0.0
  0
LINE
  8
0
 62
     0
 10
166.493
 20
100.095
 30
0.0
 11
152.494
 21
100.095
 31
0.0
  0
LINE
  8
0
 62
     0
 10
9.6187
 20
100.095
 30
0.0
 11
23.6196
 21
100.095
 31
0.0
  0
LINE
  8
0
 62
     0
 10
23.6196
 20
100.095
 30
0.0
 11
23.6196
 21
86.0944
 31
0.0
  0
LINE
  8
0
 62
     0
 10
23.6196
 20
86.0944
 30
0.0
 11
9.6187
 21
86.0944
 31
0.0
  0
LINE
  8
0
 62
     0
 10
9.6187
 20
86.0944
 30
0.0
 11
9.6187
 21
100.095
 31
0.0
  0
LINE
  8
0
 62
     0
 10
28.6701
 20
100.095
 30
0.0
 11
42.6695
 21
100.095
 31
0.0
  0
LINE
  8
0
 62
     0
 10
42.6695
 20
100.095
 30
0.0
 11
42.6695
 21
86.0944
 31
0.0
  0
LINE
  8
0
 62
     0
 10
42.6695
 20
86.0944
 30
0.0
 11
28.6701
 21
86.0944
 31
0.0
  0
LINE
  8
0
 62
     0
 10
28.6701
 20
86.0944
 30
0.0
 11
28.6701
 21
100.095
 31
0.0
  0
LINE
  8
0
 62
     0
 10
47.7203
 20
100.095
 30
0.0
 11
61.7195
 21
100.095
 31
0.0
  0
LINE
  8
0
 62
     0
 10
61.7195
 20
100.095
 30
0.0
 11
61.7195
 21
86.0944
 31
0.0
  0
LINE
  8
0
 62
     0
 10
61.7195
 20
86.0944
 30
0.0
 11
47.7203
 21
86.0944
 31
0.0
  0
LINE
  8
0
 62
     0
 10
47.7203
 20
86.0944
 30
0.0
 11
47.7203
 21
100.095
 31
0.0
  0
LINE
  8
0
 62
     0
 10
66.7703
 20
100.095
 30
0.0
 11
80.7695
 21
100.095
 31
0.0
  0
LINE
  8
0
 62
     0
 10
80.7695
 20
100.095
 30
0.0
 11
80.7695
 21
86.0944
 31
0.0
  0
LINE
  8
0
 62
     0
 10
80.7695
 20
86.0944
 30
0.0
 11
66.7703
 21
86.0944
 31
0.0
  0
LINE
  8
0
 62
     0
 10
66.7703
 20
86.0944
 30
0.0
 11
66.7703
 21
100.095
 31
0.0
  0
LINE
  8
0
 62
     0
 10
85.8203
 20
100.095
 30
0.0
 11
99.8195
 21
100.095
 31
0.0
  0
LINE
  8
0
 62
     0
 10
99.8195
 20
100.095
 30
0.0
 11
99.8195
 21
86.0944
 31
0.0
  0
LINE
  8
0
 62
     0
 10
99.8195
 20
86.0944
 30
0.0
 11
85.8203
 21
86.0944
 31
0.0
  0
LINE
  8
0
 62
     0
 10
85.8203
 20
86.0944
 30
0.0
 11
85.8203
 21
100.095
 31
0.0
  0
LINE
  8
0
 62
     0
 10
104.869
 20
100.095
 30
0.0
 11
118.868
 21
100.095
 31
0.0
  0
LINE
  8
0
 62
     0
 10
118.868
 20
100.095
 30
0.0
 11
118.868
 21
86.0944
 31
0.0
  0
LINE
  8
0
 62
     0
 10
118.868
 20
86.0944
 30
0.0
 11
104.869
 21
86.0944
 31
0.0
  0
LINE
  8
0
 62
     0
 10
104.869
 20
86.0944
 30
0.0
 11
104.869
 21
100.095
 31
0.0
  0
LINE
  8
0
 62
     0
 10
123.919
 20
100.095
 30
0.0
 11
137.92
 21
100.095
 31
0.0
  0
LINE
  8
0
 62
     0
 10
137.92
 20
100.095
 30
0.0
 11
137.92
 21
86.0944
 31
0.0
  0
LINE
  8
0
 62
     0
 10
137.92
 20
86.0944
 30
0.0
 11
123.919
 21
86.0944
 31
0.0
  0
LINE
  8
0
 62
     0
 10
123.919
 20
86.0944
 30
0.0
 11
123.919
 21
100.095
 31
0.0
  0
LINE
  8
0
 62
     0
 10
181.069
 20
100.095
 30
0.0
 11
195.068
 21
100.095
 31
0.0
  0
LINE
  8
0
 62
     0
 10
195.068
 20
100.095
 30
0.0
 11
195.068
 21
86.0944
 31
0.0
  0
LINE
  8
0
 62
     0
 10
195.068
 20
86.0944
 30
0.0
 11
181.069
 21
86.0944
 31
0.0
  0
LINE
  8
0
 62
     0
 10
181.069
 20
86.0944
 30
0.0
 11
181.069
 21
100.095
 31
0.0
  0
ENDSEC
  0
EOF
