  0
SECTION
  2
HEADER
  9
$ACADVER
  1
AC1009
  9
$FILLMODE
 70
 0
  9
$SPLFRAME
 70
 1
  9
$EXTMIN
 10
0
 20
0
 30
0.0
  9
$EXTMAX
 10
1058.33
 20
1058.33
 30
0.0
  0
ENDSEC
  0
SECTION
  2
TABLES
  0
TABLE
  2
LAYER
 70
1
  0
LAYER
  2
0
 70
     0
 62
     7
  6
CONTINUOUS
  0
ENDTAB
  0
ENDSEC
  0
SECTION
  2
ENTITIES
  0
LINE
  8
0
 62
     0
 10
0.0950846
 20
107.502
 30
0.0
 11
202.595
 21
107.502
 31
0.0
  0
LINE
  8
0
 62
     0
 10
202.595
 20
107.502
 30
0.0
 11
202.595
 21
0.252181
 31
0.0
  0
LINE
  8
0
 62
     0
 10
202.595
 20
0.252181
 30
0.0
 11
0.0950846
 21
0.252181
 31
0.0
  0
LINE
  8
0
 62
     0
 10
0.0950846
 20
0.252181
 30
0.0
 11
0.0950846
 21
107.502
 31
0.0
  0
LINE
  8
0
 62
     0
 10
49.101
 20
22.7776
 30
0.0
 11
49.101
 21
18.0771
 31
0.0
  0
LINE
  8
0
 62
     0
 10
49.101
 20
18.0771
 30
0.0
 11
47.5753
 21
18.0771
 31
0.0
  0
LINE
  8
0
 62
     0
 10
47.5753
 20
18.0771
 30
0.0
 11
47.5753
 21
21.3072
 31
0.0
  0
LINE
  8
0
 62
     0
 10
47.5753
 20
21.3072
 30
0.0
 11
45.8502
 21
21.3072
 31
0.0
  0
LINE
  8
0
 62
     0
 10
45.8502
 20
21.3072
 30
0.0
 11
45.8502
 21
22.2291
 31
0.0
  0
LINE
  8
0
 62
     0
 10
45.8502
 20
22.2291
 30
0.0
 11
42.551
 21
22.2291
 31
0.0
  0
LINE
  8
0
 62
     0
 10
42.551
 20
22.2291
 30
0.0
 11
42.551
 21
21.3072
 31
0.0
  0
LINE
  8
0
 62
     0
 10
42.551
 20
21.3072
 30
0.0
 11
40.8259
 21
21.3072
 31
0.0
  0
LINE
  8
0
 62
     0
 10
40.8259
 20
21.3072
 30
0.0
 11
40.8259
 21
18.0771
 31
0.0
  0
LINE
  8
0
 62
     0
 10
40.8259
 20
18.0771
 30
0.0
 11
40.0004
 21
18.0771
 31
0.0
  0
LINE
  8
0
 62
     0
 10
40.0004
 20
18.0771
 30
0.0
 11
40.0004
 21
15.2783
 31
0.0
  0
LINE
  8
0
 62
     0
 10
40.0004
 20
15.2783
 30
0.0
 11
40.8259
 21
15.2783
 31
0.0
  0
LINE
  8
0
 62
     0
 10
40.8259
 20
15.2783
 30
0.0
 11
40.8259
 21
9.00825
 31
0.0
  0
LINE
  8
0
 62
     0
 10
40.8259
 20
9.00825
 30
0.0
 11
42.551
 21
9.00825
 31
0.0
  0
LINE
  8
0
 62
     0
 10
42.551
 20
9.00825
 30
0.0
 11
42.551
 21
8.02707
 31
0.0
  0
LINE
  8
0
 62
     0
 10
42.551
 20
8.02707
 30
0.0
 11
45.8502
 21
8.02707
 31
0.0
  0
LINE
  8
0
 62
     0
 10
45.8502
 20
8.02707
 30
0.0
 11
45.8502
 21
9.00825
 31
0.0
  0
LINE
  8
0
 62
     0
 10
45.8502
 20
9.00825
 30
0.0
 11
47.5753
 21
9.00825
 31
0.0
  0
LINE
  8
0
 62
     0
 10
47.5753
 20
9.00825
 30
0.0
 11
47.5753
 21
13.4786
 31
0.0
  0
LINE
  8
0
 62
     0
 10
47.5753
 20
13.4786
 30
0.0
 11
49.101
 21
13.4786
 31
0.0
  0
LINE
  8
0
 62
     0
 10
49.101
 20
13.4786
 30
0.0
 11
49.101
 21
8.7781
 31
0.0
  0
LINE
  8
0
 62
     0
 10
49.101
 20
8.7781
 30
0.0
 11
63.1003
 21
8.7781
 31
0.0
  0
LINE
  8
0
 62
     0
 10
63.1003
 20
8.7781
 30
0.0
 11
63.1003
 21
13.4786
 31
0.0
  0
LINE
  8
0
 62
     0
 10
63.1003
 20
13.4786
 30
0.0
 11
64.6257
 21
13.4786
 31
0.0
  0
LINE
  8
0
 62
     0
 10
64.6257
 20
13.4786
 30
0.0
 11
64.6257
 21
9.00825
 31
0.0
  0
LINE
  8
0
 62
     0
 10
64.6257
 20
9.00825
 30
0.0
 11
66.3512
 21
9.00825
 31
0.0
  0
LINE
  8
0
 62
     0
 10
66.3512
 20
9.00825
 30
0.0
 11
66.3512
 21
8.02707
 31
0.0
  0
LINE
  8
0
 62
     0
 10
66.3512
 20
8.02707
 30
0.0
 11
69.6503
 21
8.02707
 31
0.0
  0
LINE
  8
0
 62
     0
 10
69.6503
 20
8.02707
 30
0.0
 11
69.6503
 21
9.00825
 31
0.0
  0
LINE
  8
0
 62
     0
 10
69.6503
 20
9.00825
 30
0.0
 11
71.3754
 21
9.00825
 31
0.0
  0
LINE
  8
0
 62
     0
 10
71.3754
 20
9.00825
 30
0.0
 11
71.3754
 21
15.2783
 31
0.0
  0
LINE
  8
0
 62
     0
 10
71.3754
 20
15.2783
 30
0.0
 11
72.2009
 21
15.2783
 31
0.0
  0
LINE
  8
0
 62
     0
 10
72.2009
 20
15.2783
 30
0.0
 11
72.2009
 21
18.0771
 31
0.0
  0
LINE
  8
0
 62
     0
 10
72.2009
 20
18.0771
 30
0.0
 11
71.3754
 21
18.0771
 31
0.0
  0
LINE
  8
0
 62
     0
 10
71.3754
 20
18.0771
 30
0.0
 11
71.3754
 21
21.3072
 31
0.0
  0
LINE
  8
0
 62
     0
 10
71.3754
 20
21.3072
 30
0.0
 11
69.6503
 21
21.3072
 31
0.0
  0
LINE
  8
0
 62
     0
 10
69.6503
 20
21.3072
 30
0.0
 11
69.6503
 21
22.2291
 31
0.0
  0
LINE
  8
0
 62
     0
 10
69.6503
 20
22.2291
 30
0.0
 11
66.3512
 21
22.2291
 31
0.0
  0
LINE
  8
0
 62
     0
 10
66.3512
 20
22.2291
 30
0.0
 11
66.3512
 21
21.3072
 31
0.0
  0
LINE
  8
0
 62
     0
 10
66.3512
 20
21.3072
 30
0.0
 11
64.6257
 21
21.3072
 31
0.0
  0
LINE
  8
0
 62
     0
 10
64.6257
 20
21.3072
 30
0.0
 11
64.6257
 21
18.0771
 31
0.0
  0
LINE
  8
0
 62
     0
 10
64.6257
 20
18.0771
 30
0.0
 11
63.1003
 21
18.0771
 31
0.0
  0
LINE
  8
0
 62
     0
 10
63.1003
 20
18.0771
 30
0.0
 11
63.1003
 21
22.7776
 31
0.0
  0
LINE
  8
0
 62
     0
 10
63.1003
 20
22.7776
 30
0.0
 11
49.101
 21
22.7776
 31
0.0
  0
LINE
  8
0
 62
     0
 10
13.3821
 20
22.7776
 30
0.0
 11
27.3816
 21
22.7776
 31
0.0
  0
LINE
  8
0
 62
     0
 10
27.3816
 20
22.7776
 30
0.0
 11
27.3816
 21
8.7781
 31
0.0
  0
LINE
  8
0
 62
     0
 10
27.3816
 20
8.7781
 30
0.0
 11
13.3821
 21
8.7781
 31
0.0
  0
LINE
  8
0
 62
     0
 10
13.3821
 20
8.7781
 30
0.0
 11
13.3821
 21
22.7776
 31
0.0
  0
LINE
  8
0
 62
     0
 10
84.8198
 20
22.7776
 30
0.0
 11
98.8191
 21
22.7776
 31
0.0
  0
LINE
  8
0
 62
     0
 10
98.8191
 20
22.7776
 30
0.0
 11
98.8191
 21
8.7781
 31
0.0
  0
LINE
  8
0
 62
     0
 10
98.8191
 20
8.7781
 30
0.0
 11
84.8198
 21
8.7781
 31
0.0
  0
LINE
  8
0
 62
     0
 10
84.8198
 20
8.7781
 30
0.0
 11
84.8198
 21
22.7776
 31
0.0
  0
LINE
  8
0
 62
     0
 10
103.868
 20
22.7776
 30
0.0
 11
117.869
 21
22.7776
 31
0.0
  0
LINE
  8
0
 62
     0
 10
117.869
 20
22.7776
 30
0.0
 11
117.869
 21
8.7781
 31
0.0
  0
LINE
  8
0
 62
     0
 10
117.869
 20
8.7781
 30
0.0
 11
103.868
 21
8.7781
 31
0.0
  0
LINE
  8
0
 62
     0
 10
103.868
 20
8.7781
 30
0.0
 11
103.868
 21
22.7776
 31
0.0
  0
LINE
  8
0
 62
     0
 10
122.918
 20
22.7776
 30
0.0
 11
136.919
 21
22.7776
 31
0.0
  0
LINE
  8
0
 62
     0
 10
136.919
 20
22.7776
 30
0.0
 11
136.919
 21
8.7781
 31
0.0
  0
LINE
  8
0
 62
     0
 10
136.919
 20
8.7781
 30
0.0
 11
122.918
 21
8.7781
 31
0.0
  0
LINE
  8
0
 62
     0
 10
122.918
 20
8.7781
 30
0.0
 11
122.918
 21
22.7776
 31
0.0
  0
LINE
  8
0
 62
     0
 10
141.97
 20
22.7776
 30
0.0
 11
155.969
 21
22.7776
 31
0.0
  0
LINE
  8
0
 62
     0
 10
155.969
 20
22.7776
 30
0.0
 11
155.969
 21
8.7781
 31
0.0
  0
LINE
  8
0
 62
     0
 10
155.969
 20
8.7781
 30
0.0
 11
141.97
 21
8.7781
 31
0.0
  0
LINE
  8
0
 62
     0
 10
141.97
 20
8.7781
 30
0.0
 11
141.97
 21
22.7776
 31
0.0
  0
LINE
  8
0
 62
     0
 10
161.02
 20
22.7776
 30
0.0
 11
175.019
 21
22.7776
 31
0.0
  0
LINE
  8
0
 62
     0
 10
175.019
 20
22.7776
 30
0.0
 11
175.019
 21
8.7781
 31
0.0
  0
LINE
  8
0
 62
     0
 10
175.019
 20
8.7781
 30
0.0
 11
161.02
 21
8.7781
 31
0.0
  0
LINE
  8
0
 62
     0
 10
161.02
 20
8.7781
 30
0.0
 11
161.02
 21
22.7776
 31
0.0
  0
LINE
  8
0
 62
     0
 10
180.07
 20
22.7776
 30
0.0
 11
194.069
 21
22.7776
 31
0.0
  0
LINE
  8
0
 62
     0
 10
194.069
 20
22.7776
 30
0.0
 11
194.069
 21
8.7781
 31
0.0
  0
LINE
  8
0
 62
     0
 10
194.069
 20
8.7781
 30
0.0
 11
180.07
 21
8.7781
 31
0.0
  0
LINE
  8
0
 62
     0
 10
180.07
 20
8.7781
 30
0.0
 11
180.07
 21
22.7776
 31
0.0
  0
LINE
  8
0
 62
     0
 10
13.3821
 20
41.8275
 30
0.0
 11
27.3816
 21
41.8275
 31
0.0
  0
LINE
  8
0
 62
     0
 10
27.3816
 20
41.8275
 30
0.0
 11
27.3816
 21
27.8281
 31
0.0
  0
LINE
  8
0
 62
     0
 10
27.3816
 20
27.8281
 30
0.0
 11
13.3821
 21
27.8281
 31
0.0
  0
LINE
  8
0
 62
     0
 10
13.3821
 20
27.8281
 30
0.0
 11
13.3821
 21
41.8275
 31
0.0
  0
LINE
  8
0
 62
     0
 10
32.4321
 20
41.8275
 30
0.0
 11
46.4316
 21
41.8275
 31
0.0
  0
LINE
  8
0
 62
     0
 10
46.4316
 20
41.8275
 30
0.0
 11
46.4316
 21
27.8281
 31
0.0
  0
LINE
  8
0
 62
     0
 10
46.4316
 20
27.8281
 30
0.0
 11
32.4321
 21
27.8281
 31
0.0
  0
LINE
  8
0
 62
     0
 10
32.4321
 20
27.8281
 30
0.0
 11
32.4321
 21
41.8275
 31
0.0
  0
LINE
  8
0
 62
     0
 10
51.4823
 20
41.8275
 30
0.0
 11
65.4816
 21
41.8275
 31
0.0
  0
LINE
  8
0
 62
     0
 10
65.4816
 20
41.8275
 30
0.0
 11
65.4816
 21
27.8281
 31
0.0
  0
LINE
  8
0
 62
     0
 10
65.4816
 20
27.8281
 30
0.0
 11
51.4823
 21
27.8281
 31
0.0
  0
LINE
  8
0
 62
     0
 10
51.4823
 20
27.8281
 30
0.0
 11
51.4823
 21
41.8275
 31
0.0
  0
LINE
  8
0
 62
     0
 10
70.5323
 20
41.8275
 30
0.0
 11
84.5316
 21
41.8275
 31
0.0
  0
LINE
  8
0
 62
     0
 10
84.5316
 20
41.8275
 30
0.0
 11
84.5316
 21
27.8281
 31
0.0
  0
LINE
  8
0
 62
     0
 10
84.5316
 20
27.8281
 30
0.0
 11
70.5323
 21
27.8281
 31
0.0
  0
LINE
  8
0
 62
     0
 10
70.5323
 20
27.8281
 30
0.0
 11
70.5323
 21
41.8275
 31
0.0
  0
LINE
  8
0
 62
     0
 10
89.5823
 20
41.8275
 30
0.0
 11
103.582
 21
41.8275
 31
0.0
  0
LINE
  8
0
 62
     0
 10
103.582
 20
41.8275
 30
0.0
 11
103.582
 21
27.8281
 31
0.0
  0
LINE
  8
0
 62
     0
 10
103.582
 20
27.8281
 30
0.0
 11
89.5823
 21
27.8281
 31
0.0
  0
LINE
  8
0
 62
     0
 10
89.5823
 20
27.8281
 30
0.0
 11
89.5823
 21
41.8275
 31
0.0
  0
LINE
  8
0
 62
     0
 10
108.632
 20
41.8275
 30
0.0
 11
122.632
 21
41.8275
 31
0.0
  0
LINE
  8
0
 62
     0
 10
122.632
 20
41.8275
 30
0.0
 11
122.632
 21
27.8281
 31
0.0
  0
LINE
  8
0
 62
     0
 10
122.632
 20
27.8281
 30
0.0
 11
108.632
 21
27.8281
 31
0.0
  0
LINE
  8
0
 62
     0
 10
108.632
 20
27.8281
 30
0.0
 11
108.632
 21
41.8275
 31
0.0
  0
LINE
  8
0
 62
     0
 10
134.826
 20
41.8275
 30
0.0
 11
148.825
 21
41.8275
 31
0.0
  0
LINE
  8
0
 62
     0
 10
148.825
 20
41.8275
 30
0.0
 11
148.825
 21
27.8281
 31
0.0
  0
LINE
  8
0
 62
     0
 10
148.825
 20
27.8281
 30
0.0
 11
134.826
 21
27.8281
 31
0.0
  0
LINE
  8
0
 62
     0
 10
134.826
 20
27.8281
 30
0.0
 11
134.826
 21
41.8275
 31
0.0
  0
LINE
  8
0
 62
     0
 10
161.018
 20
41.8275
 30
0.0
 11
175.019
 21
41.8275
 31
0.0
  0
LINE
  8
0
 62
     0
 10
175.019
 20
41.8275
 30
0.0
 11
175.019
 21
27.8281
 31
0.0
  0
LINE
  8
0
 62
     0
 10
175.019
 20
27.8281
 30
0.0
 11
161.018
 21
27.8281
 31
0.0
  0
LINE
  8
0
 62
     0
 10
161.018
 20
27.8281
 30
0.0
 11
161.018
 21
41.8275
 31
0.0
  0
LINE
  8
0
 62
     0
 10
180.07
 20
41.8275
 30
0.0
 11
194.069
 21
41.8275
 31
0.0
  0
LINE
  8
0
 62
     0
 10
194.069
 20
41.8275
 30
0.0
 11
194.069
 21
27.8281
 31
0.0
  0
LINE
  8
0
 62
     0
 10
194.069
 20
27.8281
 30
0.0
 11
180.07
 21
27.8281
 31
0.0
  0
LINE
  8
0
 62
     0
 10
180.07
 20
27.8281
 30
0.0
 11
180.07
 21
41.8275
 31
0.0
  0
LINE
  8
0
 62
     0
 10
149.112
 20
60.8774
 30
0.0
 11
149.112
 21
56.177
 31
0.0
  0
LINE
  8
0
 62
     0
 10
149.112
 20
56.177
 30
0.0
 11
147.588
 21
56.177
 31
0.0
  0
LINE
  8
0
 62
     0
 10
147.588
 20
56.177
 30
0.0
 11
147.588
 21
59.4071
 31
0.0
  0
LINE
  8
0
 62
     0
 10
147.588
 20
59.4071
 30
0.0
 11
145.863
 21
59.4071
 31
0.0
  0
LINE
  8
0
 62
     0
 10
145.863
 20
59.4071
 30
0.0
 11
145.863
 21
60.3278
 31
0.0
  0
LINE
  8
0
 62
     0
 10
145.863
 20
60.3278
 30
0.0
 11
142.562
 21
60.3278
 31
0.0
  0
LINE
  8
0
 62
     0
 10
142.562
 20
60.3278
 30
0.0
 11
142.562
 21
59.4071
 31
0.0
  0
LINE
  8
0
 62
     0
 10
142.562
 20
59.4071
 30
0.0
 11
140.837
 21
59.4071
 31
0.0
  0
LINE
  8
0
 62
     0
 10
140.837
 20
59.4071
 30
0.0
 11
140.837
 21
56.177
 31
0.0
  0
LINE
  8
0
 62
     0
 10
140.837
 20
56.177
 30
0.0
 11
140.013
 21
56.177
 31
0.0
  0
LINE
  8
0
 62
     0
 10
140.013
 20
56.177
 30
0.0
 11
140.013
 21
53.3785
 31
0.0
  0
LINE
  8
0
 62
     0
 10
140.013
 20
53.3785
 30
0.0
 11
140.837
 21
53.3785
 31
0.0
  0
LINE
  8
0
 62
     0
 10
140.837
 20
53.3785
 30
0.0
 11
140.837
 21
47.1082
 31
0.0
  0
LINE
  8
0
 62
     0
 10
140.837
 20
47.1082
 30
0.0
 11
142.562
 21
47.1082
 31
0.0
  0
LINE
  8
0
 62
     0
 10
142.562
 20
47.1082
 30
0.0
 11
142.562
 21
46.1271
 31
0.0
  0
LINE
  8
0
 62
     0
 10
142.562
 20
46.1271
 30
0.0
 11
145.863
 21
46.1271
 31
0.0
  0
LINE
  8
0
 62
     0
 10
145.863
 20
46.1271
 30
0.0
 11
145.863
 21
47.1082
 31
0.0
  0
LINE
  8
0
 62
     0
 10
145.863
 20
47.1082
 30
0.0
 11
147.588
 21
47.1082
 31
0.0
  0
LINE
  8
0
 62
     0
 10
147.588
 20
47.1082
 30
0.0
 11
147.588
 21
51.5772
 31
0.0
  0
LINE
  8
0
 62
     0
 10
147.588
 20
51.5772
 30
0.0
 11
149.112
 21
51.5772
 31
0.0
  0
LINE
  8
0
 62
     0
 10
149.112
 20
51.5772
 30
0.0
 11
149.112
 21
46.8782
 31
0.0
  0
LINE
  8
0
 62
     0
 10
149.112
 20
46.8782
 30
0.0
 11
163.113
 21
46.8782
 31
0.0
  0
LINE
  8
0
 62
     0
 10
163.113
 20
46.8782
 30
0.0
 11
163.113
 21
51.5772
 31
0.0
  0
LINE
  8
0
 62
     0
 10
163.113
 20
51.5772
 30
0.0
 11
164.637
 21
51.5772
 31
0.0
  0
LINE
  8
0
 62
     0
 10
164.637
 20
51.5772
 30
0.0
 11
164.637
 21
47.1082
 31
0.0
  0
LINE
  8
0
 62
     0
 10
164.637
 20
47.1082
 30
0.0
 11
166.362
 21
47.1082
 31
0.0
  0
LINE
  8
0
 62
     0
 10
166.362
 20
47.1082
 30
0.0
 11
166.362
 21
46.1271
 31
0.0
  0
LINE
  8
0
 62
     0
 10
166.362
 20
46.1271
 30
0.0
 11
169.663
 21
46.1271
 31
0.0
  0
LINE
  8
0
 62
     0
 10
169.663
 20
46.1271
 30
0.0
 11
169.663
 21
47.1082
 31
0.0
  0
LINE
  8
0
 62
     0
 10
169.663
 20
47.1082
 30
0.0
 11
171.388
 21
47.1082
 31
0.0
  0
LINE
  8
0
 62
     0
 10
171.388
 20
47.1082
 30
0.0
 11
171.388
 21
53.3785
 31
0.0
  0
LINE
  8
0
 62
     0
 10
171.388
 20
53.3785
 30
0.0
 11
172.212
 21
53.3785
 31
0.0
  0
LINE
  8
0
 62
     0
 10
172.212
 20
53.3785
 30
0.0
 11
172.212
 21
56.177
 31
0.0
  0
LINE
  8
0
 62
     0
 10
172.212
 20
56.177
 30
0.0
 11
171.388
 21
56.177
 31
0.0
  0
LINE
  8
0
 62
     0
 10
171.388
 20
56.177
 30
0.0
 11
171.388
 21
59.4071
 31
0.0
  0
LINE
  8
0
 62
     0
 10
171.388
 20
59.4071
 30
0.0
 11
169.663
 21
59.4071
 31
0.0
  0
LINE
  8
0
 62
     0
 10
169.663
 20
59.4071
 30
0.0
 11
169.663
 21
60.3278
 31
0.0
  0
LINE
  8
0
 62
     0
 10
169.663
 20
60.3278
 30
0.0
 11
166.362
 21
60.3278
 31
0.0
  0
LINE
  8
0
 62
     0
 10
166.362
 20
60.3278
 30
0.0
 11
166.362
 21
59.4071
 31
0.0
  0
LINE
  8
0
 62
     0
 10
166.362
 20
59.4071
 30
0.0
 11
164.637
 21
59.4071
 31
0.0
  0
LINE
  8
0
 62
     0
 10
164.637
 20
59.4071
 30
0.0
 11
164.637
 21
56.177
 31
0.0
  0
LINE
  8
0
 62
     0
 10
164.637
 20
56.177
 30
0.0
 11
163.113
 21
56.177
 31
0.0
  0
LINE
  8
0
 62
     0
 10
163.113
 20
56.177
 30
0.0
 11
163.113
 21
60.8774
 31
0.0
  0
LINE
  8
0
 62
     0
 10
163.113
 20
60.8774
 30
0.0
 11
149.112
 21
60.8774
 31
0.0
  0
LINE
  8
0
 62
     0
 10
22.9071
 20
60.8774
 30
0.0
 11
36.9066
 21
60.8774
 31
0.0
  0
LINE
  8
0
 62
     0
 10
36.9066
 20
60.8774
 30
0.0
 11
36.9066
 21
46.8782
 31
0.0
  0
LINE
  8
0
 62
     0
 10
36.9066
 20
46.8782
 30
0.0
 11
22.9071
 21
46.8782
 31
0.0
  0
LINE
  8
0
 62
     0
 10
22.9071
 20
46.8782
 30
0.0
 11
22.9071
 21
60.8774
 31
0.0
  0
LINE
  8
0
 62
     0
 10
41.9573
 20
60.8774
 30
0.0
 11
55.9566
 21
60.8774
 31
0.0
  0
LINE
  8
0
 62
     0
 10
55.9566
 20
60.8774
 30
0.0
 11
55.9566
 21
46.8782
 31
0.0
  0
LINE
  8
0
 62
     0
 10
55.9566
 20
46.8782
 30
0.0
 11
41.9573
 21
46.8782
 31
0.0
  0
LINE
  8
0
 62
     0
 10
41.9573
 20
46.8782
 30
0.0
 11
41.9573
 21
60.8774
 31
0.0
  0
LINE
  8
0
 62
     0
 10
61.0073
 20
60.8774
 30
0.0
 11
75.0066
 21
60.8774
 31
0.0
  0
LINE
  8
0
 62
     0
 10
75.0066
 20
60.8774
 30
0.0
 11
75.0066
 21
46.8782
 31
0.0
  0
LINE
  8
0
 62
     0
 10
75.0066
 20
46.8782
 30
0.0
 11
61.0073
 21
46.8782
 31
0.0
  0
LINE
  8
0
 62
     0
 10
61.0073
 20
46.8782
 30
0.0
 11
61.0073
 21
60.8774
 31
0.0
  0
LINE
  8
0
 62
     0
 10
80.0573
 20
60.8774
 30
0.0
 11
94.0566
 21
60.8774
 31
0.0
  0
LINE
  8
0
 62
     0
 10
94.0566
 20
60.8774
 30
0.0
 11
94.0566
 21
46.8782
 31
0.0
  0
LINE
  8
0
 62
     0
 10
94.0566
 20
46.8782
 30
0.0
 11
80.0573
 21
46.8782
 31
0.0
  0
LINE
  8
0
 62
     0
 10
80.0573
 20
46.8782
 30
0.0
 11
80.0573
 21
60.8774
 31
0.0
  0
LINE
  8
0
 62
     0
 10
99.1073
 20
60.8774
 30
0.0
 11
113.107
 21
60.8774
 31
0.0
  0
LINE
  8
0
 62
     0
 10
113.107
 20
60.8774
 30
0.0
 11
113.107
 21
46.8782
 31
0.0
  0
LINE
  8
0
 62
     0
 10
113.107
 20
46.8782
 30
0.0
 11
99.1073
 21
46.8782
 31
0.0
  0
LINE
  8
0
 62
     0
 10
99.1073
 20
46.8782
 30
0.0
 11
99.1073
 21
60.8774
 31
0.0
  0
LINE
  8
0
 62
     0
 10
118.157
 20
60.8774
 30
0.0
 11
132.157
 21
60.8774
 31
0.0
  0
LINE
  8
0
 62
     0
 10
132.157
 20
60.8774
 30
0.0
 11
132.157
 21
46.8782
 31
0.0
  0
LINE
  8
0
 62
     0
 10
132.157
 20
46.8782
 30
0.0
 11
118.157
 21
46.8782
 31
0.0
  0
LINE
  8
0
 62
     0
 10
118.157
 20
46.8782
 30
0.0
 11
118.157
 21
60.8774
 31
0.0
  0
LINE
  8
0
 62
     0
 10
180.07
 20
60.8774
 30
0.0
 11
194.069
 21
60.8774
 31
0.0
  0
LINE
  8
0
 62
     0
 10
194.069
 20
60.8774
 30
0.0
 11
194.069
 21
46.8782
 31
0.0
  0
LINE
  8
0
 62
     0
 10
194.069
 20
46.8782
 30
0.0
 11
180.07
 21
46.8782
 31
0.0
  0
LINE
  8
0
 62
     0
 10
180.07
 20
46.8782
 30
0.0
 11
180.07
 21
60.8774
 31
0.0
  0
LINE
  8
0
 62
     0
 10
18.1433
 20
79.9274
 30
0.0
 11
32.1441
 21
79.9274
 31
0.0
  0
LINE
  8
0
 62
     0
 10
32.1441
 20
79.9274
 30
0.0
 11
32.1441
 21
65.9282
 31
0.0
  0
LINE
  8
0
 62
     0
 10
32.1441
 20
65.9282
 30
0.0
 11
18.1433
 21
65.9282
 31
0.0
  0
LINE
  8
0
 62
     0
 10
18.1433
 20
65.9282
 30
0.0
 11
18.1433
 21
79.9274
 31
0.0
  0
LINE
  8
0
 62
     0
 10
37.1934
 20
79.9274
 30
0.0
 11
51.1941
 21
79.9274
 31
0.0
  0
LINE
  8
0
 62
     0
 10
51.1941
 20
79.9274
 30
0.0
 11
51.1941
 21
65.9282
 31
0.0
  0
LINE
  8
0
 62
     0
 10
51.1941
 20
65.9282
 30
0.0
 11
37.1934
 21
65.9282
 31
0.0
  0
LINE
  8
0
 62
     0
 10
37.1934
 20
65.9282
 30
0.0
 11
37.1934
 21
79.9274
 31
0.0
  0
LINE
  8
0
 62
     0
 10
56.2434
 20
79.9274
 30
0.0
 11
70.2441
 21
79.9274
 31
0.0
  0
LINE
  8
0
 62
     0
 10
70.2441
 20
79.9274
 30
0.0
 11
70.2441
 21
65.9282
 31
0.0
  0
LINE
  8
0
 62
     0
 10
70.2441
 20
65.9282
 30
0.0
 11
56.2434
 21
65.9282
 31
0.0
  0
LINE
  8
0
 62
     0
 10
56.2434
 20
65.9282
 30
0.0
 11
56.2434
 21
79.9274
 31
0.0
  0
LINE
  8
0
 62
     0
 10
75.2934
 20
79.9274
 30
0.0
 11
89.2941
 21
79.9274
 31
0.0
  0
LINE
  8
0
 62
     0
 10
89.2941
 20
79.9274
 30
0.0
 11
89.2941
 21
65.9282
 31
0.0
  0
LINE
  8
0
 62
     0
 10
89.2941
 20
65.9282
 30
0.0
 11
75.2934
 21
65.9282
 31
0.0
  0
LINE
  8
0
 62
     0
 10
75.2934
 20
65.9282
 30
0.0
 11
75.2934
 21
79.9274
 31
0.0
  0
LINE
  8
0
 62
     0
 10
94.3434
 20
79.9274
 30
0.0
 11
108.344
 21
79.9274
 31
0.0
  0
LINE
  8
0
 62
     0
 10
108.344
 20
79.9274
 30
0.0
 11
108.344
 21
65.9282
 31
0.0
  0
LINE
  8
0
 62
     0
 10
108.344
 20
65.9282
 30
0.0
 11
94.3434
 21
65.9282
 31
0.0
  0
LINE
  8
0
 62
     0
 10
94.3434
 20
65.9282
 30
0.0
 11
94.3434
 21
79.9274
 31
0.0
  0
LINE
  8
0
 62
     0
 10
113.393
 20
79.9274
 30
0.0
 11
127.394
 21
79.9274
 31
0.0
  0
LINE
  8
0
 62
     0
 10
127.394
 20
79.9274
 30
0.0
 11
127.394
 21
65.9282
 31
0.0
  0
LINE
  8
0
 62
     0
 10
127.394
 20
65.9282
 30
0.0
 11
113.393
 21
65.9282
 31
0.0
  0
LINE
  8
0
 62
     0
 10
113.393
 20
65.9282
 30
0.0
 11
113.393
 21
79.9274
 31
0.0
  0
LINE
  8
0
 62
     0
 10
132.445
 20
79.9274
 30
0.0
 11
146.444
 21
79.9274
 31
0.0
  0
LINE
  8
0
 62
     0
 10
146.444
 20
79.9274
 30
0.0
 11
146.444
 21
65.9282
 31
0.0
  0
LINE
  8
0
 62
     0
 10
146.444
 20
65.9282
 30
0.0
 11
132.445
 21
65.9282
 31
0.0
  0
LINE
  8
0
 62
     0
 10
132.445
 20
65.9282
 30
0.0
 11
132.445
 21
79.9274
 31
0.0
  0
LINE
  8
0
 62
     0
 10
156.257
 20
79.9274
 30
0.0
 11
170.257
 21
79.9274
 31
0.0
  0
LINE
  8
0
 62
     0
 10
170.257
 20
79.9274
 30
0.0
 11
170.257
 21
65.9282
 31
0.0
  0
LINE
  8
0
 62
     0
 10
170.257
 20
65.9282
 30
0.0
 11
156.257
 21
65.9282
 31
0.0
  0
LINE
  8
0
 62
     0
 10
156.257
 20
65.9282
 30
0.0
 11
156.257
 21
79.9274
 31
0.0
  0
LINE
  8
0
 62
     0
 10
180.07
 20
79.9274
 30
0.0
 11
194.069
 21
79.9274
 31
0.0
  0
LINE
  8
0
 62
     0
 10
194.069
 20
79.9274
 30
0.0
 11
194.069
 21
65.9282
 31
0.0
  0
LINE
  8
0
 62
     0
 10
194.069
 20
65.9282
 30
0.0
 11
180.07
 21
65.9282
 31
0.0
  0
LINE
  8
0
 62
     0
 10
180.07
 20
65.9282
 30
0.0
 11
180.07
 21
79.9274
 31
0.0
  0
LINE
  8
0
 62
     0
 10
151.493
 20
98.9789
 30
0.0
 11
151.493
 21
94.2785
 31
0.0
  0
LINE
  8
0
 62
     0
 10
151.493
 20
94.2785
 30
0.0
 11
149.969
 21
94.2785
 31
0.0
  0
LINE
  8
0
 62
     0
 10
149.969
 20
94.2785
 30
0.0
 11
149.969
 21
97.5085
 31
0.0
  0
LINE
  8
0
 62
     0
 10
149.969
 20
97.5085
 30
0.0
 11
148.244
 21
97.5085
 31
0.0
  0
LINE
  8
0
 62
     0
 10
148.244
 20
97.5085
 30
0.0
 11
148.244
 21
98.4278
 31
0.0
  0
LINE
  8
0
 62
     0
 10
148.244
 20
98.4278
 30
0.0
 11
144.943
 21
98.4278
 31
0.0
  0
LINE
  8
0
 62
     0
 10
144.943
 20
98.4278
 30
0.0
 11
144.943
 21
97.5085
 31
0.0
  0
LINE
  8
0
 62
     0
 10
144.943
 20
97.5085
 30
0.0
 11
143.218
 21
97.5085
 31
0.0
  0
LINE
  8
0
 62
     0
 10
143.218
 20
97.5085
 30
0.0
 11
143.218
 21
94.2785
 31
0.0
  0
LINE
  8
0
 62
     0
 10
143.218
 20
94.2785
 30
0.0
 11
142.394
 21
94.2785
 31
0.0
  0
LINE
  8
0
 62
     0
 10
142.394
 20
94.2785
 30
0.0
 11
142.394
 21
91.4784
 31
0.0
  0
LINE
  8
0
 62
     0
 10
142.394
 20
91.4784
 30
0.0
 11
143.218
 21
91.4784
 31
0.0
  0
LINE
  8
0
 62
     0
 10
143.218
 20
91.4784
 30
0.0
 11
143.218
 21
85.2082
 31
0.0
  0
LINE
  8
0
 62
     0
 10
143.218
 20
85.2082
 30
0.0
 11
144.943
 21
85.2082
 31
0.0
  0
LINE
  8
0
 62
     0
 10
144.943
 20
85.2082
 30
0.0
 11
144.943
 21
84.2271
 31
0.0
  0
LINE
  8
0
 62
     0
 10
144.943
 20
84.2271
 30
0.0
 11
148.244
 21
84.2271
 31
0.0
  0
LINE
  8
0
 62
     0
 10
148.244
 20
84.2271
 30
0.0
 11
148.244
 21
85.2082
 31
0.0
  0
LINE
  8
0
 62
     0
 10
148.244
 20
85.2082
 30
0.0
 11
149.969
 21
85.2082
 31
0.0
  0
LINE
  8
0
 62
     0
 10
149.969
 20
85.2082
 30
0.0
 11
149.969
 21
89.6772
 31
0.0
  0
LINE
  8
0
 62
     0
 10
149.969
 20
89.6772
 30
0.0
 11
151.493
 21
89.6772
 31
0.0
  0
LINE
  8
0
 62
     0
 10
151.493
 20
89.6772
 30
0.0
 11
151.493
 21
84.9782
 31
0.0
  0
LINE
  8
0
 62
     0
 10
151.493
 20
84.9782
 30
0.0
 11
165.494
 21
84.9782
 31
0.0
  0
LINE
  8
0
 62
     0
 10
165.494
 20
84.9782
 30
0.0
 11
165.494
 21
89.6772
 31
0.0
  0
LINE
  8
0
 62
     0
 10
165.494
 20
89.6772
 30
0.0
 11
167.018
 21
89.6772
 31
0.0
  0
LINE
  8
0
 62
     0
 10
167.018
 20
89.6772
 30
0.0
 11
167.018
 21
85.2082
 31
0.0
  0
LINE
  8
0
 62
     0
 10
167.018
 20
85.2082
 30
0.0
 11
168.743
 21
85.2082
 31
0.0
  0
LINE
  8
0
 62
     0
 10
168.743
 20
85.2082
 30
0.0
 11
168.743
 21
84.2271
 31
0.0
  0
LINE
  8
0
 62
     0
 10
168.743
 20
84.2271
 30
0.0
 11
172.044
 21
84.2271
 31
0.0
  0
LINE
  8
0
 62
     0
 10
172.044
 20
84.2271
 30
0.0
 11
172.044
 21
85.2082
 31
0.0
  0
LINE
  8
0
 62
     0
 10
172.044
 20
85.2082
 30
0.0
 11
173.768
 21
85.2082
 31
0.0
  0
LINE
  8
0
 62
     0
 10
173.768
 20
85.2082
 30
0.0
 11
173.768
 21
91.4784
 31
0.0
  0
LINE
  8
0
 62
     0
 10
173.768
 20
91.4784
 30
0.0
 11
174.593
 21
91.4784
 31
0.0
  0
LINE
  8
0
 62
     0
 10
174.593
 20
91.4784
 30
0.0
 11
174.593
 21
94.2785
 31
0.0
  0
LINE
  8
0
 62
     0
 10
174.593
 20
94.2785
 30
0.0
 11
173.768
 21
94.2785
 31
0.0
  0
LINE
  8
0
 62
     0
 10
173.768
 20
94.2785
 30
0.0
 11
173.768
 21
97.5085
 31
0.0
  0
LINE
  8
0
 62
     0
 10
173.768
 20
97.5085
 30
0.0
 11
172.044
 21
97.5085
 31
0.0
  0
LINE
  8
0
 62
     0
 10
172.044
 20
97.5085
 30
0.0
 11
172.044
 21
98.4278
 31
0.0
  0
LINE
  8
0
 62
     0
 10
172.044
 20
98.4278
 30
0.0
 11
168.743
 21
98.4278
 31
0.0
  0
LINE
  8
0
 62
     0
 10
168.743
 20
98.4278
 30
0.0
 11
168.743
 21
97.5085
 31
0.0
  0
LINE
  8
0
 62
     0
 10
168.743
 20
97.5085
 30
0.0
 11
167.018
 21
97.5085
 31
0.0
  0
LINE
  8
0
 62
     0
 10
167.018
 20
97.5085
 30
0.0
 11
167.018
 21
94.2785
 31
0.0
  0
LINE
  8
0
 62
     0
 10
167.018
 20
94.2785
 30
0.0
 11
165.494
 21
94.2785
 31
0.0
  0
LINE
  8
0
 62
     0
 10
165.494
 20
94.2785
 30
0.0
 11
165.494
 21
98.9789
 31
0.0
  0
LINE
  8
0
 62
     0
 10
165.494
 20
98.9789
 30
0.0
 11
151.493
 21
98.9789
 31
0.0
  0
LINE
  8
0
 62
     0
 10
8.61826
 20
98.9789
 30
0.0
 11
22.6191
 21
98.9789
 31
0.0
  0
LINE
  8
0
 62
     0
 10
22.6191
 20
98.9789
 30
0.0
 11
22.6191
 21
84.9782
 31
0.0
  0
LINE
  8
0
 62
     0
 10
22.6191
 20
84.9782
 30
0.0
 11
8.61826
 21
84.9782
 31
0.0
  0
LINE
  8
0
 62
     0
 10
8.61826
 20
84.9782
 30
0.0
 11
8.61826
 21
98.9789
 31
0.0
  0
LINE
  8
0
 62
     0
 10
27.6696
 20
98.9789
 30
0.0
 11
41.6691
 21
98.9789
 31
0.0
  0
LINE
  8
0
 62
     0
 10
41.6691
 20
98.9789
 30
0.0
 11
41.6691
 21
84.9782
 31
0.0
  0
LINE
  8
0
 62
     0
 10
41.6691
 20
84.9782
 30
0.0
 11
27.6696
 21
84.9782
 31
0.0
  0
LINE
  8
0
 62
     0
 10
27.6696
 20
84.9782
 30
0.0
 11
27.6696
 21
98.9789
 31
0.0
  0
LINE
  8
0
 62
     0
 10
46.7198
 20
98.9789
 30
0.0
 11
60.7191
 21
98.9789
 31
0.0
  0
LINE
  8
0
 62
     0
 10
60.7191
 20
98.9789
 30
0.0
 11
60.7191
 21
84.9782
 31
0.0
  0
LINE
  8
0
 62
     0
 10
60.7191
 20
84.9782
 30
0.0
 11
46.7198
 21
84.9782
 31
0.0
  0
LINE
  8
0
 62
     0
 10
46.7198
 20
84.9782
 30
0.0
 11
46.7198
 21
98.9789
 31
0.0
  0
LINE
  8
0
 62
     0
 10
65.7698
 20
98.9789
 30
0.0
 11
79.7691
 21
98.9789
 31
0.0
  0
LINE
  8
0
 62
     0
 10
79.7691
 20
98.9789
 30
0.0
 11
79.7691
 21
84.9782
 31
0.0
  0
LINE
  8
0
 62
     0
 10
79.7691
 20
84.9782
 30
0.0
 11
65.7698
 21
84.9782
 31
0.0
  0
LINE
  8
0
 62
     0
 10
65.7698
 20
84.9782
 30
0.0
 11
65.7698
 21
98.9789
 31
0.0
  0
LINE
  8
0
 62
     0
 10
84.8198
 20
98.9789
 30
0.0
 11
98.8191
 21
98.9789
 31
0.0
  0
LINE
  8
0
 62
     0
 10
98.8191
 20
98.9789
 30
0.0
 11
98.8191
 21
84.9782
 31
0.0
  0
LINE
  8
0
 62
     0
 10
98.8191
 20
84.9782
 30
0.0
 11
84.8198
 21
84.9782
 31
0.0
  0
LINE
  8
0
 62
     0
 10
84.8198
 20
84.9782
 30
0.0
 11
84.8198
 21
98.9789
 31
0.0
  0
LINE
  8
0
 62
     0
 10
103.868
 20
98.9789
 30
0.0
 11
117.869
 21
98.9789
 31
0.0
  0
LINE
  8
0
 62
     0
 10
117.869
 20
98.9789
 30
0.0
 11
117.869
 21
84.9782
 31
0.0
  0
LINE
  8
0
 62
     0
 10
117.869
 20
84.9782
 30
0.0
 11
103.868
 21
84.9782
 31
0.0
  0
LINE
  8
0
 62
     0
 10
103.868
 20
84.9782
 30
0.0
 11
103.868
 21
98.9789
 31
0.0
  0
LINE
  8
0
 62
     0
 10
122.918
 20
98.9789
 30
0.0
 11
136.919
 21
98.9789
 31
0.0
  0
LINE
  8
0
 62
     0
 10
136.919
 20
98.9789
 30
0.0
 11
136.919
 21
84.9782
 31
0.0
  0
LINE
  8
0
 62
     0
 10
136.919
 20
84.9782
 30
0.0
 11
122.918
 21
84.9782
 31
0.0
  0
LINE
  8
0
 62
     0
 10
122.918
 20
84.9782
 30
0.0
 11
122.918
 21
98.9789
 31
0.0
  0
LINE
  8
0
 62
     0
 10
180.068
 20
98.9789
 30
0.0
 11
194.069
 21
98.9789
 31
0.0
  0
LINE
  8
0
 62
     0
 10
194.069
 20
98.9789
 30
0.0
 11
194.069
 21
84.9782
 31
0.0
  0
LINE
  8
0
 62
     0
 10
194.069
 20
84.9782
 30
0.0
 11
180.068
 21
84.9782
 31
0.0
  0
LINE
  8
0
 62
     0
 10
180.068
 20
84.9782
 30
0.0
 11
180.068
 21
98.9789
 31
0.0
  0
ENDSEC
  0
EOF
