  0
SECTION
  2
HEADER
  9
$ACADVER
  1
AC1009
  9
$FILLMODE
 70
 0
  9
$SPLFRAME
 70
 1
  9
$EXTMIN
 10
0
 20
0
 30
0.0
  9
$EXTMAX
 10
1058.33
 20
1058.33
 30
0.0
  0
ENDSEC
  0
SECTION
  2
TABLES
  0
TABLE
  2
LAYER
 70
1
  0
LAYER
  2
0
 70
     0
 62
     7
  6
CONTINUOUS
  0
ENDTAB
  0
ENDSEC
  0
SECTION
  2
ENTITIES
  0
LINE
  8
0
 62
     0
 10
203.747
 20
109.619
 30
0.0
 11
203.824
 21
109.616
 31
0.0
  0
LINE
  8
0
 62
     0
 10
203.824
 20
109.616
 30
0.0
 11
203.903
 21
109.606
 31
0.0
  0
LINE
  8
0
 62
     0
 10
203.903
 20
109.606
 30
0.0
 11
203.98
 21
109.591
 31
0.0
  0
LINE
  8
0
 62
     0
 10
203.98
 20
109.591
 30
0.0
 11
204.056
 21
109.571
 31
0.0
  0
LINE
  8
0
 62
     0
 10
204.056
 20
109.571
 30
0.0
 11
204.129
 21
109.543
 31
0.0
  0
LINE
  8
0
 62
     0
 10
204.129
 20
109.543
 30
0.0
 11
204.199
 21
109.51
 31
0.0
  0
LINE
  8
0
 62
     0
 10
204.199
 20
109.51
 30
0.0
 11
204.268
 21
109.472
 31
0.0
  0
LINE
  8
0
 62
     0
 10
204.268
 20
109.472
 30
0.0
 11
204.334
 21
109.428
 31
0.0
  0
LINE
  8
0
 62
     0
 10
204.334
 20
109.428
 30
0.0
 11
204.396
 21
109.379
 31
0.0
  0
LINE
  8
0
 62
     0
 10
204.396
 20
109.379
 30
0.0
 11
204.454
 21
109.327
 31
0.0
  0
LINE
  8
0
 62
     0
 10
204.454
 20
109.327
 30
0.0
 11
204.506
 21
109.269
 31
0.0
  0
LINE
  8
0
 62
     0
 10
204.506
 20
109.269
 30
0.0
 11
204.556
 21
109.207
 31
0.0
  0
LINE
  8
0
 62
     0
 10
204.556
 20
109.207
 30
0.0
 11
204.599
 21
109.142
 31
0.0
  0
LINE
  8
0
 62
     0
 10
204.599
 20
109.142
 30
0.0
 11
204.637
 21
109.072
 31
0.0
  0
LINE
  8
0
 62
     0
 10
204.637
 20
109.072
 30
0.0
 11
204.669
 21
109.001
 31
0.0
  0
LINE
  8
0
 62
     0
 10
204.669
 20
109.001
 30
0.0
 11
204.698
 21
108.928
 31
0.0
  0
LINE
  8
0
 62
     0
 10
204.698
 20
108.928
 30
0.0
 11
204.719
 21
108.853
 31
0.0
  0
LINE
  8
0
 62
     0
 10
204.719
 20
108.853
 30
0.0
 11
204.734
 21
108.775
 31
0.0
  0
LINE
  8
0
 62
     0
 10
204.734
 20
108.775
 30
0.0
 11
204.742
 21
108.697
 31
0.0
  0
LINE
  8
0
 62
     0
 10
204.742
 20
108.697
 30
0.0
 11
204.746
 21
108.619
 31
0.0
  0
LINE
  8
0
 62
     0
 10
204.746
 20
108.619
 30
0.0
 11
204.746
 21
1.21681
 31
0.0
  0
LINE
  8
0
 62
     0
 10
204.746
 20
1.21681
 30
0.0
 11
204.742
 21
1.13964
 31
0.0
  0
LINE
  8
0
 62
     0
 10
204.742
 20
1.13964
 30
0.0
 11
204.734
 21
1.06109
 31
0.0
  0
LINE
  8
0
 62
     0
 10
204.734
 20
1.06109
 30
0.0
 11
204.719
 21
0.983918
 31
0.0
  0
LINE
  8
0
 62
     0
 10
204.719
 20
0.983918
 30
0.0
 11
204.698
 21
0.908128
 31
0.0
  0
LINE
  8
0
 62
     0
 10
204.698
 20
0.908128
 30
0.0
 11
204.669
 21
0.835092
 31
0.0
  0
LINE
  8
0
 62
     0
 10
204.669
 20
0.835092
 30
0.0
 11
204.637
 21
0.764812
 31
0.0
  0
LINE
  8
0
 62
     0
 10
204.637
 20
0.764812
 30
0.0
 11
204.599
 21
0.695911
 31
0.0
  0
LINE
  8
0
 62
     0
 10
204.599
 20
0.695911
 30
0.0
 11
204.556
 21
0.629765
 31
0.0
  0
LINE
  8
0
 62
     0
 10
204.556
 20
0.629765
 30
0.0
 11
204.506
 21
0.567754
 31
0.0
  0
LINE
  8
0
 62
     0
 10
204.506
 20
0.567754
 30
0.0
 11
204.454
 21
0.509873
 31
0.0
  0
LINE
  8
0
 62
     0
 10
204.454
 20
0.509873
 30
0.0
 11
204.396
 21
0.45751
 31
0.0
  0
LINE
  8
0
 62
     0
 10
204.396
 20
0.45751
 30
0.0
 11
204.334
 21
0.407899
 31
0.0
  0
LINE
  8
0
 62
     0
 10
204.334
 20
0.407899
 30
0.0
 11
204.268
 21
0.365181
 31
0.0
  0
LINE
  8
0
 62
     0
 10
204.268
 20
0.365181
 30
0.0
 11
204.199
 21
0.326595
 31
0.0
  0
LINE
  8
0
 62
     0
 10
204.199
 20
0.326595
 30
0.0
 11
204.129
 21
0.2949
 31
0.0
  0
LINE
  8
0
 62
     0
 10
204.129
 20
0.2949
 30
0.0
 11
204.056
 21
0.265961
 31
0.0
  0
LINE
  8
0
 62
     0
 10
204.056
 20
0.265961
 30
0.0
 11
203.98
 21
0.245291
 31
0.0
  0
LINE
  8
0
 62
     0
 10
203.98
 20
0.245291
 30
0.0
 11
203.903
 21
0.230132
 31
0.0
  0
LINE
  8
0
 62
     0
 10
203.903
 20
0.230132
 30
0.0
 11
203.824
 21
0.221864
 31
0.0
  0
LINE
  8
0
 62
     0
 10
203.824
 20
0.221864
 30
0.0
 11
203.746
 21
0.21773
 31
0.0
  0
LINE
  8
0
 62
     0
 10
203.746
 20
0.21773
 30
0.0
 11
1.09554
 21
0.21773
 31
0.0
  0
LINE
  8
0
 62
     0
 10
1.09554
 20
0.21773
 30
0.0
 11
1.01699
 21
0.221864
 31
0.0
  0
LINE
  8
0
 62
     0
 10
1.01699
 20
0.221864
 30
0.0
 11
0.938445
 21
0.230132
 31
0.0
  0
LINE
  8
0
 62
     0
 10
0.938445
 20
0.230132
 30
0.0
 11
0.861275
 21
0.245291
 31
0.0
  0
LINE
  8
0
 62
     0
 10
0.861275
 20
0.245291
 30
0.0
 11
0.785481
 21
0.265961
 31
0.0
  0
LINE
  8
0
 62
     0
 10
0.785481
 20
0.265961
 30
0.0
 11
0.712445
 21
0.2949
 31
0.0
  0
LINE
  8
0
 62
     0
 10
0.712445
 20
0.2949
 30
0.0
 11
0.642165
 21
0.326595
 31
0.0
  0
LINE
  8
0
 62
     0
 10
0.642165
 20
0.326595
 30
0.0
 11
0.571885
 21
0.365181
 31
0.0
  0
LINE
  8
0
 62
     0
 10
0.571885
 20
0.365181
 30
0.0
 11
0.507118
 21
0.407899
 31
0.0
  0
LINE
  8
0
 62
     0
 10
0.507118
 20
0.407899
 30
0.0
 11
0.445107
 21
0.45751
 31
0.0
  0
LINE
  8
0
 62
     0
 10
0.445107
 20
0.45751
 30
0.0
 11
0.38723
 21
0.509873
 31
0.0
  0
LINE
  8
0
 62
     0
 10
0.38723
 20
0.509873
 30
0.0
 11
0.334863
 21
0.567754
 31
0.0
  0
LINE
  8
0
 62
     0
 10
0.334863
 20
0.567754
 30
0.0
 11
0.285254
 21
0.629765
 31
0.0
  0
LINE
  8
0
 62
     0
 10
0.285254
 20
0.629765
 30
0.0
 11
0.242535
 21
0.695911
 31
0.0
  0
LINE
  8
0
 62
     0
 10
0.242535
 20
0.695911
 30
0.0
 11
0.20395
 21
0.764812
 31
0.0
  0
LINE
  8
0
 62
     0
 10
0.20395
 20
0.764812
 30
0.0
 11
0.170877
 21
0.835092
 31
0.0
  0
LINE
  8
0
 62
     0
 10
0.170877
 20
0.835092
 30
0.0
 11
0.143316
 21
0.908128
 31
0.0
  0
LINE
  8
0
 62
     0
 10
0.143316
 20
0.908128
 30
0.0
 11
0.122645
 21
0.983918
 31
0.0
  0
LINE
  8
0
 62
     0
 10
0.122645
 20
0.983918
 30
0.0
 11
0.107487
 21
1.06109
 31
0.0
  0
LINE
  8
0
 62
     0
 10
0.107487
 20
1.06109
 30
0.0
 11
0.0978408
 21
1.13964
 31
0.0
  0
LINE
  8
0
 62
     0
 10
0.0978408
 20
1.13964
 30
0.0
 11
0.0950846
 21
1.21819
 31
0.0
  0
LINE
  8
0
 62
     0
 10
0.0950846
 20
1.21819
 30
0.0
 11
0.0950846
 21
108.619
 31
0.0
  0
LINE
  8
0
 62
     0
 10
0.0950846
 20
108.619
 30
0.0
 11
0.0978408
 21
108.697
 31
0.0
  0
LINE
  8
0
 62
     0
 10
0.0978408
 20
108.697
 30
0.0
 11
0.107487
 21
108.775
 31
0.0
  0
LINE
  8
0
 62
     0
 10
0.107487
 20
108.775
 30
0.0
 11
0.122645
 21
108.853
 31
0.0
  0
LINE
  8
0
 62
     0
 10
0.122645
 20
108.853
 30
0.0
 11
0.143316
 21
108.928
 31
0.0
  0
LINE
  8
0
 62
     0
 10
0.143316
 20
108.928
 30
0.0
 11
0.170877
 21
109.001
 31
0.0
  0
LINE
  8
0
 62
     0
 10
0.170877
 20
109.001
 30
0.0
 11
0.20395
 21
109.072
 31
0.0
  0
LINE
  8
0
 62
     0
 10
0.20395
 20
109.072
 30
0.0
 11
0.242535
 21
109.142
 31
0.0
  0
LINE
  8
0
 62
     0
 10
0.242535
 20
109.142
 30
0.0
 11
0.285254
 21
109.207
 31
0.0
  0
LINE
  8
0
 62
     0
 10
0.285254
 20
109.207
 30
0.0
 11
0.334863
 21
109.269
 31
0.0
  0
LINE
  8
0
 62
     0
 10
0.334863
 20
109.269
 30
0.0
 11
0.38723
 21
109.327
 31
0.0
  0
LINE
  8
0
 62
     0
 10
0.38723
 20
109.327
 30
0.0
 11
0.445107
 21
109.379
 31
0.0
  0
LINE
  8
0
 62
     0
 10
0.445107
 20
109.379
 30
0.0
 11
0.507118
 21
109.428
 31
0.0
  0
LINE
  8
0
 62
     0
 10
0.507118
 20
109.428
 30
0.0
 11
0.571885
 21
109.472
 31
0.0
  0
LINE
  8
0
 62
     0
 10
0.571885
 20
109.472
 30
0.0
 11
0.642165
 21
109.51
 31
0.0
  0
LINE
  8
0
 62
     0
 10
0.642165
 20
109.51
 30
0.0
 11
0.712445
 21
109.543
 31
0.0
  0
LINE
  8
0
 62
     0
 10
0.712445
 20
109.543
 30
0.0
 11
0.785481
 21
109.571
 31
0.0
  0
LINE
  8
0
 62
     0
 10
0.785481
 20
109.571
 30
0.0
 11
0.861275
 21
109.591
 31
0.0
  0
LINE
  8
0
 62
     0
 10
0.861275
 20
109.591
 30
0.0
 11
0.938445
 21
109.606
 31
0.0
  0
LINE
  8
0
 62
     0
 10
0.938445
 20
109.606
 30
0.0
 11
1.01699
 21
109.616
 31
0.0
  0
LINE
  8
0
 62
     0
 10
1.01699
 20
109.616
 30
0.0
 11
1.09554
 21
109.619
 31
0.0
  0
LINE
  8
0
 62
     0
 10
1.09554
 20
109.619
 30
0.0
 11
203.747
 21
109.619
 31
0.0
  0
LINE
  8
0
 62
     0
 10
201.731
 20
4.14789
 30
0.0
 11
201.334
 21
3.94533
 31
0.0
  0
LINE
  8
0
 62
     0
 10
201.334
 20
3.94533
 30
0.0
 11
201.018
 21
3.62977
 31
0.0
  0
LINE
  8
0
 62
     0
 10
201.018
 20
3.62977
 30
0.0
 11
200.816
 21
3.23288
 31
0.0
  0
LINE
  8
0
 62
     0
 10
200.816
 20
3.23288
 30
0.0
 11
200.747
 21
2.7919
 31
0.0
  0
LINE
  8
0
 62
     0
 10
200.747
 20
2.7919
 30
0.0
 11
200.816
 21
2.35231
 31
0.0
  0
LINE
  8
0
 62
     0
 10
200.816
 20
2.35231
 30
0.0
 11
201.018
 21
1.95544
 31
0.0
  0
LINE
  8
0
 62
     0
 10
201.018
 20
1.95544
 30
0.0
 11
201.334
 21
1.63987
 31
0.0
  0
LINE
  8
0
 62
     0
 10
201.334
 20
1.63987
 30
0.0
 11
201.731
 21
1.43729
 31
0.0
  0
LINE
  8
0
 62
     0
 10
201.731
 20
1.43729
 30
0.0
 11
202.172
 21
1.36839
 31
0.0
  0
LINE
  8
0
 62
     0
 10
202.172
 20
1.36839
 30
0.0
 11
202.612
 21
1.43729
 31
0.0
  0
LINE
  8
0
 62
     0
 10
202.612
 20
1.43729
 30
0.0
 11
203.008
 21
1.63987
 31
0.0
  0
LINE
  8
0
 62
     0
 10
203.008
 20
1.63987
 30
0.0
 11
203.324
 21
1.95544
 31
0.0
  0
LINE
  8
0
 62
     0
 10
203.324
 20
1.95544
 30
0.0
 11
203.527
 21
2.35231
 31
0.0
  0
LINE
  8
0
 62
     0
 10
203.527
 20
2.35231
 30
0.0
 11
203.597
 21
2.7919
 31
0.0
  0
LINE
  8
0
 62
     0
 10
203.597
 20
2.7919
 30
0.0
 11
203.527
 21
3.23288
 31
0.0
  0
LINE
  8
0
 62
     0
 10
203.527
 20
3.23288
 30
0.0
 11
203.324
 21
3.62977
 31
0.0
  0
LINE
  8
0
 62
     0
 10
203.324
 20
3.62977
 30
0.0
 11
203.008
 21
3.94533
 31
0.0
  0
LINE
  8
0
 62
     0
 10
203.008
 20
3.94533
 30
0.0
 11
202.612
 21
4.14789
 31
0.0
  0
LINE
  8
0
 62
     0
 10
202.612
 20
4.14789
 30
0.0
 11
202.172
 21
4.21679
 31
0.0
  0
LINE
  8
0
 62
     0
 10
202.172
 20
4.21679
 30
0.0
 11
201.731
 21
4.14789
 31
0.0
  0
LINE
  8
0
 62
     0
 10
101.98
 20
4.14789
 30
0.0
 11
101.582
 21
3.94533
 31
0.0
  0
LINE
  8
0
 62
     0
 10
101.582
 20
3.94533
 30
0.0
 11
101.268
 21
3.62977
 31
0.0
  0
LINE
  8
0
 62
     0
 10
101.268
 20
3.62977
 30
0.0
 11
101.065
 21
3.23288
 31
0.0
  0
LINE
  8
0
 62
     0
 10
101.065
 20
3.23288
 30
0.0
 11
100.995
 21
2.7919
 31
0.0
  0
LINE
  8
0
 62
     0
 10
100.995
 20
2.7919
 30
0.0
 11
101.065
 21
2.35231
 31
0.0
  0
LINE
  8
0
 62
     0
 10
101.065
 20
2.35231
 30
0.0
 11
101.268
 21
1.95544
 31
0.0
  0
LINE
  8
0
 62
     0
 10
101.268
 20
1.95544
 30
0.0
 11
101.582
 21
1.63987
 31
0.0
  0
LINE
  8
0
 62
     0
 10
101.582
 20
1.63987
 30
0.0
 11
101.98
 21
1.43729
 31
0.0
  0
LINE
  8
0
 62
     0
 10
101.98
 20
1.43729
 30
0.0
 11
102.42
 21
1.36839
 31
0.0
  0
LINE
  8
0
 62
     0
 10
102.42
 20
1.36839
 30
0.0
 11
102.861
 21
1.43729
 31
0.0
  0
LINE
  8
0
 62
     0
 10
102.861
 20
1.43729
 30
0.0
 11
103.259
 21
1.63987
 31
0.0
  0
LINE
  8
0
 62
     0
 10
103.259
 20
1.63987
 30
0.0
 11
103.573
 21
1.95544
 31
0.0
  0
LINE
  8
0
 62
     0
 10
103.573
 20
1.95544
 30
0.0
 11
103.776
 21
2.35231
 31
0.0
  0
LINE
  8
0
 62
     0
 10
103.776
 20
2.35231
 30
0.0
 11
103.845
 21
2.7919
 31
0.0
  0
LINE
  8
0
 62
     0
 10
103.845
 20
2.7919
 30
0.0
 11
103.776
 21
3.23288
 31
0.0
  0
LINE
  8
0
 62
     0
 10
103.776
 20
3.23288
 30
0.0
 11
103.573
 21
3.62977
 31
0.0
  0
LINE
  8
0
 62
     0
 10
103.573
 20
3.62977
 30
0.0
 11
103.259
 21
3.94533
 31
0.0
  0
LINE
  8
0
 62
     0
 10
103.259
 20
3.94533
 30
0.0
 11
102.861
 21
4.14789
 31
0.0
  0
LINE
  8
0
 62
     0
 10
102.861
 20
4.14789
 30
0.0
 11
102.42
 21
4.21679
 31
0.0
  0
LINE
  8
0
 62
     0
 10
102.42
 20
4.21679
 30
0.0
 11
101.98
 21
4.14789
 31
0.0
  0
LINE
  8
0
 62
     0
 10
2.22966
 20
4.14789
 30
0.0
 11
1.83279
 21
3.94533
 31
0.0
  0
LINE
  8
0
 62
     0
 10
1.83279
 20
3.94533
 30
0.0
 11
1.51722
 21
3.62977
 31
0.0
  0
LINE
  8
0
 62
     0
 10
1.51722
 20
3.62977
 30
0.0
 11
1.31465
 21
3.23288
 31
0.0
  0
LINE
  8
0
 62
     0
 10
1.31465
 20
3.23288
 30
0.0
 11
1.24575
 21
2.7919
 31
0.0
  0
LINE
  8
0
 62
     0
 10
1.24575
 20
2.7919
 30
0.0
 11
1.31465
 21
2.35231
 31
0.0
  0
LINE
  8
0
 62
     0
 10
1.31465
 20
2.35231
 30
0.0
 11
1.51722
 21
1.95544
 31
0.0
  0
LINE
  8
0
 62
     0
 10
1.51722
 20
1.95544
 30
0.0
 11
1.83279
 21
1.63987
 31
0.0
  0
LINE
  8
0
 62
     0
 10
1.83279
 20
1.63987
 30
0.0
 11
2.22966
 21
1.43729
 31
0.0
  0
LINE
  8
0
 62
     0
 10
2.22966
 20
1.43729
 30
0.0
 11
2.67064
 21
1.36839
 31
0.0
  0
LINE
  8
0
 62
     0
 10
2.67064
 20
1.36839
 30
0.0
 11
3.11023
 21
1.43729
 31
0.0
  0
LINE
  8
0
 62
     0
 10
3.11023
 20
1.43729
 30
0.0
 11
3.50711
 21
1.63987
 31
0.0
  0
LINE
  8
0
 62
     0
 10
3.50711
 20
1.63987
 30
0.0
 11
3.82266
 21
1.95544
 31
0.0
  0
LINE
  8
0
 62
     0
 10
3.82266
 20
1.95544
 30
0.0
 11
4.02527
 21
2.35231
 31
0.0
  0
LINE
  8
0
 62
     0
 10
4.02527
 20
2.35231
 30
0.0
 11
4.09554
 21
2.7919
 31
0.0
  0
LINE
  8
0
 62
     0
 10
4.09554
 20
2.7919
 30
0.0
 11
4.02527
 21
3.23288
 31
0.0
  0
LINE
  8
0
 62
     0
 10
4.02527
 20
3.23288
 30
0.0
 11
3.82266
 21
3.62977
 31
0.0
  0
LINE
  8
0
 62
     0
 10
3.82266
 20
3.62977
 30
0.0
 11
3.50711
 21
3.94533
 31
0.0
  0
LINE
  8
0
 62
     0
 10
3.50711
 20
3.94533
 30
0.0
 11
3.11023
 21
4.14789
 31
0.0
  0
LINE
  8
0
 62
     0
 10
3.11023
 20
4.14789
 30
0.0
 11
2.67064
 21
4.21679
 31
0.0
  0
LINE
  8
0
 62
     0
 10
2.67064
 20
4.21679
 30
0.0
 11
2.22966
 21
4.14789
 31
0.0
  0
LINE
  8
0
 62
     0
 10
50.2514
 20
23.7436
 30
0.0
 11
50.2514
 21
19.0431
 31
0.0
  0
LINE
  8
0
 62
     0
 10
50.2514
 20
19.0431
 30
0.0
 11
48.5757
 21
19.0431
 31
0.0
  0
LINE
  8
0
 62
     0
 10
48.5757
 20
19.0431
 30
0.0
 11
48.5757
 21
22.2732
 31
0.0
  0
LINE
  8
0
 62
     0
 10
48.5757
 20
22.2732
 30
0.0
 11
41.9763
 21
22.2732
 31
0.0
  0
LINE
  8
0
 62
     0
 10
41.9763
 20
22.2732
 30
0.0
 11
41.9763
 21
19.0431
 31
0.0
  0
LINE
  8
0
 62
     0
 10
41.9763
 20
19.0431
 30
0.0
 11
41.1508
 21
19.0431
 31
0.0
  0
LINE
  8
0
 62
     0
 10
41.1508
 20
19.0431
 30
0.0
 11
41.1508
 21
16.3932
 31
0.0
  0
LINE
  8
0
 62
     0
 10
41.1508
 20
16.3932
 30
0.0
 11
41.9763
 21
16.3932
 31
0.0
  0
LINE
  8
0
 62
     0
 10
41.9763
 20
16.3932
 30
0.0
 11
41.9763
 21
10.1244
 31
0.0
  0
LINE
  8
0
 62
     0
 10
41.9763
 20
10.1244
 30
0.0
 11
43.7018
 21
10.1244
 31
0.0
  0
LINE
  8
0
 62
     0
 10
43.7018
 20
10.1244
 30
0.0
 11
43.7018
 21
8.92281
 31
0.0
  0
LINE
  8
0
 62
     0
 10
43.7018
 20
8.92281
 30
0.0
 11
46.8521
 21
8.92281
 31
0.0
  0
LINE
  8
0
 62
     0
 10
46.8521
 20
8.92281
 30
0.0
 11
46.8521
 21
10.1244
 31
0.0
  0
LINE
  8
0
 62
     0
 10
46.8521
 20
10.1244
 30
0.0
 11
48.5757
 21
10.1244
 31
0.0
  0
LINE
  8
0
 62
     0
 10
48.5757
 20
10.1244
 30
0.0
 11
48.5757
 21
14.5948
 31
0.0
  0
LINE
  8
0
 62
     0
 10
48.5757
 20
14.5948
 30
0.0
 11
50.2514
 21
14.5948
 31
0.0
  0
LINE
  8
0
 62
     0
 10
50.2514
 20
14.5948
 30
0.0
 11
50.2514
 21
9.89295
 31
0.0
  0
LINE
  8
0
 62
     0
 10
50.2514
 20
9.89295
 30
0.0
 11
64.1008
 21
9.89295
 31
0.0
  0
LINE
  8
0
 62
     0
 10
64.1008
 20
9.89295
 30
0.0
 11
64.1008
 21
14.5948
 31
0.0
  0
LINE
  8
0
 62
     0
 10
64.1008
 20
14.5948
 30
0.0
 11
65.7765
 21
14.5948
 31
0.0
  0
LINE
  8
0
 62
     0
 10
65.7765
 20
14.5948
 30
0.0
 11
65.7765
 21
10.1244
 31
0.0
  0
LINE
  8
0
 62
     0
 10
65.7765
 20
10.1244
 30
0.0
 11
67.5019
 21
10.1244
 31
0.0
  0
LINE
  8
0
 62
     0
 10
67.5019
 20
10.1244
 30
0.0
 11
67.5019
 21
8.92281
 31
0.0
  0
LINE
  8
0
 62
     0
 10
67.5019
 20
8.92281
 30
0.0
 11
70.6519
 21
8.92281
 31
0.0
  0
LINE
  8
0
 62
     0
 10
70.6519
 20
8.92281
 30
0.0
 11
70.6519
 21
10.1244
 31
0.0
  0
LINE
  8
0
 62
     0
 10
70.6519
 20
10.1244
 30
0.0
 11
72.3759
 21
10.1244
 31
0.0
  0
LINE
  8
0
 62
     0
 10
72.3759
 20
10.1244
 30
0.0
 11
72.3759
 21
16.3932
 31
0.0
  0
LINE
  8
0
 62
     0
 10
72.3759
 20
16.3932
 30
0.0
 11
73.2014
 21
16.3932
 31
0.0
  0
LINE
  8
0
 62
     0
 10
73.2014
 20
16.3932
 30
0.0
 11
73.2014
 21
19.0431
 31
0.0
  0
LINE
  8
0
 62
     0
 10
73.2014
 20
19.0431
 30
0.0
 11
72.3759
 21
19.0431
 31
0.0
  0
LINE
  8
0
 62
     0
 10
72.3759
 20
19.0431
 30
0.0
 11
72.3759
 21
22.2732
 31
0.0
  0
LINE
  8
0
 62
     0
 10
72.3759
 20
22.2732
 30
0.0
 11
65.7765
 21
22.2732
 31
0.0
  0
LINE
  8
0
 62
     0
 10
65.7765
 20
22.2732
 30
0.0
 11
65.7765
 21
19.0431
 31
0.0
  0
LINE
  8
0
 62
     0
 10
65.7765
 20
19.0431
 30
0.0
 11
64.1008
 21
19.0431
 31
0.0
  0
LINE
  8
0
 62
     0
 10
64.1008
 20
19.0431
 30
0.0
 11
64.1008
 21
23.7436
 31
0.0
  0
LINE
  8
0
 62
     0
 10
64.1008
 20
23.7436
 30
0.0
 11
50.2514
 21
23.7436
 31
0.0
  0
LINE
  8
0
 62
     0
 10
14.5328
 20
23.7436
 30
0.0
 11
28.3821
 21
23.7436
 31
0.0
  0
LINE
  8
0
 62
     0
 10
28.3821
 20
23.7436
 30
0.0
 11
28.3821
 21
9.89295
 31
0.0
  0
LINE
  8
0
 62
     0
 10
28.3821
 20
9.89295
 30
0.0
 11
14.5328
 21
9.89295
 31
0.0
  0
LINE
  8
0
 62
     0
 10
14.5328
 20
9.89295
 30
0.0
 11
14.5328
 21
23.7436
 31
0.0
  0
LINE
  8
0
 62
     0
 10
85.9702
 20
23.7436
 30
0.0
 11
99.8209
 21
23.7436
 31
0.0
  0
LINE
  8
0
 62
     0
 10
99.8209
 20
23.7436
 30
0.0
 11
99.8209
 21
9.89295
 31
0.0
  0
LINE
  8
0
 62
     0
 10
99.8209
 20
9.89295
 30
0.0
 11
85.9702
 21
9.89295
 31
0.0
  0
LINE
  8
0
 62
     0
 10
85.9702
 20
9.89295
 30
0.0
 11
85.9702
 21
23.7436
 31
0.0
  0
LINE
  8
0
 62
     0
 10
105.02
 20
23.7436
 30
0.0
 11
118.87
 21
23.7436
 31
0.0
  0
LINE
  8
0
 62
     0
 10
118.87
 20
23.7436
 30
0.0
 11
118.87
 21
9.89295
 31
0.0
  0
LINE
  8
0
 62
     0
 10
118.87
 20
9.89295
 30
0.0
 11
105.02
 21
9.89295
 31
0.0
  0
LINE
  8
0
 62
     0
 10
105.02
 20
9.89295
 30
0.0
 11
105.02
 21
23.7436
 31
0.0
  0
LINE
  8
0
 62
     0
 10
124.07
 20
23.7436
 30
0.0
 11
137.921
 21
23.7436
 31
0.0
  0
LINE
  8
0
 62
     0
 10
137.921
 20
23.7436
 30
0.0
 11
137.921
 21
9.89295
 31
0.0
  0
LINE
  8
0
 62
     0
 10
137.921
 20
9.89295
 30
0.0
 11
124.07
 21
9.89295
 31
0.0
  0
LINE
  8
0
 62
     0
 10
124.07
 20
9.89295
 30
0.0
 11
124.07
 21
23.7436
 31
0.0
  0
LINE
  8
0
 62
     0
 10
143.12
 20
23.7436
 30
0.0
 11
156.971
 21
23.7436
 31
0.0
  0
LINE
  8
0
 62
     0
 10
156.971
 20
23.7436
 30
0.0
 11
156.971
 21
9.89295
 31
0.0
  0
LINE
  8
0
 62
     0
 10
156.971
 20
9.89295
 30
0.0
 11
143.12
 21
9.89295
 31
0.0
  0
LINE
  8
0
 62
     0
 10
143.12
 20
9.89295
 30
0.0
 11
143.12
 21
23.7436
 31
0.0
  0
LINE
  8
0
 62
     0
 10
162.17
 20
23.7436
 30
0.0
 11
176.021
 21
23.7436
 31
0.0
  0
LINE
  8
0
 62
     0
 10
176.021
 20
23.7436
 30
0.0
 11
176.021
 21
9.89295
 31
0.0
  0
LINE
  8
0
 62
     0
 10
176.021
 20
9.89295
 30
0.0
 11
162.17
 21
9.89295
 31
0.0
  0
LINE
  8
0
 62
     0
 10
162.17
 20
9.89295
 30
0.0
 11
162.17
 21
23.7436
 31
0.0
  0
LINE
  8
0
 62
     0
 10
181.22
 20
23.7436
 30
0.0
 11
195.071
 21
23.7436
 31
0.0
  0
LINE
  8
0
 62
     0
 10
195.071
 20
23.7436
 30
0.0
 11
195.071
 21
9.89295
 31
0.0
  0
LINE
  8
0
 62
     0
 10
195.071
 20
9.89295
 30
0.0
 11
181.22
 21
9.89295
 31
0.0
  0
LINE
  8
0
 62
     0
 10
181.22
 20
9.89295
 30
0.0
 11
181.22
 21
23.7436
 31
0.0
  0
LINE
  8
0
 62
     0
 10
14.5328
 20
42.7937
 30
0.0
 11
28.3821
 21
42.7937
 31
0.0
  0
LINE
  8
0
 62
     0
 10
28.3821
 20
42.7937
 30
0.0
 11
28.3821
 21
28.9429
 31
0.0
  0
LINE
  8
0
 62
     0
 10
28.3821
 20
28.9429
 30
0.0
 11
14.5328
 21
28.9429
 31
0.0
  0
LINE
  8
0
 62
     0
 10
14.5328
 20
28.9429
 30
0.0
 11
14.5328
 21
42.7937
 31
0.0
  0
LINE
  8
0
 62
     0
 10
33.5828
 20
42.7937
 30
0.0
 11
47.432
 21
42.7937
 31
0.0
  0
LINE
  8
0
 62
     0
 10
47.432
 20
42.7937
 30
0.0
 11
47.432
 21
28.9429
 31
0.0
  0
LINE
  8
0
 62
     0
 10
47.432
 20
28.9429
 30
0.0
 11
33.5828
 21
28.9429
 31
0.0
  0
LINE
  8
0
 62
     0
 10
33.5828
 20
28.9429
 30
0.0
 11
33.5828
 21
42.7937
 31
0.0
  0
LINE
  8
0
 62
     0
 10
52.6327
 20
42.7937
 30
0.0
 11
66.482
 21
42.7937
 31
0.0
  0
LINE
  8
0
 62
     0
 10
66.482
 20
42.7937
 30
0.0
 11
66.482
 21
28.9429
 31
0.0
  0
LINE
  8
0
 62
     0
 10
66.482
 20
28.9429
 30
0.0
 11
52.6327
 21
28.9429
 31
0.0
  0
LINE
  8
0
 62
     0
 10
52.6327
 20
28.9429
 30
0.0
 11
52.6327
 21
42.7937
 31
0.0
  0
LINE
  8
0
 62
     0
 10
71.6827
 20
42.7937
 30
0.0
 11
85.532
 21
42.7937
 31
0.0
  0
LINE
  8
0
 62
     0
 10
85.532
 20
42.7937
 30
0.0
 11
85.532
 21
28.9429
 31
0.0
  0
LINE
  8
0
 62
     0
 10
85.532
 20
28.9429
 30
0.0
 11
71.6827
 21
28.9429
 31
0.0
  0
LINE
  8
0
 62
     0
 10
71.6827
 20
28.9429
 30
0.0
 11
71.6827
 21
42.7937
 31
0.0
  0
LINE
  8
0
 62
     0
 10
90.7327
 20
42.7937
 30
0.0
 11
104.582
 21
42.7937
 31
0.0
  0
LINE
  8
0
 62
     0
 10
104.582
 20
42.7937
 30
0.0
 11
104.582
 21
28.9429
 31
0.0
  0
LINE
  8
0
 62
     0
 10
104.582
 20
28.9429
 30
0.0
 11
90.7327
 21
28.9429
 31
0.0
  0
LINE
  8
0
 62
     0
 10
90.7327
 20
28.9429
 30
0.0
 11
90.7327
 21
42.7937
 31
0.0
  0
LINE
  8
0
 62
     0
 10
109.783
 20
42.7937
 30
0.0
 11
123.632
 21
42.7937
 31
0.0
  0
LINE
  8
0
 62
     0
 10
123.632
 20
42.7937
 30
0.0
 11
123.632
 21
28.9429
 31
0.0
  0
LINE
  8
0
 62
     0
 10
123.632
 20
28.9429
 30
0.0
 11
109.783
 21
28.9429
 31
0.0
  0
LINE
  8
0
 62
     0
 10
109.783
 20
28.9429
 30
0.0
 11
109.783
 21
42.7937
 31
0.0
  0
LINE
  8
0
 62
     0
 10
135.976
 20
42.7937
 30
0.0
 11
149.826
 21
42.7937
 31
0.0
  0
LINE
  8
0
 62
     0
 10
149.826
 20
42.7937
 30
0.0
 11
149.826
 21
28.9429
 31
0.0
  0
LINE
  8
0
 62
     0
 10
149.826
 20
28.9429
 30
0.0
 11
135.976
 21
28.9429
 31
0.0
  0
LINE
  8
0
 62
     0
 10
135.976
 20
28.9429
 30
0.0
 11
135.976
 21
42.7937
 31
0.0
  0
LINE
  8
0
 62
     0
 10
162.169
 20
42.7937
 30
0.0
 11
176.02
 21
42.7937
 31
0.0
  0
LINE
  8
0
 62
     0
 10
176.02
 20
42.7937
 30
0.0
 11
176.02
 21
28.9429
 31
0.0
  0
LINE
  8
0
 62
     0
 10
176.02
 20
28.9429
 30
0.0
 11
162.169
 21
28.9429
 31
0.0
  0
LINE
  8
0
 62
     0
 10
162.169
 20
28.9429
 30
0.0
 11
162.169
 21
42.7937
 31
0.0
  0
LINE
  8
0
 62
     0
 10
181.219
 20
42.7937
 30
0.0
 11
195.071
 21
42.7937
 31
0.0
  0
LINE
  8
0
 62
     0
 10
195.071
 20
42.7937
 30
0.0
 11
195.071
 21
28.9429
 31
0.0
  0
LINE
  8
0
 62
     0
 10
195.071
 20
28.9429
 30
0.0
 11
181.219
 21
28.9429
 31
0.0
  0
LINE
  8
0
 62
     0
 10
181.219
 20
28.9429
 30
0.0
 11
181.219
 21
42.7937
 31
0.0
  0
LINE
  8
0
 62
     0
 10
150.264
 20
61.8437
 30
0.0
 11
150.264
 21
57.1429
 31
0.0
  0
LINE
  8
0
 62
     0
 10
150.264
 20
57.1429
 30
0.0
 11
148.588
 21
57.1429
 31
0.0
  0
LINE
  8
0
 62
     0
 10
148.588
 20
57.1429
 30
0.0
 11
148.588
 21
60.3733
 31
0.0
  0
LINE
  8
0
 62
     0
 10
148.588
 20
60.3733
 30
0.0
 11
141.989
 21
60.3733
 31
0.0
  0
LINE
  8
0
 62
     0
 10
141.989
 20
60.3733
 30
0.0
 11
141.989
 21
57.1429
 31
0.0
  0
LINE
  8
0
 62
     0
 10
141.989
 20
57.1429
 30
0.0
 11
141.163
 21
57.1429
 31
0.0
  0
LINE
  8
0
 62
     0
 10
141.163
 20
57.1429
 30
0.0
 11
141.163
 21
54.4932
 31
0.0
  0
LINE
  8
0
 62
     0
 10
141.163
 20
54.4932
 30
0.0
 11
141.989
 21
54.4932
 31
0.0
  0
LINE
  8
0
 62
     0
 10
141.989
 20
54.4932
 30
0.0
 11
141.989
 21
48.223
 31
0.0
  0
LINE
  8
0
 62
     0
 10
141.989
 20
48.223
 30
0.0
 11
143.713
 21
48.223
 31
0.0
  0
LINE
  8
0
 62
     0
 10
143.713
 20
48.223
 30
0.0
 11
143.713
 21
47.0228
 31
0.0
  0
LINE
  8
0
 62
     0
 10
143.713
 20
47.0228
 30
0.0
 11
146.863
 21
47.0228
 31
0.0
  0
LINE
  8
0
 62
     0
 10
146.863
 20
47.0228
 30
0.0
 11
146.863
 21
48.223
 31
0.0
  0
LINE
  8
0
 62
     0
 10
146.863
 20
48.223
 30
0.0
 11
148.588
 21
48.223
 31
0.0
  0
LINE
  8
0
 62
     0
 10
148.588
 20
48.223
 30
0.0
 11
148.588
 21
52.6934
 31
0.0
  0
LINE
  8
0
 62
     0
 10
148.588
 20
52.6934
 30
0.0
 11
150.264
 21
52.6934
 31
0.0
  0
LINE
  8
0
 62
     0
 10
150.264
 20
52.6934
 30
0.0
 11
150.264
 21
47.9929
 31
0.0
  0
LINE
  8
0
 62
     0
 10
150.264
 20
47.9929
 30
0.0
 11
164.113
 21
47.9929
 31
0.0
  0
LINE
  8
0
 62
     0
 10
164.113
 20
47.9929
 30
0.0
 11
164.113
 21
52.6934
 31
0.0
  0
LINE
  8
0
 62
     0
 10
164.113
 20
52.6934
 30
0.0
 11
165.789
 21
52.6934
 31
0.0
  0
LINE
  8
0
 62
     0
 10
165.789
 20
52.6934
 30
0.0
 11
165.789
 21
48.223
 31
0.0
  0
LINE
  8
0
 62
     0
 10
165.789
 20
48.223
 30
0.0
 11
167.513
 21
48.223
 31
0.0
  0
LINE
  8
0
 62
     0
 10
167.513
 20
48.223
 30
0.0
 11
167.513
 21
47.0228
 31
0.0
  0
LINE
  8
0
 62
     0
 10
167.513
 20
47.0228
 30
0.0
 11
170.663
 21
47.0228
 31
0.0
  0
LINE
  8
0
 62
     0
 10
170.663
 20
47.0228
 30
0.0
 11
170.663
 21
48.223
 31
0.0
  0
LINE
  8
0
 62
     0
 10
170.663
 20
48.223
 30
0.0
 11
172.388
 21
48.223
 31
0.0
  0
LINE
  8
0
 62
     0
 10
172.388
 20
48.223
 30
0.0
 11
172.388
 21
54.4932
 31
0.0
  0
LINE
  8
0
 62
     0
 10
172.388
 20
54.4932
 30
0.0
 11
173.214
 21
54.4932
 31
0.0
  0
LINE
  8
0
 62
     0
 10
173.214
 20
54.4932
 30
0.0
 11
173.214
 21
57.1429
 31
0.0
  0
LINE
  8
0
 62
     0
 10
173.214
 20
57.1429
 30
0.0
 11
172.388
 21
57.1429
 31
0.0
  0
LINE
  8
0
 62
     0
 10
172.388
 20
57.1429
 30
0.0
 11
172.388
 21
60.3733
 31
0.0
  0
LINE
  8
0
 62
     0
 10
172.388
 20
60.3733
 30
0.0
 11
165.789
 21
60.3733
 31
0.0
  0
LINE
  8
0
 62
     0
 10
165.789
 20
60.3733
 30
0.0
 11
165.789
 21
57.1429
 31
0.0
  0
LINE
  8
0
 62
     0
 10
165.789
 20
57.1429
 30
0.0
 11
164.113
 21
57.1429
 31
0.0
  0
LINE
  8
0
 62
     0
 10
164.113
 20
57.1429
 30
0.0
 11
164.113
 21
61.8437
 31
0.0
  0
LINE
  8
0
 62
     0
 10
164.113
 20
61.8437
 30
0.0
 11
150.264
 21
61.8437
 31
0.0
  0
LINE
  8
0
 62
     0
 10
24.0578
 20
61.8437
 30
0.0
 11
37.907
 21
61.8437
 31
0.0
  0
LINE
  8
0
 62
     0
 10
37.907
 20
61.8437
 30
0.0
 11
37.907
 21
47.9929
 31
0.0
  0
LINE
  8
0
 62
     0
 10
37.907
 20
47.9929
 30
0.0
 11
24.0578
 21
47.9929
 31
0.0
  0
LINE
  8
0
 62
     0
 10
24.0578
 20
47.9929
 30
0.0
 11
24.0578
 21
61.8437
 31
0.0
  0
LINE
  8
0
 62
     0
 10
43.1077
 20
61.8437
 30
0.0
 11
56.957
 21
61.8437
 31
0.0
  0
LINE
  8
0
 62
     0
 10
56.957
 20
61.8437
 30
0.0
 11
56.957
 21
47.9929
 31
0.0
  0
LINE
  8
0
 62
     0
 10
56.957
 20
47.9929
 30
0.0
 11
43.1077
 21
47.9929
 31
0.0
  0
LINE
  8
0
 62
     0
 10
43.1077
 20
47.9929
 30
0.0
 11
43.1077
 21
61.8437
 31
0.0
  0
LINE
  8
0
 62
     0
 10
62.1577
 20
61.8437
 30
0.0
 11
76.007
 21
61.8437
 31
0.0
  0
LINE
  8
0
 62
     0
 10
76.007
 20
61.8437
 30
0.0
 11
76.007
 21
47.9929
 31
0.0
  0
LINE
  8
0
 62
     0
 10
76.007
 20
47.9929
 30
0.0
 11
62.1577
 21
47.9929
 31
0.0
  0
LINE
  8
0
 62
     0
 10
62.1577
 20
47.9929
 30
0.0
 11
62.1577
 21
61.8437
 31
0.0
  0
LINE
  8
0
 62
     0
 10
81.2077
 20
61.8437
 30
0.0
 11
95.057
 21
61.8437
 31
0.0
  0
LINE
  8
0
 62
     0
 10
95.057
 20
61.8437
 30
0.0
 11
95.057
 21
47.9929
 31
0.0
  0
LINE
  8
0
 62
     0
 10
95.057
 20
47.9929
 30
0.0
 11
81.2077
 21
47.9929
 31
0.0
  0
LINE
  8
0
 62
     0
 10
81.2077
 20
47.9929
 30
0.0
 11
81.2077
 21
61.8437
 31
0.0
  0
LINE
  8
0
 62
     0
 10
100.258
 20
61.8437
 30
0.0
 11
114.107
 21
61.8437
 31
0.0
  0
LINE
  8
0
 62
     0
 10
114.107
 20
61.8437
 30
0.0
 11
114.107
 21
47.9929
 31
0.0
  0
LINE
  8
0
 62
     0
 10
114.107
 20
47.9929
 30
0.0
 11
100.258
 21
47.9929
 31
0.0
  0
LINE
  8
0
 62
     0
 10
100.258
 20
47.9929
 30
0.0
 11
100.258
 21
61.8437
 31
0.0
  0
LINE
  8
0
 62
     0
 10
119.308
 20
61.8437
 30
0.0
 11
133.157
 21
61.8437
 31
0.0
  0
LINE
  8
0
 62
     0
 10
133.157
 20
61.8437
 30
0.0
 11
133.157
 21
47.9929
 31
0.0
  0
LINE
  8
0
 62
     0
 10
133.157
 20
47.9929
 30
0.0
 11
119.308
 21
47.9929
 31
0.0
  0
LINE
  8
0
 62
     0
 10
119.308
 20
47.9929
 30
0.0
 11
119.308
 21
61.8437
 31
0.0
  0
LINE
  8
0
 62
     0
 10
181.22
 20
61.8437
 30
0.0
 11
195.071
 21
61.8437
 31
0.0
  0
LINE
  8
0
 62
     0
 10
195.071
 20
61.8437
 30
0.0
 11
195.071
 21
47.9929
 31
0.0
  0
LINE
  8
0
 62
     0
 10
195.071
 20
47.9929
 30
0.0
 11
181.22
 21
47.9929
 31
0.0
  0
LINE
  8
0
 62
     0
 10
181.22
 20
47.9929
 30
0.0
 11
181.22
 21
61.8437
 31
0.0
  0
LINE
  8
0
 62
     0
 10
19.2953
 20
80.8937
 30
0.0
 11
33.1459
 21
80.8937
 31
0.0
  0
LINE
  8
0
 62
     0
 10
33.1459
 20
80.8937
 30
0.0
 11
33.1459
 21
67.0429
 31
0.0
  0
LINE
  8
0
 62
     0
 10
33.1459
 20
67.0429
 30
0.0
 11
19.2953
 21
67.0429
 31
0.0
  0
LINE
  8
0
 62
     0
 10
19.2953
 20
67.0429
 30
0.0
 11
19.2953
 21
80.8937
 31
0.0
  0
LINE
  8
0
 62
     0
 10
38.3452
 20
80.8937
 30
0.0
 11
52.1945
 21
80.8937
 31
0.0
  0
LINE
  8
0
 62
     0
 10
52.1945
 20
80.8937
 30
0.0
 11
52.1945
 21
67.0429
 31
0.0
  0
LINE
  8
0
 62
     0
 10
52.1945
 20
67.0429
 30
0.0
 11
38.3452
 21
67.0429
 31
0.0
  0
LINE
  8
0
 62
     0
 10
38.3452
 20
67.0429
 30
0.0
 11
38.3452
 21
80.8937
 31
0.0
  0
LINE
  8
0
 62
     0
 10
57.3952
 20
80.8937
 30
0.0
 11
71.2445
 21
80.8937
 31
0.0
  0
LINE
  8
0
 62
     0
 10
71.2445
 20
80.8937
 30
0.0
 11
71.2445
 21
67.0429
 31
0.0
  0
LINE
  8
0
 62
     0
 10
71.2445
 20
67.0429
 30
0.0
 11
57.3952
 21
67.0429
 31
0.0
  0
LINE
  8
0
 62
     0
 10
57.3952
 20
67.0429
 30
0.0
 11
57.3952
 21
80.8937
 31
0.0
  0
LINE
  8
0
 62
     0
 10
76.4452
 20
80.8937
 30
0.0
 11
90.2945
 21
80.8937
 31
0.0
  0
LINE
  8
0
 62
     0
 10
90.2945
 20
80.8937
 30
0.0
 11
90.2945
 21
67.0429
 31
0.0
  0
LINE
  8
0
 62
     0
 10
90.2945
 20
67.0429
 30
0.0
 11
76.4452
 21
67.0429
 31
0.0
  0
LINE
  8
0
 62
     0
 10
76.4452
 20
67.0429
 30
0.0
 11
76.4452
 21
80.8937
 31
0.0
  0
LINE
  8
0
 62
     0
 10
95.4938
 20
80.8937
 30
0.0
 11
109.345
 21
80.8937
 31
0.0
  0
LINE
  8
0
 62
     0
 10
109.345
 20
80.8937
 30
0.0
 11
109.345
 21
67.0429
 31
0.0
  0
LINE
  8
0
 62
     0
 10
109.345
 20
67.0429
 30
0.0
 11
95.4938
 21
67.0429
 31
0.0
  0
LINE
  8
0
 62
     0
 10
95.4938
 20
67.0429
 30
0.0
 11
95.4938
 21
80.8937
 31
0.0
  0
LINE
  8
0
 62
     0
 10
114.544
 20
80.8937
 30
0.0
 11
128.395
 21
80.8937
 31
0.0
  0
LINE
  8
0
 62
     0
 10
128.395
 20
80.8937
 30
0.0
 11
128.395
 21
67.0429
 31
0.0
  0
LINE
  8
0
 62
     0
 10
128.395
 20
67.0429
 30
0.0
 11
114.544
 21
67.0429
 31
0.0
  0
LINE
  8
0
 62
     0
 10
114.544
 20
67.0429
 30
0.0
 11
114.544
 21
80.8937
 31
0.0
  0
LINE
  8
0
 62
     0
 10
133.594
 20
80.8937
 30
0.0
 11
147.446
 21
80.8937
 31
0.0
  0
LINE
  8
0
 62
     0
 10
147.446
 20
80.8937
 30
0.0
 11
147.446
 21
67.0429
 31
0.0
  0
LINE
  8
0
 62
     0
 10
147.446
 20
67.0429
 30
0.0
 11
133.594
 21
67.0429
 31
0.0
  0
LINE
  8
0
 62
     0
 10
133.594
 20
67.0429
 30
0.0
 11
133.594
 21
80.8937
 31
0.0
  0
LINE
  8
0
 62
     0
 10
157.408
 20
80.8937
 30
0.0
 11
171.257
 21
80.8937
 31
0.0
  0
LINE
  8
0
 62
     0
 10
171.257
 20
80.8937
 30
0.0
 11
171.257
 21
67.0429
 31
0.0
  0
LINE
  8
0
 62
     0
 10
171.257
 20
67.0429
 30
0.0
 11
157.408
 21
67.0429
 31
0.0
  0
LINE
  8
0
 62
     0
 10
157.408
 20
67.0429
 30
0.0
 11
157.408
 21
80.8937
 31
0.0
  0
LINE
  8
0
 62
     0
 10
181.219
 20
80.8937
 30
0.0
 11
195.071
 21
80.8937
 31
0.0
  0
LINE
  8
0
 62
     0
 10
195.071
 20
80.8937
 30
0.0
 11
195.071
 21
67.0429
 31
0.0
  0
LINE
  8
0
 62
     0
 10
195.071
 20
67.0429
 30
0.0
 11
181.219
 21
67.0429
 31
0.0
  0
LINE
  8
0
 62
     0
 10
181.219
 20
67.0429
 30
0.0
 11
181.219
 21
80.8937
 31
0.0
  0
LINE
  8
0
 62
     0
 10
152.645
 20
99.9437
 30
0.0
 11
152.645
 21
95.2429
 31
0.0
  0
LINE
  8
0
 62
     0
 10
152.645
 20
95.2429
 30
0.0
 11
150.971
 21
95.2429
 31
0.0
  0
LINE
  8
0
 62
     0
 10
150.971
 20
95.2429
 30
0.0
 11
150.971
 21
98.4733
 31
0.0
  0
LINE
  8
0
 62
     0
 10
150.971
 20
98.4733
 30
0.0
 11
144.37
 21
98.4733
 31
0.0
  0
LINE
  8
0
 62
     0
 10
144.37
 20
98.4733
 30
0.0
 11
144.37
 21
95.2429
 31
0.0
  0
LINE
  8
0
 62
     0
 10
144.37
 20
95.2429
 30
0.0
 11
143.546
 21
95.2429
 31
0.0
  0
LINE
  8
0
 62
     0
 10
143.546
 20
95.2429
 30
0.0
 11
143.546
 21
92.5932
 31
0.0
  0
LINE
  8
0
 62
     0
 10
143.546
 20
92.5932
 30
0.0
 11
144.37
 21
92.5932
 31
0.0
  0
LINE
  8
0
 62
     0
 10
144.37
 20
92.5932
 30
0.0
 11
144.37
 21
86.323
 31
0.0
  0
LINE
  8
0
 62
     0
 10
144.37
 20
86.323
 30
0.0
 11
146.096
 21
86.323
 31
0.0
  0
LINE
  8
0
 62
     0
 10
146.096
 20
86.323
 30
0.0
 11
146.096
 21
85.1228
 31
0.0
  0
LINE
  8
0
 62
     0
 10
146.096
 20
85.1228
 30
0.0
 11
149.246
 21
85.1228
 31
0.0
  0
LINE
  8
0
 62
     0
 10
149.246
 20
85.1228
 30
0.0
 11
149.246
 21
86.323
 31
0.0
  0
LINE
  8
0
 62
     0
 10
149.246
 20
86.323
 30
0.0
 11
150.971
 21
86.323
 31
0.0
  0
LINE
  8
0
 62
     0
 10
150.971
 20
86.323
 30
0.0
 11
150.971
 21
90.7934
 31
0.0
  0
LINE
  8
0
 62
     0
 10
150.971
 20
90.7934
 30
0.0
 11
152.645
 21
90.7934
 31
0.0
  0
LINE
  8
0
 62
     0
 10
152.645
 20
90.7934
 30
0.0
 11
152.645
 21
86.0929
 31
0.0
  0
LINE
  8
0
 62
     0
 10
152.645
 20
86.0929
 30
0.0
 11
166.496
 21
86.0929
 31
0.0
  0
LINE
  8
0
 62
     0
 10
166.496
 20
86.0929
 30
0.0
 11
166.496
 21
90.7934
 31
0.0
  0
LINE
  8
0
 62
     0
 10
166.496
 20
90.7934
 30
0.0
 11
168.17
 21
90.7934
 31
0.0
  0
LINE
  8
0
 62
     0
 10
168.17
 20
90.7934
 30
0.0
 11
168.17
 21
86.323
 31
0.0
  0
LINE
  8
0
 62
     0
 10
168.17
 20
86.323
 30
0.0
 11
169.896
 21
86.323
 31
0.0
  0
LINE
  8
0
 62
     0
 10
169.896
 20
86.323
 30
0.0
 11
169.896
 21
85.1228
 31
0.0
  0
LINE
  8
0
 62
     0
 10
169.896
 20
85.1228
 30
0.0
 11
173.046
 21
85.1228
 31
0.0
  0
LINE
  8
0
 62
     0
 10
173.046
 20
85.1228
 30
0.0
 11
173.046
 21
86.323
 31
0.0
  0
LINE
  8
0
 62
     0
 10
173.046
 20
86.323
 30
0.0
 11
174.771
 21
86.323
 31
0.0
  0
LINE
  8
0
 62
     0
 10
174.771
 20
86.323
 30
0.0
 11
174.771
 21
92.5932
 31
0.0
  0
LINE
  8
0
 62
     0
 10
174.771
 20
92.5932
 30
0.0
 11
175.595
 21
92.5932
 31
0.0
  0
LINE
  8
0
 62
     0
 10
175.595
 20
92.5932
 30
0.0
 11
175.595
 21
95.2429
 31
0.0
  0
LINE
  8
0
 62
     0
 10
175.595
 20
95.2429
 30
0.0
 11
174.771
 21
95.2429
 31
0.0
  0
LINE
  8
0
 62
     0
 10
174.771
 20
95.2429
 30
0.0
 11
174.771
 21
98.4733
 31
0.0
  0
LINE
  8
0
 62
     0
 10
174.771
 20
98.4733
 30
0.0
 11
168.17
 21
98.4733
 31
0.0
  0
LINE
  8
0
 62
     0
 10
168.17
 20
98.4733
 30
0.0
 11
168.17
 21
95.2429
 31
0.0
  0
LINE
  8
0
 62
     0
 10
168.17
 20
95.2429
 30
0.0
 11
166.496
 21
95.2429
 31
0.0
  0
LINE
  8
0
 62
     0
 10
166.496
 20
95.2429
 30
0.0
 11
166.496
 21
99.9437
 31
0.0
  0
LINE
  8
0
 62
     0
 10
166.496
 20
99.9437
 30
0.0
 11
152.645
 21
99.9437
 31
0.0
  0
LINE
  8
0
 62
     0
 10
9.77029
 20
99.9437
 30
0.0
 11
23.6209
 21
99.9437
 31
0.0
  0
LINE
  8
0
 62
     0
 10
23.6209
 20
99.9437
 30
0.0
 11
23.6209
 21
86.0929
 31
0.0
  0
LINE
  8
0
 62
     0
 10
23.6209
 20
86.0929
 30
0.0
 11
9.77029
 21
86.0929
 31
0.0
  0
LINE
  8
0
 62
     0
 10
9.77029
 20
86.0929
 30
0.0
 11
9.77029
 21
99.9437
 31
0.0
  0
LINE
  8
0
 62
     0
 10
28.8203
 20
99.9437
 30
0.0
 11
42.6709
 21
99.9437
 31
0.0
  0
LINE
  8
0
 62
     0
 10
42.6709
 20
99.9437
 30
0.0
 11
42.6709
 21
86.0929
 31
0.0
  0
LINE
  8
0
 62
     0
 10
42.6709
 20
86.0929
 30
0.0
 11
28.8203
 21
86.0929
 31
0.0
  0
LINE
  8
0
 62
     0
 10
28.8203
 20
86.0929
 30
0.0
 11
28.8203
 21
99.9437
 31
0.0
  0
LINE
  8
0
 62
     0
 10
47.8702
 20
99.9437
 30
0.0
 11
61.7209
 21
99.9437
 31
0.0
  0
LINE
  8
0
 62
     0
 10
61.7209
 20
99.9437
 30
0.0
 11
61.7209
 21
86.0929
 31
0.0
  0
LINE
  8
0
 62
     0
 10
61.7209
 20
86.0929
 30
0.0
 11
47.8702
 21
86.0929
 31
0.0
  0
LINE
  8
0
 62
     0
 10
47.8702
 20
86.0929
 30
0.0
 11
47.8702
 21
99.9437
 31
0.0
  0
LINE
  8
0
 62
     0
 10
66.9202
 20
99.9437
 30
0.0
 11
80.7709
 21
99.9437
 31
0.0
  0
LINE
  8
0
 62
     0
 10
80.7709
 20
99.9437
 30
0.0
 11
80.7709
 21
86.0929
 31
0.0
  0
LINE
  8
0
 62
     0
 10
80.7709
 20
86.0929
 30
0.0
 11
66.9202
 21
86.0929
 31
0.0
  0
LINE
  8
0
 62
     0
 10
66.9202
 20
86.0929
 30
0.0
 11
66.9202
 21
99.9437
 31
0.0
  0
LINE
  8
0
 62
     0
 10
85.9702
 20
99.9437
 30
0.0
 11
99.8209
 21
99.9437
 31
0.0
  0
LINE
  8
0
 62
     0
 10
99.8209
 20
99.9437
 30
0.0
 11
99.8209
 21
86.0929
 31
0.0
  0
LINE
  8
0
 62
     0
 10
99.8209
 20
86.0929
 30
0.0
 11
85.9702
 21
86.0929
 31
0.0
  0
LINE
  8
0
 62
     0
 10
85.9702
 20
86.0929
 30
0.0
 11
85.9702
 21
99.9437
 31
0.0
  0
LINE
  8
0
 62
     0
 10
105.02
 20
99.9437
 30
0.0
 11
118.87
 21
99.9437
 31
0.0
  0
LINE
  8
0
 62
     0
 10
118.87
 20
99.9437
 30
0.0
 11
118.87
 21
86.0929
 31
0.0
  0
LINE
  8
0
 62
     0
 10
118.87
 20
86.0929
 30
0.0
 11
105.02
 21
86.0929
 31
0.0
  0
LINE
  8
0
 62
     0
 10
105.02
 20
86.0929
 30
0.0
 11
105.02
 21
99.9437
 31
0.0
  0
LINE
  8
0
 62
     0
 10
124.07
 20
99.9437
 30
0.0
 11
137.921
 21
99.9437
 31
0.0
  0
LINE
  8
0
 62
     0
 10
137.921
 20
99.9437
 30
0.0
 11
137.921
 21
86.0929
 31
0.0
  0
LINE
  8
0
 62
     0
 10
137.921
 20
86.0929
 30
0.0
 11
124.07
 21
86.0929
 31
0.0
  0
LINE
  8
0
 62
     0
 10
124.07
 20
86.0929
 30
0.0
 11
124.07
 21
99.9437
 31
0.0
  0
LINE
  8
0
 62
     0
 10
181.22
 20
99.9437
 30
0.0
 11
195.071
 21
99.9437
 31
0.0
  0
LINE
  8
0
 62
     0
 10
195.071
 20
99.9437
 30
0.0
 11
195.071
 21
86.0929
 31
0.0
  0
LINE
  8
0
 62
     0
 10
195.071
 20
86.0929
 30
0.0
 11
181.22
 21
86.0929
 31
0.0
  0
LINE
  8
0
 62
     0
 10
181.22
 20
86.0929
 30
0.0
 11
181.22
 21
99.9437
 31
0.0
  0
LINE
  8
0
 62
     0
 10
101.98
 20
108.399
 30
0.0
 11
101.582
 21
108.197
 31
0.0
  0
LINE
  8
0
 62
     0
 10
101.582
 20
108.197
 30
0.0
 11
101.268
 21
107.881
 31
0.0
  0
LINE
  8
0
 62
     0
 10
101.268
 20
107.881
 30
0.0
 11
101.065
 21
107.484
 31
0.0
  0
LINE
  8
0
 62
     0
 10
101.065
 20
107.484
 30
0.0
 11
100.995
 21
107.043
 31
0.0
  0
LINE
  8
0
 62
     0
 10
100.995
 20
107.043
 30
0.0
 11
101.065
 21
106.604
 31
0.0
  0
LINE
  8
0
 62
     0
 10
101.065
 20
106.604
 30
0.0
 11
101.268
 21
106.207
 31
0.0
  0
LINE
  8
0
 62
     0
 10
101.268
 20
106.207
 30
0.0
 11
101.582
 21
105.891
 31
0.0
  0
LINE
  8
0
 62
     0
 10
101.582
 20
105.891
 30
0.0
 11
101.98
 21
105.689
 31
0.0
  0
LINE
  8
0
 62
     0
 10
101.98
 20
105.689
 30
0.0
 11
102.42
 21
105.618
 31
0.0
  0
LINE
  8
0
 62
     0
 10
102.42
 20
105.618
 30
0.0
 11
102.861
 21
105.689
 31
0.0
  0
LINE
  8
0
 62
     0
 10
102.861
 20
105.689
 30
0.0
 11
103.259
 21
105.891
 31
0.0
  0
LINE
  8
0
 62
     0
 10
103.259
 20
105.891
 30
0.0
 11
103.573
 21
106.207
 31
0.0
  0
LINE
  8
0
 62
     0
 10
103.573
 20
106.207
 30
0.0
 11
103.776
 21
106.604
 31
0.0
  0
LINE
  8
0
 62
     0
 10
103.776
 20
106.604
 30
0.0
 11
103.845
 21
107.043
 31
0.0
  0
LINE
  8
0
 62
     0
 10
103.845
 20
107.043
 30
0.0
 11
103.776
 21
107.484
 31
0.0
  0
LINE
  8
0
 62
     0
 10
103.776
 20
107.484
 30
0.0
 11
103.573
 21
107.881
 31
0.0
  0
LINE
  8
0
 62
     0
 10
103.573
 20
107.881
 30
0.0
 11
103.259
 21
108.197
 31
0.0
  0
LINE
  8
0
 62
     0
 10
103.259
 20
108.197
 30
0.0
 11
102.861
 21
108.399
 31
0.0
  0
LINE
  8
0
 62
     0
 10
102.861
 20
108.399
 30
0.0
 11
102.42
 21
108.468
 31
0.0
  0
LINE
  8
0
 62
     0
 10
102.42
 20
108.468
 30
0.0
 11
101.98
 21
108.399
 31
0.0
  0
LINE
  8
0
 62
     0
 10
201.731
 20
108.399
 30
0.0
 11
201.334
 21
108.197
 31
0.0
  0
LINE
  8
0
 62
     0
 10
201.334
 20
108.197
 30
0.0
 11
201.018
 21
107.881
 31
0.0
  0
LINE
  8
0
 62
     0
 10
201.018
 20
107.881
 30
0.0
 11
200.816
 21
107.484
 31
0.0
  0
LINE
  8
0
 62
     0
 10
200.816
 20
107.484
 30
0.0
 11
200.747
 21
107.043
 31
0.0
  0
LINE
  8
0
 62
     0
 10
200.747
 20
107.043
 30
0.0
 11
200.816
 21
106.604
 31
0.0
  0
LINE
  8
0
 62
     0
 10
200.816
 20
106.604
 30
0.0
 11
201.018
 21
106.207
 31
0.0
  0
LINE
  8
0
 62
     0
 10
201.018
 20
106.207
 30
0.0
 11
201.334
 21
105.891
 31
0.0
  0
LINE
  8
0
 62
     0
 10
201.334
 20
105.891
 30
0.0
 11
201.731
 21
105.689
 31
0.0
  0
LINE
  8
0
 62
     0
 10
201.731
 20
105.689
 30
0.0
 11
202.172
 21
105.618
 31
0.0
  0
LINE
  8
0
 62
     0
 10
202.172
 20
105.618
 30
0.0
 11
202.612
 21
105.689
 31
0.0
  0
LINE
  8
0
 62
     0
 10
202.612
 20
105.689
 30
0.0
 11
203.008
 21
105.891
 31
0.0
  0
LINE
  8
0
 62
     0
 10
203.008
 20
105.891
 30
0.0
 11
203.324
 21
106.207
 31
0.0
  0
LINE
  8
0
 62
     0
 10
203.324
 20
106.207
 30
0.0
 11
203.527
 21
106.604
 31
0.0
  0
LINE
  8
0
 62
     0
 10
203.527
 20
106.604
 30
0.0
 11
203.597
 21
107.043
 31
0.0
  0
LINE
  8
0
 62
     0
 10
203.597
 20
107.043
 30
0.0
 11
203.527
 21
107.484
 31
0.0
  0
LINE
  8
0
 62
     0
 10
203.527
 20
107.484
 30
0.0
 11
203.324
 21
107.881
 31
0.0
  0
LINE
  8
0
 62
     0
 10
203.324
 20
107.881
 30
0.0
 11
203.008
 21
108.197
 31
0.0
  0
LINE
  8
0
 62
     0
 10
203.008
 20
108.197
 30
0.0
 11
202.612
 21
108.399
 31
0.0
  0
LINE
  8
0
 62
     0
 10
202.612
 20
108.399
 30
0.0
 11
202.172
 21
108.468
 31
0.0
  0
LINE
  8
0
 62
     0
 10
202.172
 20
108.468
 30
0.0
 11
201.731
 21
108.399
 31
0.0
  0
LINE
  8
0
 62
     0
 10
2.22966
 20
108.399
 30
0.0
 11
1.83279
 21
108.197
 31
0.0
  0
LINE
  8
0
 62
     0
 10
1.83279
 20
108.197
 30
0.0
 11
1.51722
 21
107.881
 31
0.0
  0
LINE
  8
0
 62
     0
 10
1.51722
 20
107.881
 30
0.0
 11
1.31465
 21
107.484
 31
0.0
  0
LINE
  8
0
 62
     0
 10
1.31465
 20
107.484
 30
0.0
 11
1.24575
 21
107.043
 31
0.0
  0
LINE
  8
0
 62
     0
 10
1.24575
 20
107.043
 30
0.0
 11
1.31465
 21
106.604
 31
0.0
  0
LINE
  8
0
 62
     0
 10
1.31465
 20
106.604
 30
0.0
 11
1.51722
 21
106.207
 31
0.0
  0
LINE
  8
0
 62
     0
 10
1.51722
 20
106.207
 30
0.0
 11
1.83279
 21
105.891
 31
0.0
  0
LINE
  8
0
 62
     0
 10
1.83279
 20
105.891
 30
0.0
 11
2.22966
 21
105.689
 31
0.0
  0
LINE
  8
0
 62
     0
 10
2.22966
 20
105.689
 30
0.0
 11
2.67064
 21
105.618
 31
0.0
  0
LINE
  8
0
 62
     0
 10
2.67064
 20
105.618
 30
0.0
 11
3.11023
 21
105.689
 31
0.0
  0
LINE
  8
0
 62
     0
 10
3.11023
 20
105.689
 30
0.0
 11
3.50711
 21
105.891
 31
0.0
  0
LINE
  8
0
 62
     0
 10
3.50711
 20
105.891
 30
0.0
 11
3.82266
 21
106.207
 31
0.0
  0
LINE
  8
0
 62
     0
 10
3.82266
 20
106.207
 30
0.0
 11
4.02527
 21
106.604
 31
0.0
  0
LINE
  8
0
 62
     0
 10
4.02527
 20
106.604
 30
0.0
 11
4.09554
 21
107.043
 31
0.0
  0
LINE
  8
0
 62
     0
 10
4.09554
 20
107.043
 30
0.0
 11
4.02527
 21
107.484
 31
0.0
  0
LINE
  8
0
 62
     0
 10
4.02527
 20
107.484
 30
0.0
 11
3.82266
 21
107.881
 31
0.0
  0
LINE
  8
0
 62
     0
 10
3.82266
 20
107.881
 30
0.0
 11
3.50711
 21
108.197
 31
0.0
  0
LINE
  8
0
 62
     0
 10
3.50711
 20
108.197
 30
0.0
 11
3.11023
 21
108.399
 31
0.0
  0
LINE
  8
0
 62
     0
 10
3.11023
 20
108.399
 30
0.0
 11
2.67064
 21
108.468
 31
0.0
  0
LINE
  8
0
 62
     0
 10
2.67064
 20
108.468
 30
0.0
 11
2.22966
 21
108.399
 31
0.0
  0
ENDSEC
  0
EOF
