  0
SECTION
  2
HEADER
  9
$ACADVER
  1
AC1009
  9
$FILLMODE
 70
 0
  9
$SPLFRAME
 70
 1
  9
$EXTMIN
 10
0
 20
0
 30
0.0
  9
$EXTMAX
 10
1058.33
 20
1058.33
 30
0.0
  0
ENDSEC
  0
SECTION
  2
TABLES
  0
TABLE
  2
LAYER
 70
1
  0
LAYER
  2
0
 70
     0
 62
     7
  6
CONTINUOUS
  0
ENDTAB
  0
ENDSEC
  0
SECTION
  2
ENTITIES
  0
LINE
  8
0
 62
     0
 10
203.747
 20
109.619
 30
0.0
 11
203.824
 21
109.616
 31
0.0
  0
LINE
  8
0
 62
     0
 10
203.824
 20
109.616
 30
0.0
 11
203.903
 21
109.606
 31
0.0
  0
LINE
  8
0
 62
     0
 10
203.903
 20
109.606
 30
0.0
 11
203.98
 21
109.591
 31
0.0
  0
LINE
  8
0
 62
     0
 10
203.98
 20
109.591
 30
0.0
 11
204.056
 21
109.571
 31
0.0
  0
LINE
  8
0
 62
     0
 10
204.056
 20
109.571
 30
0.0
 11
204.129
 21
109.543
 31
0.0
  0
LINE
  8
0
 62
     0
 10
204.129
 20
109.543
 30
0.0
 11
204.199
 21
109.51
 31
0.0
  0
LINE
  8
0
 62
     0
 10
204.199
 20
109.51
 30
0.0
 11
204.268
 21
109.472
 31
0.0
  0
LINE
  8
0
 62
     0
 10
204.268
 20
109.472
 30
0.0
 11
204.334
 21
109.428
 31
0.0
  0
LINE
  8
0
 62
     0
 10
204.334
 20
109.428
 30
0.0
 11
204.396
 21
109.379
 31
0.0
  0
LINE
  8
0
 62
     0
 10
204.396
 20
109.379
 30
0.0
 11
204.454
 21
109.327
 31
0.0
  0
LINE
  8
0
 62
     0
 10
204.454
 20
109.327
 30
0.0
 11
204.506
 21
109.269
 31
0.0
  0
LINE
  8
0
 62
     0
 10
204.506
 20
109.269
 30
0.0
 11
204.556
 21
109.207
 31
0.0
  0
LINE
  8
0
 62
     0
 10
204.556
 20
109.207
 30
0.0
 11
204.599
 21
109.142
 31
0.0
  0
LINE
  8
0
 62
     0
 10
204.599
 20
109.142
 30
0.0
 11
204.637
 21
109.072
 31
0.0
  0
LINE
  8
0
 62
     0
 10
204.637
 20
109.072
 30
0.0
 11
204.669
 21
109.001
 31
0.0
  0
LINE
  8
0
 62
     0
 10
204.669
 20
109.001
 30
0.0
 11
204.698
 21
108.928
 31
0.0
  0
LINE
  8
0
 62
     0
 10
204.698
 20
108.928
 30
0.0
 11
204.719
 21
108.853
 31
0.0
  0
LINE
  8
0
 62
     0
 10
204.719
 20
108.853
 30
0.0
 11
204.734
 21
108.775
 31
0.0
  0
LINE
  8
0
 62
     0
 10
204.734
 20
108.775
 30
0.0
 11
204.742
 21
108.697
 31
0.0
  0
LINE
  8
0
 62
     0
 10
204.742
 20
108.697
 30
0.0
 11
204.746
 21
108.619
 31
0.0
  0
LINE
  8
0
 62
     0
 10
204.746
 20
108.619
 30
0.0
 11
204.746
 21
1.21681
 31
0.0
  0
LINE
  8
0
 62
     0
 10
204.746
 20
1.21681
 30
0.0
 11
204.742
 21
1.13964
 31
0.0
  0
LINE
  8
0
 62
     0
 10
204.742
 20
1.13964
 30
0.0
 11
204.734
 21
1.06109
 31
0.0
  0
LINE
  8
0
 62
     0
 10
204.734
 20
1.06109
 30
0.0
 11
204.719
 21
0.983918
 31
0.0
  0
LINE
  8
0
 62
     0
 10
204.719
 20
0.983918
 30
0.0
 11
204.698
 21
0.908128
 31
0.0
  0
LINE
  8
0
 62
     0
 10
204.698
 20
0.908128
 30
0.0
 11
204.669
 21
0.835092
 31
0.0
  0
LINE
  8
0
 62
     0
 10
204.669
 20
0.835092
 30
0.0
 11
204.637
 21
0.764812
 31
0.0
  0
LINE
  8
0
 62
     0
 10
204.637
 20
0.764812
 30
0.0
 11
204.599
 21
0.695911
 31
0.0
  0
LINE
  8
0
 62
     0
 10
204.599
 20
0.695911
 30
0.0
 11
204.556
 21
0.629765
 31
0.0
  0
LINE
  8
0
 62
     0
 10
204.556
 20
0.629765
 30
0.0
 11
204.506
 21
0.567754
 31
0.0
  0
LINE
  8
0
 62
     0
 10
204.506
 20
0.567754
 30
0.0
 11
204.454
 21
0.509873
 31
0.0
  0
LINE
  8
0
 62
     0
 10
204.454
 20
0.509873
 30
0.0
 11
204.396
 21
0.45751
 31
0.0
  0
LINE
  8
0
 62
     0
 10
204.396
 20
0.45751
 30
0.0
 11
204.334
 21
0.407899
 31
0.0
  0
LINE
  8
0
 62
     0
 10
204.334
 20
0.407899
 30
0.0
 11
204.268
 21
0.365181
 31
0.0
  0
LINE
  8
0
 62
     0
 10
204.268
 20
0.365181
 30
0.0
 11
204.199
 21
0.326595
 31
0.0
  0
LINE
  8
0
 62
     0
 10
204.199
 20
0.326595
 30
0.0
 11
204.129
 21
0.2949
 31
0.0
  0
LINE
  8
0
 62
     0
 10
204.129
 20
0.2949
 30
0.0
 11
204.056
 21
0.265961
 31
0.0
  0
LINE
  8
0
 62
     0
 10
204.056
 20
0.265961
 30
0.0
 11
203.98
 21
0.245291
 31
0.0
  0
LINE
  8
0
 62
     0
 10
203.98
 20
0.245291
 30
0.0
 11
203.903
 21
0.230132
 31
0.0
  0
LINE
  8
0
 62
     0
 10
203.903
 20
0.230132
 30
0.0
 11
203.824
 21
0.221864
 31
0.0
  0
LINE
  8
0
 62
     0
 10
203.824
 20
0.221864
 30
0.0
 11
203.746
 21
0.21773
 31
0.0
  0
LINE
  8
0
 62
     0
 10
203.746
 20
0.21773
 30
0.0
 11
1.09554
 21
0.21773
 31
0.0
  0
LINE
  8
0
 62
     0
 10
1.09554
 20
0.21773
 30
0.0
 11
1.01699
 21
0.221864
 31
0.0
  0
LINE
  8
0
 62
     0
 10
1.01699
 20
0.221864
 30
0.0
 11
0.938445
 21
0.230132
 31
0.0
  0
LINE
  8
0
 62
     0
 10
0.938445
 20
0.230132
 30
0.0
 11
0.861275
 21
0.245291
 31
0.0
  0
LINE
  8
0
 62
     0
 10
0.861275
 20
0.245291
 30
0.0
 11
0.785481
 21
0.265961
 31
0.0
  0
LINE
  8
0
 62
     0
 10
0.785481
 20
0.265961
 30
0.0
 11
0.712445
 21
0.2949
 31
0.0
  0
LINE
  8
0
 62
     0
 10
0.712445
 20
0.2949
 30
0.0
 11
0.642165
 21
0.326595
 31
0.0
  0
LINE
  8
0
 62
     0
 10
0.642165
 20
0.326595
 30
0.0
 11
0.571885
 21
0.365181
 31
0.0
  0
LINE
  8
0
 62
     0
 10
0.571885
 20
0.365181
 30
0.0
 11
0.507118
 21
0.407899
 31
0.0
  0
LINE
  8
0
 62
     0
 10
0.507118
 20
0.407899
 30
0.0
 11
0.445107
 21
0.45751
 31
0.0
  0
LINE
  8
0
 62
     0
 10
0.445107
 20
0.45751
 30
0.0
 11
0.38723
 21
0.509873
 31
0.0
  0
LINE
  8
0
 62
     0
 10
0.38723
 20
0.509873
 30
0.0
 11
0.334863
 21
0.567754
 31
0.0
  0
LINE
  8
0
 62
     0
 10
0.334863
 20
0.567754
 30
0.0
 11
0.285254
 21
0.629765
 31
0.0
  0
LINE
  8
0
 62
     0
 10
0.285254
 20
0.629765
 30
0.0
 11
0.242535
 21
0.695911
 31
0.0
  0
LINE
  8
0
 62
     0
 10
0.242535
 20
0.695911
 30
0.0
 11
0.20395
 21
0.764812
 31
0.0
  0
LINE
  8
0
 62
     0
 10
0.20395
 20
0.764812
 30
0.0
 11
0.170877
 21
0.835092
 31
0.0
  0
LINE
  8
0
 62
     0
 10
0.170877
 20
0.835092
 30
0.0
 11
0.143316
 21
0.908128
 31
0.0
  0
LINE
  8
0
 62
     0
 10
0.143316
 20
0.908128
 30
0.0
 11
0.122645
 21
0.983918
 31
0.0
  0
LINE
  8
0
 62
     0
 10
0.122645
 20
0.983918
 30
0.0
 11
0.107487
 21
1.06109
 31
0.0
  0
LINE
  8
0
 62
     0
 10
0.107487
 20
1.06109
 30
0.0
 11
0.0978408
 21
1.13964
 31
0.0
  0
LINE
  8
0
 62
     0
 10
0.0978408
 20
1.13964
 30
0.0
 11
0.0950846
 21
1.21819
 31
0.0
  0
LINE
  8
0
 62
     0
 10
0.0950846
 20
1.21819
 30
0.0
 11
0.0950846
 21
108.619
 31
0.0
  0
LINE
  8
0
 62
     0
 10
0.0950846
 20
108.619
 30
0.0
 11
0.0978408
 21
108.697
 31
0.0
  0
LINE
  8
0
 62
     0
 10
0.0978408
 20
108.697
 30
0.0
 11
0.107487
 21
108.775
 31
0.0
  0
LINE
  8
0
 62
     0
 10
0.107487
 20
108.775
 30
0.0
 11
0.122645
 21
108.853
 31
0.0
  0
LINE
  8
0
 62
     0
 10
0.122645
 20
108.853
 30
0.0
 11
0.143316
 21
108.928
 31
0.0
  0
LINE
  8
0
 62
     0
 10
0.143316
 20
108.928
 30
0.0
 11
0.170877
 21
109.001
 31
0.0
  0
LINE
  8
0
 62
     0
 10
0.170877
 20
109.001
 30
0.0
 11
0.20395
 21
109.072
 31
0.0
  0
LINE
  8
0
 62
     0
 10
0.20395
 20
109.072
 30
0.0
 11
0.242535
 21
109.142
 31
0.0
  0
LINE
  8
0
 62
     0
 10
0.242535
 20
109.142
 30
0.0
 11
0.285254
 21
109.207
 31
0.0
  0
LINE
  8
0
 62
     0
 10
0.285254
 20
109.207
 30
0.0
 11
0.334863
 21
109.269
 31
0.0
  0
LINE
  8
0
 62
     0
 10
0.334863
 20
109.269
 30
0.0
 11
0.38723
 21
109.327
 31
0.0
  0
LINE
  8
0
 62
     0
 10
0.38723
 20
109.327
 30
0.0
 11
0.445107
 21
109.379
 31
0.0
  0
LINE
  8
0
 62
     0
 10
0.445107
 20
109.379
 30
0.0
 11
0.507118
 21
109.428
 31
0.0
  0
LINE
  8
0
 62
     0
 10
0.507118
 20
109.428
 30
0.0
 11
0.571885
 21
109.472
 31
0.0
  0
LINE
  8
0
 62
     0
 10
0.571885
 20
109.472
 30
0.0
 11
0.642165
 21
109.51
 31
0.0
  0
LINE
  8
0
 62
     0
 10
0.642165
 20
109.51
 30
0.0
 11
0.712445
 21
109.543
 31
0.0
  0
LINE
  8
0
 62
     0
 10
0.712445
 20
109.543
 30
0.0
 11
0.785481
 21
109.571
 31
0.0
  0
LINE
  8
0
 62
     0
 10
0.785481
 20
109.571
 30
0.0
 11
0.861275
 21
109.591
 31
0.0
  0
LINE
  8
0
 62
     0
 10
0.861275
 20
109.591
 30
0.0
 11
0.938445
 21
109.606
 31
0.0
  0
LINE
  8
0
 62
     0
 10
0.938445
 20
109.606
 30
0.0
 11
1.01699
 21
109.616
 31
0.0
  0
LINE
  8
0
 62
     0
 10
1.01699
 20
109.616
 30
0.0
 11
1.09554
 21
109.619
 31
0.0
  0
LINE
  8
0
 62
     0
 10
1.09554
 20
109.619
 30
0.0
 11
203.747
 21
109.619
 31
0.0
  0
LINE
  8
0
 62
     0
 10
201.731
 20
4.14789
 30
0.0
 11
201.334
 21
3.94533
 31
0.0
  0
LINE
  8
0
 62
     0
 10
201.334
 20
3.94533
 30
0.0
 11
201.018
 21
3.62977
 31
0.0
  0
LINE
  8
0
 62
     0
 10
201.018
 20
3.62977
 30
0.0
 11
200.816
 21
3.23288
 31
0.0
  0
LINE
  8
0
 62
     0
 10
200.816
 20
3.23288
 30
0.0
 11
200.747
 21
2.7919
 31
0.0
  0
LINE
  8
0
 62
     0
 10
200.747
 20
2.7919
 30
0.0
 11
200.816
 21
2.35231
 31
0.0
  0
LINE
  8
0
 62
     0
 10
200.816
 20
2.35231
 30
0.0
 11
201.018
 21
1.95544
 31
0.0
  0
LINE
  8
0
 62
     0
 10
201.018
 20
1.95544
 30
0.0
 11
201.334
 21
1.63987
 31
0.0
  0
LINE
  8
0
 62
     0
 10
201.334
 20
1.63987
 30
0.0
 11
201.731
 21
1.43729
 31
0.0
  0
LINE
  8
0
 62
     0
 10
201.731
 20
1.43729
 30
0.0
 11
202.172
 21
1.36839
 31
0.0
  0
LINE
  8
0
 62
     0
 10
202.172
 20
1.36839
 30
0.0
 11
202.612
 21
1.43729
 31
0.0
  0
LINE
  8
0
 62
     0
 10
202.612
 20
1.43729
 30
0.0
 11
203.008
 21
1.63987
 31
0.0
  0
LINE
  8
0
 62
     0
 10
203.008
 20
1.63987
 30
0.0
 11
203.324
 21
1.95544
 31
0.0
  0
LINE
  8
0
 62
     0
 10
203.324
 20
1.95544
 30
0.0
 11
203.527
 21
2.35231
 31
0.0
  0
LINE
  8
0
 62
     0
 10
203.527
 20
2.35231
 30
0.0
 11
203.597
 21
2.7919
 31
0.0
  0
LINE
  8
0
 62
     0
 10
203.597
 20
2.7919
 30
0.0
 11
203.527
 21
3.23288
 31
0.0
  0
LINE
  8
0
 62
     0
 10
203.527
 20
3.23288
 30
0.0
 11
203.324
 21
3.62977
 31
0.0
  0
LINE
  8
0
 62
     0
 10
203.324
 20
3.62977
 30
0.0
 11
203.008
 21
3.94533
 31
0.0
  0
LINE
  8
0
 62
     0
 10
203.008
 20
3.94533
 30
0.0
 11
202.612
 21
4.14789
 31
0.0
  0
LINE
  8
0
 62
     0
 10
202.612
 20
4.14789
 30
0.0
 11
202.172
 21
4.21679
 31
0.0
  0
LINE
  8
0
 62
     0
 10
202.172
 20
4.21679
 30
0.0
 11
201.731
 21
4.14789
 31
0.0
  0
LINE
  8
0
 62
     0
 10
101.98
 20
4.14789
 30
0.0
 11
101.582
 21
3.94533
 31
0.0
  0
LINE
  8
0
 62
     0
 10
101.582
 20
3.94533
 30
0.0
 11
101.268
 21
3.62977
 31
0.0
  0
LINE
  8
0
 62
     0
 10
101.268
 20
3.62977
 30
0.0
 11
101.065
 21
3.23288
 31
0.0
  0
LINE
  8
0
 62
     0
 10
101.065
 20
3.23288
 30
0.0
 11
100.995
 21
2.7919
 31
0.0
  0
LINE
  8
0
 62
     0
 10
100.995
 20
2.7919
 30
0.0
 11
101.065
 21
2.35231
 31
0.0
  0
LINE
  8
0
 62
     0
 10
101.065
 20
2.35231
 30
0.0
 11
101.268
 21
1.95544
 31
0.0
  0
LINE
  8
0
 62
     0
 10
101.268
 20
1.95544
 30
0.0
 11
101.582
 21
1.63987
 31
0.0
  0
LINE
  8
0
 62
     0
 10
101.582
 20
1.63987
 30
0.0
 11
101.98
 21
1.43729
 31
0.0
  0
LINE
  8
0
 62
     0
 10
101.98
 20
1.43729
 30
0.0
 11
102.42
 21
1.36839
 31
0.0
  0
LINE
  8
0
 62
     0
 10
102.42
 20
1.36839
 30
0.0
 11
102.861
 21
1.43729
 31
0.0
  0
LINE
  8
0
 62
     0
 10
102.861
 20
1.43729
 30
0.0
 11
103.259
 21
1.63987
 31
0.0
  0
LINE
  8
0
 62
     0
 10
103.259
 20
1.63987
 30
0.0
 11
103.573
 21
1.95544
 31
0.0
  0
LINE
  8
0
 62
     0
 10
103.573
 20
1.95544
 30
0.0
 11
103.776
 21
2.35231
 31
0.0
  0
LINE
  8
0
 62
     0
 10
103.776
 20
2.35231
 30
0.0
 11
103.845
 21
2.7919
 31
0.0
  0
LINE
  8
0
 62
     0
 10
103.845
 20
2.7919
 30
0.0
 11
103.776
 21
3.23288
 31
0.0
  0
LINE
  8
0
 62
     0
 10
103.776
 20
3.23288
 30
0.0
 11
103.573
 21
3.62977
 31
0.0
  0
LINE
  8
0
 62
     0
 10
103.573
 20
3.62977
 30
0.0
 11
103.259
 21
3.94533
 31
0.0
  0
LINE
  8
0
 62
     0
 10
103.259
 20
3.94533
 30
0.0
 11
102.861
 21
4.14789
 31
0.0
  0
LINE
  8
0
 62
     0
 10
102.861
 20
4.14789
 30
0.0
 11
102.42
 21
4.21679
 31
0.0
  0
LINE
  8
0
 62
     0
 10
102.42
 20
4.21679
 30
0.0
 11
101.98
 21
4.14789
 31
0.0
  0
LINE
  8
0
 62
     0
 10
2.22966
 20
4.14789
 30
0.0
 11
1.83279
 21
3.94533
 31
0.0
  0
LINE
  8
0
 62
     0
 10
1.83279
 20
3.94533
 30
0.0
 11
1.51722
 21
3.62977
 31
0.0
  0
LINE
  8
0
 62
     0
 10
1.51722
 20
3.62977
 30
0.0
 11
1.31465
 21
3.23288
 31
0.0
  0
LINE
  8
0
 62
     0
 10
1.31465
 20
3.23288
 30
0.0
 11
1.24575
 21
2.7919
 31
0.0
  0
LINE
  8
0
 62
     0
 10
1.24575
 20
2.7919
 30
0.0
 11
1.31465
 21
2.35231
 31
0.0
  0
LINE
  8
0
 62
     0
 10
1.31465
 20
2.35231
 30
0.0
 11
1.51722
 21
1.95544
 31
0.0
  0
LINE
  8
0
 62
     0
 10
1.51722
 20
1.95544
 30
0.0
 11
1.83279
 21
1.63987
 31
0.0
  0
LINE
  8
0
 62
     0
 10
1.83279
 20
1.63987
 30
0.0
 11
2.22966
 21
1.43729
 31
0.0
  0
LINE
  8
0
 62
     0
 10
2.22966
 20
1.43729
 30
0.0
 11
2.67064
 21
1.36839
 31
0.0
  0
LINE
  8
0
 62
     0
 10
2.67064
 20
1.36839
 30
0.0
 11
3.11023
 21
1.43729
 31
0.0
  0
LINE
  8
0
 62
     0
 10
3.11023
 20
1.43729
 30
0.0
 11
3.50711
 21
1.63987
 31
0.0
  0
LINE
  8
0
 62
     0
 10
3.50711
 20
1.63987
 30
0.0
 11
3.82266
 21
1.95544
 31
0.0
  0
LINE
  8
0
 62
     0
 10
3.82266
 20
1.95544
 30
0.0
 11
4.02527
 21
2.35231
 31
0.0
  0
LINE
  8
0
 62
     0
 10
4.02527
 20
2.35231
 30
0.0
 11
4.09554
 21
2.7919
 31
0.0
  0
LINE
  8
0
 62
     0
 10
4.09554
 20
2.7919
 30
0.0
 11
4.02527
 21
3.23288
 31
0.0
  0
LINE
  8
0
 62
     0
 10
4.02527
 20
3.23288
 30
0.0
 11
3.82266
 21
3.62977
 31
0.0
  0
LINE
  8
0
 62
     0
 10
3.82266
 20
3.62977
 30
0.0
 11
3.50711
 21
3.94533
 31
0.0
  0
LINE
  8
0
 62
     0
 10
3.50711
 20
3.94533
 30
0.0
 11
3.11023
 21
4.14789
 31
0.0
  0
LINE
  8
0
 62
     0
 10
3.11023
 20
4.14789
 30
0.0
 11
2.67064
 21
4.21679
 31
0.0
  0
LINE
  8
0
 62
     0
 10
2.67064
 20
4.21679
 30
0.0
 11
2.22966
 21
4.14789
 31
0.0
  0
LINE
  8
0
 62
     0
 10
7.16993
 20
102.544
 30
0.0
 11
7.16993
 21
83.4926
 31
0.0
  0
LINE
  8
0
 62
     0
 10
7.16993
 20
83.4926
 30
0.0
 11
16.6949
 21
83.4926
 31
0.0
  0
LINE
  8
0
 62
     0
 10
16.6949
 20
83.4926
 30
0.0
 11
16.6949
 21
64.4426
 31
0.0
  0
LINE
  8
0
 62
     0
 10
16.6949
 20
64.4426
 30
0.0
 11
21.4561
 21
64.4426
 31
0.0
  0
LINE
  8
0
 62
     0
 10
21.4561
 20
64.4426
 30
0.0
 11
21.4561
 21
45.394
 31
0.0
  0
LINE
  8
0
 62
     0
 10
21.4561
 20
45.394
 30
0.0
 11
11.9311
 21
45.394
 31
0.0
  0
LINE
  8
0
 62
     0
 10
11.9311
 20
45.394
 30
0.0
 11
11.9311
 21
7.29259
 31
0.0
  0
LINE
  8
0
 62
     0
 10
11.9311
 20
7.29259
 30
0.0
 11
197.671
 21
7.29259
 31
0.0
  0
LINE
  8
0
 62
     0
 10
197.671
 20
7.29259
 30
0.0
 11
197.671
 21
102.544
 31
0.0
  0
LINE
  8
0
 62
     0
 10
197.671
 20
102.544
 30
0.0
 11
7.16993
 21
102.544
 31
0.0
  0
LINE
  8
0
 62
     0
 10
101.98
 20
108.399
 30
0.0
 11
101.582
 21
108.197
 31
0.0
  0
LINE
  8
0
 62
     0
 10
101.582
 20
108.197
 30
0.0
 11
101.268
 21
107.881
 31
0.0
  0
LINE
  8
0
 62
     0
 10
101.268
 20
107.881
 30
0.0
 11
101.065
 21
107.484
 31
0.0
  0
LINE
  8
0
 62
     0
 10
101.065
 20
107.484
 30
0.0
 11
100.995
 21
107.043
 31
0.0
  0
LINE
  8
0
 62
     0
 10
100.995
 20
107.043
 30
0.0
 11
101.065
 21
106.604
 31
0.0
  0
LINE
  8
0
 62
     0
 10
101.065
 20
106.604
 30
0.0
 11
101.268
 21
106.207
 31
0.0
  0
LINE
  8
0
 62
     0
 10
101.268
 20
106.207
 30
0.0
 11
101.582
 21
105.891
 31
0.0
  0
LINE
  8
0
 62
     0
 10
101.582
 20
105.891
 30
0.0
 11
101.98
 21
105.689
 31
0.0
  0
LINE
  8
0
 62
     0
 10
101.98
 20
105.689
 30
0.0
 11
102.42
 21
105.618
 31
0.0
  0
LINE
  8
0
 62
     0
 10
102.42
 20
105.618
 30
0.0
 11
102.861
 21
105.689
 31
0.0
  0
LINE
  8
0
 62
     0
 10
102.861
 20
105.689
 30
0.0
 11
103.259
 21
105.891
 31
0.0
  0
LINE
  8
0
 62
     0
 10
103.259
 20
105.891
 30
0.0
 11
103.573
 21
106.207
 31
0.0
  0
LINE
  8
0
 62
     0
 10
103.573
 20
106.207
 30
0.0
 11
103.776
 21
106.604
 31
0.0
  0
LINE
  8
0
 62
     0
 10
103.776
 20
106.604
 30
0.0
 11
103.845
 21
107.043
 31
0.0
  0
LINE
  8
0
 62
     0
 10
103.845
 20
107.043
 30
0.0
 11
103.776
 21
107.484
 31
0.0
  0
LINE
  8
0
 62
     0
 10
103.776
 20
107.484
 30
0.0
 11
103.573
 21
107.881
 31
0.0
  0
LINE
  8
0
 62
     0
 10
103.573
 20
107.881
 30
0.0
 11
103.259
 21
108.197
 31
0.0
  0
LINE
  8
0
 62
     0
 10
103.259
 20
108.197
 30
0.0
 11
102.861
 21
108.399
 31
0.0
  0
LINE
  8
0
 62
     0
 10
102.861
 20
108.399
 30
0.0
 11
102.42
 21
108.468
 31
0.0
  0
LINE
  8
0
 62
     0
 10
102.42
 20
108.468
 30
0.0
 11
101.98
 21
108.399
 31
0.0
  0
LINE
  8
0
 62
     0
 10
201.731
 20
108.399
 30
0.0
 11
201.334
 21
108.197
 31
0.0
  0
LINE
  8
0
 62
     0
 10
201.334
 20
108.197
 30
0.0
 11
201.018
 21
107.881
 31
0.0
  0
LINE
  8
0
 62
     0
 10
201.018
 20
107.881
 30
0.0
 11
200.816
 21
107.484
 31
0.0
  0
LINE
  8
0
 62
     0
 10
200.816
 20
107.484
 30
0.0
 11
200.747
 21
107.043
 31
0.0
  0
LINE
  8
0
 62
     0
 10
200.747
 20
107.043
 30
0.0
 11
200.816
 21
106.604
 31
0.0
  0
LINE
  8
0
 62
     0
 10
200.816
 20
106.604
 30
0.0
 11
201.018
 21
106.207
 31
0.0
  0
LINE
  8
0
 62
     0
 10
201.018
 20
106.207
 30
0.0
 11
201.334
 21
105.891
 31
0.0
  0
LINE
  8
0
 62
     0
 10
201.334
 20
105.891
 30
0.0
 11
201.731
 21
105.689
 31
0.0
  0
LINE
  8
0
 62
     0
 10
201.731
 20
105.689
 30
0.0
 11
202.172
 21
105.618
 31
0.0
  0
LINE
  8
0
 62
     0
 10
202.172
 20
105.618
 30
0.0
 11
202.612
 21
105.689
 31
0.0
  0
LINE
  8
0
 62
     0
 10
202.612
 20
105.689
 30
0.0
 11
203.008
 21
105.891
 31
0.0
  0
LINE
  8
0
 62
     0
 10
203.008
 20
105.891
 30
0.0
 11
203.324
 21
106.207
 31
0.0
  0
LINE
  8
0
 62
     0
 10
203.324
 20
106.207
 30
0.0
 11
203.527
 21
106.604
 31
0.0
  0
LINE
  8
0
 62
     0
 10
203.527
 20
106.604
 30
0.0
 11
203.597
 21
107.043
 31
0.0
  0
LINE
  8
0
 62
     0
 10
203.597
 20
107.043
 30
0.0
 11
203.527
 21
107.484
 31
0.0
  0
LINE
  8
0
 62
     0
 10
203.527
 20
107.484
 30
0.0
 11
203.324
 21
107.881
 31
0.0
  0
LINE
  8
0
 62
     0
 10
203.324
 20
107.881
 30
0.0
 11
203.008
 21
108.197
 31
0.0
  0
LINE
  8
0
 62
     0
 10
203.008
 20
108.197
 30
0.0
 11
202.612
 21
108.399
 31
0.0
  0
LINE
  8
0
 62
     0
 10
202.612
 20
108.399
 30
0.0
 11
202.172
 21
108.468
 31
0.0
  0
LINE
  8
0
 62
     0
 10
202.172
 20
108.468
 30
0.0
 11
201.731
 21
108.399
 31
0.0
  0
LINE
  8
0
 62
     0
 10
2.22966
 20
108.399
 30
0.0
 11
1.83279
 21
108.197
 31
0.0
  0
LINE
  8
0
 62
     0
 10
1.83279
 20
108.197
 30
0.0
 11
1.51722
 21
107.881
 31
0.0
  0
LINE
  8
0
 62
     0
 10
1.51722
 20
107.881
 30
0.0
 11
1.31465
 21
107.484
 31
0.0
  0
LINE
  8
0
 62
     0
 10
1.31465
 20
107.484
 30
0.0
 11
1.24575
 21
107.043
 31
0.0
  0
LINE
  8
0
 62
     0
 10
1.24575
 20
107.043
 30
0.0
 11
1.31465
 21
106.604
 31
0.0
  0
LINE
  8
0
 62
     0
 10
1.31465
 20
106.604
 30
0.0
 11
1.51722
 21
106.207
 31
0.0
  0
LINE
  8
0
 62
     0
 10
1.51722
 20
106.207
 30
0.0
 11
1.83279
 21
105.891
 31
0.0
  0
LINE
  8
0
 62
     0
 10
1.83279
 20
105.891
 30
0.0
 11
2.22966
 21
105.689
 31
0.0
  0
LINE
  8
0
 62
     0
 10
2.22966
 20
105.689
 30
0.0
 11
2.67064
 21
105.618
 31
0.0
  0
LINE
  8
0
 62
     0
 10
2.67064
 20
105.618
 30
0.0
 11
3.11023
 21
105.689
 31
0.0
  0
LINE
  8
0
 62
     0
 10
3.11023
 20
105.689
 30
0.0
 11
3.50711
 21
105.891
 31
0.0
  0
LINE
  8
0
 62
     0
 10
3.50711
 20
105.891
 30
0.0
 11
3.82266
 21
106.207
 31
0.0
  0
LINE
  8
0
 62
     0
 10
3.82266
 20
106.207
 30
0.0
 11
4.02527
 21
106.604
 31
0.0
  0
LINE
  8
0
 62
     0
 10
4.02527
 20
106.604
 30
0.0
 11
4.09554
 21
107.043
 31
0.0
  0
LINE
  8
0
 62
     0
 10
4.09554
 20
107.043
 30
0.0
 11
4.02527
 21
107.484
 31
0.0
  0
LINE
  8
0
 62
     0
 10
4.02527
 20
107.484
 30
0.0
 11
3.82266
 21
107.881
 31
0.0
  0
LINE
  8
0
 62
     0
 10
3.82266
 20
107.881
 30
0.0
 11
3.50711
 21
108.197
 31
0.0
  0
LINE
  8
0
 62
     0
 10
3.50711
 20
108.197
 30
0.0
 11
3.11023
 21
108.399
 31
0.0
  0
LINE
  8
0
 62
     0
 10
3.11023
 20
108.399
 30
0.0
 11
2.67064
 21
108.468
 31
0.0
  0
LINE
  8
0
 62
     0
 10
2.67064
 20
108.468
 30
0.0
 11
2.22966
 21
108.399
 31
0.0
  0
ENDSEC
  0
EOF
