<?xml version="1.0"?>
<!-- Generated by SVGo -->
<svg width="177.163mm" height="115.250mm"
     viewBox="0.000 0.000 177.163 115.250"
     xmlns="http://www.w3.org/2000/svg" 
     xmlns:xlink="http://www.w3.org/1999/xlink">
<polygon points="172.163,110.250 5.000,110.250 5.000,5.000 172.163,5.000" style="fill:none;stroke-width:0.050000mm;stroke:black"/>
<polygon points="138.731,88.725 138.731,89.324 137.931,89.324 137.931,93.425 137.206,93.425 137.206,90.195 130.455,90.195 130.455,93.425 129.631,93.425 129.631,96.225 130.455,96.225 130.455,102.494 132.181,102.494 132.181,103.695 135.481,103.695 135.481,102.494 137.206,102.494 137.206,98.024 137.931,98.024 137.931,102.125 138.731,102.125 138.731,102.725 152.731,102.725 152.731,102.125 153.531,102.125 153.531,98.024 154.256,98.024 154.256,102.494 155.981,102.494 155.981,103.695 159.281,103.695 159.281,102.494 161.006,102.494 161.006,96.225 161.831,96.225 161.831,93.425 161.006,93.425 161.006,90.195 154.256,90.195 154.256,93.425 153.531,93.425 153.531,89.324 152.731,89.324 152.731,88.725" style="fill:none;stroke-width:0.050000mm;stroke:black"/>
<polygon points="105.393,88.725 105.393,89.324 104.593,89.324 104.593,102.125 105.393,102.125 105.393,102.725 119.393,102.725 119.393,102.125 120.193,102.125 120.193,89.324 119.393,89.324 119.393,88.725" style="fill:none;stroke-width:0.050000mm;stroke:black"/>
<polygon points="81.581,88.725 81.581,89.324 80.781,89.324 80.781,102.125 81.581,102.125 81.581,102.725 95.581,102.725 95.581,102.125 96.381,102.125 96.381,89.324 95.581,89.324 95.581,88.725" style="fill:none;stroke-width:0.050000mm;stroke:black"/>
<polygon points="57.768,88.725 57.768,89.324 56.968,89.324 56.968,102.125 57.768,102.125 57.768,102.725 71.768,102.725 71.768,102.125 72.568,102.125 72.568,89.324 71.768,89.324 71.768,88.725" style="fill:none;stroke-width:0.050000mm;stroke:black"/>
<polygon points="33.956,88.725 33.956,89.324 33.156,89.324 33.156,102.125 33.956,102.125 33.956,102.725 47.956,102.725 47.956,102.125 48.756,102.125 48.756,89.324 47.956,89.324 47.956,88.725" style="fill:none;stroke-width:0.050000mm;stroke:black"/>
<polygon points="12.524,88.725 12.524,89.324 11.724,89.324 11.724,102.125 12.524,102.125 12.524,102.725 26.525,102.725 26.525,102.125 27.325,102.125 27.325,89.324 26.525,89.324 26.525,88.725" style="fill:none;stroke-width:0.050000mm;stroke:black"/>
<polygon points="43.481,69.675 43.481,70.274 42.681,70.274 42.681,74.375 41.956,74.375 41.956,71.145 35.206,71.145 35.206,74.375 34.381,74.375 34.381,77.175 35.206,77.175 35.206,83.445 36.931,83.445 36.931,84.645 40.231,84.645 40.231,83.445 41.956,83.445 41.956,78.975 42.681,78.975 42.681,83.075 43.481,83.075 43.481,83.675 57.481,83.675 57.481,83.075 58.281,83.075 58.281,78.975 59.006,78.975 59.006,83.445 60.731,83.445 60.731,84.645 64.031,84.645 64.031,83.445 65.756,83.445 65.756,77.175 66.581,77.175 66.581,74.375 65.756,74.375 65.756,71.145 59.006,71.145 59.006,74.375 58.281,74.375 58.281,70.274 57.481,70.274 57.481,69.675" style="fill:none;stroke-width:0.050000mm;stroke:black"/>
<polygon points="150.637,69.675 150.637,70.274 149.837,70.274 149.837,83.075 150.637,83.075 150.637,83.675 164.637,83.675 164.637,83.075 165.437,83.075 165.437,70.274 164.637,70.274 164.637,69.675" style="fill:none;stroke-width:0.050000mm;stroke:black"/>
<polygon points="131.587,69.675 131.587,70.274 130.787,70.274 130.787,83.075 131.587,83.075 131.587,83.675 145.587,83.675 145.587,83.075 146.387,83.075 146.387,70.274 145.587,70.274 145.587,69.675" style="fill:none;stroke-width:0.050000mm;stroke:black"/>
<polygon points="112.537,69.675 112.537,70.274 111.737,70.274 111.737,83.075 112.537,83.075 112.537,83.675 126.537,83.675 126.537,83.075 127.337,83.075 127.337,70.274 126.537,70.274 126.537,69.675" style="fill:none;stroke-width:0.050000mm;stroke:black"/>
<polygon points="93.487,69.675 93.487,70.274 92.687,70.274 92.687,83.075 93.487,83.075 93.487,83.675 107.487,83.675 107.487,83.075 108.287,83.075 108.287,70.274 107.487,70.274 107.487,69.675" style="fill:none;stroke-width:0.050000mm;stroke:black"/>
<polygon points="74.437,69.675 74.437,70.274 73.637,70.274 73.637,83.075 74.437,83.075 74.437,83.675 88.437,83.675 88.437,83.075 89.237,83.075 89.237,70.274 88.437,70.274 88.437,69.675" style="fill:none;stroke-width:0.050000mm;stroke:black"/>
<polygon points="12.524,69.675 12.524,70.274 11.724,70.274 11.724,83.075 12.524,83.075 12.524,83.675 26.525,83.675 26.525,83.075 27.325,83.075 27.325,70.274 26.525,70.274 26.525,69.675" style="fill:none;stroke-width:0.050000mm;stroke:black"/>
<polygon points="141.112,50.625 141.112,51.225 140.312,51.225 140.312,64.025 141.112,64.025 141.112,64.625 155.112,64.625 155.112,64.025 155.912,64.025 155.912,51.225 155.112,51.225 155.112,50.625" style="fill:none;stroke-width:0.050000mm;stroke:black"/>
<polygon points="122.062,50.625 122.062,51.225 121.262,51.225 121.262,64.025 122.062,64.025 122.062,64.625 136.062,64.625 136.062,64.025 136.862,64.025 136.862,51.225 136.062,51.225 136.062,50.625" style="fill:none;stroke-width:0.050000mm;stroke:black"/>
<polygon points="103.012,50.625 103.012,51.225 102.212,51.225 102.212,64.025 103.012,64.025 103.012,64.625 117.012,64.625 117.012,64.025 117.812,64.025 117.812,51.225 117.012,51.225 117.012,50.625" style="fill:none;stroke-width:0.050000mm;stroke:black"/>
<polygon points="83.962,50.625 83.962,51.225 83.162,51.225 83.162,64.025 83.962,64.025 83.962,64.625 97.962,64.625 97.962,64.025 98.762,64.025 98.762,51.225 97.962,51.225 97.962,50.625" style="fill:none;stroke-width:0.050000mm;stroke:black"/>
<polygon points="64.912,50.625 64.912,51.225 64.111,51.225 64.111,64.025 64.912,64.025 64.912,64.625 78.912,64.625 78.912,64.025 79.712,64.025 79.712,51.225 78.912,51.225 78.912,50.625" style="fill:none;stroke-width:0.050000mm;stroke:black"/>
<polygon points="38.718,50.625 38.718,51.225 37.918,51.225 37.918,64.025 38.718,64.025 38.718,64.625 52.718,64.625 52.718,64.025 53.518,64.025 53.518,51.225 52.718,51.225 52.718,50.625" style="fill:none;stroke-width:0.050000mm;stroke:black"/>
<polygon points="12.524,50.625 12.524,51.225 11.724,51.225 11.724,64.025 12.524,64.025 12.524,64.625 26.525,64.625 26.525,64.025 27.325,64.025 27.325,51.225 26.525,51.225 26.525,50.625" style="fill:none;stroke-width:0.050000mm;stroke:black"/>
<polygon points="136.350,31.575 136.350,32.174 135.549,32.174 135.549,44.975 136.350,44.975 136.350,45.575 150.350,45.575 150.350,44.975 151.150,44.975 151.150,32.174 150.350,32.174 150.350,31.575" style="fill:none;stroke-width:0.050000mm;stroke:black"/>
<polygon points="117.300,31.575 117.300,32.174 116.500,32.174 116.500,44.975 117.300,44.975 117.300,45.575 131.300,45.575 131.300,44.975 132.100,44.975 132.100,32.174 131.300,32.174 131.300,31.575" style="fill:none;stroke-width:0.050000mm;stroke:black"/>
<polygon points="98.250,31.575 98.250,32.174 97.450,32.174 97.450,44.975 98.250,44.975 98.250,45.575 112.250,45.575 112.250,44.975 113.050,44.975 113.050,32.174 112.250,32.174 112.250,31.575" style="fill:none;stroke-width:0.050000mm;stroke:black"/>
<polygon points="79.200,31.575 79.200,32.174 78.400,32.174 78.400,44.975 79.200,44.975 79.200,45.575 93.200,45.575 93.200,44.975 94.000,44.975 94.000,32.174 93.200,32.174 93.200,31.575" style="fill:none;stroke-width:0.050000mm;stroke:black"/>
<polygon points="60.150,31.575 60.150,32.174 59.350,32.174 59.350,44.975 60.150,44.975 60.150,45.575 74.150,45.575 74.150,44.975 74.950,44.975 74.950,32.174 74.150,32.174 74.150,31.575" style="fill:none;stroke-width:0.050000mm;stroke:black"/>
<polygon points="36.337,31.575 36.337,32.174 35.537,32.174 35.537,44.975 36.337,44.975 36.337,45.575 50.337,45.575 50.337,44.975 51.137,44.975 51.137,32.174 50.337,32.174 50.337,31.575" style="fill:none;stroke-width:0.050000mm;stroke:black"/>
<polygon points="12.524,31.575 12.524,32.174 11.724,32.174 11.724,44.975 12.524,44.975 12.524,45.575 26.525,45.575 26.525,44.975 27.325,44.975 27.325,32.174 26.525,32.174 26.525,31.575" style="fill:none;stroke-width:0.050000mm;stroke:black"/>
<polygon points="126.824,12.524 126.824,13.124 126.024,13.124 126.024,25.924 126.824,25.924 126.824,26.525 140.825,26.525 140.825,25.924 141.625,25.924 141.625,13.124 140.825,13.124 140.825,12.524" style="fill:none;stroke-width:0.050000mm;stroke:black"/>
<polygon points="107.774,12.524 107.774,13.124 106.975,13.124 106.975,25.924 107.774,25.924 107.774,26.525 121.774,26.525 121.774,25.924 122.574,25.924 122.574,13.124 121.774,13.124 121.774,12.524" style="fill:none;stroke-width:0.050000mm;stroke:black"/>
<polygon points="88.725,12.524 88.725,13.124 87.925,13.124 87.925,25.924 88.725,25.924 88.725,26.525 102.725,26.525 102.725,25.924 103.524,25.924 103.524,13.124 102.725,13.124 102.725,12.524" style="fill:none;stroke-width:0.050000mm;stroke:black"/>
<polygon points="69.675,12.524 69.675,13.124 68.875,13.124 68.875,25.924 69.675,25.924 69.675,26.525 83.675,26.525 83.675,25.924 84.475,25.924 84.475,13.124 83.675,13.124 83.675,12.524" style="fill:none;stroke-width:0.050000mm;stroke:black"/>
<polygon points="50.625,12.524 50.625,13.124 49.825,13.124 49.825,25.924 50.625,25.924 50.625,26.525 64.625,26.525 64.625,25.924 65.425,25.924 65.425,13.124 64.625,13.124 64.625,12.524" style="fill:none;stroke-width:0.050000mm;stroke:black"/>
<polygon points="31.575,12.524 31.575,13.124 30.775,13.124 30.775,25.924 31.575,25.924 31.575,26.525 45.575,26.525 45.575,25.924 46.375,25.924 46.375,13.124 45.575,13.124 45.575,12.524" style="fill:none;stroke-width:0.050000mm;stroke:black"/>
<polygon points="12.524,12.524 12.524,13.124 11.724,13.124 11.724,25.924 12.524,25.924 12.524,26.525 26.525,26.525 26.525,25.924 27.325,25.924 27.325,13.124 26.525,13.124 26.525,12.524" style="fill:none;stroke-width:0.050000mm;stroke:black"/>
</svg>
